G04 #@! TF.GenerationSoftware,KiCad,Pcbnew,(5.1.2)-1*
G04 #@! TF.CreationDate,2019-05-23T20:14:08-05:00*
G04 #@! TF.ProjectId,m68k,6d36386b-2e6b-4696-9361-645f70636258,rev?*
G04 #@! TF.SameCoordinates,Original*
G04 #@! TF.FileFunction,Legend,Bot*
G04 #@! TF.FilePolarity,Positive*
%FSLAX46Y46*%
G04 Gerber Fmt 4.6, Leading zero omitted, Abs format (unit mm)*
G04 Created by KiCad (PCBNEW (5.1.2)-1) date 2019-05-23 20:14:08*
%MOMM*%
%LPD*%
G04 APERTURE LIST*
%ADD10C,0.120000*%
%ADD11C,0.150000*%
G04 APERTURE END LIST*
D10*
X94010000Y-49112779D02*
X94010000Y-48787221D01*
X92990000Y-49112779D02*
X92990000Y-48787221D01*
X92862779Y-58990000D02*
X92537221Y-58990000D01*
X92862779Y-60010000D02*
X92537221Y-60010000D01*
X82662779Y-45010000D02*
X82337221Y-45010000D01*
X82662779Y-43990000D02*
X82337221Y-43990000D01*
X114010221Y-55856600D02*
X114335779Y-55856600D01*
X114010221Y-54836600D02*
X114335779Y-54836600D01*
D11*
X81825000Y-38525000D02*
X77175000Y-38525000D01*
X82900000Y-30425000D02*
X77175000Y-30425000D01*
X81825000Y-38525000D02*
X81825000Y-38500000D01*
X77175000Y-38525000D02*
X77175000Y-38500000D01*
X77175000Y-30475000D02*
X77175000Y-30500000D01*
X77175000Y-21725000D02*
X77175000Y-21750000D01*
X77175000Y-29775000D02*
X77175000Y-29750000D01*
X81825000Y-29775000D02*
X81825000Y-29750000D01*
X82900000Y-21675000D02*
X77175000Y-21675000D01*
X81825000Y-29775000D02*
X77175000Y-29775000D01*
D10*
X82710000Y-58912779D02*
X82710000Y-58587221D01*
X81690000Y-58912779D02*
X81690000Y-58587221D01*
X94830960Y-86615301D02*
X94830960Y-86940859D01*
X95850960Y-86615301D02*
X95850960Y-86940859D01*
X93302360Y-86613781D02*
X93302360Y-86939339D01*
X94322360Y-86613781D02*
X94322360Y-86939339D01*
X84662779Y-57760000D02*
X84337221Y-57760000D01*
X84662779Y-56740000D02*
X84337221Y-56740000D01*
X84662779Y-58240000D02*
X84337221Y-58240000D01*
X84662779Y-59260000D02*
X84337221Y-59260000D01*
X82662779Y-43510000D02*
X82337221Y-43510000D01*
X82662779Y-42490000D02*
X82337221Y-42490000D01*
X86837221Y-42490000D02*
X87162779Y-42490000D01*
X86837221Y-43510000D02*
X87162779Y-43510000D01*
X86837221Y-45010000D02*
X87162779Y-45010000D01*
X86837221Y-43990000D02*
X87162779Y-43990000D01*
X81210000Y-58912779D02*
X81210000Y-58587221D01*
X80190000Y-58912779D02*
X80190000Y-58587221D01*
X37010000Y-28837221D02*
X37010000Y-29162779D01*
X35990000Y-28837221D02*
X35990000Y-29162779D01*
X92862779Y-54010000D02*
X92537221Y-54010000D01*
X92862779Y-52990000D02*
X92537221Y-52990000D01*
X92862779Y-51490000D02*
X92537221Y-51490000D01*
X92862779Y-52510000D02*
X92537221Y-52510000D01*
X106766579Y-52576000D02*
X106441021Y-52576000D01*
X106766579Y-53596000D02*
X106441021Y-53596000D01*
X78690000Y-58912779D02*
X78690000Y-58587221D01*
X79710000Y-58912779D02*
X79710000Y-58587221D01*
X106767579Y-54117300D02*
X106442021Y-54117300D01*
X106767579Y-55137300D02*
X106442021Y-55137300D01*
X78387221Y-55940000D02*
X78712779Y-55940000D01*
X78387221Y-56960000D02*
X78712779Y-56960000D01*
X36948840Y-24393941D02*
X36948840Y-24719499D01*
X35928840Y-24393941D02*
X35928840Y-24719499D01*
X32162779Y-21990000D02*
X31837221Y-21990000D01*
X32162779Y-23010000D02*
X31837221Y-23010000D01*
X75260000Y-21837221D02*
X75260000Y-22162779D01*
X74240000Y-21837221D02*
X74240000Y-22162779D01*
X72490000Y-21837221D02*
X72490000Y-22162779D01*
X73510000Y-21837221D02*
X73510000Y-22162779D01*
X91783440Y-86273859D02*
X91783440Y-85948301D01*
X92803440Y-86273859D02*
X92803440Y-85948301D01*
X32162779Y-27760000D02*
X31837221Y-27760000D01*
X32162779Y-26740000D02*
X31837221Y-26740000D01*
X75510000Y-30662779D02*
X75510000Y-30337221D01*
X74490000Y-30662779D02*
X74490000Y-30337221D01*
X37010000Y-33837221D02*
X37010000Y-34162779D01*
X35990000Y-33837221D02*
X35990000Y-34162779D01*
X72740000Y-30662779D02*
X72740000Y-30337221D01*
X73760000Y-30662779D02*
X73760000Y-30337221D01*
X59990000Y-21837221D02*
X59990000Y-22162779D01*
X61010000Y-21837221D02*
X61010000Y-22162779D01*
X32162779Y-31490000D02*
X31837221Y-31490000D01*
X32162779Y-32510000D02*
X31837221Y-32510000D01*
X86837221Y-21490000D02*
X87162779Y-21490000D01*
X86837221Y-22510000D02*
X87162779Y-22510000D01*
X86837221Y-30240000D02*
X87162779Y-30240000D01*
X86837221Y-31260000D02*
X87162779Y-31260000D01*
X103619840Y-54041259D02*
X103619840Y-53715701D01*
X104639840Y-54041259D02*
X104639840Y-53715701D01*
X94010000Y-43587221D02*
X94010000Y-43912779D01*
X92990000Y-43587221D02*
X92990000Y-43912779D01*
X87337221Y-57490000D02*
X87662779Y-57490000D01*
X87337221Y-58510000D02*
X87662779Y-58510000D01*
X114010221Y-52757800D02*
X114335779Y-52757800D01*
X114010221Y-51737800D02*
X114335779Y-51737800D01*
X114010221Y-53287200D02*
X114335779Y-53287200D01*
X114010221Y-54307200D02*
X114335779Y-54307200D01*
X90240000Y-45330000D02*
X90240000Y-44400000D01*
X90240000Y-42170000D02*
X90240000Y-43100000D01*
X90240000Y-42170000D02*
X92400000Y-42170000D01*
X90240000Y-45330000D02*
X91700000Y-45330000D01*
D11*
X95556542Y-48335842D02*
X95604161Y-48288223D01*
X95651780Y-48145366D01*
X95651780Y-48050128D01*
X95604161Y-47907271D01*
X95508923Y-47812033D01*
X95413685Y-47764414D01*
X95223209Y-47716795D01*
X95080352Y-47716795D01*
X94889876Y-47764414D01*
X94794638Y-47812033D01*
X94699400Y-47907271D01*
X94651780Y-48050128D01*
X94651780Y-48145366D01*
X94699400Y-48288223D01*
X94747019Y-48335842D01*
X94985114Y-49192985D02*
X95651780Y-49192985D01*
X94604161Y-48954890D02*
X95318447Y-48716795D01*
X95318447Y-49335842D01*
X95651780Y-50240604D02*
X95651780Y-49669176D01*
X95651780Y-49954890D02*
X94651780Y-49954890D01*
X94794638Y-49859652D01*
X94889876Y-49764414D01*
X94937495Y-49669176D01*
X93342857Y-58427142D02*
X93390476Y-58474761D01*
X93533333Y-58522380D01*
X93628571Y-58522380D01*
X93771428Y-58474761D01*
X93866666Y-58379523D01*
X93914285Y-58284285D01*
X93961904Y-58093809D01*
X93961904Y-57950952D01*
X93914285Y-57760476D01*
X93866666Y-57665238D01*
X93771428Y-57570000D01*
X93628571Y-57522380D01*
X93533333Y-57522380D01*
X93390476Y-57570000D01*
X93342857Y-57617619D01*
X92485714Y-57522380D02*
X92676190Y-57522380D01*
X92771428Y-57570000D01*
X92819047Y-57617619D01*
X92914285Y-57760476D01*
X92961904Y-57950952D01*
X92961904Y-58331904D01*
X92914285Y-58427142D01*
X92866666Y-58474761D01*
X92771428Y-58522380D01*
X92580952Y-58522380D01*
X92485714Y-58474761D01*
X92438095Y-58427142D01*
X92390476Y-58331904D01*
X92390476Y-58093809D01*
X92438095Y-57998571D01*
X92485714Y-57950952D01*
X92580952Y-57903333D01*
X92771428Y-57903333D01*
X92866666Y-57950952D01*
X92914285Y-57998571D01*
X92961904Y-58093809D01*
X92057142Y-57522380D02*
X91390476Y-57522380D01*
X91819047Y-58522380D01*
X83242857Y-46757142D02*
X83290476Y-46804761D01*
X83433333Y-46852380D01*
X83528571Y-46852380D01*
X83671428Y-46804761D01*
X83766666Y-46709523D01*
X83814285Y-46614285D01*
X83861904Y-46423809D01*
X83861904Y-46280952D01*
X83814285Y-46090476D01*
X83766666Y-45995238D01*
X83671428Y-45900000D01*
X83528571Y-45852380D01*
X83433333Y-45852380D01*
X83290476Y-45900000D01*
X83242857Y-45947619D01*
X82290476Y-46852380D02*
X82861904Y-46852380D01*
X82576190Y-46852380D02*
X82576190Y-45852380D01*
X82671428Y-45995238D01*
X82766666Y-46090476D01*
X82861904Y-46138095D01*
X81957142Y-45852380D02*
X81338095Y-45852380D01*
X81671428Y-46233333D01*
X81528571Y-46233333D01*
X81433333Y-46280952D01*
X81385714Y-46328571D01*
X81338095Y-46423809D01*
X81338095Y-46661904D01*
X81385714Y-46757142D01*
X81433333Y-46804761D01*
X81528571Y-46852380D01*
X81814285Y-46852380D01*
X81909523Y-46804761D01*
X81957142Y-46757142D01*
X118042857Y-55802380D02*
X118376190Y-55326190D01*
X118614285Y-55802380D02*
X118614285Y-54802380D01*
X118233333Y-54802380D01*
X118138095Y-54850000D01*
X118090476Y-54897619D01*
X118042857Y-54992857D01*
X118042857Y-55135714D01*
X118090476Y-55230952D01*
X118138095Y-55278571D01*
X118233333Y-55326190D01*
X118614285Y-55326190D01*
X117090476Y-55802380D02*
X117661904Y-55802380D01*
X117376190Y-55802380D02*
X117376190Y-54802380D01*
X117471428Y-54945238D01*
X117566666Y-55040476D01*
X117661904Y-55088095D01*
X116614285Y-55802380D02*
X116423809Y-55802380D01*
X116328571Y-55754761D01*
X116280952Y-55707142D01*
X116185714Y-55564285D01*
X116138095Y-55373809D01*
X116138095Y-54992857D01*
X116185714Y-54897619D01*
X116233333Y-54850000D01*
X116328571Y-54802380D01*
X116519047Y-54802380D01*
X116614285Y-54850000D01*
X116661904Y-54897619D01*
X116709523Y-54992857D01*
X116709523Y-55230952D01*
X116661904Y-55326190D01*
X116614285Y-55373809D01*
X116519047Y-55421428D01*
X116328571Y-55421428D01*
X116233333Y-55373809D01*
X116185714Y-55326190D01*
X116138095Y-55230952D01*
X85011904Y-29227380D02*
X85011904Y-30036904D01*
X84964285Y-30132142D01*
X84916666Y-30179761D01*
X84821428Y-30227380D01*
X84630952Y-30227380D01*
X84535714Y-30179761D01*
X84488095Y-30132142D01*
X84440476Y-30036904D01*
X84440476Y-29227380D01*
X83821428Y-29655952D02*
X83916666Y-29608333D01*
X83964285Y-29560714D01*
X84011904Y-29465476D01*
X84011904Y-29417857D01*
X83964285Y-29322619D01*
X83916666Y-29275000D01*
X83821428Y-29227380D01*
X83630952Y-29227380D01*
X83535714Y-29275000D01*
X83488095Y-29322619D01*
X83440476Y-29417857D01*
X83440476Y-29465476D01*
X83488095Y-29560714D01*
X83535714Y-29608333D01*
X83630952Y-29655952D01*
X83821428Y-29655952D01*
X83916666Y-29703571D01*
X83964285Y-29751190D01*
X84011904Y-29846428D01*
X84011904Y-30036904D01*
X83964285Y-30132142D01*
X83916666Y-30179761D01*
X83821428Y-30227380D01*
X83630952Y-30227380D01*
X83535714Y-30179761D01*
X83488095Y-30132142D01*
X83440476Y-30036904D01*
X83440476Y-29846428D01*
X83488095Y-29751190D01*
X83535714Y-29703571D01*
X83630952Y-29655952D01*
X84686904Y-20352380D02*
X84686904Y-21161904D01*
X84639285Y-21257142D01*
X84591666Y-21304761D01*
X84496428Y-21352380D01*
X84305952Y-21352380D01*
X84210714Y-21304761D01*
X84163095Y-21257142D01*
X84115476Y-21161904D01*
X84115476Y-20352380D01*
X83734523Y-20352380D02*
X83067857Y-20352380D01*
X83496428Y-21352380D01*
X82507142Y-54707142D02*
X82554761Y-54659523D01*
X82602380Y-54516666D01*
X82602380Y-54421428D01*
X82554761Y-54278571D01*
X82459523Y-54183333D01*
X82364285Y-54135714D01*
X82173809Y-54088095D01*
X82030952Y-54088095D01*
X81840476Y-54135714D01*
X81745238Y-54183333D01*
X81650000Y-54278571D01*
X81602380Y-54421428D01*
X81602380Y-54516666D01*
X81650000Y-54659523D01*
X81697619Y-54707142D01*
X81602380Y-55611904D02*
X81602380Y-55135714D01*
X82078571Y-55088095D01*
X82030952Y-55135714D01*
X81983333Y-55230952D01*
X81983333Y-55469047D01*
X82030952Y-55564285D01*
X82078571Y-55611904D01*
X82173809Y-55659523D01*
X82411904Y-55659523D01*
X82507142Y-55611904D01*
X82554761Y-55564285D01*
X82602380Y-55469047D01*
X82602380Y-55230952D01*
X82554761Y-55135714D01*
X82507142Y-55088095D01*
X82030952Y-56230952D02*
X81983333Y-56135714D01*
X81935714Y-56088095D01*
X81840476Y-56040476D01*
X81792857Y-56040476D01*
X81697619Y-56088095D01*
X81650000Y-56135714D01*
X81602380Y-56230952D01*
X81602380Y-56421428D01*
X81650000Y-56516666D01*
X81697619Y-56564285D01*
X81792857Y-56611904D01*
X81840476Y-56611904D01*
X81935714Y-56564285D01*
X81983333Y-56516666D01*
X82030952Y-56421428D01*
X82030952Y-56230952D01*
X82078571Y-56135714D01*
X82126190Y-56088095D01*
X82221428Y-56040476D01*
X82411904Y-56040476D01*
X82507142Y-56088095D01*
X82554761Y-56135714D01*
X82602380Y-56230952D01*
X82602380Y-56421428D01*
X82554761Y-56516666D01*
X82507142Y-56564285D01*
X82411904Y-56611904D01*
X82221428Y-56611904D01*
X82126190Y-56564285D01*
X82078571Y-56516666D01*
X82030952Y-56421428D01*
X95757142Y-89283333D02*
X95804761Y-89235714D01*
X95852380Y-89092857D01*
X95852380Y-88997619D01*
X95804761Y-88854761D01*
X95709523Y-88759523D01*
X95614285Y-88711904D01*
X95423809Y-88664285D01*
X95280952Y-88664285D01*
X95090476Y-88711904D01*
X94995238Y-88759523D01*
X94900000Y-88854761D01*
X94852380Y-88997619D01*
X94852380Y-89092857D01*
X94900000Y-89235714D01*
X94947619Y-89283333D01*
X94852380Y-90188095D02*
X94852380Y-89711904D01*
X95328571Y-89664285D01*
X95280952Y-89711904D01*
X95233333Y-89807142D01*
X95233333Y-90045238D01*
X95280952Y-90140476D01*
X95328571Y-90188095D01*
X95423809Y-90235714D01*
X95661904Y-90235714D01*
X95757142Y-90188095D01*
X95804761Y-90140476D01*
X95852380Y-90045238D01*
X95852380Y-89807142D01*
X95804761Y-89711904D01*
X95757142Y-89664285D01*
X94207142Y-89283333D02*
X94254761Y-89235714D01*
X94302380Y-89092857D01*
X94302380Y-88997619D01*
X94254761Y-88854761D01*
X94159523Y-88759523D01*
X94064285Y-88711904D01*
X93873809Y-88664285D01*
X93730952Y-88664285D01*
X93540476Y-88711904D01*
X93445238Y-88759523D01*
X93350000Y-88854761D01*
X93302380Y-88997619D01*
X93302380Y-89092857D01*
X93350000Y-89235714D01*
X93397619Y-89283333D01*
X93302380Y-90140476D02*
X93302380Y-89950000D01*
X93350000Y-89854761D01*
X93397619Y-89807142D01*
X93540476Y-89711904D01*
X93730952Y-89664285D01*
X94111904Y-89664285D01*
X94207142Y-89711904D01*
X94254761Y-89759523D01*
X94302380Y-89854761D01*
X94302380Y-90045238D01*
X94254761Y-90140476D01*
X94207142Y-90188095D01*
X94111904Y-90235714D01*
X93873809Y-90235714D01*
X93778571Y-90188095D01*
X93730952Y-90140476D01*
X93683333Y-90045238D01*
X93683333Y-89854761D01*
X93730952Y-89759523D01*
X93778571Y-89711904D01*
X93873809Y-89664285D01*
X84666666Y-55157142D02*
X84714285Y-55204761D01*
X84857142Y-55252380D01*
X84952380Y-55252380D01*
X85095238Y-55204761D01*
X85190476Y-55109523D01*
X85238095Y-55014285D01*
X85285714Y-54823809D01*
X85285714Y-54680952D01*
X85238095Y-54490476D01*
X85190476Y-54395238D01*
X85095238Y-54300000D01*
X84952380Y-54252380D01*
X84857142Y-54252380D01*
X84714285Y-54300000D01*
X84666666Y-54347619D01*
X84190476Y-55252380D02*
X84000000Y-55252380D01*
X83904761Y-55204761D01*
X83857142Y-55157142D01*
X83761904Y-55014285D01*
X83714285Y-54823809D01*
X83714285Y-54442857D01*
X83761904Y-54347619D01*
X83809523Y-54300000D01*
X83904761Y-54252380D01*
X84095238Y-54252380D01*
X84190476Y-54300000D01*
X84238095Y-54347619D01*
X84285714Y-54442857D01*
X84285714Y-54680952D01*
X84238095Y-54776190D01*
X84190476Y-54823809D01*
X84095238Y-54871428D01*
X83904761Y-54871428D01*
X83809523Y-54823809D01*
X83761904Y-54776190D01*
X83714285Y-54680952D01*
X85192857Y-62357142D02*
X85240476Y-62404761D01*
X85383333Y-62452380D01*
X85478571Y-62452380D01*
X85621428Y-62404761D01*
X85716666Y-62309523D01*
X85764285Y-62214285D01*
X85811904Y-62023809D01*
X85811904Y-61880952D01*
X85764285Y-61690476D01*
X85716666Y-61595238D01*
X85621428Y-61500000D01*
X85478571Y-61452380D01*
X85383333Y-61452380D01*
X85240476Y-61500000D01*
X85192857Y-61547619D01*
X84240476Y-62452380D02*
X84811904Y-62452380D01*
X84526190Y-62452380D02*
X84526190Y-61452380D01*
X84621428Y-61595238D01*
X84716666Y-61690476D01*
X84811904Y-61738095D01*
X83621428Y-61452380D02*
X83526190Y-61452380D01*
X83430952Y-61500000D01*
X83383333Y-61547619D01*
X83335714Y-61642857D01*
X83288095Y-61833333D01*
X83288095Y-62071428D01*
X83335714Y-62261904D01*
X83383333Y-62357142D01*
X83430952Y-62404761D01*
X83526190Y-62452380D01*
X83621428Y-62452380D01*
X83716666Y-62404761D01*
X83764285Y-62357142D01*
X83811904Y-62261904D01*
X83859523Y-62071428D01*
X83859523Y-61833333D01*
X83811904Y-61642857D01*
X83764285Y-61547619D01*
X83716666Y-61500000D01*
X83621428Y-61452380D01*
X83192857Y-40707142D02*
X83240476Y-40754761D01*
X83383333Y-40802380D01*
X83478571Y-40802380D01*
X83621428Y-40754761D01*
X83716666Y-40659523D01*
X83764285Y-40564285D01*
X83811904Y-40373809D01*
X83811904Y-40230952D01*
X83764285Y-40040476D01*
X83716666Y-39945238D01*
X83621428Y-39850000D01*
X83478571Y-39802380D01*
X83383333Y-39802380D01*
X83240476Y-39850000D01*
X83192857Y-39897619D01*
X82240476Y-40802380D02*
X82811904Y-40802380D01*
X82526190Y-40802380D02*
X82526190Y-39802380D01*
X82621428Y-39945238D01*
X82716666Y-40040476D01*
X82811904Y-40088095D01*
X81288095Y-40802380D02*
X81859523Y-40802380D01*
X81573809Y-40802380D02*
X81573809Y-39802380D01*
X81669047Y-39945238D01*
X81764285Y-40040476D01*
X81859523Y-40088095D01*
X87592857Y-40407142D02*
X87640476Y-40454761D01*
X87783333Y-40502380D01*
X87878571Y-40502380D01*
X88021428Y-40454761D01*
X88116666Y-40359523D01*
X88164285Y-40264285D01*
X88211904Y-40073809D01*
X88211904Y-39930952D01*
X88164285Y-39740476D01*
X88116666Y-39645238D01*
X88021428Y-39550000D01*
X87878571Y-39502380D01*
X87783333Y-39502380D01*
X87640476Y-39550000D01*
X87592857Y-39597619D01*
X86640476Y-40502380D02*
X87211904Y-40502380D01*
X86926190Y-40502380D02*
X86926190Y-39502380D01*
X87021428Y-39645238D01*
X87116666Y-39740476D01*
X87211904Y-39788095D01*
X86259523Y-39597619D02*
X86211904Y-39550000D01*
X86116666Y-39502380D01*
X85878571Y-39502380D01*
X85783333Y-39550000D01*
X85735714Y-39597619D01*
X85688095Y-39692857D01*
X85688095Y-39788095D01*
X85735714Y-39930952D01*
X86307142Y-40502380D01*
X85688095Y-40502380D01*
X87692857Y-46607142D02*
X87740476Y-46654761D01*
X87883333Y-46702380D01*
X87978571Y-46702380D01*
X88121428Y-46654761D01*
X88216666Y-46559523D01*
X88264285Y-46464285D01*
X88311904Y-46273809D01*
X88311904Y-46130952D01*
X88264285Y-45940476D01*
X88216666Y-45845238D01*
X88121428Y-45750000D01*
X87978571Y-45702380D01*
X87883333Y-45702380D01*
X87740476Y-45750000D01*
X87692857Y-45797619D01*
X86740476Y-46702380D02*
X87311904Y-46702380D01*
X87026190Y-46702380D02*
X87026190Y-45702380D01*
X87121428Y-45845238D01*
X87216666Y-45940476D01*
X87311904Y-45988095D01*
X85883333Y-46035714D02*
X85883333Y-46702380D01*
X86121428Y-45654761D02*
X86359523Y-46369047D01*
X85740476Y-46369047D01*
X81107142Y-53607142D02*
X81154761Y-53559523D01*
X81202380Y-53416666D01*
X81202380Y-53321428D01*
X81154761Y-53178571D01*
X81059523Y-53083333D01*
X80964285Y-53035714D01*
X80773809Y-52988095D01*
X80630952Y-52988095D01*
X80440476Y-53035714D01*
X80345238Y-53083333D01*
X80250000Y-53178571D01*
X80202380Y-53321428D01*
X80202380Y-53416666D01*
X80250000Y-53559523D01*
X80297619Y-53607142D01*
X81202380Y-54559523D02*
X81202380Y-53988095D01*
X81202380Y-54273809D02*
X80202380Y-54273809D01*
X80345238Y-54178571D01*
X80440476Y-54083333D01*
X80488095Y-53988095D01*
X80202380Y-55464285D02*
X80202380Y-54988095D01*
X80678571Y-54940476D01*
X80630952Y-54988095D01*
X80583333Y-55083333D01*
X80583333Y-55321428D01*
X80630952Y-55416666D01*
X80678571Y-55464285D01*
X80773809Y-55511904D01*
X81011904Y-55511904D01*
X81107142Y-55464285D01*
X81154761Y-55416666D01*
X81202380Y-55321428D01*
X81202380Y-55083333D01*
X81154761Y-54988095D01*
X81107142Y-54940476D01*
X38907142Y-28307142D02*
X38954761Y-28259523D01*
X39002380Y-28116666D01*
X39002380Y-28021428D01*
X38954761Y-27878571D01*
X38859523Y-27783333D01*
X38764285Y-27735714D01*
X38573809Y-27688095D01*
X38430952Y-27688095D01*
X38240476Y-27735714D01*
X38145238Y-27783333D01*
X38050000Y-27878571D01*
X38002380Y-28021428D01*
X38002380Y-28116666D01*
X38050000Y-28259523D01*
X38097619Y-28307142D01*
X39002380Y-29259523D02*
X39002380Y-28688095D01*
X39002380Y-28973809D02*
X38002380Y-28973809D01*
X38145238Y-28878571D01*
X38240476Y-28783333D01*
X38288095Y-28688095D01*
X38002380Y-30116666D02*
X38002380Y-29926190D01*
X38050000Y-29830952D01*
X38097619Y-29783333D01*
X38240476Y-29688095D01*
X38430952Y-29640476D01*
X38811904Y-29640476D01*
X38907142Y-29688095D01*
X38954761Y-29735714D01*
X39002380Y-29830952D01*
X39002380Y-30021428D01*
X38954761Y-30116666D01*
X38907142Y-30164285D01*
X38811904Y-30211904D01*
X38573809Y-30211904D01*
X38478571Y-30164285D01*
X38430952Y-30116666D01*
X38383333Y-30021428D01*
X38383333Y-29830952D01*
X38430952Y-29735714D01*
X38478571Y-29688095D01*
X38573809Y-29640476D01*
X89991377Y-53924102D02*
X90038996Y-53971721D01*
X90181853Y-54019340D01*
X90277091Y-54019340D01*
X90419948Y-53971721D01*
X90515186Y-53876483D01*
X90562805Y-53781245D01*
X90610424Y-53590769D01*
X90610424Y-53447912D01*
X90562805Y-53257436D01*
X90515186Y-53162198D01*
X90419948Y-53066960D01*
X90277091Y-53019340D01*
X90181853Y-53019340D01*
X90038996Y-53066960D01*
X89991377Y-53114579D01*
X89610424Y-53114579D02*
X89562805Y-53066960D01*
X89467567Y-53019340D01*
X89229472Y-53019340D01*
X89134234Y-53066960D01*
X89086615Y-53114579D01*
X89038996Y-53209817D01*
X89038996Y-53305055D01*
X89086615Y-53447912D01*
X89658043Y-54019340D01*
X89038996Y-54019340D01*
X88086615Y-54019340D02*
X88658043Y-54019340D01*
X88372329Y-54019340D02*
X88372329Y-53019340D01*
X88467567Y-53162198D01*
X88562805Y-53257436D01*
X88658043Y-53305055D01*
X89926137Y-52264142D02*
X89973756Y-52311761D01*
X90116613Y-52359380D01*
X90211851Y-52359380D01*
X90354708Y-52311761D01*
X90449946Y-52216523D01*
X90497565Y-52121285D01*
X90545184Y-51930809D01*
X90545184Y-51787952D01*
X90497565Y-51597476D01*
X90449946Y-51502238D01*
X90354708Y-51407000D01*
X90211851Y-51359380D01*
X90116613Y-51359380D01*
X89973756Y-51407000D01*
X89926137Y-51454619D01*
X89545184Y-51454619D02*
X89497565Y-51407000D01*
X89402327Y-51359380D01*
X89164232Y-51359380D01*
X89068994Y-51407000D01*
X89021375Y-51454619D01*
X88973756Y-51549857D01*
X88973756Y-51645095D01*
X89021375Y-51787952D01*
X89592803Y-52359380D01*
X88973756Y-52359380D01*
X88592803Y-51454619D02*
X88545184Y-51407000D01*
X88449946Y-51359380D01*
X88211851Y-51359380D01*
X88116613Y-51407000D01*
X88068994Y-51454619D01*
X88021375Y-51549857D01*
X88021375Y-51645095D01*
X88068994Y-51787952D01*
X88640422Y-52359380D01*
X88021375Y-52359380D01*
X107292857Y-52207142D02*
X107340476Y-52254761D01*
X107483333Y-52302380D01*
X107578571Y-52302380D01*
X107721428Y-52254761D01*
X107816666Y-52159523D01*
X107864285Y-52064285D01*
X107911904Y-51873809D01*
X107911904Y-51730952D01*
X107864285Y-51540476D01*
X107816666Y-51445238D01*
X107721428Y-51350000D01*
X107578571Y-51302380D01*
X107483333Y-51302380D01*
X107340476Y-51350000D01*
X107292857Y-51397619D01*
X106959523Y-51302380D02*
X106340476Y-51302380D01*
X106673809Y-51683333D01*
X106530952Y-51683333D01*
X106435714Y-51730952D01*
X106388095Y-51778571D01*
X106340476Y-51873809D01*
X106340476Y-52111904D01*
X106388095Y-52207142D01*
X106435714Y-52254761D01*
X106530952Y-52302380D01*
X106816666Y-52302380D01*
X106911904Y-52254761D01*
X106959523Y-52207142D01*
X105721428Y-51302380D02*
X105626190Y-51302380D01*
X105530952Y-51350000D01*
X105483333Y-51397619D01*
X105435714Y-51492857D01*
X105388095Y-51683333D01*
X105388095Y-51921428D01*
X105435714Y-52111904D01*
X105483333Y-52207142D01*
X105530952Y-52254761D01*
X105626190Y-52302380D01*
X105721428Y-52302380D01*
X105816666Y-52254761D01*
X105864285Y-52207142D01*
X105911904Y-52111904D01*
X105959523Y-51921428D01*
X105959523Y-51683333D01*
X105911904Y-51492857D01*
X105864285Y-51397619D01*
X105816666Y-51350000D01*
X105721428Y-51302380D01*
X79457142Y-61907142D02*
X79504761Y-61859523D01*
X79552380Y-61716666D01*
X79552380Y-61621428D01*
X79504761Y-61478571D01*
X79409523Y-61383333D01*
X79314285Y-61335714D01*
X79123809Y-61288095D01*
X78980952Y-61288095D01*
X78790476Y-61335714D01*
X78695238Y-61383333D01*
X78600000Y-61478571D01*
X78552380Y-61621428D01*
X78552380Y-61716666D01*
X78600000Y-61859523D01*
X78647619Y-61907142D01*
X78552380Y-62240476D02*
X78552380Y-62859523D01*
X78933333Y-62526190D01*
X78933333Y-62669047D01*
X78980952Y-62764285D01*
X79028571Y-62811904D01*
X79123809Y-62859523D01*
X79361904Y-62859523D01*
X79457142Y-62811904D01*
X79504761Y-62764285D01*
X79552380Y-62669047D01*
X79552380Y-62383333D01*
X79504761Y-62288095D01*
X79457142Y-62240476D01*
X78552380Y-63192857D02*
X78552380Y-63811904D01*
X78933333Y-63478571D01*
X78933333Y-63621428D01*
X78980952Y-63716666D01*
X79028571Y-63764285D01*
X79123809Y-63811904D01*
X79361904Y-63811904D01*
X79457142Y-63764285D01*
X79504761Y-63716666D01*
X79552380Y-63621428D01*
X79552380Y-63335714D01*
X79504761Y-63240476D01*
X79457142Y-63192857D01*
X107442857Y-57557142D02*
X107490476Y-57604761D01*
X107633333Y-57652380D01*
X107728571Y-57652380D01*
X107871428Y-57604761D01*
X107966666Y-57509523D01*
X108014285Y-57414285D01*
X108061904Y-57223809D01*
X108061904Y-57080952D01*
X108014285Y-56890476D01*
X107966666Y-56795238D01*
X107871428Y-56700000D01*
X107728571Y-56652380D01*
X107633333Y-56652380D01*
X107490476Y-56700000D01*
X107442857Y-56747619D01*
X107109523Y-56652380D02*
X106490476Y-56652380D01*
X106823809Y-57033333D01*
X106680952Y-57033333D01*
X106585714Y-57080952D01*
X106538095Y-57128571D01*
X106490476Y-57223809D01*
X106490476Y-57461904D01*
X106538095Y-57557142D01*
X106585714Y-57604761D01*
X106680952Y-57652380D01*
X106966666Y-57652380D01*
X107061904Y-57604761D01*
X107109523Y-57557142D01*
X106157142Y-56652380D02*
X105490476Y-56652380D01*
X105919047Y-57652380D01*
X76142857Y-56757142D02*
X76190476Y-56804761D01*
X76333333Y-56852380D01*
X76428571Y-56852380D01*
X76571428Y-56804761D01*
X76666666Y-56709523D01*
X76714285Y-56614285D01*
X76761904Y-56423809D01*
X76761904Y-56280952D01*
X76714285Y-56090476D01*
X76666666Y-55995238D01*
X76571428Y-55900000D01*
X76428571Y-55852380D01*
X76333333Y-55852380D01*
X76190476Y-55900000D01*
X76142857Y-55947619D01*
X75809523Y-55852380D02*
X75190476Y-55852380D01*
X75523809Y-56233333D01*
X75380952Y-56233333D01*
X75285714Y-56280952D01*
X75238095Y-56328571D01*
X75190476Y-56423809D01*
X75190476Y-56661904D01*
X75238095Y-56757142D01*
X75285714Y-56804761D01*
X75380952Y-56852380D01*
X75666666Y-56852380D01*
X75761904Y-56804761D01*
X75809523Y-56757142D01*
X74619047Y-56280952D02*
X74714285Y-56233333D01*
X74761904Y-56185714D01*
X74809523Y-56090476D01*
X74809523Y-56042857D01*
X74761904Y-55947619D01*
X74714285Y-55900000D01*
X74619047Y-55852380D01*
X74428571Y-55852380D01*
X74333333Y-55900000D01*
X74285714Y-55947619D01*
X74238095Y-56042857D01*
X74238095Y-56090476D01*
X74285714Y-56185714D01*
X74333333Y-56233333D01*
X74428571Y-56280952D01*
X74619047Y-56280952D01*
X74714285Y-56328571D01*
X74761904Y-56376190D01*
X74809523Y-56471428D01*
X74809523Y-56661904D01*
X74761904Y-56757142D01*
X74714285Y-56804761D01*
X74619047Y-56852380D01*
X74428571Y-56852380D01*
X74333333Y-56804761D01*
X74285714Y-56757142D01*
X74238095Y-56661904D01*
X74238095Y-56471428D01*
X74285714Y-56376190D01*
X74333333Y-56328571D01*
X74428571Y-56280952D01*
X38407142Y-23907142D02*
X38454761Y-23859523D01*
X38502380Y-23716666D01*
X38502380Y-23621428D01*
X38454761Y-23478571D01*
X38359523Y-23383333D01*
X38264285Y-23335714D01*
X38073809Y-23288095D01*
X37930952Y-23288095D01*
X37740476Y-23335714D01*
X37645238Y-23383333D01*
X37550000Y-23478571D01*
X37502380Y-23621428D01*
X37502380Y-23716666D01*
X37550000Y-23859523D01*
X37597619Y-23907142D01*
X37835714Y-24764285D02*
X38502380Y-24764285D01*
X37454761Y-24526190D02*
X38169047Y-24288095D01*
X38169047Y-24907142D01*
X37502380Y-25478571D02*
X37502380Y-25573809D01*
X37550000Y-25669047D01*
X37597619Y-25716666D01*
X37692857Y-25764285D01*
X37883333Y-25811904D01*
X38121428Y-25811904D01*
X38311904Y-25764285D01*
X38407142Y-25716666D01*
X38454761Y-25669047D01*
X38502380Y-25573809D01*
X38502380Y-25478571D01*
X38454761Y-25383333D01*
X38407142Y-25335714D01*
X38311904Y-25288095D01*
X38121428Y-25240476D01*
X37883333Y-25240476D01*
X37692857Y-25288095D01*
X37597619Y-25335714D01*
X37550000Y-25383333D01*
X37502380Y-25478571D01*
X29192857Y-22857142D02*
X29240476Y-22904761D01*
X29383333Y-22952380D01*
X29478571Y-22952380D01*
X29621428Y-22904761D01*
X29716666Y-22809523D01*
X29764285Y-22714285D01*
X29811904Y-22523809D01*
X29811904Y-22380952D01*
X29764285Y-22190476D01*
X29716666Y-22095238D01*
X29621428Y-22000000D01*
X29478571Y-21952380D01*
X29383333Y-21952380D01*
X29240476Y-22000000D01*
X29192857Y-22047619D01*
X28335714Y-22285714D02*
X28335714Y-22952380D01*
X28573809Y-21904761D02*
X28811904Y-22619047D01*
X28192857Y-22619047D01*
X27859523Y-22047619D02*
X27811904Y-22000000D01*
X27716666Y-21952380D01*
X27478571Y-21952380D01*
X27383333Y-22000000D01*
X27335714Y-22047619D01*
X27288095Y-22142857D01*
X27288095Y-22238095D01*
X27335714Y-22380952D01*
X27907142Y-22952380D01*
X27288095Y-22952380D01*
X75107142Y-24557142D02*
X75154761Y-24509523D01*
X75202380Y-24366666D01*
X75202380Y-24271428D01*
X75154761Y-24128571D01*
X75059523Y-24033333D01*
X74964285Y-23985714D01*
X74773809Y-23938095D01*
X74630952Y-23938095D01*
X74440476Y-23985714D01*
X74345238Y-24033333D01*
X74250000Y-24128571D01*
X74202380Y-24271428D01*
X74202380Y-24366666D01*
X74250000Y-24509523D01*
X74297619Y-24557142D01*
X74535714Y-25414285D02*
X75202380Y-25414285D01*
X74154761Y-25176190D02*
X74869047Y-24938095D01*
X74869047Y-25557142D01*
X74202380Y-26366666D02*
X74202380Y-26176190D01*
X74250000Y-26080952D01*
X74297619Y-26033333D01*
X74440476Y-25938095D01*
X74630952Y-25890476D01*
X75011904Y-25890476D01*
X75107142Y-25938095D01*
X75154761Y-25985714D01*
X75202380Y-26080952D01*
X75202380Y-26271428D01*
X75154761Y-26366666D01*
X75107142Y-26414285D01*
X75011904Y-26461904D01*
X74773809Y-26461904D01*
X74678571Y-26414285D01*
X74630952Y-26366666D01*
X74583333Y-26271428D01*
X74583333Y-26080952D01*
X74630952Y-25985714D01*
X74678571Y-25938095D01*
X74773809Y-25890476D01*
X73307142Y-24557142D02*
X73354761Y-24509523D01*
X73402380Y-24366666D01*
X73402380Y-24271428D01*
X73354761Y-24128571D01*
X73259523Y-24033333D01*
X73164285Y-23985714D01*
X72973809Y-23938095D01*
X72830952Y-23938095D01*
X72640476Y-23985714D01*
X72545238Y-24033333D01*
X72450000Y-24128571D01*
X72402380Y-24271428D01*
X72402380Y-24366666D01*
X72450000Y-24509523D01*
X72497619Y-24557142D01*
X72735714Y-25414285D02*
X73402380Y-25414285D01*
X72354761Y-25176190D02*
X73069047Y-24938095D01*
X73069047Y-25557142D01*
X72402380Y-25842857D02*
X72402380Y-26509523D01*
X73402380Y-26080952D01*
X92657142Y-82407142D02*
X92704761Y-82359523D01*
X92752380Y-82216666D01*
X92752380Y-82121428D01*
X92704761Y-81978571D01*
X92609523Y-81883333D01*
X92514285Y-81835714D01*
X92323809Y-81788095D01*
X92180952Y-81788095D01*
X91990476Y-81835714D01*
X91895238Y-81883333D01*
X91800000Y-81978571D01*
X91752380Y-82121428D01*
X91752380Y-82216666D01*
X91800000Y-82359523D01*
X91847619Y-82407142D01*
X92085714Y-83264285D02*
X92752380Y-83264285D01*
X91704761Y-83026190D02*
X92419047Y-82788095D01*
X92419047Y-83407142D01*
X92180952Y-83930952D02*
X92133333Y-83835714D01*
X92085714Y-83788095D01*
X91990476Y-83740476D01*
X91942857Y-83740476D01*
X91847619Y-83788095D01*
X91800000Y-83835714D01*
X91752380Y-83930952D01*
X91752380Y-84121428D01*
X91800000Y-84216666D01*
X91847619Y-84264285D01*
X91942857Y-84311904D01*
X91990476Y-84311904D01*
X92085714Y-84264285D01*
X92133333Y-84216666D01*
X92180952Y-84121428D01*
X92180952Y-83930952D01*
X92228571Y-83835714D01*
X92276190Y-83788095D01*
X92371428Y-83740476D01*
X92561904Y-83740476D01*
X92657142Y-83788095D01*
X92704761Y-83835714D01*
X92752380Y-83930952D01*
X92752380Y-84121428D01*
X92704761Y-84216666D01*
X92657142Y-84264285D01*
X92561904Y-84311904D01*
X92371428Y-84311904D01*
X92276190Y-84264285D01*
X92228571Y-84216666D01*
X92180952Y-84121428D01*
X29242857Y-27657142D02*
X29290476Y-27704761D01*
X29433333Y-27752380D01*
X29528571Y-27752380D01*
X29671428Y-27704761D01*
X29766666Y-27609523D01*
X29814285Y-27514285D01*
X29861904Y-27323809D01*
X29861904Y-27180952D01*
X29814285Y-26990476D01*
X29766666Y-26895238D01*
X29671428Y-26800000D01*
X29528571Y-26752380D01*
X29433333Y-26752380D01*
X29290476Y-26800000D01*
X29242857Y-26847619D01*
X28385714Y-27085714D02*
X28385714Y-27752380D01*
X28623809Y-26704761D02*
X28861904Y-27419047D01*
X28242857Y-27419047D01*
X27814285Y-27752380D02*
X27623809Y-27752380D01*
X27528571Y-27704761D01*
X27480952Y-27657142D01*
X27385714Y-27514285D01*
X27338095Y-27323809D01*
X27338095Y-26942857D01*
X27385714Y-26847619D01*
X27433333Y-26800000D01*
X27528571Y-26752380D01*
X27719047Y-26752380D01*
X27814285Y-26800000D01*
X27861904Y-26847619D01*
X27909523Y-26942857D01*
X27909523Y-27180952D01*
X27861904Y-27276190D01*
X27814285Y-27323809D01*
X27719047Y-27371428D01*
X27528571Y-27371428D01*
X27433333Y-27323809D01*
X27385714Y-27276190D01*
X27338095Y-27180952D01*
X75357142Y-33007142D02*
X75404761Y-32959523D01*
X75452380Y-32816666D01*
X75452380Y-32721428D01*
X75404761Y-32578571D01*
X75309523Y-32483333D01*
X75214285Y-32435714D01*
X75023809Y-32388095D01*
X74880952Y-32388095D01*
X74690476Y-32435714D01*
X74595238Y-32483333D01*
X74500000Y-32578571D01*
X74452380Y-32721428D01*
X74452380Y-32816666D01*
X74500000Y-32959523D01*
X74547619Y-33007142D01*
X74452380Y-33911904D02*
X74452380Y-33435714D01*
X74928571Y-33388095D01*
X74880952Y-33435714D01*
X74833333Y-33530952D01*
X74833333Y-33769047D01*
X74880952Y-33864285D01*
X74928571Y-33911904D01*
X75023809Y-33959523D01*
X75261904Y-33959523D01*
X75357142Y-33911904D01*
X75404761Y-33864285D01*
X75452380Y-33769047D01*
X75452380Y-33530952D01*
X75404761Y-33435714D01*
X75357142Y-33388095D01*
X75452380Y-34911904D02*
X75452380Y-34340476D01*
X75452380Y-34626190D02*
X74452380Y-34626190D01*
X74595238Y-34530952D01*
X74690476Y-34435714D01*
X74738095Y-34340476D01*
X38757142Y-33207142D02*
X38804761Y-33159523D01*
X38852380Y-33016666D01*
X38852380Y-32921428D01*
X38804761Y-32778571D01*
X38709523Y-32683333D01*
X38614285Y-32635714D01*
X38423809Y-32588095D01*
X38280952Y-32588095D01*
X38090476Y-32635714D01*
X37995238Y-32683333D01*
X37900000Y-32778571D01*
X37852380Y-32921428D01*
X37852380Y-33016666D01*
X37900000Y-33159523D01*
X37947619Y-33207142D01*
X37852380Y-34111904D02*
X37852380Y-33635714D01*
X38328571Y-33588095D01*
X38280952Y-33635714D01*
X38233333Y-33730952D01*
X38233333Y-33969047D01*
X38280952Y-34064285D01*
X38328571Y-34111904D01*
X38423809Y-34159523D01*
X38661904Y-34159523D01*
X38757142Y-34111904D01*
X38804761Y-34064285D01*
X38852380Y-33969047D01*
X38852380Y-33730952D01*
X38804761Y-33635714D01*
X38757142Y-33588095D01*
X37947619Y-34540476D02*
X37900000Y-34588095D01*
X37852380Y-34683333D01*
X37852380Y-34921428D01*
X37900000Y-35016666D01*
X37947619Y-35064285D01*
X38042857Y-35111904D01*
X38138095Y-35111904D01*
X38280952Y-35064285D01*
X38852380Y-34492857D01*
X38852380Y-35111904D01*
X73707142Y-33157142D02*
X73754761Y-33109523D01*
X73802380Y-32966666D01*
X73802380Y-32871428D01*
X73754761Y-32728571D01*
X73659523Y-32633333D01*
X73564285Y-32585714D01*
X73373809Y-32538095D01*
X73230952Y-32538095D01*
X73040476Y-32585714D01*
X72945238Y-32633333D01*
X72850000Y-32728571D01*
X72802380Y-32871428D01*
X72802380Y-32966666D01*
X72850000Y-33109523D01*
X72897619Y-33157142D01*
X72802380Y-34061904D02*
X72802380Y-33585714D01*
X73278571Y-33538095D01*
X73230952Y-33585714D01*
X73183333Y-33680952D01*
X73183333Y-33919047D01*
X73230952Y-34014285D01*
X73278571Y-34061904D01*
X73373809Y-34109523D01*
X73611904Y-34109523D01*
X73707142Y-34061904D01*
X73754761Y-34014285D01*
X73802380Y-33919047D01*
X73802380Y-33680952D01*
X73754761Y-33585714D01*
X73707142Y-33538095D01*
X72802380Y-34442857D02*
X72802380Y-35061904D01*
X73183333Y-34728571D01*
X73183333Y-34871428D01*
X73230952Y-34966666D01*
X73278571Y-35014285D01*
X73373809Y-35061904D01*
X73611904Y-35061904D01*
X73707142Y-35014285D01*
X73754761Y-34966666D01*
X73802380Y-34871428D01*
X73802380Y-34585714D01*
X73754761Y-34490476D01*
X73707142Y-34442857D01*
X63307142Y-21457142D02*
X63354761Y-21409523D01*
X63402380Y-21266666D01*
X63402380Y-21171428D01*
X63354761Y-21028571D01*
X63259523Y-20933333D01*
X63164285Y-20885714D01*
X62973809Y-20838095D01*
X62830952Y-20838095D01*
X62640476Y-20885714D01*
X62545238Y-20933333D01*
X62450000Y-21028571D01*
X62402380Y-21171428D01*
X62402380Y-21266666D01*
X62450000Y-21409523D01*
X62497619Y-21457142D01*
X62402380Y-22361904D02*
X62402380Y-21885714D01*
X62878571Y-21838095D01*
X62830952Y-21885714D01*
X62783333Y-21980952D01*
X62783333Y-22219047D01*
X62830952Y-22314285D01*
X62878571Y-22361904D01*
X62973809Y-22409523D01*
X63211904Y-22409523D01*
X63307142Y-22361904D01*
X63354761Y-22314285D01*
X63402380Y-22219047D01*
X63402380Y-21980952D01*
X63354761Y-21885714D01*
X63307142Y-21838095D01*
X62735714Y-23266666D02*
X63402380Y-23266666D01*
X62354761Y-23028571D02*
X63069047Y-22790476D01*
X63069047Y-23409523D01*
X29292857Y-32507142D02*
X29340476Y-32554761D01*
X29483333Y-32602380D01*
X29578571Y-32602380D01*
X29721428Y-32554761D01*
X29816666Y-32459523D01*
X29864285Y-32364285D01*
X29911904Y-32173809D01*
X29911904Y-32030952D01*
X29864285Y-31840476D01*
X29816666Y-31745238D01*
X29721428Y-31650000D01*
X29578571Y-31602380D01*
X29483333Y-31602380D01*
X29340476Y-31650000D01*
X29292857Y-31697619D01*
X28388095Y-31602380D02*
X28864285Y-31602380D01*
X28911904Y-32078571D01*
X28864285Y-32030952D01*
X28769047Y-31983333D01*
X28530952Y-31983333D01*
X28435714Y-32030952D01*
X28388095Y-32078571D01*
X28340476Y-32173809D01*
X28340476Y-32411904D01*
X28388095Y-32507142D01*
X28435714Y-32554761D01*
X28530952Y-32602380D01*
X28769047Y-32602380D01*
X28864285Y-32554761D01*
X28911904Y-32507142D01*
X27435714Y-31602380D02*
X27911904Y-31602380D01*
X27959523Y-32078571D01*
X27911904Y-32030952D01*
X27816666Y-31983333D01*
X27578571Y-31983333D01*
X27483333Y-32030952D01*
X27435714Y-32078571D01*
X27388095Y-32173809D01*
X27388095Y-32411904D01*
X27435714Y-32507142D01*
X27483333Y-32554761D01*
X27578571Y-32602380D01*
X27816666Y-32602380D01*
X27911904Y-32554761D01*
X27959523Y-32507142D01*
X87792857Y-24107142D02*
X87840476Y-24154761D01*
X87983333Y-24202380D01*
X88078571Y-24202380D01*
X88221428Y-24154761D01*
X88316666Y-24059523D01*
X88364285Y-23964285D01*
X88411904Y-23773809D01*
X88411904Y-23630952D01*
X88364285Y-23440476D01*
X88316666Y-23345238D01*
X88221428Y-23250000D01*
X88078571Y-23202380D01*
X87983333Y-23202380D01*
X87840476Y-23250000D01*
X87792857Y-23297619D01*
X86888095Y-23202380D02*
X87364285Y-23202380D01*
X87411904Y-23678571D01*
X87364285Y-23630952D01*
X87269047Y-23583333D01*
X87030952Y-23583333D01*
X86935714Y-23630952D01*
X86888095Y-23678571D01*
X86840476Y-23773809D01*
X86840476Y-24011904D01*
X86888095Y-24107142D01*
X86935714Y-24154761D01*
X87030952Y-24202380D01*
X87269047Y-24202380D01*
X87364285Y-24154761D01*
X87411904Y-24107142D01*
X85983333Y-23202380D02*
X86173809Y-23202380D01*
X86269047Y-23250000D01*
X86316666Y-23297619D01*
X86411904Y-23440476D01*
X86459523Y-23630952D01*
X86459523Y-24011904D01*
X86411904Y-24107142D01*
X86364285Y-24154761D01*
X86269047Y-24202380D01*
X86078571Y-24202380D01*
X85983333Y-24154761D01*
X85935714Y-24107142D01*
X85888095Y-24011904D01*
X85888095Y-23773809D01*
X85935714Y-23678571D01*
X85983333Y-23630952D01*
X86078571Y-23583333D01*
X86269047Y-23583333D01*
X86364285Y-23630952D01*
X86411904Y-23678571D01*
X86459523Y-23773809D01*
X87642857Y-32657142D02*
X87690476Y-32704761D01*
X87833333Y-32752380D01*
X87928571Y-32752380D01*
X88071428Y-32704761D01*
X88166666Y-32609523D01*
X88214285Y-32514285D01*
X88261904Y-32323809D01*
X88261904Y-32180952D01*
X88214285Y-31990476D01*
X88166666Y-31895238D01*
X88071428Y-31800000D01*
X87928571Y-31752380D01*
X87833333Y-31752380D01*
X87690476Y-31800000D01*
X87642857Y-31847619D01*
X86785714Y-31752380D02*
X86976190Y-31752380D01*
X87071428Y-31800000D01*
X87119047Y-31847619D01*
X87214285Y-31990476D01*
X87261904Y-32180952D01*
X87261904Y-32561904D01*
X87214285Y-32657142D01*
X87166666Y-32704761D01*
X87071428Y-32752380D01*
X86880952Y-32752380D01*
X86785714Y-32704761D01*
X86738095Y-32657142D01*
X86690476Y-32561904D01*
X86690476Y-32323809D01*
X86738095Y-32228571D01*
X86785714Y-32180952D01*
X86880952Y-32133333D01*
X87071428Y-32133333D01*
X87166666Y-32180952D01*
X87214285Y-32228571D01*
X87261904Y-32323809D01*
X86071428Y-31752380D02*
X85976190Y-31752380D01*
X85880952Y-31800000D01*
X85833333Y-31847619D01*
X85785714Y-31942857D01*
X85738095Y-32133333D01*
X85738095Y-32371428D01*
X85785714Y-32561904D01*
X85833333Y-32657142D01*
X85880952Y-32704761D01*
X85976190Y-32752380D01*
X86071428Y-32752380D01*
X86166666Y-32704761D01*
X86214285Y-32657142D01*
X86261904Y-32561904D01*
X86309523Y-32371428D01*
X86309523Y-32133333D01*
X86261904Y-31942857D01*
X86214285Y-31847619D01*
X86166666Y-31800000D01*
X86071428Y-31752380D01*
X102457142Y-53257142D02*
X102504761Y-53209523D01*
X102552380Y-53066666D01*
X102552380Y-52971428D01*
X102504761Y-52828571D01*
X102409523Y-52733333D01*
X102314285Y-52685714D01*
X102123809Y-52638095D01*
X101980952Y-52638095D01*
X101790476Y-52685714D01*
X101695238Y-52733333D01*
X101600000Y-52828571D01*
X101552380Y-52971428D01*
X101552380Y-53066666D01*
X101600000Y-53209523D01*
X101647619Y-53257142D01*
X101552380Y-54114285D02*
X101552380Y-53923809D01*
X101600000Y-53828571D01*
X101647619Y-53780952D01*
X101790476Y-53685714D01*
X101980952Y-53638095D01*
X102361904Y-53638095D01*
X102457142Y-53685714D01*
X102504761Y-53733333D01*
X102552380Y-53828571D01*
X102552380Y-54019047D01*
X102504761Y-54114285D01*
X102457142Y-54161904D01*
X102361904Y-54209523D01*
X102123809Y-54209523D01*
X102028571Y-54161904D01*
X101980952Y-54114285D01*
X101933333Y-54019047D01*
X101933333Y-53828571D01*
X101980952Y-53733333D01*
X102028571Y-53685714D01*
X102123809Y-53638095D01*
X101647619Y-54590476D02*
X101600000Y-54638095D01*
X101552380Y-54733333D01*
X101552380Y-54971428D01*
X101600000Y-55066666D01*
X101647619Y-55114285D01*
X101742857Y-55161904D01*
X101838095Y-55161904D01*
X101980952Y-55114285D01*
X102552380Y-54542857D01*
X102552380Y-55161904D01*
X96202380Y-43883333D02*
X95726190Y-43550000D01*
X96202380Y-43311904D02*
X95202380Y-43311904D01*
X95202380Y-43692857D01*
X95250000Y-43788095D01*
X95297619Y-43835714D01*
X95392857Y-43883333D01*
X95535714Y-43883333D01*
X95630952Y-43835714D01*
X95678571Y-43788095D01*
X95726190Y-43692857D01*
X95726190Y-43311904D01*
X96202380Y-44835714D02*
X96202380Y-44264285D01*
X96202380Y-44550000D02*
X95202380Y-44550000D01*
X95345238Y-44454761D01*
X95440476Y-44359523D01*
X95488095Y-44264285D01*
X87566666Y-57002380D02*
X87900000Y-56526190D01*
X88138095Y-57002380D02*
X88138095Y-56002380D01*
X87757142Y-56002380D01*
X87661904Y-56050000D01*
X87614285Y-56097619D01*
X87566666Y-56192857D01*
X87566666Y-56335714D01*
X87614285Y-56430952D01*
X87661904Y-56478571D01*
X87757142Y-56526190D01*
X88138095Y-56526190D01*
X87090476Y-57002380D02*
X86900000Y-57002380D01*
X86804761Y-56954761D01*
X86757142Y-56907142D01*
X86661904Y-56764285D01*
X86614285Y-56573809D01*
X86614285Y-56192857D01*
X86661904Y-56097619D01*
X86709523Y-56050000D01*
X86804761Y-56002380D01*
X86995238Y-56002380D01*
X87090476Y-56050000D01*
X87138095Y-56097619D01*
X87185714Y-56192857D01*
X87185714Y-56430952D01*
X87138095Y-56526190D01*
X87090476Y-56573809D01*
X86995238Y-56621428D01*
X86804761Y-56621428D01*
X86709523Y-56573809D01*
X86661904Y-56526190D01*
X86614285Y-56430952D01*
X117842857Y-52752380D02*
X118176190Y-52276190D01*
X118414285Y-52752380D02*
X118414285Y-51752380D01*
X118033333Y-51752380D01*
X117938095Y-51800000D01*
X117890476Y-51847619D01*
X117842857Y-51942857D01*
X117842857Y-52085714D01*
X117890476Y-52180952D01*
X117938095Y-52228571D01*
X118033333Y-52276190D01*
X118414285Y-52276190D01*
X116890476Y-52752380D02*
X117461904Y-52752380D01*
X117176190Y-52752380D02*
X117176190Y-51752380D01*
X117271428Y-51895238D01*
X117366666Y-51990476D01*
X117461904Y-52038095D01*
X116557142Y-51752380D02*
X115890476Y-51752380D01*
X116319047Y-52752380D01*
X117992857Y-54202380D02*
X118326190Y-53726190D01*
X118564285Y-54202380D02*
X118564285Y-53202380D01*
X118183333Y-53202380D01*
X118088095Y-53250000D01*
X118040476Y-53297619D01*
X117992857Y-53392857D01*
X117992857Y-53535714D01*
X118040476Y-53630952D01*
X118088095Y-53678571D01*
X118183333Y-53726190D01*
X118564285Y-53726190D01*
X117040476Y-54202380D02*
X117611904Y-54202380D01*
X117326190Y-54202380D02*
X117326190Y-53202380D01*
X117421428Y-53345238D01*
X117516666Y-53440476D01*
X117611904Y-53488095D01*
X116469047Y-53630952D02*
X116564285Y-53583333D01*
X116611904Y-53535714D01*
X116659523Y-53440476D01*
X116659523Y-53392857D01*
X116611904Y-53297619D01*
X116564285Y-53250000D01*
X116469047Y-53202380D01*
X116278571Y-53202380D01*
X116183333Y-53250000D01*
X116135714Y-53297619D01*
X116088095Y-53392857D01*
X116088095Y-53440476D01*
X116135714Y-53535714D01*
X116183333Y-53583333D01*
X116278571Y-53630952D01*
X116469047Y-53630952D01*
X116564285Y-53678571D01*
X116611904Y-53726190D01*
X116659523Y-53821428D01*
X116659523Y-54011904D01*
X116611904Y-54107142D01*
X116564285Y-54154761D01*
X116469047Y-54202380D01*
X116278571Y-54202380D01*
X116183333Y-54154761D01*
X116135714Y-54107142D01*
X116088095Y-54011904D01*
X116088095Y-53821428D01*
X116135714Y-53726190D01*
X116183333Y-53678571D01*
X116278571Y-53630952D01*
X92238095Y-45852380D02*
X92238095Y-46661904D01*
X92190476Y-46757142D01*
X92142857Y-46804761D01*
X92047619Y-46852380D01*
X91857142Y-46852380D01*
X91761904Y-46804761D01*
X91714285Y-46757142D01*
X91666666Y-46661904D01*
X91666666Y-45852380D01*
X90666666Y-46852380D02*
X91238095Y-46852380D01*
X90952380Y-46852380D02*
X90952380Y-45852380D01*
X91047619Y-45995238D01*
X91142857Y-46090476D01*
X91238095Y-46138095D01*
X90095238Y-46280952D02*
X90190476Y-46233333D01*
X90238095Y-46185714D01*
X90285714Y-46090476D01*
X90285714Y-46042857D01*
X90238095Y-45947619D01*
X90190476Y-45900000D01*
X90095238Y-45852380D01*
X89904761Y-45852380D01*
X89809523Y-45900000D01*
X89761904Y-45947619D01*
X89714285Y-46042857D01*
X89714285Y-46090476D01*
X89761904Y-46185714D01*
X89809523Y-46233333D01*
X89904761Y-46280952D01*
X90095238Y-46280952D01*
X90190476Y-46328571D01*
X90238095Y-46376190D01*
X90285714Y-46471428D01*
X90285714Y-46661904D01*
X90238095Y-46757142D01*
X90190476Y-46804761D01*
X90095238Y-46852380D01*
X89904761Y-46852380D01*
X89809523Y-46804761D01*
X89761904Y-46757142D01*
X89714285Y-46661904D01*
X89714285Y-46471428D01*
X89761904Y-46376190D01*
X89809523Y-46328571D01*
X89904761Y-46280952D01*
M02*
