G04 #@! TF.GenerationSoftware,KiCad,Pcbnew,(5.1.2)-1*
G04 #@! TF.CreationDate,2019-05-23T20:14:08-05:00*
G04 #@! TF.ProjectId,m68k,6d36386b-2e6b-4696-9361-645f70636258,rev?*
G04 #@! TF.SameCoordinates,Original*
G04 #@! TF.FileFunction,Legend,Top*
G04 #@! TF.FilePolarity,Positive*
%FSLAX46Y46*%
G04 Gerber Fmt 4.6, Leading zero omitted, Abs format (unit mm)*
G04 Created by KiCad (PCBNEW (5.1.2)-1) date 2019-05-23 20:14:08*
%MOMM*%
%LPD*%
G04 APERTURE LIST*
%ADD10C,0.300000*%
%ADD11C,0.700000*%
%ADD12C,0.250000*%
%ADD13C,0.120000*%
%ADD14C,0.100000*%
%ADD15C,0.127000*%
%ADD16C,0.150000*%
G04 APERTURE END LIST*
D10*
X117671428Y-77628571D02*
X117600000Y-77557142D01*
X117528571Y-77414285D01*
X117528571Y-77057142D01*
X117600000Y-76914285D01*
X117671428Y-76842857D01*
X117814285Y-76771428D01*
X117957142Y-76771428D01*
X118171428Y-76842857D01*
X119028571Y-77700000D01*
X119028571Y-76771428D01*
X117528571Y-75842857D02*
X117528571Y-75700000D01*
X117600000Y-75557142D01*
X117671428Y-75485714D01*
X117814285Y-75414285D01*
X118100000Y-75342857D01*
X118457142Y-75342857D01*
X118742857Y-75414285D01*
X118885714Y-75485714D01*
X118957142Y-75557142D01*
X119028571Y-75700000D01*
X119028571Y-75842857D01*
X118957142Y-75985714D01*
X118885714Y-76057142D01*
X118742857Y-76128571D01*
X118457142Y-76200000D01*
X118100000Y-76200000D01*
X117814285Y-76128571D01*
X117671428Y-76057142D01*
X117600000Y-75985714D01*
X117528571Y-75842857D01*
X119028571Y-73914285D02*
X119028571Y-74771428D01*
X119028571Y-74342857D02*
X117528571Y-74342857D01*
X117742857Y-74485714D01*
X117885714Y-74628571D01*
X117957142Y-74771428D01*
X119028571Y-73200000D02*
X119028571Y-72914285D01*
X118957142Y-72771428D01*
X118885714Y-72700000D01*
X118671428Y-72557142D01*
X118385714Y-72485714D01*
X117814285Y-72485714D01*
X117671428Y-72557142D01*
X117600000Y-72628571D01*
X117528571Y-72771428D01*
X117528571Y-73057142D01*
X117600000Y-73200000D01*
X117671428Y-73271428D01*
X117814285Y-73342857D01*
X118171428Y-73342857D01*
X118314285Y-73271428D01*
X118385714Y-73200000D01*
X118457142Y-73057142D01*
X118457142Y-72771428D01*
X118385714Y-72628571D01*
X118314285Y-72557142D01*
X118171428Y-72485714D01*
X118457142Y-71842857D02*
X118457142Y-70700000D01*
X117528571Y-69700000D02*
X117528571Y-69557142D01*
X117600000Y-69414285D01*
X117671428Y-69342857D01*
X117814285Y-69271428D01*
X118100000Y-69200000D01*
X118457142Y-69200000D01*
X118742857Y-69271428D01*
X118885714Y-69342857D01*
X118957142Y-69414285D01*
X119028571Y-69557142D01*
X119028571Y-69700000D01*
X118957142Y-69842857D01*
X118885714Y-69914285D01*
X118742857Y-69985714D01*
X118457142Y-70057142D01*
X118100000Y-70057142D01*
X117814285Y-69985714D01*
X117671428Y-69914285D01*
X117600000Y-69842857D01*
X117528571Y-69700000D01*
X117528571Y-67842857D02*
X117528571Y-68557142D01*
X118242857Y-68628571D01*
X118171428Y-68557142D01*
X118100000Y-68414285D01*
X118100000Y-68057142D01*
X118171428Y-67914285D01*
X118242857Y-67842857D01*
X118385714Y-67771428D01*
X118742857Y-67771428D01*
X118885714Y-67842857D01*
X118957142Y-67914285D01*
X119028571Y-68057142D01*
X119028571Y-68414285D01*
X118957142Y-68557142D01*
X118885714Y-68628571D01*
D11*
X56307142Y-52559523D02*
X56307142Y-49892857D01*
X56307142Y-50273809D02*
X56497619Y-50083333D01*
X56878571Y-49892857D01*
X57450000Y-49892857D01*
X57830952Y-50083333D01*
X58021428Y-50464285D01*
X58021428Y-52559523D01*
X58021428Y-50464285D02*
X58211904Y-50083333D01*
X58592857Y-49892857D01*
X59164285Y-49892857D01*
X59545238Y-50083333D01*
X59735714Y-50464285D01*
X59735714Y-52559523D01*
X63354761Y-48559523D02*
X62592857Y-48559523D01*
X62211904Y-48750000D01*
X62021428Y-48940476D01*
X61640476Y-49511904D01*
X61450000Y-50273809D01*
X61450000Y-51797619D01*
X61640476Y-52178571D01*
X61830952Y-52369047D01*
X62211904Y-52559523D01*
X62973809Y-52559523D01*
X63354761Y-52369047D01*
X63545238Y-52178571D01*
X63735714Y-51797619D01*
X63735714Y-50845238D01*
X63545238Y-50464285D01*
X63354761Y-50273809D01*
X62973809Y-50083333D01*
X62211904Y-50083333D01*
X61830952Y-50273809D01*
X61640476Y-50464285D01*
X61450000Y-50845238D01*
X66021428Y-50273809D02*
X65640476Y-50083333D01*
X65450000Y-49892857D01*
X65259523Y-49511904D01*
X65259523Y-49321428D01*
X65450000Y-48940476D01*
X65640476Y-48750000D01*
X66021428Y-48559523D01*
X66783333Y-48559523D01*
X67164285Y-48750000D01*
X67354761Y-48940476D01*
X67545238Y-49321428D01*
X67545238Y-49511904D01*
X67354761Y-49892857D01*
X67164285Y-50083333D01*
X66783333Y-50273809D01*
X66021428Y-50273809D01*
X65640476Y-50464285D01*
X65450000Y-50654761D01*
X65259523Y-51035714D01*
X65259523Y-51797619D01*
X65450000Y-52178571D01*
X65640476Y-52369047D01*
X66021428Y-52559523D01*
X66783333Y-52559523D01*
X67164285Y-52369047D01*
X67354761Y-52178571D01*
X67545238Y-51797619D01*
X67545238Y-51035714D01*
X67354761Y-50654761D01*
X67164285Y-50464285D01*
X66783333Y-50273809D01*
X69259523Y-52559523D02*
X69259523Y-48559523D01*
X69640476Y-51035714D02*
X70783333Y-52559523D01*
X70783333Y-49892857D02*
X69259523Y-51416666D01*
D12*
X54719642Y-106228571D02*
X54719642Y-104728571D01*
X55219642Y-105800000D01*
X55719642Y-104728571D01*
X55719642Y-106228571D01*
X56433928Y-106228571D02*
X56433928Y-105228571D01*
X56433928Y-105514285D02*
X56505357Y-105371428D01*
X56576785Y-105300000D01*
X56719642Y-105228571D01*
X56862500Y-105228571D01*
X57362500Y-106085714D02*
X57433928Y-106157142D01*
X57362500Y-106228571D01*
X57291071Y-106157142D01*
X57362500Y-106085714D01*
X57362500Y-106228571D01*
X59219642Y-106228571D02*
X59219642Y-104728571D01*
X59719642Y-105800000D01*
X60219642Y-104728571D01*
X60219642Y-106228571D01*
X61576785Y-106228571D02*
X61576785Y-105442857D01*
X61505357Y-105300000D01*
X61362500Y-105228571D01*
X61076785Y-105228571D01*
X60933928Y-105300000D01*
X61576785Y-106157142D02*
X61433928Y-106228571D01*
X61076785Y-106228571D01*
X60933928Y-106157142D01*
X60862500Y-106014285D01*
X60862500Y-105871428D01*
X60933928Y-105728571D01*
X61076785Y-105657142D01*
X61433928Y-105657142D01*
X61576785Y-105585714D01*
X62933928Y-106228571D02*
X62933928Y-105442857D01*
X62862500Y-105300000D01*
X62719642Y-105228571D01*
X62433928Y-105228571D01*
X62291071Y-105300000D01*
X62933928Y-106157142D02*
X62791071Y-106228571D01*
X62433928Y-106228571D01*
X62291071Y-106157142D01*
X62219642Y-106014285D01*
X62219642Y-105871428D01*
X62291071Y-105728571D01*
X62433928Y-105657142D01*
X62791071Y-105657142D01*
X62933928Y-105585714D01*
X63576785Y-106157142D02*
X63719642Y-106228571D01*
X64005357Y-106228571D01*
X64148214Y-106157142D01*
X64219642Y-106014285D01*
X64219642Y-105942857D01*
X64148214Y-105800000D01*
X64005357Y-105728571D01*
X63791071Y-105728571D01*
X63648214Y-105657142D01*
X63576785Y-105514285D01*
X63576785Y-105442857D01*
X63648214Y-105300000D01*
X63791071Y-105228571D01*
X64005357Y-105228571D01*
X64148214Y-105300000D01*
X66005357Y-106228571D02*
X66005357Y-104728571D01*
X66576785Y-104728571D01*
X66719642Y-104800000D01*
X66791071Y-104871428D01*
X66862500Y-105014285D01*
X66862500Y-105228571D01*
X66791071Y-105371428D01*
X66719642Y-105442857D01*
X66576785Y-105514285D01*
X66005357Y-105514285D01*
X67505357Y-106228571D02*
X67505357Y-104728571D01*
X68148214Y-106228571D02*
X68148214Y-105442857D01*
X68076785Y-105300000D01*
X67933928Y-105228571D01*
X67719642Y-105228571D01*
X67576785Y-105300000D01*
X67505357Y-105371428D01*
X68719642Y-105228571D02*
X69076785Y-106228571D01*
X69433928Y-105228571D02*
X69076785Y-106228571D01*
X68933928Y-106585714D01*
X68862500Y-106657142D01*
X68719642Y-106728571D01*
X69933928Y-106157142D02*
X70076785Y-106228571D01*
X70362500Y-106228571D01*
X70505357Y-106157142D01*
X70576785Y-106014285D01*
X70576785Y-105942857D01*
X70505357Y-105800000D01*
X70362500Y-105728571D01*
X70148214Y-105728571D01*
X70005357Y-105657142D01*
X69933928Y-105514285D01*
X69933928Y-105442857D01*
X70005357Y-105300000D01*
X70148214Y-105228571D01*
X70362500Y-105228571D01*
X70505357Y-105300000D01*
X71219642Y-106228571D02*
X71219642Y-105228571D01*
X71219642Y-104728571D02*
X71148214Y-104800000D01*
X71219642Y-104871428D01*
X71291071Y-104800000D01*
X71219642Y-104728571D01*
X71219642Y-104871428D01*
X72576785Y-106157142D02*
X72433928Y-106228571D01*
X72148214Y-106228571D01*
X72005357Y-106157142D01*
X71933928Y-106085714D01*
X71862500Y-105942857D01*
X71862500Y-105514285D01*
X71933928Y-105371428D01*
X72005357Y-105300000D01*
X72148214Y-105228571D01*
X72433928Y-105228571D01*
X72576785Y-105300000D01*
X73148214Y-106157142D02*
X73291071Y-106228571D01*
X73576785Y-106228571D01*
X73719642Y-106157142D01*
X73791071Y-106014285D01*
X73791071Y-105942857D01*
X73719642Y-105800000D01*
X73576785Y-105728571D01*
X73362500Y-105728571D01*
X73219642Y-105657142D01*
X73148214Y-105514285D01*
X73148214Y-105442857D01*
X73219642Y-105300000D01*
X73362500Y-105228571D01*
X73576785Y-105228571D01*
X73719642Y-105300000D01*
X54648214Y-110800000D02*
X55362500Y-110800000D01*
X54505357Y-111228571D02*
X55005357Y-109728571D01*
X55505357Y-111228571D01*
X55862500Y-110228571D02*
X56219642Y-111228571D01*
X56576785Y-110228571D01*
X57719642Y-111157142D02*
X57576785Y-111228571D01*
X57291071Y-111228571D01*
X57148214Y-111157142D01*
X57076785Y-111014285D01*
X57076785Y-110442857D01*
X57148214Y-110300000D01*
X57291071Y-110228571D01*
X57576785Y-110228571D01*
X57719642Y-110300000D01*
X57791071Y-110442857D01*
X57791071Y-110585714D01*
X57076785Y-110728571D01*
X58433928Y-111228571D02*
X58433928Y-110228571D01*
X58433928Y-110514285D02*
X58505357Y-110371428D01*
X58576785Y-110300000D01*
X58719642Y-110228571D01*
X58862500Y-110228571D01*
X59219642Y-110228571D02*
X59576785Y-111228571D01*
X59933928Y-110228571D02*
X59576785Y-111228571D01*
X59433928Y-111585714D01*
X59362500Y-111657142D01*
X59219642Y-111728571D01*
X62148214Y-110442857D02*
X62362500Y-110514285D01*
X62433928Y-110585714D01*
X62505357Y-110728571D01*
X62505357Y-110942857D01*
X62433928Y-111085714D01*
X62362500Y-111157142D01*
X62219642Y-111228571D01*
X61648214Y-111228571D01*
X61648214Y-109728571D01*
X62148214Y-109728571D01*
X62291071Y-109800000D01*
X62362500Y-109871428D01*
X62433928Y-110014285D01*
X62433928Y-110157142D01*
X62362500Y-110300000D01*
X62291071Y-110371428D01*
X62148214Y-110442857D01*
X61648214Y-110442857D01*
X63791071Y-111228571D02*
X63791071Y-110442857D01*
X63719642Y-110300000D01*
X63576785Y-110228571D01*
X63291071Y-110228571D01*
X63148214Y-110300000D01*
X63791071Y-111157142D02*
X63648214Y-111228571D01*
X63291071Y-111228571D01*
X63148214Y-111157142D01*
X63076785Y-111014285D01*
X63076785Y-110871428D01*
X63148214Y-110728571D01*
X63291071Y-110657142D01*
X63648214Y-110657142D01*
X63791071Y-110585714D01*
X64505357Y-111228571D02*
X64505357Y-110228571D01*
X64505357Y-110514285D02*
X64576785Y-110371428D01*
X64648214Y-110300000D01*
X64791071Y-110228571D01*
X64933928Y-110228571D01*
X65219642Y-110228571D02*
X65791071Y-110228571D01*
X65433928Y-109728571D02*
X65433928Y-111014285D01*
X65505357Y-111157142D01*
X65648214Y-111228571D01*
X65791071Y-111228571D01*
X66291071Y-110228571D02*
X66291071Y-111228571D01*
X66291071Y-110371428D02*
X66362500Y-110300000D01*
X66505357Y-110228571D01*
X66719642Y-110228571D01*
X66862500Y-110300000D01*
X66933928Y-110442857D01*
X66933928Y-111228571D01*
X67648214Y-111228571D02*
X67648214Y-110228571D01*
X67648214Y-109728571D02*
X67576785Y-109800000D01*
X67648214Y-109871428D01*
X67719642Y-109800000D01*
X67648214Y-109728571D01*
X67648214Y-109871428D01*
X68362500Y-111228571D02*
X68362500Y-109728571D01*
X68505357Y-110657142D02*
X68933928Y-111228571D01*
X68933928Y-110228571D02*
X68362500Y-110800000D01*
X54719642Y-112942857D02*
X55219642Y-112942857D01*
X55433928Y-113728571D02*
X54719642Y-113728571D01*
X54719642Y-112228571D01*
X55433928Y-112228571D01*
X56076785Y-113728571D02*
X56076785Y-112728571D01*
X56076785Y-113014285D02*
X56148214Y-112871428D01*
X56219642Y-112800000D01*
X56362500Y-112728571D01*
X56505357Y-112728571D01*
X57005357Y-113728571D02*
X57005357Y-112728571D01*
X57005357Y-112228571D02*
X56933928Y-112300000D01*
X57005357Y-112371428D01*
X57076785Y-112300000D01*
X57005357Y-112228571D01*
X57005357Y-112371428D01*
X57719642Y-113728571D02*
X57719642Y-112228571D01*
X57862500Y-113157142D02*
X58291071Y-113728571D01*
X58291071Y-112728571D02*
X57719642Y-113300000D01*
X60076785Y-113728571D02*
X60076785Y-112228571D01*
X60433928Y-112228571D01*
X60648214Y-112300000D01*
X60791071Y-112442857D01*
X60862500Y-112585714D01*
X60933928Y-112871428D01*
X60933928Y-113085714D01*
X60862500Y-113371428D01*
X60791071Y-113514285D01*
X60648214Y-113657142D01*
X60433928Y-113728571D01*
X60076785Y-113728571D01*
X62219642Y-112728571D02*
X62219642Y-113728571D01*
X61576785Y-112728571D02*
X61576785Y-113514285D01*
X61648214Y-113657142D01*
X61791071Y-113728571D01*
X62005357Y-113728571D01*
X62148214Y-113657142D01*
X62219642Y-113585714D01*
X62791071Y-113728571D02*
X63576785Y-112728571D01*
X62791071Y-112728571D02*
X63576785Y-113728571D01*
X64076785Y-113657142D02*
X64219642Y-113728571D01*
X64505357Y-113728571D01*
X64648214Y-113657142D01*
X64719642Y-113514285D01*
X64719642Y-113442857D01*
X64648214Y-113300000D01*
X64505357Y-113228571D01*
X64291071Y-113228571D01*
X64148214Y-113157142D01*
X64076785Y-113014285D01*
X64076785Y-112942857D01*
X64148214Y-112800000D01*
X64291071Y-112728571D01*
X64505357Y-112728571D01*
X64648214Y-112800000D01*
X65148214Y-112728571D02*
X65719642Y-112728571D01*
X65362500Y-112228571D02*
X65362500Y-113514285D01*
X65433928Y-113657142D01*
X65576785Y-113728571D01*
X65719642Y-113728571D01*
X66862500Y-113728571D02*
X66862500Y-112942857D01*
X66791071Y-112800000D01*
X66648214Y-112728571D01*
X66362500Y-112728571D01*
X66219642Y-112800000D01*
X66862500Y-113657142D02*
X66719642Y-113728571D01*
X66362500Y-113728571D01*
X66219642Y-113657142D01*
X66148214Y-113514285D01*
X66148214Y-113371428D01*
X66219642Y-113228571D01*
X66362500Y-113157142D01*
X66719642Y-113157142D01*
X66862500Y-113085714D01*
X68219642Y-113728571D02*
X68219642Y-112228571D01*
X68219642Y-113657142D02*
X68076785Y-113728571D01*
X67791071Y-113728571D01*
X67648214Y-113657142D01*
X67576785Y-113585714D01*
X67505357Y-113442857D01*
X67505357Y-113014285D01*
X67576785Y-112871428D01*
X67648214Y-112800000D01*
X67791071Y-112728571D01*
X68076785Y-112728571D01*
X68219642Y-112800000D01*
X55148214Y-114728571D02*
X55148214Y-115800000D01*
X55076785Y-116014285D01*
X54933928Y-116157142D01*
X54719642Y-116228571D01*
X54576785Y-116228571D01*
X56505357Y-116228571D02*
X56505357Y-115442857D01*
X56433928Y-115300000D01*
X56291071Y-115228571D01*
X56005357Y-115228571D01*
X55862500Y-115300000D01*
X56505357Y-116157142D02*
X56362500Y-116228571D01*
X56005357Y-116228571D01*
X55862500Y-116157142D01*
X55791071Y-116014285D01*
X55791071Y-115871428D01*
X55862500Y-115728571D01*
X56005357Y-115657142D01*
X56362500Y-115657142D01*
X56505357Y-115585714D01*
X57862500Y-116157142D02*
X57719642Y-116228571D01*
X57433928Y-116228571D01*
X57291071Y-116157142D01*
X57219642Y-116085714D01*
X57148214Y-115942857D01*
X57148214Y-115514285D01*
X57219642Y-115371428D01*
X57291071Y-115300000D01*
X57433928Y-115228571D01*
X57719642Y-115228571D01*
X57862500Y-115300000D01*
X58505357Y-116228571D02*
X58505357Y-114728571D01*
X58648214Y-115657142D02*
X59076785Y-116228571D01*
X59076785Y-115228571D02*
X58505357Y-115800000D01*
X60791071Y-116157142D02*
X61005357Y-116228571D01*
X61362500Y-116228571D01*
X61505357Y-116157142D01*
X61576785Y-116085714D01*
X61648214Y-115942857D01*
X61648214Y-115800000D01*
X61576785Y-115657142D01*
X61505357Y-115585714D01*
X61362500Y-115514285D01*
X61076785Y-115442857D01*
X60933928Y-115371428D01*
X60862500Y-115300000D01*
X60791071Y-115157142D01*
X60791071Y-115014285D01*
X60862500Y-114871428D01*
X60933928Y-114800000D01*
X61076785Y-114728571D01*
X61433928Y-114728571D01*
X61648214Y-114800000D01*
X62148214Y-115228571D02*
X62433928Y-116228571D01*
X62719642Y-115514285D01*
X63005357Y-116228571D01*
X63291071Y-115228571D01*
X64433928Y-116157142D02*
X64291071Y-116228571D01*
X64005357Y-116228571D01*
X63862500Y-116157142D01*
X63791071Y-116014285D01*
X63791071Y-115442857D01*
X63862500Y-115300000D01*
X64005357Y-115228571D01*
X64291071Y-115228571D01*
X64433928Y-115300000D01*
X64505357Y-115442857D01*
X64505357Y-115585714D01*
X63791071Y-115728571D01*
X65719642Y-116157142D02*
X65576785Y-116228571D01*
X65291071Y-116228571D01*
X65148214Y-116157142D01*
X65076785Y-116014285D01*
X65076785Y-115442857D01*
X65148214Y-115300000D01*
X65291071Y-115228571D01*
X65576785Y-115228571D01*
X65719642Y-115300000D01*
X65791071Y-115442857D01*
X65791071Y-115585714D01*
X65076785Y-115728571D01*
X66433928Y-115228571D02*
X66433928Y-116228571D01*
X66433928Y-115371428D02*
X66505357Y-115300000D01*
X66648214Y-115228571D01*
X66862500Y-115228571D01*
X67005357Y-115300000D01*
X67076785Y-115442857D01*
X67076785Y-116228571D01*
X68362500Y-116157142D02*
X68219642Y-116228571D01*
X67933928Y-116228571D01*
X67791071Y-116157142D01*
X67719642Y-116014285D01*
X67719642Y-115442857D01*
X67791071Y-115300000D01*
X67933928Y-115228571D01*
X68219642Y-115228571D01*
X68362500Y-115300000D01*
X68433928Y-115442857D01*
X68433928Y-115585714D01*
X67719642Y-115728571D01*
X68933928Y-115228571D02*
X69291071Y-116228571D01*
X69648214Y-115228571D02*
X69291071Y-116228571D01*
X69148214Y-116585714D01*
X69076785Y-116657142D01*
X68933928Y-116728571D01*
X54719642Y-118728571D02*
X54719642Y-117228571D01*
X55219642Y-118300000D01*
X55719642Y-117228571D01*
X55719642Y-118728571D01*
X56433928Y-118728571D02*
X56433928Y-117728571D01*
X56433928Y-117228571D02*
X56362500Y-117300000D01*
X56433928Y-117371428D01*
X56505357Y-117300000D01*
X56433928Y-117228571D01*
X56433928Y-117371428D01*
X57791071Y-118657142D02*
X57648214Y-118728571D01*
X57362500Y-118728571D01*
X57219642Y-118657142D01*
X57148214Y-118585714D01*
X57076785Y-118442857D01*
X57076785Y-118014285D01*
X57148214Y-117871428D01*
X57219642Y-117800000D01*
X57362500Y-117728571D01*
X57648214Y-117728571D01*
X57791071Y-117800000D01*
X58433928Y-118728571D02*
X58433928Y-117228571D01*
X59076785Y-118728571D02*
X59076785Y-117942857D01*
X59005357Y-117800000D01*
X58862500Y-117728571D01*
X58648214Y-117728571D01*
X58505357Y-117800000D01*
X58433928Y-117871428D01*
X60433928Y-118728571D02*
X60433928Y-117942857D01*
X60362500Y-117800000D01*
X60219642Y-117728571D01*
X59933928Y-117728571D01*
X59791071Y-117800000D01*
X60433928Y-118657142D02*
X60291071Y-118728571D01*
X59933928Y-118728571D01*
X59791071Y-118657142D01*
X59719642Y-118514285D01*
X59719642Y-118371428D01*
X59791071Y-118228571D01*
X59933928Y-118157142D01*
X60291071Y-118157142D01*
X60433928Y-118085714D01*
X61719642Y-118657142D02*
X61576785Y-118728571D01*
X61291071Y-118728571D01*
X61148214Y-118657142D01*
X61076785Y-118514285D01*
X61076785Y-117942857D01*
X61148214Y-117800000D01*
X61291071Y-117728571D01*
X61576785Y-117728571D01*
X61719642Y-117800000D01*
X61791071Y-117942857D01*
X61791071Y-118085714D01*
X61076785Y-118228571D01*
X62648214Y-118728571D02*
X62505357Y-118657142D01*
X62433928Y-118514285D01*
X62433928Y-117228571D01*
X64219642Y-117228571D02*
X64576785Y-118728571D01*
X64862500Y-117657142D01*
X65148214Y-118728571D01*
X65505357Y-117228571D01*
X66719642Y-118728571D02*
X66719642Y-117942857D01*
X66648214Y-117800000D01*
X66505357Y-117728571D01*
X66219642Y-117728571D01*
X66076785Y-117800000D01*
X66719642Y-118657142D02*
X66576785Y-118728571D01*
X66219642Y-118728571D01*
X66076785Y-118657142D01*
X66005357Y-118514285D01*
X66005357Y-118371428D01*
X66076785Y-118228571D01*
X66219642Y-118157142D01*
X66576785Y-118157142D01*
X66719642Y-118085714D01*
X68076785Y-117728571D02*
X68076785Y-118942857D01*
X68005357Y-119085714D01*
X67933928Y-119157142D01*
X67791071Y-119228571D01*
X67576785Y-119228571D01*
X67433928Y-119157142D01*
X68076785Y-118657142D02*
X67933928Y-118728571D01*
X67648214Y-118728571D01*
X67505357Y-118657142D01*
X67433928Y-118585714D01*
X67362500Y-118442857D01*
X67362500Y-118014285D01*
X67433928Y-117871428D01*
X67505357Y-117800000D01*
X67648214Y-117728571D01*
X67933928Y-117728571D01*
X68076785Y-117800000D01*
X68791071Y-117728571D02*
X68791071Y-118728571D01*
X68791071Y-117871428D02*
X68862500Y-117800000D01*
X69005357Y-117728571D01*
X69219642Y-117728571D01*
X69362500Y-117800000D01*
X69433928Y-117942857D01*
X69433928Y-118728571D01*
X70719642Y-118657142D02*
X70576785Y-118728571D01*
X70291071Y-118728571D01*
X70148214Y-118657142D01*
X70076785Y-118514285D01*
X70076785Y-117942857D01*
X70148214Y-117800000D01*
X70291071Y-117728571D01*
X70576785Y-117728571D01*
X70719642Y-117800000D01*
X70791071Y-117942857D01*
X70791071Y-118085714D01*
X70076785Y-118228571D01*
X71433928Y-118728571D02*
X71433928Y-117728571D01*
X71433928Y-118014285D02*
X71505357Y-117871428D01*
X71576785Y-117800000D01*
X71719642Y-117728571D01*
X71862500Y-117728571D01*
D13*
X39570000Y-120080000D02*
G75*
G02X41570000Y-120080000I1000000J0D01*
G01*
X41570000Y-120080000D02*
X50440000Y-120080000D01*
X50440000Y-120080000D02*
X50440000Y-38680000D01*
X50440000Y-38680000D02*
X30700000Y-38680000D01*
X30700000Y-38680000D02*
X30700000Y-120080000D01*
X30700000Y-120080000D02*
X39570000Y-120080000D01*
X53440000Y-120140000D02*
X53440000Y-38620000D01*
X53440000Y-38620000D02*
X27700000Y-38620000D01*
X27700000Y-38620000D02*
X27700000Y-120140000D01*
X27700000Y-120140000D02*
X53440000Y-120140000D01*
X97899721Y-63110000D02*
X98225279Y-63110000D01*
X97899721Y-62090000D02*
X98225279Y-62090000D01*
X85301000Y-118875000D02*
X84791000Y-118525000D01*
X87811000Y-118675000D02*
X88071000Y-118675000D01*
X87611000Y-118875000D02*
X87811000Y-118675000D01*
X78211000Y-118875000D02*
X78421000Y-118675000D01*
X78421000Y-118525000D02*
X78421000Y-118675000D01*
X78421000Y-118525000D02*
X84791000Y-118525000D01*
X75321000Y-113915000D02*
X75321000Y-115715000D01*
X75321000Y-107915000D02*
X75321000Y-112615000D01*
X76351000Y-118875000D02*
X76151000Y-118675000D01*
X76351000Y-118875000D02*
X78211000Y-118875000D01*
X87611000Y-118875000D02*
X85301000Y-118875000D01*
X75321000Y-102605000D02*
X75321000Y-106215000D01*
X75771000Y-102605000D02*
X75321000Y-102605000D01*
X89291000Y-102605000D02*
X89291000Y-116615000D01*
X87371000Y-102605000D02*
X89291000Y-102605000D01*
X94940000Y-66087221D02*
X94940000Y-66412779D01*
X95960000Y-66087221D02*
X95960000Y-66412779D01*
X88270000Y-78662600D02*
X87320000Y-78662600D01*
X87320000Y-78662600D02*
X87320000Y-79612600D01*
X96590000Y-78662600D02*
X97540000Y-78662600D01*
X97540000Y-78662600D02*
X97540000Y-79612600D01*
X88270000Y-88882600D02*
X87320000Y-88882600D01*
X87320000Y-88882600D02*
X87320000Y-87932600D01*
X96590000Y-88882600D02*
X97540000Y-88882600D01*
X97540000Y-88882600D02*
X97540000Y-87932600D01*
X97540000Y-87932600D02*
X98880000Y-87932600D01*
X75840000Y-41140000D02*
X74890000Y-41140000D01*
X74890000Y-41140000D02*
X74890000Y-42090000D01*
X94160000Y-41140000D02*
X95110000Y-41140000D01*
X95110000Y-41140000D02*
X95110000Y-42090000D01*
X75840000Y-61360000D02*
X74890000Y-61360000D01*
X74890000Y-61360000D02*
X74890000Y-60410000D01*
X94160000Y-61360000D02*
X95110000Y-61360000D01*
X95110000Y-61360000D02*
X95110000Y-60410000D01*
X74890000Y-42090000D02*
X73600000Y-42090000D01*
X92047600Y-73218259D02*
X92047600Y-72892701D01*
X93067600Y-73218259D02*
X93067600Y-72892701D01*
X110573280Y-45247779D02*
X110573280Y-44922221D01*
X109553280Y-45247779D02*
X109553280Y-44922221D01*
X110840000Y-48487779D02*
X110840000Y-48162221D01*
X111860000Y-48487779D02*
X111860000Y-48162221D01*
X103841600Y-80585779D02*
X103841600Y-80260221D01*
X102821600Y-80585779D02*
X102821600Y-80260221D01*
X84677300Y-81385879D02*
X84677300Y-81060321D01*
X83657300Y-81385879D02*
X83657300Y-81060321D01*
X98279321Y-90597700D02*
X98604879Y-90597700D01*
X98279321Y-89577700D02*
X98604879Y-89577700D01*
D14*
X93009000Y-113663000D02*
G75*
G03X93009000Y-113663000I-254000J0D01*
G01*
D15*
X107375000Y-117553000D02*
X93375000Y-117553000D01*
X107375000Y-105153000D02*
X107375000Y-117553000D01*
X93375000Y-105153000D02*
X107375000Y-105153000D01*
X93375000Y-117553000D02*
X93375000Y-105153000D01*
D13*
X119777800Y-87550240D02*
X113367800Y-87550240D01*
X118547800Y-78850240D02*
X118547800Y-87550240D01*
X113367800Y-78850240D02*
X119777800Y-78850240D01*
X113367800Y-87550240D02*
X113367800Y-78850240D01*
X119777800Y-87550240D02*
X119777800Y-78850240D01*
X93969479Y-101519700D02*
X93643921Y-101519700D01*
X93969479Y-100499700D02*
X93643921Y-100499700D01*
X105895639Y-85904840D02*
X105570081Y-85904840D01*
X105895639Y-86924840D02*
X105570081Y-86924840D01*
X86781500Y-90572621D02*
X86781500Y-90898179D01*
X87801500Y-90572621D02*
X87801500Y-90898179D01*
X86264800Y-90572621D02*
X86264800Y-90898179D01*
X85244800Y-90572621D02*
X85244800Y-90898179D01*
X106905200Y-80494879D02*
X106905200Y-80169321D01*
X105885200Y-80494879D02*
X105885200Y-80169321D01*
X104361200Y-80520379D02*
X104361200Y-80194821D01*
X105381200Y-80520379D02*
X105381200Y-80194821D01*
X107424940Y-45240239D02*
X107424940Y-44914681D01*
X106404940Y-45240239D02*
X106404940Y-44914681D01*
X114137221Y-49385000D02*
X114462779Y-49385000D01*
X114137221Y-48365000D02*
X114462779Y-48365000D01*
X107940000Y-45262779D02*
X107940000Y-44937221D01*
X108960000Y-45262779D02*
X108960000Y-44937221D01*
X113387221Y-50115000D02*
X113712779Y-50115000D01*
X113387221Y-51135000D02*
X113712779Y-51135000D01*
X112614000Y-90174479D02*
X112614000Y-89848921D01*
X113634000Y-90174479D02*
X113634000Y-89848921D01*
X76260000Y-67337221D02*
X76260000Y-67662779D01*
X75240000Y-67337221D02*
X75240000Y-67662779D01*
X73590000Y-67487221D02*
X73590000Y-67812779D01*
X74610000Y-67487221D02*
X74610000Y-67812779D01*
X94590000Y-39512779D02*
X94590000Y-39187221D01*
X95610000Y-39512779D02*
X95610000Y-39187221D01*
X115909000Y-90224479D02*
X115909000Y-89898921D01*
X114889000Y-90224479D02*
X114889000Y-89898921D01*
X93810000Y-35762779D02*
X93810000Y-35437221D01*
X92790000Y-35762779D02*
X92790000Y-35437221D01*
X113782000Y-104392679D02*
X113782000Y-104067121D01*
X112762000Y-104392679D02*
X112762000Y-104067121D01*
X116549221Y-104203400D02*
X116874779Y-104203400D01*
X116549221Y-103183400D02*
X116874779Y-103183400D01*
X89655700Y-92071221D02*
X89655700Y-92396779D01*
X88635700Y-92071221D02*
X88635700Y-92396779D01*
X84292300Y-85746621D02*
X84292300Y-86072179D01*
X85312300Y-85746621D02*
X85312300Y-86072179D01*
X94211000Y-75442279D02*
X94211000Y-75116721D01*
X95231000Y-75442279D02*
X95231000Y-75116721D01*
X69010000Y-67587221D02*
X69010000Y-67912779D01*
X67990000Y-67587221D02*
X67990000Y-67912779D01*
X90468821Y-75620400D02*
X90794379Y-75620400D01*
X90468821Y-76640400D02*
X90794379Y-76640400D01*
X115722200Y-45565200D02*
X115722200Y-47025200D01*
X112562200Y-45565200D02*
X112562200Y-47725200D01*
X112562200Y-45565200D02*
X113492200Y-45565200D01*
X115722200Y-45565200D02*
X114792200Y-45565200D01*
X120300000Y-20570000D02*
X120300000Y-29170000D01*
X120300000Y-29170000D02*
X89330000Y-29170000D01*
X89330000Y-29170000D02*
X89330000Y-20570000D01*
X100750000Y-30064338D02*
X100250000Y-30064338D01*
X100250000Y-30064338D02*
X100500000Y-29631325D01*
X100500000Y-29631325D02*
X100750000Y-30064338D01*
X99308021Y-95068100D02*
X99633579Y-95068100D01*
X99308021Y-94048100D02*
X99633579Y-94048100D01*
X99287221Y-95590000D02*
X99612779Y-95590000D01*
X99287221Y-96610000D02*
X99612779Y-96610000D01*
X99308021Y-98217700D02*
X99633579Y-98217700D01*
X99308021Y-97197700D02*
X99633579Y-97197700D01*
X101797121Y-84497700D02*
X102122679Y-84497700D01*
X101797121Y-85517700D02*
X102122679Y-85517700D01*
X102304900Y-80585779D02*
X102304900Y-80260221D01*
X101284900Y-80585779D02*
X101284900Y-80260221D01*
X94020079Y-91956600D02*
X93694521Y-91956600D01*
X94020079Y-90936600D02*
X93694521Y-90936600D01*
X95919000Y-70863879D02*
X95919000Y-70538321D01*
X94899000Y-70863879D02*
X94899000Y-70538321D01*
X98685721Y-76103000D02*
X99011279Y-76103000D01*
X98685721Y-77123000D02*
X99011279Y-77123000D01*
X92249000Y-111672721D02*
X92249000Y-111998279D01*
X91229000Y-111672721D02*
X91229000Y-111998279D01*
X109267000Y-111795279D02*
X109267000Y-111469721D01*
X108247000Y-111795279D02*
X108247000Y-111469721D01*
X102874941Y-94512900D02*
X103200499Y-94512900D01*
X102874941Y-95532900D02*
X103200499Y-95532900D01*
X83759720Y-76290141D02*
X83759720Y-76615699D01*
X84779720Y-76290141D02*
X84779720Y-76615699D01*
X116549221Y-104740000D02*
X116874779Y-104740000D01*
X116549221Y-105760000D02*
X116874779Y-105760000D01*
X92480400Y-95978300D02*
X92480400Y-97928300D01*
X92480400Y-95978300D02*
X92480400Y-94028300D01*
X97600400Y-95978300D02*
X97600400Y-97928300D01*
X97600400Y-95978300D02*
X97600400Y-92528300D01*
X32000000Y-25850000D02*
X34500000Y-25850000D01*
X32000000Y-21650000D02*
X34000000Y-21650000D01*
X32000000Y-30600000D02*
X34500000Y-30600000D01*
X32000000Y-26400000D02*
X34000000Y-26400000D01*
X32000000Y-31150000D02*
X34000000Y-31150000D01*
X32000000Y-35350000D02*
X34500000Y-35350000D01*
D14*
X58200000Y-22380000D02*
X38800000Y-22380000D01*
D13*
X39800000Y-34620000D02*
X58200000Y-34620000D01*
X96440900Y-70339200D02*
X96440900Y-73789200D01*
X96440900Y-70339200D02*
X96440900Y-68389200D01*
X101560900Y-70339200D02*
X101560900Y-72289200D01*
X101560900Y-70339200D02*
X101560900Y-68389200D01*
X63650000Y-65500000D02*
X63650000Y-63500000D01*
X67850000Y-65500000D02*
X67850000Y-63000000D01*
X73350000Y-65500000D02*
X73350000Y-63000000D01*
X69150000Y-65500000D02*
X69150000Y-63500000D01*
X109360000Y-56885000D02*
X109810000Y-56885000D01*
X109810000Y-56885000D02*
X109810000Y-56435000D01*
X103040000Y-56885000D02*
X102590000Y-56885000D01*
X102590000Y-56885000D02*
X102590000Y-56435000D01*
X109360000Y-49665000D02*
X109810000Y-49665000D01*
X109810000Y-49665000D02*
X109810000Y-50115000D01*
X103040000Y-49665000D02*
X102590000Y-49665000D01*
X102590000Y-49665000D02*
X102590000Y-50115000D01*
X102590000Y-50115000D02*
X101300000Y-50115000D01*
X83604600Y-71697200D02*
X83604600Y-73497200D01*
X86824600Y-73497200D02*
X86824600Y-71047200D01*
X118834000Y-91999200D02*
X118834000Y-98009200D01*
X112014000Y-94249200D02*
X112014000Y-98009200D01*
X118834000Y-98009200D02*
X117574000Y-98009200D01*
X112014000Y-98009200D02*
X113274000Y-98009200D01*
X112187000Y-112717400D02*
X113447000Y-112717400D01*
X119007000Y-112717400D02*
X117747000Y-112717400D01*
X112187000Y-108957400D02*
X112187000Y-112717400D01*
X119007000Y-106707400D02*
X119007000Y-112717400D01*
X101871700Y-93537000D02*
X101811700Y-93537000D01*
X101811700Y-93537000D02*
X101811700Y-88057000D01*
X101811700Y-88057000D02*
X101871700Y-88057000D01*
X106951700Y-93537000D02*
X104071700Y-93537000D01*
X109151700Y-87597000D02*
X109151700Y-88057000D01*
X109151700Y-88057000D02*
X109211700Y-88057000D01*
X109211700Y-88057000D02*
X109211700Y-93537000D01*
X109211700Y-93537000D02*
X109151700Y-93537000D01*
X104071700Y-88057000D02*
X106951700Y-88057000D01*
X106951700Y-88057000D02*
X106951700Y-87597000D01*
D16*
X39808095Y-120532380D02*
X39808095Y-121341904D01*
X39855714Y-121437142D01*
X39903333Y-121484761D01*
X39998571Y-121532380D01*
X40189047Y-121532380D01*
X40284285Y-121484761D01*
X40331904Y-121437142D01*
X40379523Y-121341904D01*
X40379523Y-120532380D01*
X40808095Y-120627619D02*
X40855714Y-120580000D01*
X40950952Y-120532380D01*
X41189047Y-120532380D01*
X41284285Y-120580000D01*
X41331904Y-120627619D01*
X41379523Y-120722857D01*
X41379523Y-120818095D01*
X41331904Y-120960952D01*
X40760476Y-121532380D01*
X41379523Y-121532380D01*
X97895833Y-61622380D02*
X97562500Y-61146190D01*
X97324404Y-61622380D02*
X97324404Y-60622380D01*
X97705357Y-60622380D01*
X97800595Y-60670000D01*
X97848214Y-60717619D01*
X97895833Y-60812857D01*
X97895833Y-60955714D01*
X97848214Y-61050952D01*
X97800595Y-61098571D01*
X97705357Y-61146190D01*
X97324404Y-61146190D01*
X98467261Y-61050952D02*
X98372023Y-61003333D01*
X98324404Y-60955714D01*
X98276785Y-60860476D01*
X98276785Y-60812857D01*
X98324404Y-60717619D01*
X98372023Y-60670000D01*
X98467261Y-60622380D01*
X98657738Y-60622380D01*
X98752976Y-60670000D01*
X98800595Y-60717619D01*
X98848214Y-60812857D01*
X98848214Y-60860476D01*
X98800595Y-60955714D01*
X98752976Y-61003333D01*
X98657738Y-61050952D01*
X98467261Y-61050952D01*
X98372023Y-61098571D01*
X98324404Y-61146190D01*
X98276785Y-61241428D01*
X98276785Y-61431904D01*
X98324404Y-61527142D01*
X98372023Y-61574761D01*
X98467261Y-61622380D01*
X98657738Y-61622380D01*
X98752976Y-61574761D01*
X98800595Y-61527142D01*
X98848214Y-61431904D01*
X98848214Y-61241428D01*
X98800595Y-61146190D01*
X98752976Y-61098571D01*
X98657738Y-61050952D01*
X81887666Y-110302380D02*
X81887666Y-111016666D01*
X81840047Y-111159523D01*
X81744809Y-111254761D01*
X81601952Y-111302380D01*
X81506714Y-111302380D01*
X82506714Y-110730952D02*
X82411476Y-110683333D01*
X82363857Y-110635714D01*
X82316238Y-110540476D01*
X82316238Y-110492857D01*
X82363857Y-110397619D01*
X82411476Y-110350000D01*
X82506714Y-110302380D01*
X82697190Y-110302380D01*
X82792428Y-110350000D01*
X82840047Y-110397619D01*
X82887666Y-110492857D01*
X82887666Y-110540476D01*
X82840047Y-110635714D01*
X82792428Y-110683333D01*
X82697190Y-110730952D01*
X82506714Y-110730952D01*
X82411476Y-110778571D01*
X82363857Y-110826190D01*
X82316238Y-110921428D01*
X82316238Y-111111904D01*
X82363857Y-111207142D01*
X82411476Y-111254761D01*
X82506714Y-111302380D01*
X82697190Y-111302380D01*
X82792428Y-111254761D01*
X82840047Y-111207142D01*
X82887666Y-111111904D01*
X82887666Y-110921428D01*
X82840047Y-110826190D01*
X82792428Y-110778571D01*
X82697190Y-110730952D01*
X93202380Y-66792857D02*
X92726190Y-67126190D01*
X93202380Y-67364285D02*
X92202380Y-67364285D01*
X92202380Y-66983333D01*
X92250000Y-66888095D01*
X92297619Y-66840476D01*
X92392857Y-66792857D01*
X92535714Y-66792857D01*
X92630952Y-66840476D01*
X92678571Y-66888095D01*
X92726190Y-66983333D01*
X92726190Y-67364285D01*
X93202380Y-65840476D02*
X93202380Y-66411904D01*
X93202380Y-66126190D02*
X92202380Y-66126190D01*
X92345238Y-66221428D01*
X92440476Y-66316666D01*
X92488095Y-66411904D01*
X93202380Y-64888095D02*
X93202380Y-65459523D01*
X93202380Y-65173809D02*
X92202380Y-65173809D01*
X92345238Y-65269047D01*
X92440476Y-65364285D01*
X92488095Y-65459523D01*
X99563095Y-86927380D02*
X99563095Y-87736904D01*
X99610714Y-87832142D01*
X99658333Y-87879761D01*
X99753571Y-87927380D01*
X99944047Y-87927380D01*
X100039285Y-87879761D01*
X100086904Y-87832142D01*
X100134523Y-87736904D01*
X100134523Y-86927380D01*
X100515476Y-86927380D02*
X101134523Y-86927380D01*
X100801190Y-87308333D01*
X100944047Y-87308333D01*
X101039285Y-87355952D01*
X101086904Y-87403571D01*
X101134523Y-87498809D01*
X101134523Y-87736904D01*
X101086904Y-87832142D01*
X101039285Y-87879761D01*
X100944047Y-87927380D01*
X100658333Y-87927380D01*
X100563095Y-87879761D01*
X100515476Y-87832142D01*
X83761904Y-38352380D02*
X83761904Y-39161904D01*
X83809523Y-39257142D01*
X83857142Y-39304761D01*
X83952380Y-39352380D01*
X84142857Y-39352380D01*
X84238095Y-39304761D01*
X84285714Y-39257142D01*
X84333333Y-39161904D01*
X84333333Y-38352380D01*
X85333333Y-39352380D02*
X84761904Y-39352380D01*
X85047619Y-39352380D02*
X85047619Y-38352380D01*
X84952380Y-38495238D01*
X84857142Y-38590476D01*
X84761904Y-38638095D01*
X85666666Y-38352380D02*
X86285714Y-38352380D01*
X85952380Y-38733333D01*
X86095238Y-38733333D01*
X86190476Y-38780952D01*
X86238095Y-38828571D01*
X86285714Y-38923809D01*
X86285714Y-39161904D01*
X86238095Y-39257142D01*
X86190476Y-39304761D01*
X86095238Y-39352380D01*
X85809523Y-39352380D01*
X85714285Y-39304761D01*
X85666666Y-39257142D01*
X91302380Y-72342857D02*
X90826190Y-72676190D01*
X91302380Y-72914285D02*
X90302380Y-72914285D01*
X90302380Y-72533333D01*
X90350000Y-72438095D01*
X90397619Y-72390476D01*
X90492857Y-72342857D01*
X90635714Y-72342857D01*
X90730952Y-72390476D01*
X90778571Y-72438095D01*
X90826190Y-72533333D01*
X90826190Y-72914285D01*
X91302380Y-71390476D02*
X91302380Y-71961904D01*
X91302380Y-71676190D02*
X90302380Y-71676190D01*
X90445238Y-71771428D01*
X90540476Y-71866666D01*
X90588095Y-71961904D01*
X90302380Y-70485714D02*
X90302380Y-70961904D01*
X90778571Y-71009523D01*
X90730952Y-70961904D01*
X90683333Y-70866666D01*
X90683333Y-70628571D01*
X90730952Y-70533333D01*
X90778571Y-70485714D01*
X90873809Y-70438095D01*
X91111904Y-70438095D01*
X91207142Y-70485714D01*
X91254761Y-70533333D01*
X91302380Y-70628571D01*
X91302380Y-70866666D01*
X91254761Y-70961904D01*
X91207142Y-71009523D01*
X112102380Y-44392857D02*
X111626190Y-44726190D01*
X112102380Y-44964285D02*
X111102380Y-44964285D01*
X111102380Y-44583333D01*
X111150000Y-44488095D01*
X111197619Y-44440476D01*
X111292857Y-44392857D01*
X111435714Y-44392857D01*
X111530952Y-44440476D01*
X111578571Y-44488095D01*
X111626190Y-44583333D01*
X111626190Y-44964285D01*
X111197619Y-44011904D02*
X111150000Y-43964285D01*
X111102380Y-43869047D01*
X111102380Y-43630952D01*
X111150000Y-43535714D01*
X111197619Y-43488095D01*
X111292857Y-43440476D01*
X111388095Y-43440476D01*
X111530952Y-43488095D01*
X112102380Y-44059523D01*
X112102380Y-43440476D01*
X111102380Y-42821428D02*
X111102380Y-42726190D01*
X111150000Y-42630952D01*
X111197619Y-42583333D01*
X111292857Y-42535714D01*
X111483333Y-42488095D01*
X111721428Y-42488095D01*
X111911904Y-42535714D01*
X112007142Y-42583333D01*
X112054761Y-42630952D01*
X112102380Y-42726190D01*
X112102380Y-42821428D01*
X112054761Y-42916666D01*
X112007142Y-42964285D01*
X111911904Y-43011904D01*
X111721428Y-43059523D01*
X111483333Y-43059523D01*
X111292857Y-43011904D01*
X111197619Y-42964285D01*
X111150000Y-42916666D01*
X111102380Y-42821428D01*
X110372380Y-48967857D02*
X109896190Y-49301190D01*
X110372380Y-49539285D02*
X109372380Y-49539285D01*
X109372380Y-49158333D01*
X109420000Y-49063095D01*
X109467619Y-49015476D01*
X109562857Y-48967857D01*
X109705714Y-48967857D01*
X109800952Y-49015476D01*
X109848571Y-49063095D01*
X109896190Y-49158333D01*
X109896190Y-49539285D01*
X110372380Y-48015476D02*
X110372380Y-48586904D01*
X110372380Y-48301190D02*
X109372380Y-48301190D01*
X109515238Y-48396428D01*
X109610476Y-48491666D01*
X109658095Y-48586904D01*
X109372380Y-47158333D02*
X109372380Y-47348809D01*
X109420000Y-47444047D01*
X109467619Y-47491666D01*
X109610476Y-47586904D01*
X109800952Y-47634523D01*
X110181904Y-47634523D01*
X110277142Y-47586904D01*
X110324761Y-47539285D01*
X110372380Y-47444047D01*
X110372380Y-47253571D01*
X110324761Y-47158333D01*
X110277142Y-47110714D01*
X110181904Y-47063095D01*
X109943809Y-47063095D01*
X109848571Y-47110714D01*
X109800952Y-47158333D01*
X109753333Y-47253571D01*
X109753333Y-47444047D01*
X109800952Y-47539285D01*
X109848571Y-47586904D01*
X109943809Y-47634523D01*
X103907142Y-75642857D02*
X103954761Y-75690476D01*
X104002380Y-75833333D01*
X104002380Y-75928571D01*
X103954761Y-76071428D01*
X103859523Y-76166666D01*
X103764285Y-76214285D01*
X103573809Y-76261904D01*
X103430952Y-76261904D01*
X103240476Y-76214285D01*
X103145238Y-76166666D01*
X103050000Y-76071428D01*
X103002380Y-75928571D01*
X103002380Y-75833333D01*
X103050000Y-75690476D01*
X103097619Y-75642857D01*
X103002380Y-74785714D02*
X103002380Y-74976190D01*
X103050000Y-75071428D01*
X103097619Y-75119047D01*
X103240476Y-75214285D01*
X103430952Y-75261904D01*
X103811904Y-75261904D01*
X103907142Y-75214285D01*
X103954761Y-75166666D01*
X104002380Y-75071428D01*
X104002380Y-74880952D01*
X103954761Y-74785714D01*
X103907142Y-74738095D01*
X103811904Y-74690476D01*
X103573809Y-74690476D01*
X103478571Y-74738095D01*
X103430952Y-74785714D01*
X103383333Y-74880952D01*
X103383333Y-75071428D01*
X103430952Y-75166666D01*
X103478571Y-75214285D01*
X103573809Y-75261904D01*
X103430952Y-74119047D02*
X103383333Y-74214285D01*
X103335714Y-74261904D01*
X103240476Y-74309523D01*
X103192857Y-74309523D01*
X103097619Y-74261904D01*
X103050000Y-74214285D01*
X103002380Y-74119047D01*
X103002380Y-73928571D01*
X103050000Y-73833333D01*
X103097619Y-73785714D01*
X103192857Y-73738095D01*
X103240476Y-73738095D01*
X103335714Y-73785714D01*
X103383333Y-73833333D01*
X103430952Y-73928571D01*
X103430952Y-74119047D01*
X103478571Y-74214285D01*
X103526190Y-74261904D01*
X103621428Y-74309523D01*
X103811904Y-74309523D01*
X103907142Y-74261904D01*
X103954761Y-74214285D01*
X104002380Y-74119047D01*
X104002380Y-73928571D01*
X103954761Y-73833333D01*
X103907142Y-73785714D01*
X103811904Y-73738095D01*
X103621428Y-73738095D01*
X103526190Y-73785714D01*
X103478571Y-73833333D01*
X103430952Y-73928571D01*
X83094442Y-81865957D02*
X83142061Y-81913576D01*
X83189680Y-82056433D01*
X83189680Y-82151671D01*
X83142061Y-82294528D01*
X83046823Y-82389766D01*
X82951585Y-82437385D01*
X82761109Y-82485004D01*
X82618252Y-82485004D01*
X82427776Y-82437385D01*
X82332538Y-82389766D01*
X82237300Y-82294528D01*
X82189680Y-82151671D01*
X82189680Y-82056433D01*
X82237300Y-81913576D01*
X82284919Y-81865957D01*
X82189680Y-81532623D02*
X82189680Y-80865957D01*
X83189680Y-81294528D01*
X82189680Y-80294528D02*
X82189680Y-80199290D01*
X82237300Y-80104052D01*
X82284919Y-80056433D01*
X82380157Y-80008814D01*
X82570633Y-79961195D01*
X82808728Y-79961195D01*
X82999204Y-80008814D01*
X83094442Y-80056433D01*
X83142061Y-80104052D01*
X83189680Y-80199290D01*
X83189680Y-80294528D01*
X83142061Y-80389766D01*
X83094442Y-80437385D01*
X82999204Y-80485004D01*
X82808728Y-80532623D01*
X82570633Y-80532623D01*
X82380157Y-80485004D01*
X82284919Y-80437385D01*
X82237300Y-80389766D01*
X82189680Y-80294528D01*
X101207142Y-90942857D02*
X101254761Y-90990476D01*
X101302380Y-91133333D01*
X101302380Y-91228571D01*
X101254761Y-91371428D01*
X101159523Y-91466666D01*
X101064285Y-91514285D01*
X100873809Y-91561904D01*
X100730952Y-91561904D01*
X100540476Y-91514285D01*
X100445238Y-91466666D01*
X100350000Y-91371428D01*
X100302380Y-91228571D01*
X100302380Y-91133333D01*
X100350000Y-90990476D01*
X100397619Y-90942857D01*
X100302380Y-90085714D02*
X100302380Y-90276190D01*
X100350000Y-90371428D01*
X100397619Y-90419047D01*
X100540476Y-90514285D01*
X100730952Y-90561904D01*
X101111904Y-90561904D01*
X101207142Y-90514285D01*
X101254761Y-90466666D01*
X101302380Y-90371428D01*
X101302380Y-90180952D01*
X101254761Y-90085714D01*
X101207142Y-90038095D01*
X101111904Y-89990476D01*
X100873809Y-89990476D01*
X100778571Y-90038095D01*
X100730952Y-90085714D01*
X100683333Y-90180952D01*
X100683333Y-90371428D01*
X100730952Y-90466666D01*
X100778571Y-90514285D01*
X100873809Y-90561904D01*
X101302380Y-89514285D02*
X101302380Y-89323809D01*
X101254761Y-89228571D01*
X101207142Y-89180952D01*
X101064285Y-89085714D01*
X100873809Y-89038095D01*
X100492857Y-89038095D01*
X100397619Y-89085714D01*
X100350000Y-89133333D01*
X100302380Y-89228571D01*
X100302380Y-89419047D01*
X100350000Y-89514285D01*
X100397619Y-89561904D01*
X100492857Y-89609523D01*
X100730952Y-89609523D01*
X100826190Y-89561904D01*
X100873809Y-89514285D01*
X100921428Y-89419047D01*
X100921428Y-89228571D01*
X100873809Y-89133333D01*
X100826190Y-89085714D01*
X100730952Y-89038095D01*
X94966413Y-103851964D02*
X94966413Y-104566793D01*
X94918758Y-104709759D01*
X94823447Y-104805069D01*
X94680481Y-104852724D01*
X94585171Y-104852724D01*
X95395310Y-103947275D02*
X95442965Y-103899620D01*
X95538276Y-103851964D01*
X95776552Y-103851964D01*
X95871862Y-103899620D01*
X95919518Y-103947275D01*
X95967173Y-104042585D01*
X95967173Y-104137896D01*
X95919518Y-104280861D01*
X95347655Y-104852724D01*
X95967173Y-104852724D01*
X111960180Y-83533573D02*
X112674466Y-83533573D01*
X112817323Y-83581192D01*
X112912561Y-83676430D01*
X112960180Y-83819287D01*
X112960180Y-83914525D01*
X112960180Y-82533573D02*
X112960180Y-83105001D01*
X112960180Y-82819287D02*
X111960180Y-82819287D01*
X112103038Y-82914525D01*
X112198276Y-83009763D01*
X112245895Y-83105001D01*
X93640033Y-102796842D02*
X93592414Y-102844461D01*
X93449557Y-102892080D01*
X93354319Y-102892080D01*
X93211461Y-102844461D01*
X93116223Y-102749223D01*
X93068604Y-102653985D01*
X93020985Y-102463509D01*
X93020985Y-102320652D01*
X93068604Y-102130176D01*
X93116223Y-102034938D01*
X93211461Y-101939700D01*
X93354319Y-101892080D01*
X93449557Y-101892080D01*
X93592414Y-101939700D01*
X93640033Y-101987319D01*
X94592414Y-102892080D02*
X94020985Y-102892080D01*
X94306700Y-102892080D02*
X94306700Y-101892080D01*
X94211461Y-102034938D01*
X94116223Y-102130176D01*
X94020985Y-102177795D01*
X105583333Y-84307142D02*
X105535714Y-84354761D01*
X105392857Y-84402380D01*
X105297619Y-84402380D01*
X105154761Y-84354761D01*
X105059523Y-84259523D01*
X105011904Y-84164285D01*
X104964285Y-83973809D01*
X104964285Y-83830952D01*
X105011904Y-83640476D01*
X105059523Y-83545238D01*
X105154761Y-83450000D01*
X105297619Y-83402380D01*
X105392857Y-83402380D01*
X105535714Y-83450000D01*
X105583333Y-83497619D01*
X105964285Y-83497619D02*
X106011904Y-83450000D01*
X106107142Y-83402380D01*
X106345238Y-83402380D01*
X106440476Y-83450000D01*
X106488095Y-83497619D01*
X106535714Y-83592857D01*
X106535714Y-83688095D01*
X106488095Y-83830952D01*
X105916666Y-84402380D01*
X106535714Y-84402380D01*
X87707142Y-93516666D02*
X87754761Y-93564285D01*
X87802380Y-93707142D01*
X87802380Y-93802380D01*
X87754761Y-93945238D01*
X87659523Y-94040476D01*
X87564285Y-94088095D01*
X87373809Y-94135714D01*
X87230952Y-94135714D01*
X87040476Y-94088095D01*
X86945238Y-94040476D01*
X86850000Y-93945238D01*
X86802380Y-93802380D01*
X86802380Y-93707142D01*
X86850000Y-93564285D01*
X86897619Y-93516666D01*
X86802380Y-93183333D02*
X86802380Y-92564285D01*
X87183333Y-92897619D01*
X87183333Y-92754761D01*
X87230952Y-92659523D01*
X87278571Y-92611904D01*
X87373809Y-92564285D01*
X87611904Y-92564285D01*
X87707142Y-92611904D01*
X87754761Y-92659523D01*
X87802380Y-92754761D01*
X87802380Y-93040476D01*
X87754761Y-93135714D01*
X87707142Y-93183333D01*
X86107142Y-93416666D02*
X86154761Y-93464285D01*
X86202380Y-93607142D01*
X86202380Y-93702380D01*
X86154761Y-93845238D01*
X86059523Y-93940476D01*
X85964285Y-93988095D01*
X85773809Y-94035714D01*
X85630952Y-94035714D01*
X85440476Y-93988095D01*
X85345238Y-93940476D01*
X85250000Y-93845238D01*
X85202380Y-93702380D01*
X85202380Y-93607142D01*
X85250000Y-93464285D01*
X85297619Y-93416666D01*
X85535714Y-92559523D02*
X86202380Y-92559523D01*
X85154761Y-92797619D02*
X85869047Y-93035714D01*
X85869047Y-92416666D01*
X106707142Y-75566666D02*
X106754761Y-75614285D01*
X106802380Y-75757142D01*
X106802380Y-75852380D01*
X106754761Y-75995238D01*
X106659523Y-76090476D01*
X106564285Y-76138095D01*
X106373809Y-76185714D01*
X106230952Y-76185714D01*
X106040476Y-76138095D01*
X105945238Y-76090476D01*
X105850000Y-75995238D01*
X105802380Y-75852380D01*
X105802380Y-75757142D01*
X105850000Y-75614285D01*
X105897619Y-75566666D01*
X105802380Y-75233333D02*
X105802380Y-74566666D01*
X106802380Y-74995238D01*
X105307142Y-75616666D02*
X105354761Y-75664285D01*
X105402380Y-75807142D01*
X105402380Y-75902380D01*
X105354761Y-76045238D01*
X105259523Y-76140476D01*
X105164285Y-76188095D01*
X104973809Y-76235714D01*
X104830952Y-76235714D01*
X104640476Y-76188095D01*
X104545238Y-76140476D01*
X104450000Y-76045238D01*
X104402380Y-75902380D01*
X104402380Y-75807142D01*
X104450000Y-75664285D01*
X104497619Y-75616666D01*
X104830952Y-75045238D02*
X104783333Y-75140476D01*
X104735714Y-75188095D01*
X104640476Y-75235714D01*
X104592857Y-75235714D01*
X104497619Y-75188095D01*
X104450000Y-75140476D01*
X104402380Y-75045238D01*
X104402380Y-74854761D01*
X104450000Y-74759523D01*
X104497619Y-74711904D01*
X104592857Y-74664285D01*
X104640476Y-74664285D01*
X104735714Y-74711904D01*
X104783333Y-74759523D01*
X104830952Y-74854761D01*
X104830952Y-75045238D01*
X104878571Y-75140476D01*
X104926190Y-75188095D01*
X105021428Y-75235714D01*
X105211904Y-75235714D01*
X105307142Y-75188095D01*
X105354761Y-75140476D01*
X105402380Y-75045238D01*
X105402380Y-74854761D01*
X105354761Y-74759523D01*
X105307142Y-74711904D01*
X105211904Y-74664285D01*
X105021428Y-74664285D01*
X104926190Y-74711904D01*
X104878571Y-74759523D01*
X104830952Y-74854761D01*
X107257142Y-42592857D02*
X107304761Y-42640476D01*
X107352380Y-42783333D01*
X107352380Y-42878571D01*
X107304761Y-43021428D01*
X107209523Y-43116666D01*
X107114285Y-43164285D01*
X106923809Y-43211904D01*
X106780952Y-43211904D01*
X106590476Y-43164285D01*
X106495238Y-43116666D01*
X106400000Y-43021428D01*
X106352380Y-42878571D01*
X106352380Y-42783333D01*
X106400000Y-42640476D01*
X106447619Y-42592857D01*
X107352380Y-41640476D02*
X107352380Y-42211904D01*
X107352380Y-41926190D02*
X106352380Y-41926190D01*
X106495238Y-42021428D01*
X106590476Y-42116666D01*
X106638095Y-42211904D01*
X106352380Y-41307142D02*
X106352380Y-40640476D01*
X107352380Y-41069047D01*
X116907142Y-49307142D02*
X116859523Y-49354761D01*
X116716666Y-49402380D01*
X116621428Y-49402380D01*
X116478571Y-49354761D01*
X116383333Y-49259523D01*
X116335714Y-49164285D01*
X116288095Y-48973809D01*
X116288095Y-48830952D01*
X116335714Y-48640476D01*
X116383333Y-48545238D01*
X116478571Y-48450000D01*
X116621428Y-48402380D01*
X116716666Y-48402380D01*
X116859523Y-48450000D01*
X116907142Y-48497619D01*
X117859523Y-49402380D02*
X117288095Y-49402380D01*
X117573809Y-49402380D02*
X117573809Y-48402380D01*
X117478571Y-48545238D01*
X117383333Y-48640476D01*
X117288095Y-48688095D01*
X118430952Y-48830952D02*
X118335714Y-48783333D01*
X118288095Y-48735714D01*
X118240476Y-48640476D01*
X118240476Y-48592857D01*
X118288095Y-48497619D01*
X118335714Y-48450000D01*
X118430952Y-48402380D01*
X118621428Y-48402380D01*
X118716666Y-48450000D01*
X118764285Y-48497619D01*
X118811904Y-48592857D01*
X118811904Y-48640476D01*
X118764285Y-48735714D01*
X118716666Y-48783333D01*
X118621428Y-48830952D01*
X118430952Y-48830952D01*
X118335714Y-48878571D01*
X118288095Y-48926190D01*
X118240476Y-49021428D01*
X118240476Y-49211904D01*
X118288095Y-49307142D01*
X118335714Y-49354761D01*
X118430952Y-49402380D01*
X118621428Y-49402380D01*
X118716666Y-49354761D01*
X118764285Y-49307142D01*
X118811904Y-49211904D01*
X118811904Y-49021428D01*
X118764285Y-48926190D01*
X118716666Y-48878571D01*
X118621428Y-48830952D01*
X108856202Y-42670897D02*
X108903821Y-42718516D01*
X108951440Y-42861373D01*
X108951440Y-42956611D01*
X108903821Y-43099468D01*
X108808583Y-43194706D01*
X108713345Y-43242325D01*
X108522869Y-43289944D01*
X108380012Y-43289944D01*
X108189536Y-43242325D01*
X108094298Y-43194706D01*
X107999060Y-43099468D01*
X107951440Y-42956611D01*
X107951440Y-42861373D01*
X107999060Y-42718516D01*
X108046679Y-42670897D01*
X108951440Y-41718516D02*
X108951440Y-42289944D01*
X108951440Y-42004230D02*
X107951440Y-42004230D01*
X108094298Y-42099468D01*
X108189536Y-42194706D01*
X108237155Y-42289944D01*
X108951440Y-41242325D02*
X108951440Y-41051849D01*
X108903821Y-40956611D01*
X108856202Y-40908992D01*
X108713345Y-40813754D01*
X108522869Y-40766135D01*
X108141917Y-40766135D01*
X108046679Y-40813754D01*
X107999060Y-40861373D01*
X107951440Y-40956611D01*
X107951440Y-41147087D01*
X107999060Y-41242325D01*
X108046679Y-41289944D01*
X108141917Y-41337563D01*
X108380012Y-41337563D01*
X108475250Y-41289944D01*
X108522869Y-41242325D01*
X108570488Y-41147087D01*
X108570488Y-40956611D01*
X108522869Y-40861373D01*
X108475250Y-40813754D01*
X108380012Y-40766135D01*
X116657142Y-51057142D02*
X116609523Y-51104761D01*
X116466666Y-51152380D01*
X116371428Y-51152380D01*
X116228571Y-51104761D01*
X116133333Y-51009523D01*
X116085714Y-50914285D01*
X116038095Y-50723809D01*
X116038095Y-50580952D01*
X116085714Y-50390476D01*
X116133333Y-50295238D01*
X116228571Y-50200000D01*
X116371428Y-50152380D01*
X116466666Y-50152380D01*
X116609523Y-50200000D01*
X116657142Y-50247619D01*
X117038095Y-50247619D02*
X117085714Y-50200000D01*
X117180952Y-50152380D01*
X117419047Y-50152380D01*
X117514285Y-50200000D01*
X117561904Y-50247619D01*
X117609523Y-50342857D01*
X117609523Y-50438095D01*
X117561904Y-50580952D01*
X116990476Y-51152380D01*
X117609523Y-51152380D01*
X118228571Y-50152380D02*
X118323809Y-50152380D01*
X118419047Y-50200000D01*
X118466666Y-50247619D01*
X118514285Y-50342857D01*
X118561904Y-50533333D01*
X118561904Y-50771428D01*
X118514285Y-50961904D01*
X118466666Y-51057142D01*
X118419047Y-51104761D01*
X118323809Y-51152380D01*
X118228571Y-51152380D01*
X118133333Y-51104761D01*
X118085714Y-51057142D01*
X118038095Y-50961904D01*
X117990476Y-50771428D01*
X117990476Y-50533333D01*
X118038095Y-50342857D01*
X118085714Y-50247619D01*
X118133333Y-50200000D01*
X118228571Y-50152380D01*
X112051142Y-90654557D02*
X112098761Y-90702176D01*
X112146380Y-90845033D01*
X112146380Y-90940271D01*
X112098761Y-91083128D01*
X112003523Y-91178366D01*
X111908285Y-91225985D01*
X111717809Y-91273604D01*
X111574952Y-91273604D01*
X111384476Y-91225985D01*
X111289238Y-91178366D01*
X111194000Y-91083128D01*
X111146380Y-90940271D01*
X111146380Y-90845033D01*
X111194000Y-90702176D01*
X111241619Y-90654557D01*
X111241619Y-90273604D02*
X111194000Y-90225985D01*
X111146380Y-90130747D01*
X111146380Y-89892652D01*
X111194000Y-89797414D01*
X111241619Y-89749795D01*
X111336857Y-89702176D01*
X111432095Y-89702176D01*
X111574952Y-89749795D01*
X112146380Y-90321223D01*
X112146380Y-89702176D01*
X111146380Y-89368842D02*
X111146380Y-88749795D01*
X111527333Y-89083128D01*
X111527333Y-88940271D01*
X111574952Y-88845033D01*
X111622571Y-88797414D01*
X111717809Y-88749795D01*
X111955904Y-88749795D01*
X112051142Y-88797414D01*
X112098761Y-88845033D01*
X112146380Y-88940271D01*
X112146380Y-89225985D01*
X112098761Y-89321223D01*
X112051142Y-89368842D01*
X78157142Y-68092857D02*
X78204761Y-68140476D01*
X78252380Y-68283333D01*
X78252380Y-68378571D01*
X78204761Y-68521428D01*
X78109523Y-68616666D01*
X78014285Y-68664285D01*
X77823809Y-68711904D01*
X77680952Y-68711904D01*
X77490476Y-68664285D01*
X77395238Y-68616666D01*
X77300000Y-68521428D01*
X77252380Y-68378571D01*
X77252380Y-68283333D01*
X77300000Y-68140476D01*
X77347619Y-68092857D01*
X77347619Y-67711904D02*
X77300000Y-67664285D01*
X77252380Y-67569047D01*
X77252380Y-67330952D01*
X77300000Y-67235714D01*
X77347619Y-67188095D01*
X77442857Y-67140476D01*
X77538095Y-67140476D01*
X77680952Y-67188095D01*
X78252380Y-67759523D01*
X78252380Y-67140476D01*
X77585714Y-66283333D02*
X78252380Y-66283333D01*
X77204761Y-66521428D02*
X77919047Y-66759523D01*
X77919047Y-66140476D01*
X72657142Y-68442857D02*
X72704761Y-68490476D01*
X72752380Y-68633333D01*
X72752380Y-68728571D01*
X72704761Y-68871428D01*
X72609523Y-68966666D01*
X72514285Y-69014285D01*
X72323809Y-69061904D01*
X72180952Y-69061904D01*
X71990476Y-69014285D01*
X71895238Y-68966666D01*
X71800000Y-68871428D01*
X71752380Y-68728571D01*
X71752380Y-68633333D01*
X71800000Y-68490476D01*
X71847619Y-68442857D01*
X71847619Y-68061904D02*
X71800000Y-68014285D01*
X71752380Y-67919047D01*
X71752380Y-67680952D01*
X71800000Y-67585714D01*
X71847619Y-67538095D01*
X71942857Y-67490476D01*
X72038095Y-67490476D01*
X72180952Y-67538095D01*
X72752380Y-68109523D01*
X72752380Y-67490476D01*
X71752380Y-67157142D02*
X71752380Y-66490476D01*
X72752380Y-66919047D01*
X97157142Y-40042857D02*
X97204761Y-40090476D01*
X97252380Y-40233333D01*
X97252380Y-40328571D01*
X97204761Y-40471428D01*
X97109523Y-40566666D01*
X97014285Y-40614285D01*
X96823809Y-40661904D01*
X96680952Y-40661904D01*
X96490476Y-40614285D01*
X96395238Y-40566666D01*
X96300000Y-40471428D01*
X96252380Y-40328571D01*
X96252380Y-40233333D01*
X96300000Y-40090476D01*
X96347619Y-40042857D01*
X96252380Y-39709523D02*
X96252380Y-39090476D01*
X96633333Y-39423809D01*
X96633333Y-39280952D01*
X96680952Y-39185714D01*
X96728571Y-39138095D01*
X96823809Y-39090476D01*
X97061904Y-39090476D01*
X97157142Y-39138095D01*
X97204761Y-39185714D01*
X97252380Y-39280952D01*
X97252380Y-39566666D01*
X97204761Y-39661904D01*
X97157142Y-39709523D01*
X96585714Y-38233333D02*
X97252380Y-38233333D01*
X96204761Y-38471428D02*
X96919047Y-38709523D01*
X96919047Y-38090476D01*
X118707142Y-90692857D02*
X118754761Y-90740476D01*
X118802380Y-90883333D01*
X118802380Y-90978571D01*
X118754761Y-91121428D01*
X118659523Y-91216666D01*
X118564285Y-91264285D01*
X118373809Y-91311904D01*
X118230952Y-91311904D01*
X118040476Y-91264285D01*
X117945238Y-91216666D01*
X117850000Y-91121428D01*
X117802380Y-90978571D01*
X117802380Y-90883333D01*
X117850000Y-90740476D01*
X117897619Y-90692857D01*
X117802380Y-90359523D02*
X117802380Y-89740476D01*
X118183333Y-90073809D01*
X118183333Y-89930952D01*
X118230952Y-89835714D01*
X118278571Y-89788095D01*
X118373809Y-89740476D01*
X118611904Y-89740476D01*
X118707142Y-89788095D01*
X118754761Y-89835714D01*
X118802380Y-89930952D01*
X118802380Y-90216666D01*
X118754761Y-90311904D01*
X118707142Y-90359523D01*
X117802380Y-88883333D02*
X117802380Y-89073809D01*
X117850000Y-89169047D01*
X117897619Y-89216666D01*
X118040476Y-89311904D01*
X118230952Y-89359523D01*
X118611904Y-89359523D01*
X118707142Y-89311904D01*
X118754761Y-89264285D01*
X118802380Y-89169047D01*
X118802380Y-88978571D01*
X118754761Y-88883333D01*
X118707142Y-88835714D01*
X118611904Y-88788095D01*
X118373809Y-88788095D01*
X118278571Y-88835714D01*
X118230952Y-88883333D01*
X118183333Y-88978571D01*
X118183333Y-89169047D01*
X118230952Y-89264285D01*
X118278571Y-89311904D01*
X118373809Y-89359523D01*
X92227142Y-36242857D02*
X92274761Y-36290476D01*
X92322380Y-36433333D01*
X92322380Y-36528571D01*
X92274761Y-36671428D01*
X92179523Y-36766666D01*
X92084285Y-36814285D01*
X91893809Y-36861904D01*
X91750952Y-36861904D01*
X91560476Y-36814285D01*
X91465238Y-36766666D01*
X91370000Y-36671428D01*
X91322380Y-36528571D01*
X91322380Y-36433333D01*
X91370000Y-36290476D01*
X91417619Y-36242857D01*
X91655714Y-35385714D02*
X92322380Y-35385714D01*
X91274761Y-35623809D02*
X91989047Y-35861904D01*
X91989047Y-35242857D01*
X91322380Y-34957142D02*
X91322380Y-34338095D01*
X91703333Y-34671428D01*
X91703333Y-34528571D01*
X91750952Y-34433333D01*
X91798571Y-34385714D01*
X91893809Y-34338095D01*
X92131904Y-34338095D01*
X92227142Y-34385714D01*
X92274761Y-34433333D01*
X92322380Y-34528571D01*
X92322380Y-34814285D01*
X92274761Y-34909523D01*
X92227142Y-34957142D01*
X112199142Y-104872757D02*
X112246761Y-104920376D01*
X112294380Y-105063233D01*
X112294380Y-105158471D01*
X112246761Y-105301328D01*
X112151523Y-105396566D01*
X112056285Y-105444185D01*
X111865809Y-105491804D01*
X111722952Y-105491804D01*
X111532476Y-105444185D01*
X111437238Y-105396566D01*
X111342000Y-105301328D01*
X111294380Y-105158471D01*
X111294380Y-105063233D01*
X111342000Y-104920376D01*
X111389619Y-104872757D01*
X111627714Y-104015614D02*
X112294380Y-104015614D01*
X111246761Y-104253709D02*
X111961047Y-104491804D01*
X111961047Y-103872757D01*
X111627714Y-103063233D02*
X112294380Y-103063233D01*
X111246761Y-103301328D02*
X111961047Y-103539423D01*
X111961047Y-102920376D01*
X114857142Y-102307142D02*
X114809523Y-102354761D01*
X114666666Y-102402380D01*
X114571428Y-102402380D01*
X114428571Y-102354761D01*
X114333333Y-102259523D01*
X114285714Y-102164285D01*
X114238095Y-101973809D01*
X114238095Y-101830952D01*
X114285714Y-101640476D01*
X114333333Y-101545238D01*
X114428571Y-101450000D01*
X114571428Y-101402380D01*
X114666666Y-101402380D01*
X114809523Y-101450000D01*
X114857142Y-101497619D01*
X115714285Y-101735714D02*
X115714285Y-102402380D01*
X115476190Y-101354761D02*
X115238095Y-102069047D01*
X115857142Y-102069047D01*
X116714285Y-101402380D02*
X116238095Y-101402380D01*
X116190476Y-101878571D01*
X116238095Y-101830952D01*
X116333333Y-101783333D01*
X116571428Y-101783333D01*
X116666666Y-101830952D01*
X116714285Y-101878571D01*
X116761904Y-101973809D01*
X116761904Y-102211904D01*
X116714285Y-102307142D01*
X116666666Y-102354761D01*
X116571428Y-102402380D01*
X116333333Y-102402380D01*
X116238095Y-102354761D01*
X116190476Y-102307142D01*
X89007142Y-96392857D02*
X89054761Y-96440476D01*
X89102380Y-96583333D01*
X89102380Y-96678571D01*
X89054761Y-96821428D01*
X88959523Y-96916666D01*
X88864285Y-96964285D01*
X88673809Y-97011904D01*
X88530952Y-97011904D01*
X88340476Y-96964285D01*
X88245238Y-96916666D01*
X88150000Y-96821428D01*
X88102380Y-96678571D01*
X88102380Y-96583333D01*
X88150000Y-96440476D01*
X88197619Y-96392857D01*
X88102380Y-95488095D02*
X88102380Y-95964285D01*
X88578571Y-96011904D01*
X88530952Y-95964285D01*
X88483333Y-95869047D01*
X88483333Y-95630952D01*
X88530952Y-95535714D01*
X88578571Y-95488095D01*
X88673809Y-95440476D01*
X88911904Y-95440476D01*
X89007142Y-95488095D01*
X89054761Y-95535714D01*
X89102380Y-95630952D01*
X89102380Y-95869047D01*
X89054761Y-95964285D01*
X89007142Y-96011904D01*
X88102380Y-94821428D02*
X88102380Y-94726190D01*
X88150000Y-94630952D01*
X88197619Y-94583333D01*
X88292857Y-94535714D01*
X88483333Y-94488095D01*
X88721428Y-94488095D01*
X88911904Y-94535714D01*
X89007142Y-94583333D01*
X89054761Y-94630952D01*
X89102380Y-94726190D01*
X89102380Y-94821428D01*
X89054761Y-94916666D01*
X89007142Y-94964285D01*
X88911904Y-95011904D01*
X88721428Y-95059523D01*
X88483333Y-95059523D01*
X88292857Y-95011904D01*
X88197619Y-94964285D01*
X88150000Y-94916666D01*
X88102380Y-94821428D01*
X83757142Y-86552257D02*
X83804761Y-86599876D01*
X83852380Y-86742733D01*
X83852380Y-86837971D01*
X83804761Y-86980828D01*
X83709523Y-87076066D01*
X83614285Y-87123685D01*
X83423809Y-87171304D01*
X83280952Y-87171304D01*
X83090476Y-87123685D01*
X82995238Y-87076066D01*
X82900000Y-86980828D01*
X82852380Y-86837971D01*
X82852380Y-86742733D01*
X82900000Y-86599876D01*
X82947619Y-86552257D01*
X82852380Y-85695114D02*
X82852380Y-85885590D01*
X82900000Y-85980828D01*
X82947619Y-86028447D01*
X83090476Y-86123685D01*
X83280952Y-86171304D01*
X83661904Y-86171304D01*
X83757142Y-86123685D01*
X83804761Y-86076066D01*
X83852380Y-85980828D01*
X83852380Y-85790352D01*
X83804761Y-85695114D01*
X83757142Y-85647495D01*
X83661904Y-85599876D01*
X83423809Y-85599876D01*
X83328571Y-85647495D01*
X83280952Y-85695114D01*
X83233333Y-85790352D01*
X83233333Y-85980828D01*
X83280952Y-86076066D01*
X83328571Y-86123685D01*
X83423809Y-86171304D01*
X82852380Y-85266542D02*
X82852380Y-84647495D01*
X83233333Y-84980828D01*
X83233333Y-84837971D01*
X83280952Y-84742733D01*
X83328571Y-84695114D01*
X83423809Y-84647495D01*
X83661904Y-84647495D01*
X83757142Y-84695114D01*
X83804761Y-84742733D01*
X83852380Y-84837971D01*
X83852380Y-85123685D01*
X83804761Y-85218923D01*
X83757142Y-85266542D01*
X96657142Y-76042857D02*
X96704761Y-76090476D01*
X96752380Y-76233333D01*
X96752380Y-76328571D01*
X96704761Y-76471428D01*
X96609523Y-76566666D01*
X96514285Y-76614285D01*
X96323809Y-76661904D01*
X96180952Y-76661904D01*
X95990476Y-76614285D01*
X95895238Y-76566666D01*
X95800000Y-76471428D01*
X95752380Y-76328571D01*
X95752380Y-76233333D01*
X95800000Y-76090476D01*
X95847619Y-76042857D01*
X95752380Y-75185714D02*
X95752380Y-75376190D01*
X95800000Y-75471428D01*
X95847619Y-75519047D01*
X95990476Y-75614285D01*
X96180952Y-75661904D01*
X96561904Y-75661904D01*
X96657142Y-75614285D01*
X96704761Y-75566666D01*
X96752380Y-75471428D01*
X96752380Y-75280952D01*
X96704761Y-75185714D01*
X96657142Y-75138095D01*
X96561904Y-75090476D01*
X96323809Y-75090476D01*
X96228571Y-75138095D01*
X96180952Y-75185714D01*
X96133333Y-75280952D01*
X96133333Y-75471428D01*
X96180952Y-75566666D01*
X96228571Y-75614285D01*
X96323809Y-75661904D01*
X96085714Y-74233333D02*
X96752380Y-74233333D01*
X95704761Y-74471428D02*
X96419047Y-74709523D01*
X96419047Y-74090476D01*
X71057142Y-68492857D02*
X71104761Y-68540476D01*
X71152380Y-68683333D01*
X71152380Y-68778571D01*
X71104761Y-68921428D01*
X71009523Y-69016666D01*
X70914285Y-69064285D01*
X70723809Y-69111904D01*
X70580952Y-69111904D01*
X70390476Y-69064285D01*
X70295238Y-69016666D01*
X70200000Y-68921428D01*
X70152380Y-68778571D01*
X70152380Y-68683333D01*
X70200000Y-68540476D01*
X70247619Y-68492857D01*
X70152380Y-67635714D02*
X70152380Y-67826190D01*
X70200000Y-67921428D01*
X70247619Y-67969047D01*
X70390476Y-68064285D01*
X70580952Y-68111904D01*
X70961904Y-68111904D01*
X71057142Y-68064285D01*
X71104761Y-68016666D01*
X71152380Y-67921428D01*
X71152380Y-67730952D01*
X71104761Y-67635714D01*
X71057142Y-67588095D01*
X70961904Y-67540476D01*
X70723809Y-67540476D01*
X70628571Y-67588095D01*
X70580952Y-67635714D01*
X70533333Y-67730952D01*
X70533333Y-67921428D01*
X70580952Y-68016666D01*
X70628571Y-68064285D01*
X70723809Y-68111904D01*
X70152380Y-66635714D02*
X70152380Y-67111904D01*
X70628571Y-67159523D01*
X70580952Y-67111904D01*
X70533333Y-67016666D01*
X70533333Y-66778571D01*
X70580952Y-66683333D01*
X70628571Y-66635714D01*
X70723809Y-66588095D01*
X70961904Y-66588095D01*
X71057142Y-66635714D01*
X71104761Y-66683333D01*
X71152380Y-66778571D01*
X71152380Y-67016666D01*
X71104761Y-67111904D01*
X71057142Y-67159523D01*
X88057142Y-75107142D02*
X88009523Y-75154761D01*
X87866666Y-75202380D01*
X87771428Y-75202380D01*
X87628571Y-75154761D01*
X87533333Y-75059523D01*
X87485714Y-74964285D01*
X87438095Y-74773809D01*
X87438095Y-74630952D01*
X87485714Y-74440476D01*
X87533333Y-74345238D01*
X87628571Y-74250000D01*
X87771428Y-74202380D01*
X87866666Y-74202380D01*
X88009523Y-74250000D01*
X88057142Y-74297619D01*
X88914285Y-74202380D02*
X88723809Y-74202380D01*
X88628571Y-74250000D01*
X88580952Y-74297619D01*
X88485714Y-74440476D01*
X88438095Y-74630952D01*
X88438095Y-75011904D01*
X88485714Y-75107142D01*
X88533333Y-75154761D01*
X88628571Y-75202380D01*
X88819047Y-75202380D01*
X88914285Y-75154761D01*
X88961904Y-75107142D01*
X89009523Y-75011904D01*
X89009523Y-74773809D01*
X88961904Y-74678571D01*
X88914285Y-74630952D01*
X88819047Y-74583333D01*
X88628571Y-74583333D01*
X88533333Y-74630952D01*
X88485714Y-74678571D01*
X88438095Y-74773809D01*
X89866666Y-74202380D02*
X89676190Y-74202380D01*
X89580952Y-74250000D01*
X89533333Y-74297619D01*
X89438095Y-74440476D01*
X89390476Y-74630952D01*
X89390476Y-75011904D01*
X89438095Y-75107142D01*
X89485714Y-75154761D01*
X89580952Y-75202380D01*
X89771428Y-75202380D01*
X89866666Y-75154761D01*
X89914285Y-75107142D01*
X89961904Y-75011904D01*
X89961904Y-74773809D01*
X89914285Y-74678571D01*
X89866666Y-74630952D01*
X89771428Y-74583333D01*
X89580952Y-74583333D01*
X89485714Y-74630952D01*
X89438095Y-74678571D01*
X89390476Y-74773809D01*
X117152380Y-46838095D02*
X116152380Y-46838095D01*
X116152380Y-46600000D01*
X116200000Y-46457142D01*
X116295238Y-46361904D01*
X116390476Y-46314285D01*
X116580952Y-46266666D01*
X116723809Y-46266666D01*
X116914285Y-46314285D01*
X117009523Y-46361904D01*
X117104761Y-46457142D01*
X117152380Y-46600000D01*
X117152380Y-46838095D01*
X116247619Y-45885714D02*
X116200000Y-45838095D01*
X116152380Y-45742857D01*
X116152380Y-45504761D01*
X116200000Y-45409523D01*
X116247619Y-45361904D01*
X116342857Y-45314285D01*
X116438095Y-45314285D01*
X116580952Y-45361904D01*
X117152380Y-45933333D01*
X117152380Y-45314285D01*
X104481666Y-29562380D02*
X104481666Y-30276666D01*
X104434047Y-30419523D01*
X104338809Y-30514761D01*
X104195952Y-30562380D01*
X104100714Y-30562380D01*
X105386428Y-29895714D02*
X105386428Y-30562380D01*
X105148333Y-29514761D02*
X104910238Y-30229047D01*
X105529285Y-30229047D01*
X99304133Y-93580480D02*
X98970800Y-93104290D01*
X98732704Y-93580480D02*
X98732704Y-92580480D01*
X99113657Y-92580480D01*
X99208895Y-92628100D01*
X99256514Y-92675719D01*
X99304133Y-92770957D01*
X99304133Y-92913814D01*
X99256514Y-93009052D01*
X99208895Y-93056671D01*
X99113657Y-93104290D01*
X98732704Y-93104290D01*
X99685085Y-92675719D02*
X99732704Y-92628100D01*
X99827942Y-92580480D01*
X100066038Y-92580480D01*
X100161276Y-92628100D01*
X100208895Y-92675719D01*
X100256514Y-92770957D01*
X100256514Y-92866195D01*
X100208895Y-93009052D01*
X99637466Y-93580480D01*
X100256514Y-93580480D01*
X101883333Y-96852380D02*
X101550000Y-96376190D01*
X101311904Y-96852380D02*
X101311904Y-95852380D01*
X101692857Y-95852380D01*
X101788095Y-95900000D01*
X101835714Y-95947619D01*
X101883333Y-96042857D01*
X101883333Y-96185714D01*
X101835714Y-96280952D01*
X101788095Y-96328571D01*
X101692857Y-96376190D01*
X101311904Y-96376190D01*
X102216666Y-95852380D02*
X102835714Y-95852380D01*
X102502380Y-96233333D01*
X102645238Y-96233333D01*
X102740476Y-96280952D01*
X102788095Y-96328571D01*
X102835714Y-96423809D01*
X102835714Y-96661904D01*
X102788095Y-96757142D01*
X102740476Y-96804761D01*
X102645238Y-96852380D01*
X102359523Y-96852380D01*
X102264285Y-96804761D01*
X102216666Y-96757142D01*
X101883333Y-98352380D02*
X101550000Y-97876190D01*
X101311904Y-98352380D02*
X101311904Y-97352380D01*
X101692857Y-97352380D01*
X101788095Y-97400000D01*
X101835714Y-97447619D01*
X101883333Y-97542857D01*
X101883333Y-97685714D01*
X101835714Y-97780952D01*
X101788095Y-97828571D01*
X101692857Y-97876190D01*
X101311904Y-97876190D01*
X102740476Y-97685714D02*
X102740476Y-98352380D01*
X102502380Y-97304761D02*
X102264285Y-98019047D01*
X102883333Y-98019047D01*
X101793233Y-84030080D02*
X101459900Y-83553890D01*
X101221804Y-84030080D02*
X101221804Y-83030080D01*
X101602757Y-83030080D01*
X101697995Y-83077700D01*
X101745614Y-83125319D01*
X101793233Y-83220557D01*
X101793233Y-83363414D01*
X101745614Y-83458652D01*
X101697995Y-83506271D01*
X101602757Y-83553890D01*
X101221804Y-83553890D01*
X102697995Y-83030080D02*
X102221804Y-83030080D01*
X102174185Y-83506271D01*
X102221804Y-83458652D01*
X102317042Y-83411033D01*
X102555138Y-83411033D01*
X102650376Y-83458652D01*
X102697995Y-83506271D01*
X102745614Y-83601509D01*
X102745614Y-83839604D01*
X102697995Y-83934842D01*
X102650376Y-83982461D01*
X102555138Y-84030080D01*
X102317042Y-84030080D01*
X102221804Y-83982461D01*
X102174185Y-83934842D01*
X102652380Y-75516666D02*
X102176190Y-75850000D01*
X102652380Y-76088095D02*
X101652380Y-76088095D01*
X101652380Y-75707142D01*
X101700000Y-75611904D01*
X101747619Y-75564285D01*
X101842857Y-75516666D01*
X101985714Y-75516666D01*
X102080952Y-75564285D01*
X102128571Y-75611904D01*
X102176190Y-75707142D01*
X102176190Y-76088095D01*
X101652380Y-74659523D02*
X101652380Y-74850000D01*
X101700000Y-74945238D01*
X101747619Y-74992857D01*
X101890476Y-75088095D01*
X102080952Y-75135714D01*
X102461904Y-75135714D01*
X102557142Y-75088095D01*
X102604761Y-75040476D01*
X102652380Y-74945238D01*
X102652380Y-74754761D01*
X102604761Y-74659523D01*
X102557142Y-74611904D01*
X102461904Y-74564285D01*
X102223809Y-74564285D01*
X102128571Y-74611904D01*
X102080952Y-74659523D01*
X102033333Y-74754761D01*
X102033333Y-74945238D01*
X102080952Y-75040476D01*
X102128571Y-75088095D01*
X102223809Y-75135714D01*
X92052380Y-92616666D02*
X91576190Y-92950000D01*
X92052380Y-93188095D02*
X91052380Y-93188095D01*
X91052380Y-92807142D01*
X91100000Y-92711904D01*
X91147619Y-92664285D01*
X91242857Y-92616666D01*
X91385714Y-92616666D01*
X91480952Y-92664285D01*
X91528571Y-92711904D01*
X91576190Y-92807142D01*
X91576190Y-93188095D01*
X91052380Y-92283333D02*
X91052380Y-91616666D01*
X92052380Y-92045238D01*
X94402380Y-72242857D02*
X93926190Y-72576190D01*
X94402380Y-72814285D02*
X93402380Y-72814285D01*
X93402380Y-72433333D01*
X93450000Y-72338095D01*
X93497619Y-72290476D01*
X93592857Y-72242857D01*
X93735714Y-72242857D01*
X93830952Y-72290476D01*
X93878571Y-72338095D01*
X93926190Y-72433333D01*
X93926190Y-72814285D01*
X94402380Y-71290476D02*
X94402380Y-71861904D01*
X94402380Y-71576190D02*
X93402380Y-71576190D01*
X93545238Y-71671428D01*
X93640476Y-71766666D01*
X93688095Y-71861904D01*
X93402380Y-70671428D02*
X93402380Y-70576190D01*
X93450000Y-70480952D01*
X93497619Y-70433333D01*
X93592857Y-70385714D01*
X93783333Y-70338095D01*
X94021428Y-70338095D01*
X94211904Y-70385714D01*
X94307142Y-70433333D01*
X94354761Y-70480952D01*
X94402380Y-70576190D01*
X94402380Y-70671428D01*
X94354761Y-70766666D01*
X94307142Y-70814285D01*
X94211904Y-70861904D01*
X94021428Y-70909523D01*
X93783333Y-70909523D01*
X93592857Y-70861904D01*
X93497619Y-70814285D01*
X93450000Y-70766666D01*
X93402380Y-70671428D01*
X98205642Y-75635380D02*
X97872309Y-75159190D01*
X97634214Y-75635380D02*
X97634214Y-74635380D01*
X98015166Y-74635380D01*
X98110404Y-74683000D01*
X98158023Y-74730619D01*
X98205642Y-74825857D01*
X98205642Y-74968714D01*
X98158023Y-75063952D01*
X98110404Y-75111571D01*
X98015166Y-75159190D01*
X97634214Y-75159190D01*
X99158023Y-75635380D02*
X98586595Y-75635380D01*
X98872309Y-75635380D02*
X98872309Y-74635380D01*
X98777071Y-74778238D01*
X98681833Y-74873476D01*
X98586595Y-74921095D01*
X99538976Y-74730619D02*
X99586595Y-74683000D01*
X99681833Y-74635380D01*
X99919928Y-74635380D01*
X100015166Y-74683000D01*
X100062785Y-74730619D01*
X100110404Y-74825857D01*
X100110404Y-74921095D01*
X100062785Y-75063952D01*
X99491357Y-75635380D01*
X100110404Y-75635380D01*
X92252380Y-109442857D02*
X91776190Y-109776190D01*
X92252380Y-110014285D02*
X91252380Y-110014285D01*
X91252380Y-109633333D01*
X91300000Y-109538095D01*
X91347619Y-109490476D01*
X91442857Y-109442857D01*
X91585714Y-109442857D01*
X91680952Y-109490476D01*
X91728571Y-109538095D01*
X91776190Y-109633333D01*
X91776190Y-110014285D01*
X92252380Y-108490476D02*
X92252380Y-109061904D01*
X92252380Y-108776190D02*
X91252380Y-108776190D01*
X91395238Y-108871428D01*
X91490476Y-108966666D01*
X91538095Y-109061904D01*
X91252380Y-108157142D02*
X91252380Y-107538095D01*
X91633333Y-107871428D01*
X91633333Y-107728571D01*
X91680952Y-107633333D01*
X91728571Y-107585714D01*
X91823809Y-107538095D01*
X92061904Y-107538095D01*
X92157142Y-107585714D01*
X92204761Y-107633333D01*
X92252380Y-107728571D01*
X92252380Y-108014285D01*
X92204761Y-108109523D01*
X92157142Y-108157142D01*
X111252380Y-112192857D02*
X110776190Y-112526190D01*
X111252380Y-112764285D02*
X110252380Y-112764285D01*
X110252380Y-112383333D01*
X110300000Y-112288095D01*
X110347619Y-112240476D01*
X110442857Y-112192857D01*
X110585714Y-112192857D01*
X110680952Y-112240476D01*
X110728571Y-112288095D01*
X110776190Y-112383333D01*
X110776190Y-112764285D01*
X111252380Y-111240476D02*
X111252380Y-111811904D01*
X111252380Y-111526190D02*
X110252380Y-111526190D01*
X110395238Y-111621428D01*
X110490476Y-111716666D01*
X110538095Y-111811904D01*
X110585714Y-110383333D02*
X111252380Y-110383333D01*
X110204761Y-110621428D02*
X110919047Y-110859523D01*
X110919047Y-110240476D01*
X105307142Y-95502380D02*
X104973809Y-95026190D01*
X104735714Y-95502380D02*
X104735714Y-94502380D01*
X105116666Y-94502380D01*
X105211904Y-94550000D01*
X105259523Y-94597619D01*
X105307142Y-94692857D01*
X105307142Y-94835714D01*
X105259523Y-94930952D01*
X105211904Y-94978571D01*
X105116666Y-95026190D01*
X104735714Y-95026190D01*
X105688095Y-94597619D02*
X105735714Y-94550000D01*
X105830952Y-94502380D01*
X106069047Y-94502380D01*
X106164285Y-94550000D01*
X106211904Y-94597619D01*
X106259523Y-94692857D01*
X106259523Y-94788095D01*
X106211904Y-94930952D01*
X105640476Y-95502380D01*
X106259523Y-95502380D01*
X107211904Y-95502380D02*
X106640476Y-95502380D01*
X106926190Y-95502380D02*
X106926190Y-94502380D01*
X106830952Y-94645238D01*
X106735714Y-94740476D01*
X106640476Y-94788095D01*
X82902380Y-77095777D02*
X82426190Y-77429110D01*
X82902380Y-77667205D02*
X81902380Y-77667205D01*
X81902380Y-77286253D01*
X81950000Y-77191015D01*
X81997619Y-77143396D01*
X82092857Y-77095777D01*
X82235714Y-77095777D01*
X82330952Y-77143396D01*
X82378571Y-77191015D01*
X82426190Y-77286253D01*
X82426190Y-77667205D01*
X81997619Y-76714824D02*
X81950000Y-76667205D01*
X81902380Y-76571967D01*
X81902380Y-76333872D01*
X81950000Y-76238634D01*
X81997619Y-76191015D01*
X82092857Y-76143396D01*
X82188095Y-76143396D01*
X82330952Y-76191015D01*
X82902380Y-76762443D01*
X82902380Y-76143396D01*
X81997619Y-75762443D02*
X81950000Y-75714824D01*
X81902380Y-75619586D01*
X81902380Y-75381491D01*
X81950000Y-75286253D01*
X81997619Y-75238634D01*
X82092857Y-75191015D01*
X82188095Y-75191015D01*
X82330952Y-75238634D01*
X82902380Y-75810062D01*
X82902380Y-75191015D01*
X119652380Y-105342857D02*
X119176190Y-105676190D01*
X119652380Y-105914285D02*
X118652380Y-105914285D01*
X118652380Y-105533333D01*
X118700000Y-105438095D01*
X118747619Y-105390476D01*
X118842857Y-105342857D01*
X118985714Y-105342857D01*
X119080952Y-105390476D01*
X119128571Y-105438095D01*
X119176190Y-105533333D01*
X119176190Y-105914285D01*
X118747619Y-104961904D02*
X118700000Y-104914285D01*
X118652380Y-104819047D01*
X118652380Y-104580952D01*
X118700000Y-104485714D01*
X118747619Y-104438095D01*
X118842857Y-104390476D01*
X118938095Y-104390476D01*
X119080952Y-104438095D01*
X119652380Y-105009523D01*
X119652380Y-104390476D01*
X118652380Y-104057142D02*
X118652380Y-103438095D01*
X119033333Y-103771428D01*
X119033333Y-103628571D01*
X119080952Y-103533333D01*
X119128571Y-103485714D01*
X119223809Y-103438095D01*
X119461904Y-103438095D01*
X119557142Y-103485714D01*
X119604761Y-103533333D01*
X119652380Y-103628571D01*
X119652380Y-103914285D01*
X119604761Y-104009523D01*
X119557142Y-104057142D01*
X97788095Y-91077380D02*
X97788095Y-91886904D01*
X97835714Y-91982142D01*
X97883333Y-92029761D01*
X97978571Y-92077380D01*
X98169047Y-92077380D01*
X98264285Y-92029761D01*
X98311904Y-91982142D01*
X98359523Y-91886904D01*
X98359523Y-91077380D01*
X99359523Y-92077380D02*
X98788095Y-92077380D01*
X99073809Y-92077380D02*
X99073809Y-91077380D01*
X98978571Y-91220238D01*
X98883333Y-91315476D01*
X98788095Y-91363095D01*
X29188095Y-23552380D02*
X29188095Y-24361904D01*
X29235714Y-24457142D01*
X29283333Y-24504761D01*
X29378571Y-24552380D01*
X29569047Y-24552380D01*
X29664285Y-24504761D01*
X29711904Y-24457142D01*
X29759523Y-24361904D01*
X29759523Y-23552380D01*
X30664285Y-23885714D02*
X30664285Y-24552380D01*
X30426190Y-23504761D02*
X30188095Y-24219047D01*
X30807142Y-24219047D01*
X29238095Y-28402380D02*
X29238095Y-29211904D01*
X29285714Y-29307142D01*
X29333333Y-29354761D01*
X29428571Y-29402380D01*
X29619047Y-29402380D01*
X29714285Y-29354761D01*
X29761904Y-29307142D01*
X29809523Y-29211904D01*
X29809523Y-28402380D01*
X30761904Y-28402380D02*
X30285714Y-28402380D01*
X30238095Y-28878571D01*
X30285714Y-28830952D01*
X30380952Y-28783333D01*
X30619047Y-28783333D01*
X30714285Y-28830952D01*
X30761904Y-28878571D01*
X30809523Y-28973809D01*
X30809523Y-29211904D01*
X30761904Y-29307142D01*
X30714285Y-29354761D01*
X30619047Y-29402380D01*
X30380952Y-29402380D01*
X30285714Y-29354761D01*
X30238095Y-29307142D01*
X29238095Y-33252380D02*
X29238095Y-34061904D01*
X29285714Y-34157142D01*
X29333333Y-34204761D01*
X29428571Y-34252380D01*
X29619047Y-34252380D01*
X29714285Y-34204761D01*
X29761904Y-34157142D01*
X29809523Y-34061904D01*
X29809523Y-33252380D01*
X30714285Y-33252380D02*
X30523809Y-33252380D01*
X30428571Y-33300000D01*
X30380952Y-33347619D01*
X30285714Y-33490476D01*
X30238095Y-33680952D01*
X30238095Y-34061904D01*
X30285714Y-34157142D01*
X30333333Y-34204761D01*
X30428571Y-34252380D01*
X30619047Y-34252380D01*
X30714285Y-34204761D01*
X30761904Y-34157142D01*
X30809523Y-34061904D01*
X30809523Y-33823809D01*
X30761904Y-33728571D01*
X30714285Y-33680952D01*
X30619047Y-33633333D01*
X30428571Y-33633333D01*
X30333333Y-33680952D01*
X30285714Y-33728571D01*
X30238095Y-33823809D01*
X37427380Y-36186904D02*
X38236904Y-36186904D01*
X38332142Y-36139285D01*
X38379761Y-36091666D01*
X38427380Y-35996428D01*
X38427380Y-35805952D01*
X38379761Y-35710714D01*
X38332142Y-35663095D01*
X38236904Y-35615476D01*
X37427380Y-35615476D01*
X38427380Y-35091666D02*
X38427380Y-34901190D01*
X38379761Y-34805952D01*
X38332142Y-34758333D01*
X38189285Y-34663095D01*
X37998809Y-34615476D01*
X37617857Y-34615476D01*
X37522619Y-34663095D01*
X37475000Y-34710714D01*
X37427380Y-34805952D01*
X37427380Y-34996428D01*
X37475000Y-35091666D01*
X37522619Y-35139285D01*
X37617857Y-35186904D01*
X37855952Y-35186904D01*
X37951190Y-35139285D01*
X37998809Y-35091666D01*
X38046428Y-34996428D01*
X38046428Y-34805952D01*
X37998809Y-34710714D01*
X37951190Y-34663095D01*
X37855952Y-34615476D01*
X98452380Y-71538095D02*
X99261904Y-71538095D01*
X99357142Y-71490476D01*
X99404761Y-71442857D01*
X99452380Y-71347619D01*
X99452380Y-71157142D01*
X99404761Y-71061904D01*
X99357142Y-71014285D01*
X99261904Y-70966666D01*
X98452380Y-70966666D01*
X99452380Y-69966666D02*
X99452380Y-70538095D01*
X99452380Y-70252380D02*
X98452380Y-70252380D01*
X98595238Y-70347619D01*
X98690476Y-70442857D01*
X98738095Y-70538095D01*
X98452380Y-69347619D02*
X98452380Y-69252380D01*
X98500000Y-69157142D01*
X98547619Y-69109523D01*
X98642857Y-69061904D01*
X98833333Y-69014285D01*
X99071428Y-69014285D01*
X99261904Y-69061904D01*
X99357142Y-69109523D01*
X99404761Y-69157142D01*
X99452380Y-69252380D01*
X99452380Y-69347619D01*
X99404761Y-69442857D01*
X99357142Y-69490476D01*
X99261904Y-69538095D01*
X99071428Y-69585714D01*
X98833333Y-69585714D01*
X98642857Y-69538095D01*
X98547619Y-69490476D01*
X98500000Y-69442857D01*
X98452380Y-69347619D01*
X62052380Y-65738095D02*
X62861904Y-65738095D01*
X62957142Y-65690476D01*
X63004761Y-65642857D01*
X63052380Y-65547619D01*
X63052380Y-65357142D01*
X63004761Y-65261904D01*
X62957142Y-65214285D01*
X62861904Y-65166666D01*
X62052380Y-65166666D01*
X63052380Y-64166666D02*
X63052380Y-64738095D01*
X63052380Y-64452380D02*
X62052380Y-64452380D01*
X62195238Y-64547619D01*
X62290476Y-64642857D01*
X62338095Y-64738095D01*
X63052380Y-63214285D02*
X63052380Y-63785714D01*
X63052380Y-63500000D02*
X62052380Y-63500000D01*
X62195238Y-63595238D01*
X62290476Y-63690476D01*
X62338095Y-63785714D01*
X74252380Y-65688095D02*
X75061904Y-65688095D01*
X75157142Y-65640476D01*
X75204761Y-65592857D01*
X75252380Y-65497619D01*
X75252380Y-65307142D01*
X75204761Y-65211904D01*
X75157142Y-65164285D01*
X75061904Y-65116666D01*
X74252380Y-65116666D01*
X75252380Y-64116666D02*
X75252380Y-64688095D01*
X75252380Y-64402380D02*
X74252380Y-64402380D01*
X74395238Y-64497619D01*
X74490476Y-64592857D01*
X74538095Y-64688095D01*
X74347619Y-63735714D02*
X74300000Y-63688095D01*
X74252380Y-63592857D01*
X74252380Y-63354761D01*
X74300000Y-63259523D01*
X74347619Y-63211904D01*
X74442857Y-63164285D01*
X74538095Y-63164285D01*
X74680952Y-63211904D01*
X75252380Y-63783333D01*
X75252380Y-63164285D01*
X104011904Y-46902380D02*
X104011904Y-47711904D01*
X104059523Y-47807142D01*
X104107142Y-47854761D01*
X104202380Y-47902380D01*
X104392857Y-47902380D01*
X104488095Y-47854761D01*
X104535714Y-47807142D01*
X104583333Y-47711904D01*
X104583333Y-46902380D01*
X105583333Y-47902380D02*
X105011904Y-47902380D01*
X105297619Y-47902380D02*
X105297619Y-46902380D01*
X105202380Y-47045238D01*
X105107142Y-47140476D01*
X105011904Y-47188095D01*
X106440476Y-47235714D02*
X106440476Y-47902380D01*
X106202380Y-46854761D02*
X105964285Y-47569047D01*
X106583333Y-47569047D01*
X87566980Y-73835295D02*
X88376504Y-73835295D01*
X88471742Y-73787676D01*
X88519361Y-73740057D01*
X88566980Y-73644819D01*
X88566980Y-73454342D01*
X88519361Y-73359104D01*
X88471742Y-73311485D01*
X88376504Y-73263866D01*
X87566980Y-73263866D01*
X88566980Y-72263866D02*
X88566980Y-72835295D01*
X88566980Y-72549580D02*
X87566980Y-72549580D01*
X87709838Y-72644819D01*
X87805076Y-72740057D01*
X87852695Y-72835295D01*
X87566980Y-71359104D02*
X87566980Y-71835295D01*
X88043171Y-71882914D01*
X87995552Y-71835295D01*
X87947933Y-71740057D01*
X87947933Y-71501961D01*
X87995552Y-71406723D01*
X88043171Y-71359104D01*
X88138409Y-71311485D01*
X88376504Y-71311485D01*
X88471742Y-71359104D01*
X88519361Y-71406723D01*
X88566980Y-71501961D01*
X88566980Y-71740057D01*
X88519361Y-71835295D01*
X88471742Y-71882914D01*
X114952380Y-97238095D02*
X115761904Y-97238095D01*
X115857142Y-97190476D01*
X115904761Y-97142857D01*
X115952380Y-97047619D01*
X115952380Y-96857142D01*
X115904761Y-96761904D01*
X115857142Y-96714285D01*
X115761904Y-96666666D01*
X114952380Y-96666666D01*
X115952380Y-95666666D02*
X115952380Y-96238095D01*
X115952380Y-95952380D02*
X114952380Y-95952380D01*
X115095238Y-96047619D01*
X115190476Y-96142857D01*
X115238095Y-96238095D01*
X114952380Y-94809523D02*
X114952380Y-95000000D01*
X115000000Y-95095238D01*
X115047619Y-95142857D01*
X115190476Y-95238095D01*
X115380952Y-95285714D01*
X115761904Y-95285714D01*
X115857142Y-95238095D01*
X115904761Y-95190476D01*
X115952380Y-95095238D01*
X115952380Y-94904761D01*
X115904761Y-94809523D01*
X115857142Y-94761904D01*
X115761904Y-94714285D01*
X115523809Y-94714285D01*
X115428571Y-94761904D01*
X115380952Y-94809523D01*
X115333333Y-94904761D01*
X115333333Y-95095238D01*
X115380952Y-95190476D01*
X115428571Y-95238095D01*
X115523809Y-95285714D01*
X115302380Y-111938095D02*
X116111904Y-111938095D01*
X116207142Y-111890476D01*
X116254761Y-111842857D01*
X116302380Y-111747619D01*
X116302380Y-111557142D01*
X116254761Y-111461904D01*
X116207142Y-111414285D01*
X116111904Y-111366666D01*
X115302380Y-111366666D01*
X116302380Y-110366666D02*
X116302380Y-110938095D01*
X116302380Y-110652380D02*
X115302380Y-110652380D01*
X115445238Y-110747619D01*
X115540476Y-110842857D01*
X115588095Y-110938095D01*
X115302380Y-110033333D02*
X115302380Y-109366666D01*
X116302380Y-109795238D01*
X109790476Y-87202380D02*
X110457142Y-88202380D01*
X110457142Y-87202380D02*
X109790476Y-88202380D01*
X111361904Y-88202380D02*
X110790476Y-88202380D01*
X111076190Y-88202380D02*
X111076190Y-87202380D01*
X110980952Y-87345238D01*
X110885714Y-87440476D01*
X110790476Y-87488095D01*
M02*
