G04 #@! TF.GenerationSoftware,KiCad,Pcbnew,(5.1.2)-1*
G04 #@! TF.CreationDate,2019-05-23T20:14:09-05:00*
G04 #@! TF.ProjectId,m68k,6d36386b-2e6b-4696-9361-645f70636258,rev?*
G04 #@! TF.SameCoordinates,Original*
G04 #@! TF.FileFunction,Soldermask,Bot*
G04 #@! TF.FilePolarity,Negative*
%FSLAX46Y46*%
G04 Gerber Fmt 4.6, Leading zero omitted, Abs format (unit mm)*
G04 Created by KiCad (PCBNEW (5.1.2)-1) date 2019-05-23 20:14:09*
%MOMM*%
%LPD*%
G04 APERTURE LIST*
%ADD10C,0.050000*%
G04 APERTURE END LIST*
D10*
G36*
X110725880Y-115159776D02*
G01*
X111106593Y-115235504D01*
X111516249Y-115405189D01*
X111884929Y-115651534D01*
X112198466Y-115965071D01*
X112444811Y-116333751D01*
X112614496Y-116743407D01*
X112701000Y-117178296D01*
X112701000Y-117621704D01*
X112614496Y-118056593D01*
X112444811Y-118466249D01*
X112198466Y-118834929D01*
X111884929Y-119148466D01*
X111516249Y-119394811D01*
X111106593Y-119564496D01*
X110725880Y-119640224D01*
X110671705Y-119651000D01*
X110228295Y-119651000D01*
X110174120Y-119640224D01*
X109793407Y-119564496D01*
X109383751Y-119394811D01*
X109015071Y-119148466D01*
X108701534Y-118834929D01*
X108455189Y-118466249D01*
X108285504Y-118056593D01*
X108199000Y-117621704D01*
X108199000Y-117178296D01*
X108285504Y-116743407D01*
X108455189Y-116333751D01*
X108701534Y-115965071D01*
X109015071Y-115651534D01*
X109383751Y-115405189D01*
X109793407Y-115235504D01*
X110174120Y-115159776D01*
X110228295Y-115149000D01*
X110671705Y-115149000D01*
X110725880Y-115159776D01*
X110725880Y-115159776D01*
G37*
G36*
X53251000Y-119601000D02*
G01*
X50749000Y-119601000D01*
X50749000Y-117899000D01*
X53251000Y-117899000D01*
X53251000Y-119601000D01*
X53251000Y-119601000D01*
G37*
G36*
X29706823Y-117911313D02*
G01*
X29867242Y-117959976D01*
X29999906Y-118030886D01*
X30015078Y-118038996D01*
X30144659Y-118145341D01*
X30251004Y-118274922D01*
X30251005Y-118274924D01*
X30330024Y-118422758D01*
X30378687Y-118583177D01*
X30395117Y-118750000D01*
X30378687Y-118916823D01*
X30330024Y-119077242D01*
X30317325Y-119101000D01*
X30251004Y-119225078D01*
X30144659Y-119354659D01*
X30015078Y-119461004D01*
X30015076Y-119461005D01*
X29867242Y-119540024D01*
X29706823Y-119588687D01*
X29581804Y-119601000D01*
X28698196Y-119601000D01*
X28573177Y-119588687D01*
X28412758Y-119540024D01*
X28264924Y-119461005D01*
X28264922Y-119461004D01*
X28135341Y-119354659D01*
X28028996Y-119225078D01*
X27962675Y-119101000D01*
X27949976Y-119077242D01*
X27901313Y-118916823D01*
X27884883Y-118750000D01*
X27901313Y-118583177D01*
X27949976Y-118422758D01*
X28028995Y-118274924D01*
X28028996Y-118274922D01*
X28135341Y-118145341D01*
X28264922Y-118038996D01*
X28280094Y-118030886D01*
X28412758Y-117959976D01*
X28573177Y-117911313D01*
X28698196Y-117899000D01*
X29581804Y-117899000D01*
X29706823Y-117911313D01*
X29706823Y-117911313D01*
G37*
G36*
X24044098Y-114097033D02*
G01*
X24472926Y-114274659D01*
X24508352Y-114289333D01*
X24926168Y-114568509D01*
X25281491Y-114923832D01*
X25489744Y-115235505D01*
X25560668Y-115341650D01*
X25752967Y-115805902D01*
X25851000Y-116298747D01*
X25851000Y-116801253D01*
X25752967Y-117294098D01*
X25617268Y-117621704D01*
X25560667Y-117758352D01*
X25281491Y-118176168D01*
X24926168Y-118531491D01*
X24508352Y-118810667D01*
X24508351Y-118810668D01*
X24508350Y-118810668D01*
X24044098Y-119002967D01*
X23551253Y-119101000D01*
X23048747Y-119101000D01*
X22555902Y-119002967D01*
X22091650Y-118810668D01*
X22091649Y-118810668D01*
X22091648Y-118810667D01*
X21673832Y-118531491D01*
X21318509Y-118176168D01*
X21039333Y-117758352D01*
X20982732Y-117621704D01*
X20847033Y-117294098D01*
X20749000Y-116801253D01*
X20749000Y-116298747D01*
X20847033Y-115805902D01*
X21039332Y-115341650D01*
X21110256Y-115235505D01*
X21318509Y-114923832D01*
X21673832Y-114568509D01*
X22091648Y-114289333D01*
X22127074Y-114274659D01*
X22555902Y-114097033D01*
X23048747Y-113999000D01*
X23551253Y-113999000D01*
X24044098Y-114097033D01*
X24044098Y-114097033D01*
G37*
G36*
X52566823Y-115371313D02*
G01*
X52727242Y-115419976D01*
X52846886Y-115483927D01*
X52875078Y-115498996D01*
X53004659Y-115605341D01*
X53111004Y-115734922D01*
X53111005Y-115734924D01*
X53190024Y-115882758D01*
X53238687Y-116043177D01*
X53255117Y-116210000D01*
X53238687Y-116376823D01*
X53190024Y-116537242D01*
X53138154Y-116634284D01*
X53111004Y-116685078D01*
X53004659Y-116814659D01*
X52875078Y-116921004D01*
X52875076Y-116921005D01*
X52727242Y-117000024D01*
X52566823Y-117048687D01*
X52441804Y-117061000D01*
X51558196Y-117061000D01*
X51433177Y-117048687D01*
X51272758Y-117000024D01*
X51124924Y-116921005D01*
X51124922Y-116921004D01*
X50995341Y-116814659D01*
X50888996Y-116685078D01*
X50861846Y-116634284D01*
X50809976Y-116537242D01*
X50761313Y-116376823D01*
X50744883Y-116210000D01*
X50761313Y-116043177D01*
X50809976Y-115882758D01*
X50888995Y-115734924D01*
X50888996Y-115734922D01*
X50995341Y-115605341D01*
X51124922Y-115498996D01*
X51153114Y-115483927D01*
X51272758Y-115419976D01*
X51433177Y-115371313D01*
X51558196Y-115359000D01*
X52441804Y-115359000D01*
X52566823Y-115371313D01*
X52566823Y-115371313D01*
G37*
G36*
X29706823Y-115371313D02*
G01*
X29867242Y-115419976D01*
X29986886Y-115483927D01*
X30015078Y-115498996D01*
X30144659Y-115605341D01*
X30251004Y-115734922D01*
X30251005Y-115734924D01*
X30330024Y-115882758D01*
X30378687Y-116043177D01*
X30395117Y-116210000D01*
X30378687Y-116376823D01*
X30330024Y-116537242D01*
X30278154Y-116634284D01*
X30251004Y-116685078D01*
X30144659Y-116814659D01*
X30015078Y-116921004D01*
X30015076Y-116921005D01*
X29867242Y-117000024D01*
X29706823Y-117048687D01*
X29581804Y-117061000D01*
X28698196Y-117061000D01*
X28573177Y-117048687D01*
X28412758Y-117000024D01*
X28264924Y-116921005D01*
X28264922Y-116921004D01*
X28135341Y-116814659D01*
X28028996Y-116685078D01*
X28001846Y-116634284D01*
X27949976Y-116537242D01*
X27901313Y-116376823D01*
X27884883Y-116210000D01*
X27901313Y-116043177D01*
X27949976Y-115882758D01*
X28028995Y-115734924D01*
X28028996Y-115734922D01*
X28135341Y-115605341D01*
X28264922Y-115498996D01*
X28293114Y-115483927D01*
X28412758Y-115419976D01*
X28573177Y-115371313D01*
X28698196Y-115359000D01*
X29581804Y-115359000D01*
X29706823Y-115371313D01*
X29706823Y-115371313D01*
G37*
G36*
X97085503Y-115405189D02*
G01*
X97195225Y-115427014D01*
X97252138Y-115450588D01*
X97332626Y-115483927D01*
X97456284Y-115566553D01*
X97561447Y-115671716D01*
X97644073Y-115795374D01*
X97677412Y-115875862D01*
X97700986Y-115932775D01*
X97730000Y-116078639D01*
X97730000Y-116227361D01*
X97700986Y-116373225D01*
X97677412Y-116430138D01*
X97644073Y-116510626D01*
X97561447Y-116634284D01*
X97456284Y-116739447D01*
X97332626Y-116822073D01*
X97252138Y-116855412D01*
X97195225Y-116878986D01*
X97122293Y-116893493D01*
X97049362Y-116908000D01*
X96900638Y-116908000D01*
X96827707Y-116893493D01*
X96754775Y-116878986D01*
X96697862Y-116855412D01*
X96617374Y-116822073D01*
X96493716Y-116739447D01*
X96388553Y-116634284D01*
X96305927Y-116510626D01*
X96272588Y-116430138D01*
X96249014Y-116373225D01*
X96220000Y-116227361D01*
X96220000Y-116078639D01*
X96249014Y-115932775D01*
X96272588Y-115875862D01*
X96305927Y-115795374D01*
X96388553Y-115671716D01*
X96493716Y-115566553D01*
X96617374Y-115483927D01*
X96697862Y-115450588D01*
X96754775Y-115427014D01*
X96864497Y-115405189D01*
X96900638Y-115398000D01*
X97049362Y-115398000D01*
X97085503Y-115405189D01*
X97085503Y-115405189D01*
G37*
G36*
X103885503Y-115405189D02*
G01*
X103995225Y-115427014D01*
X104052138Y-115450588D01*
X104132626Y-115483927D01*
X104256284Y-115566553D01*
X104361447Y-115671716D01*
X104444073Y-115795374D01*
X104477412Y-115875862D01*
X104500986Y-115932775D01*
X104530000Y-116078639D01*
X104530000Y-116227361D01*
X104500986Y-116373225D01*
X104477412Y-116430138D01*
X104444073Y-116510626D01*
X104361447Y-116634284D01*
X104256284Y-116739447D01*
X104132626Y-116822073D01*
X104052138Y-116855412D01*
X103995225Y-116878986D01*
X103922293Y-116893493D01*
X103849362Y-116908000D01*
X103700638Y-116908000D01*
X103627707Y-116893493D01*
X103554775Y-116878986D01*
X103497862Y-116855412D01*
X103417374Y-116822073D01*
X103293716Y-116739447D01*
X103188553Y-116634284D01*
X103105927Y-116510626D01*
X103072588Y-116430138D01*
X103049014Y-116373225D01*
X103020000Y-116227361D01*
X103020000Y-116078639D01*
X103049014Y-115932775D01*
X103072588Y-115875862D01*
X103105927Y-115795374D01*
X103188553Y-115671716D01*
X103293716Y-115566553D01*
X103417374Y-115483927D01*
X103497862Y-115450588D01*
X103554775Y-115427014D01*
X103664497Y-115405189D01*
X103700638Y-115398000D01*
X103849362Y-115398000D01*
X103885503Y-115405189D01*
X103885503Y-115405189D01*
G37*
G36*
X52566823Y-112831313D02*
G01*
X52727242Y-112879976D01*
X52859906Y-112950886D01*
X52875078Y-112958996D01*
X53004659Y-113065341D01*
X53111004Y-113194922D01*
X53111005Y-113194924D01*
X53190024Y-113342758D01*
X53238687Y-113503177D01*
X53255117Y-113670000D01*
X53238687Y-113836823D01*
X53190024Y-113997242D01*
X53136684Y-114097034D01*
X53111004Y-114145078D01*
X53004659Y-114274659D01*
X52875078Y-114381004D01*
X52875076Y-114381005D01*
X52727242Y-114460024D01*
X52566823Y-114508687D01*
X52441804Y-114521000D01*
X51558196Y-114521000D01*
X51433177Y-114508687D01*
X51272758Y-114460024D01*
X51124924Y-114381005D01*
X51124922Y-114381004D01*
X50995341Y-114274659D01*
X50888996Y-114145078D01*
X50863316Y-114097034D01*
X50809976Y-113997242D01*
X50761313Y-113836823D01*
X50744883Y-113670000D01*
X50761313Y-113503177D01*
X50809976Y-113342758D01*
X50888995Y-113194924D01*
X50888996Y-113194922D01*
X50995341Y-113065341D01*
X51124922Y-112958996D01*
X51140094Y-112950886D01*
X51272758Y-112879976D01*
X51433177Y-112831313D01*
X51558196Y-112819000D01*
X52441804Y-112819000D01*
X52566823Y-112831313D01*
X52566823Y-112831313D01*
G37*
G36*
X29706823Y-112831313D02*
G01*
X29867242Y-112879976D01*
X29999906Y-112950886D01*
X30015078Y-112958996D01*
X30144659Y-113065341D01*
X30251004Y-113194922D01*
X30251005Y-113194924D01*
X30330024Y-113342758D01*
X30378687Y-113503177D01*
X30395117Y-113670000D01*
X30378687Y-113836823D01*
X30330024Y-113997242D01*
X30276684Y-114097034D01*
X30251004Y-114145078D01*
X30144659Y-114274659D01*
X30015078Y-114381004D01*
X30015076Y-114381005D01*
X29867242Y-114460024D01*
X29706823Y-114508687D01*
X29581804Y-114521000D01*
X28698196Y-114521000D01*
X28573177Y-114508687D01*
X28412758Y-114460024D01*
X28264924Y-114381005D01*
X28264922Y-114381004D01*
X28135341Y-114274659D01*
X28028996Y-114145078D01*
X28003316Y-114097034D01*
X27949976Y-113997242D01*
X27901313Y-113836823D01*
X27884883Y-113670000D01*
X27901313Y-113503177D01*
X27949976Y-113342758D01*
X28028995Y-113194924D01*
X28028996Y-113194922D01*
X28135341Y-113065341D01*
X28264922Y-112958996D01*
X28280094Y-112950886D01*
X28412758Y-112879976D01*
X28573177Y-112831313D01*
X28698196Y-112819000D01*
X29581804Y-112819000D01*
X29706823Y-112831313D01*
X29706823Y-112831313D01*
G37*
G36*
X97122293Y-112912507D02*
G01*
X97195225Y-112927014D01*
X97252138Y-112950588D01*
X97332626Y-112983927D01*
X97456284Y-113066553D01*
X97561447Y-113171716D01*
X97644073Y-113295374D01*
X97700986Y-113432776D01*
X97730000Y-113578638D01*
X97730000Y-113727362D01*
X97700986Y-113873224D01*
X97644073Y-114010626D01*
X97561447Y-114134284D01*
X97456284Y-114239447D01*
X97332626Y-114322073D01*
X97252138Y-114355412D01*
X97195225Y-114378986D01*
X97122293Y-114393493D01*
X97049362Y-114408000D01*
X96900638Y-114408000D01*
X96827707Y-114393493D01*
X96754775Y-114378986D01*
X96697862Y-114355412D01*
X96617374Y-114322073D01*
X96493716Y-114239447D01*
X96388553Y-114134284D01*
X96305927Y-114010626D01*
X96249014Y-113873224D01*
X96220000Y-113727362D01*
X96220000Y-113578638D01*
X96249014Y-113432776D01*
X96305927Y-113295374D01*
X96388553Y-113171716D01*
X96493716Y-113066553D01*
X96617374Y-112983927D01*
X96697862Y-112950588D01*
X96754775Y-112927014D01*
X96827707Y-112912507D01*
X96900638Y-112898000D01*
X97049362Y-112898000D01*
X97122293Y-112912507D01*
X97122293Y-112912507D01*
G37*
G36*
X99830000Y-114408000D02*
G01*
X98320000Y-114408000D01*
X98320000Y-112898000D01*
X99830000Y-112898000D01*
X99830000Y-114408000D01*
X99830000Y-114408000D01*
G37*
G36*
X101822293Y-112912507D02*
G01*
X101895225Y-112927014D01*
X101952138Y-112950588D01*
X102032626Y-112983927D01*
X102156284Y-113066553D01*
X102261447Y-113171716D01*
X102344073Y-113295374D01*
X102400986Y-113432776D01*
X102430000Y-113578638D01*
X102430000Y-113727362D01*
X102400986Y-113873224D01*
X102344073Y-114010626D01*
X102261447Y-114134284D01*
X102156284Y-114239447D01*
X102032626Y-114322073D01*
X101952138Y-114355412D01*
X101895225Y-114378986D01*
X101822293Y-114393493D01*
X101749362Y-114408000D01*
X101600638Y-114408000D01*
X101527707Y-114393493D01*
X101454775Y-114378986D01*
X101397862Y-114355412D01*
X101317374Y-114322073D01*
X101193716Y-114239447D01*
X101088553Y-114134284D01*
X101005927Y-114010626D01*
X100949014Y-113873224D01*
X100920000Y-113727362D01*
X100920000Y-113578638D01*
X100949014Y-113432776D01*
X101005927Y-113295374D01*
X101088553Y-113171716D01*
X101193716Y-113066553D01*
X101317374Y-112983927D01*
X101397862Y-112950588D01*
X101454775Y-112927014D01*
X101527707Y-112912507D01*
X101600638Y-112898000D01*
X101749362Y-112898000D01*
X101822293Y-112912507D01*
X101822293Y-112912507D01*
G37*
G36*
X103922293Y-112912507D02*
G01*
X103995225Y-112927014D01*
X104052138Y-112950588D01*
X104132626Y-112983927D01*
X104256284Y-113066553D01*
X104361447Y-113171716D01*
X104444073Y-113295374D01*
X104500986Y-113432776D01*
X104530000Y-113578638D01*
X104530000Y-113727362D01*
X104500986Y-113873224D01*
X104444073Y-114010626D01*
X104361447Y-114134284D01*
X104256284Y-114239447D01*
X104132626Y-114322073D01*
X104052138Y-114355412D01*
X103995225Y-114378986D01*
X103922293Y-114393493D01*
X103849362Y-114408000D01*
X103700638Y-114408000D01*
X103627707Y-114393493D01*
X103554775Y-114378986D01*
X103497862Y-114355412D01*
X103417374Y-114322073D01*
X103293716Y-114239447D01*
X103188553Y-114134284D01*
X103105927Y-114010626D01*
X103049014Y-113873224D01*
X103020000Y-113727362D01*
X103020000Y-113578638D01*
X103049014Y-113432776D01*
X103105927Y-113295374D01*
X103188553Y-113171716D01*
X103293716Y-113066553D01*
X103417374Y-112983927D01*
X103497862Y-112950588D01*
X103554775Y-112927014D01*
X103627707Y-112912507D01*
X103700638Y-112898000D01*
X103849362Y-112898000D01*
X103922293Y-112912507D01*
X103922293Y-112912507D01*
G37*
G36*
X52566823Y-110291313D02*
G01*
X52727242Y-110339976D01*
X52859906Y-110410886D01*
X52875078Y-110418996D01*
X53004659Y-110525341D01*
X53111004Y-110654922D01*
X53111005Y-110654924D01*
X53190024Y-110802758D01*
X53238687Y-110963177D01*
X53255117Y-111130000D01*
X53238687Y-111296823D01*
X53190024Y-111457242D01*
X53119114Y-111589906D01*
X53111004Y-111605078D01*
X53004659Y-111734659D01*
X52875078Y-111841004D01*
X52875076Y-111841005D01*
X52727242Y-111920024D01*
X52566823Y-111968687D01*
X52441804Y-111981000D01*
X51558196Y-111981000D01*
X51433177Y-111968687D01*
X51272758Y-111920024D01*
X51124924Y-111841005D01*
X51124922Y-111841004D01*
X50995341Y-111734659D01*
X50888996Y-111605078D01*
X50880886Y-111589906D01*
X50809976Y-111457242D01*
X50761313Y-111296823D01*
X50744883Y-111130000D01*
X50761313Y-110963177D01*
X50809976Y-110802758D01*
X50888995Y-110654924D01*
X50888996Y-110654922D01*
X50995341Y-110525341D01*
X51124922Y-110418996D01*
X51140094Y-110410886D01*
X51272758Y-110339976D01*
X51433177Y-110291313D01*
X51558196Y-110279000D01*
X52441804Y-110279000D01*
X52566823Y-110291313D01*
X52566823Y-110291313D01*
G37*
G36*
X29706823Y-110291313D02*
G01*
X29867242Y-110339976D01*
X29999906Y-110410886D01*
X30015078Y-110418996D01*
X30144659Y-110525341D01*
X30251004Y-110654922D01*
X30251005Y-110654924D01*
X30330024Y-110802758D01*
X30378687Y-110963177D01*
X30395117Y-111130000D01*
X30378687Y-111296823D01*
X30330024Y-111457242D01*
X30259114Y-111589906D01*
X30251004Y-111605078D01*
X30144659Y-111734659D01*
X30015078Y-111841004D01*
X30015076Y-111841005D01*
X29867242Y-111920024D01*
X29706823Y-111968687D01*
X29581804Y-111981000D01*
X28698196Y-111981000D01*
X28573177Y-111968687D01*
X28412758Y-111920024D01*
X28264924Y-111841005D01*
X28264922Y-111841004D01*
X28135341Y-111734659D01*
X28028996Y-111605078D01*
X28020886Y-111589906D01*
X27949976Y-111457242D01*
X27901313Y-111296823D01*
X27884883Y-111130000D01*
X27901313Y-110963177D01*
X27949976Y-110802758D01*
X28028995Y-110654924D01*
X28028996Y-110654922D01*
X28135341Y-110525341D01*
X28264922Y-110418996D01*
X28280094Y-110410886D01*
X28412758Y-110339976D01*
X28573177Y-110291313D01*
X28698196Y-110279000D01*
X29581804Y-110279000D01*
X29706823Y-110291313D01*
X29706823Y-110291313D01*
G37*
G36*
X101335443Y-108958519D02*
G01*
X101401627Y-108965037D01*
X101571466Y-109016557D01*
X101727991Y-109100222D01*
X101763729Y-109129552D01*
X101865186Y-109212814D01*
X101937561Y-109301005D01*
X101977778Y-109350009D01*
X102061443Y-109506534D01*
X102112963Y-109676373D01*
X102130359Y-109853000D01*
X102112963Y-110029627D01*
X102061443Y-110199466D01*
X101977778Y-110355991D01*
X101948448Y-110391729D01*
X101865186Y-110493186D01*
X101763729Y-110576448D01*
X101727991Y-110605778D01*
X101571466Y-110689443D01*
X101401627Y-110740963D01*
X101335443Y-110747481D01*
X101269260Y-110754000D01*
X99480740Y-110754000D01*
X99414557Y-110747481D01*
X99348373Y-110740963D01*
X99178534Y-110689443D01*
X99022009Y-110605778D01*
X98986271Y-110576448D01*
X98884814Y-110493186D01*
X98801552Y-110391729D01*
X98772222Y-110355991D01*
X98688557Y-110199466D01*
X98637037Y-110029627D01*
X98619641Y-109853000D01*
X98637037Y-109676373D01*
X98688557Y-109506534D01*
X98772222Y-109350009D01*
X98812439Y-109301005D01*
X98884814Y-109212814D01*
X98986271Y-109129552D01*
X99022009Y-109100222D01*
X99178534Y-109016557D01*
X99348373Y-108965037D01*
X99414557Y-108958519D01*
X99480740Y-108952000D01*
X101269260Y-108952000D01*
X101335443Y-108958519D01*
X101335443Y-108958519D01*
G37*
G36*
X52566823Y-107751313D02*
G01*
X52727242Y-107799976D01*
X52859906Y-107870886D01*
X52875078Y-107878996D01*
X53004659Y-107985341D01*
X53111004Y-108114922D01*
X53111005Y-108114924D01*
X53190024Y-108262758D01*
X53238687Y-108423177D01*
X53255117Y-108590000D01*
X53238687Y-108756823D01*
X53190024Y-108917242D01*
X53171445Y-108952000D01*
X53111004Y-109065078D01*
X53004659Y-109194659D01*
X52875078Y-109301004D01*
X52875076Y-109301005D01*
X52727242Y-109380024D01*
X52566823Y-109428687D01*
X52441804Y-109441000D01*
X51558196Y-109441000D01*
X51433177Y-109428687D01*
X51272758Y-109380024D01*
X51124924Y-109301005D01*
X51124922Y-109301004D01*
X50995341Y-109194659D01*
X50888996Y-109065078D01*
X50828555Y-108952000D01*
X50809976Y-108917242D01*
X50761313Y-108756823D01*
X50744883Y-108590000D01*
X50761313Y-108423177D01*
X50809976Y-108262758D01*
X50888995Y-108114924D01*
X50888996Y-108114922D01*
X50995341Y-107985341D01*
X51124922Y-107878996D01*
X51140094Y-107870886D01*
X51272758Y-107799976D01*
X51433177Y-107751313D01*
X51558196Y-107739000D01*
X52441804Y-107739000D01*
X52566823Y-107751313D01*
X52566823Y-107751313D01*
G37*
G36*
X29706823Y-107751313D02*
G01*
X29867242Y-107799976D01*
X29999906Y-107870886D01*
X30015078Y-107878996D01*
X30144659Y-107985341D01*
X30251004Y-108114922D01*
X30251005Y-108114924D01*
X30330024Y-108262758D01*
X30378687Y-108423177D01*
X30395117Y-108590000D01*
X30378687Y-108756823D01*
X30330024Y-108917242D01*
X30311445Y-108952000D01*
X30251004Y-109065078D01*
X30144659Y-109194659D01*
X30015078Y-109301004D01*
X30015076Y-109301005D01*
X29867242Y-109380024D01*
X29706823Y-109428687D01*
X29581804Y-109441000D01*
X28698196Y-109441000D01*
X28573177Y-109428687D01*
X28412758Y-109380024D01*
X28264924Y-109301005D01*
X28264922Y-109301004D01*
X28135341Y-109194659D01*
X28028996Y-109065078D01*
X27968555Y-108952000D01*
X27949976Y-108917242D01*
X27901313Y-108756823D01*
X27884883Y-108590000D01*
X27901313Y-108423177D01*
X27949976Y-108262758D01*
X28028995Y-108114924D01*
X28028996Y-108114922D01*
X28135341Y-107985341D01*
X28264922Y-107878996D01*
X28280094Y-107870886D01*
X28412758Y-107799976D01*
X28573177Y-107751313D01*
X28698196Y-107739000D01*
X29581804Y-107739000D01*
X29706823Y-107751313D01*
X29706823Y-107751313D01*
G37*
G36*
X52566823Y-105211313D02*
G01*
X52727242Y-105259976D01*
X52859906Y-105330886D01*
X52875078Y-105338996D01*
X53004659Y-105445341D01*
X53111004Y-105574922D01*
X53111005Y-105574924D01*
X53190024Y-105722758D01*
X53238687Y-105883177D01*
X53255117Y-106050000D01*
X53238687Y-106216823D01*
X53190024Y-106377242D01*
X53119114Y-106509906D01*
X53111004Y-106525078D01*
X53004659Y-106654659D01*
X52875078Y-106761004D01*
X52875076Y-106761005D01*
X52727242Y-106840024D01*
X52566823Y-106888687D01*
X52441804Y-106901000D01*
X51558196Y-106901000D01*
X51433177Y-106888687D01*
X51272758Y-106840024D01*
X51124924Y-106761005D01*
X51124922Y-106761004D01*
X50995341Y-106654659D01*
X50888996Y-106525078D01*
X50880886Y-106509906D01*
X50809976Y-106377242D01*
X50761313Y-106216823D01*
X50744883Y-106050000D01*
X50761313Y-105883177D01*
X50809976Y-105722758D01*
X50888995Y-105574924D01*
X50888996Y-105574922D01*
X50995341Y-105445341D01*
X51124922Y-105338996D01*
X51140094Y-105330886D01*
X51272758Y-105259976D01*
X51433177Y-105211313D01*
X51558196Y-105199000D01*
X52441804Y-105199000D01*
X52566823Y-105211313D01*
X52566823Y-105211313D01*
G37*
G36*
X29706823Y-105211313D02*
G01*
X29867242Y-105259976D01*
X29999906Y-105330886D01*
X30015078Y-105338996D01*
X30144659Y-105445341D01*
X30251004Y-105574922D01*
X30251005Y-105574924D01*
X30330024Y-105722758D01*
X30378687Y-105883177D01*
X30395117Y-106050000D01*
X30378687Y-106216823D01*
X30330024Y-106377242D01*
X30259114Y-106509906D01*
X30251004Y-106525078D01*
X30144659Y-106654659D01*
X30015078Y-106761004D01*
X30015076Y-106761005D01*
X29867242Y-106840024D01*
X29706823Y-106888687D01*
X29581804Y-106901000D01*
X28698196Y-106901000D01*
X28573177Y-106888687D01*
X28412758Y-106840024D01*
X28264924Y-106761005D01*
X28264922Y-106761004D01*
X28135341Y-106654659D01*
X28028996Y-106525078D01*
X28020886Y-106509906D01*
X27949976Y-106377242D01*
X27901313Y-106216823D01*
X27884883Y-106050000D01*
X27901313Y-105883177D01*
X27949976Y-105722758D01*
X28028995Y-105574924D01*
X28028996Y-105574922D01*
X28135341Y-105445341D01*
X28264922Y-105338996D01*
X28280094Y-105330886D01*
X28412758Y-105259976D01*
X28573177Y-105211313D01*
X28698196Y-105199000D01*
X29581804Y-105199000D01*
X29706823Y-105211313D01*
X29706823Y-105211313D01*
G37*
G36*
X52566823Y-102671313D02*
G01*
X52727242Y-102719976D01*
X52859906Y-102790886D01*
X52875078Y-102798996D01*
X53004659Y-102905341D01*
X53111004Y-103034922D01*
X53111005Y-103034924D01*
X53190024Y-103182758D01*
X53238687Y-103343177D01*
X53255117Y-103510000D01*
X53238687Y-103676823D01*
X53190024Y-103837242D01*
X53119114Y-103969906D01*
X53111004Y-103985078D01*
X53004659Y-104114659D01*
X52875078Y-104221004D01*
X52875076Y-104221005D01*
X52727242Y-104300024D01*
X52566823Y-104348687D01*
X52441804Y-104361000D01*
X51558196Y-104361000D01*
X51433177Y-104348687D01*
X51272758Y-104300024D01*
X51124924Y-104221005D01*
X51124922Y-104221004D01*
X50995341Y-104114659D01*
X50888996Y-103985078D01*
X50880886Y-103969906D01*
X50809976Y-103837242D01*
X50761313Y-103676823D01*
X50744883Y-103510000D01*
X50761313Y-103343177D01*
X50809976Y-103182758D01*
X50888995Y-103034924D01*
X50888996Y-103034922D01*
X50995341Y-102905341D01*
X51124922Y-102798996D01*
X51140094Y-102790886D01*
X51272758Y-102719976D01*
X51433177Y-102671313D01*
X51558196Y-102659000D01*
X52441804Y-102659000D01*
X52566823Y-102671313D01*
X52566823Y-102671313D01*
G37*
G36*
X29706823Y-102671313D02*
G01*
X29867242Y-102719976D01*
X29999906Y-102790886D01*
X30015078Y-102798996D01*
X30144659Y-102905341D01*
X30251004Y-103034922D01*
X30251005Y-103034924D01*
X30330024Y-103182758D01*
X30378687Y-103343177D01*
X30395117Y-103510000D01*
X30378687Y-103676823D01*
X30330024Y-103837242D01*
X30259114Y-103969906D01*
X30251004Y-103985078D01*
X30144659Y-104114659D01*
X30015078Y-104221004D01*
X30015076Y-104221005D01*
X29867242Y-104300024D01*
X29706823Y-104348687D01*
X29581804Y-104361000D01*
X28698196Y-104361000D01*
X28573177Y-104348687D01*
X28412758Y-104300024D01*
X28264924Y-104221005D01*
X28264922Y-104221004D01*
X28135341Y-104114659D01*
X28028996Y-103985078D01*
X28020886Y-103969906D01*
X27949976Y-103837242D01*
X27901313Y-103676823D01*
X27884883Y-103510000D01*
X27901313Y-103343177D01*
X27949976Y-103182758D01*
X28028995Y-103034924D01*
X28028996Y-103034922D01*
X28135341Y-102905341D01*
X28264922Y-102798996D01*
X28280094Y-102790886D01*
X28412758Y-102719976D01*
X28573177Y-102671313D01*
X28698196Y-102659000D01*
X29581804Y-102659000D01*
X29706823Y-102671313D01*
X29706823Y-102671313D01*
G37*
G36*
X52566823Y-100131313D02*
G01*
X52727242Y-100179976D01*
X52859906Y-100250886D01*
X52875078Y-100258996D01*
X53004659Y-100365341D01*
X53111004Y-100494922D01*
X53111005Y-100494924D01*
X53190024Y-100642758D01*
X53238687Y-100803177D01*
X53255117Y-100970000D01*
X53238687Y-101136823D01*
X53190024Y-101297242D01*
X53119114Y-101429906D01*
X53111004Y-101445078D01*
X53004659Y-101574659D01*
X52875078Y-101681004D01*
X52875076Y-101681005D01*
X52727242Y-101760024D01*
X52566823Y-101808687D01*
X52441804Y-101821000D01*
X51558196Y-101821000D01*
X51433177Y-101808687D01*
X51272758Y-101760024D01*
X51124924Y-101681005D01*
X51124922Y-101681004D01*
X50995341Y-101574659D01*
X50888996Y-101445078D01*
X50880886Y-101429906D01*
X50809976Y-101297242D01*
X50761313Y-101136823D01*
X50744883Y-100970000D01*
X50761313Y-100803177D01*
X50809976Y-100642758D01*
X50888995Y-100494924D01*
X50888996Y-100494922D01*
X50995341Y-100365341D01*
X51124922Y-100258996D01*
X51140094Y-100250886D01*
X51272758Y-100179976D01*
X51433177Y-100131313D01*
X51558196Y-100119000D01*
X52441804Y-100119000D01*
X52566823Y-100131313D01*
X52566823Y-100131313D01*
G37*
G36*
X29706823Y-100131313D02*
G01*
X29867242Y-100179976D01*
X29999906Y-100250886D01*
X30015078Y-100258996D01*
X30144659Y-100365341D01*
X30251004Y-100494922D01*
X30251005Y-100494924D01*
X30330024Y-100642758D01*
X30378687Y-100803177D01*
X30395117Y-100970000D01*
X30378687Y-101136823D01*
X30330024Y-101297242D01*
X30259114Y-101429906D01*
X30251004Y-101445078D01*
X30144659Y-101574659D01*
X30015078Y-101681004D01*
X30015076Y-101681005D01*
X29867242Y-101760024D01*
X29706823Y-101808687D01*
X29581804Y-101821000D01*
X28698196Y-101821000D01*
X28573177Y-101808687D01*
X28412758Y-101760024D01*
X28264924Y-101681005D01*
X28264922Y-101681004D01*
X28135341Y-101574659D01*
X28028996Y-101445078D01*
X28020886Y-101429906D01*
X27949976Y-101297242D01*
X27901313Y-101136823D01*
X27884883Y-100970000D01*
X27901313Y-100803177D01*
X27949976Y-100642758D01*
X28028995Y-100494924D01*
X28028996Y-100494922D01*
X28135341Y-100365341D01*
X28264922Y-100258996D01*
X28280094Y-100250886D01*
X28412758Y-100179976D01*
X28573177Y-100131313D01*
X28698196Y-100119000D01*
X29581804Y-100119000D01*
X29706823Y-100131313D01*
X29706823Y-100131313D01*
G37*
G36*
X52566823Y-97591313D02*
G01*
X52727242Y-97639976D01*
X52859906Y-97710886D01*
X52875078Y-97718996D01*
X53004659Y-97825341D01*
X53111004Y-97954922D01*
X53111005Y-97954924D01*
X53190024Y-98102758D01*
X53238687Y-98263177D01*
X53255117Y-98430000D01*
X53238687Y-98596823D01*
X53190024Y-98757242D01*
X53119114Y-98889906D01*
X53111004Y-98905078D01*
X53004659Y-99034659D01*
X52875078Y-99141004D01*
X52875076Y-99141005D01*
X52727242Y-99220024D01*
X52566823Y-99268687D01*
X52441804Y-99281000D01*
X51558196Y-99281000D01*
X51433177Y-99268687D01*
X51272758Y-99220024D01*
X51124924Y-99141005D01*
X51124922Y-99141004D01*
X50995341Y-99034659D01*
X50888996Y-98905078D01*
X50880886Y-98889906D01*
X50809976Y-98757242D01*
X50761313Y-98596823D01*
X50744883Y-98430000D01*
X50761313Y-98263177D01*
X50809976Y-98102758D01*
X50888995Y-97954924D01*
X50888996Y-97954922D01*
X50995341Y-97825341D01*
X51124922Y-97718996D01*
X51140094Y-97710886D01*
X51272758Y-97639976D01*
X51433177Y-97591313D01*
X51558196Y-97579000D01*
X52441804Y-97579000D01*
X52566823Y-97591313D01*
X52566823Y-97591313D01*
G37*
G36*
X29706823Y-97591313D02*
G01*
X29867242Y-97639976D01*
X29999906Y-97710886D01*
X30015078Y-97718996D01*
X30144659Y-97825341D01*
X30251004Y-97954922D01*
X30251005Y-97954924D01*
X30330024Y-98102758D01*
X30378687Y-98263177D01*
X30395117Y-98430000D01*
X30378687Y-98596823D01*
X30330024Y-98757242D01*
X30259114Y-98889906D01*
X30251004Y-98905078D01*
X30144659Y-99034659D01*
X30015078Y-99141004D01*
X30015076Y-99141005D01*
X29867242Y-99220024D01*
X29706823Y-99268687D01*
X29581804Y-99281000D01*
X28698196Y-99281000D01*
X28573177Y-99268687D01*
X28412758Y-99220024D01*
X28264924Y-99141005D01*
X28264922Y-99141004D01*
X28135341Y-99034659D01*
X28028996Y-98905078D01*
X28020886Y-98889906D01*
X27949976Y-98757242D01*
X27901313Y-98596823D01*
X27884883Y-98430000D01*
X27901313Y-98263177D01*
X27949976Y-98102758D01*
X28028995Y-97954924D01*
X28028996Y-97954922D01*
X28135341Y-97825341D01*
X28264922Y-97718996D01*
X28280094Y-97710886D01*
X28412758Y-97639976D01*
X28573177Y-97591313D01*
X28698196Y-97579000D01*
X29581804Y-97579000D01*
X29706823Y-97591313D01*
X29706823Y-97591313D01*
G37*
G36*
X29706823Y-95051313D02*
G01*
X29867242Y-95099976D01*
X29999906Y-95170886D01*
X30015078Y-95178996D01*
X30144659Y-95285341D01*
X30251004Y-95414922D01*
X30251005Y-95414924D01*
X30330024Y-95562758D01*
X30378687Y-95723177D01*
X30395117Y-95890000D01*
X30378687Y-96056823D01*
X30330024Y-96217242D01*
X30259114Y-96349906D01*
X30251004Y-96365078D01*
X30144659Y-96494659D01*
X30015078Y-96601004D01*
X30015076Y-96601005D01*
X29867242Y-96680024D01*
X29706823Y-96728687D01*
X29581804Y-96741000D01*
X28698196Y-96741000D01*
X28573177Y-96728687D01*
X28412758Y-96680024D01*
X28264924Y-96601005D01*
X28264922Y-96601004D01*
X28135341Y-96494659D01*
X28028996Y-96365078D01*
X28020886Y-96349906D01*
X27949976Y-96217242D01*
X27901313Y-96056823D01*
X27884883Y-95890000D01*
X27901313Y-95723177D01*
X27949976Y-95562758D01*
X28028995Y-95414924D01*
X28028996Y-95414922D01*
X28135341Y-95285341D01*
X28264922Y-95178996D01*
X28280094Y-95170886D01*
X28412758Y-95099976D01*
X28573177Y-95051313D01*
X28698196Y-95039000D01*
X29581804Y-95039000D01*
X29706823Y-95051313D01*
X29706823Y-95051313D01*
G37*
G36*
X52566823Y-95051313D02*
G01*
X52727242Y-95099976D01*
X52859906Y-95170886D01*
X52875078Y-95178996D01*
X53004659Y-95285341D01*
X53111004Y-95414922D01*
X53111005Y-95414924D01*
X53190024Y-95562758D01*
X53238687Y-95723177D01*
X53255117Y-95890000D01*
X53238687Y-96056823D01*
X53190024Y-96217242D01*
X53119114Y-96349906D01*
X53111004Y-96365078D01*
X53004659Y-96494659D01*
X52875078Y-96601004D01*
X52875076Y-96601005D01*
X52727242Y-96680024D01*
X52566823Y-96728687D01*
X52441804Y-96741000D01*
X51558196Y-96741000D01*
X51433177Y-96728687D01*
X51272758Y-96680024D01*
X51124924Y-96601005D01*
X51124922Y-96601004D01*
X50995341Y-96494659D01*
X50888996Y-96365078D01*
X50880886Y-96349906D01*
X50809976Y-96217242D01*
X50761313Y-96056823D01*
X50744883Y-95890000D01*
X50761313Y-95723177D01*
X50809976Y-95562758D01*
X50888995Y-95414924D01*
X50888996Y-95414922D01*
X50995341Y-95285341D01*
X51124922Y-95178996D01*
X51140094Y-95170886D01*
X51272758Y-95099976D01*
X51433177Y-95051313D01*
X51558196Y-95039000D01*
X52441804Y-95039000D01*
X52566823Y-95051313D01*
X52566823Y-95051313D01*
G37*
G36*
X52566823Y-92511313D02*
G01*
X52727242Y-92559976D01*
X52859906Y-92630886D01*
X52875078Y-92638996D01*
X53004659Y-92745341D01*
X53111004Y-92874922D01*
X53111005Y-92874924D01*
X53190024Y-93022758D01*
X53238687Y-93183177D01*
X53255117Y-93350000D01*
X53238687Y-93516823D01*
X53190024Y-93677242D01*
X53119114Y-93809906D01*
X53111004Y-93825078D01*
X53004659Y-93954659D01*
X52875078Y-94061004D01*
X52875076Y-94061005D01*
X52727242Y-94140024D01*
X52566823Y-94188687D01*
X52441804Y-94201000D01*
X51558196Y-94201000D01*
X51433177Y-94188687D01*
X51272758Y-94140024D01*
X51124924Y-94061005D01*
X51124922Y-94061004D01*
X50995341Y-93954659D01*
X50888996Y-93825078D01*
X50880886Y-93809906D01*
X50809976Y-93677242D01*
X50761313Y-93516823D01*
X50744883Y-93350000D01*
X50761313Y-93183177D01*
X50809976Y-93022758D01*
X50888995Y-92874924D01*
X50888996Y-92874922D01*
X50995341Y-92745341D01*
X51124922Y-92638996D01*
X51140094Y-92630886D01*
X51272758Y-92559976D01*
X51433177Y-92511313D01*
X51558196Y-92499000D01*
X52441804Y-92499000D01*
X52566823Y-92511313D01*
X52566823Y-92511313D01*
G37*
G36*
X29706823Y-92511313D02*
G01*
X29867242Y-92559976D01*
X29999906Y-92630886D01*
X30015078Y-92638996D01*
X30144659Y-92745341D01*
X30251004Y-92874922D01*
X30251005Y-92874924D01*
X30330024Y-93022758D01*
X30378687Y-93183177D01*
X30395117Y-93350000D01*
X30378687Y-93516823D01*
X30330024Y-93677242D01*
X30259114Y-93809906D01*
X30251004Y-93825078D01*
X30144659Y-93954659D01*
X30015078Y-94061004D01*
X30015076Y-94061005D01*
X29867242Y-94140024D01*
X29706823Y-94188687D01*
X29581804Y-94201000D01*
X28698196Y-94201000D01*
X28573177Y-94188687D01*
X28412758Y-94140024D01*
X28264924Y-94061005D01*
X28264922Y-94061004D01*
X28135341Y-93954659D01*
X28028996Y-93825078D01*
X28020886Y-93809906D01*
X27949976Y-93677242D01*
X27901313Y-93516823D01*
X27884883Y-93350000D01*
X27901313Y-93183177D01*
X27949976Y-93022758D01*
X28028995Y-92874924D01*
X28028996Y-92874922D01*
X28135341Y-92745341D01*
X28264922Y-92638996D01*
X28280094Y-92630886D01*
X28412758Y-92559976D01*
X28573177Y-92511313D01*
X28698196Y-92499000D01*
X29581804Y-92499000D01*
X29706823Y-92511313D01*
X29706823Y-92511313D01*
G37*
G36*
X52566823Y-89971313D02*
G01*
X52727242Y-90019976D01*
X52859906Y-90090886D01*
X52875078Y-90098996D01*
X53004659Y-90205341D01*
X53111004Y-90334922D01*
X53111005Y-90334924D01*
X53190024Y-90482758D01*
X53238687Y-90643177D01*
X53255117Y-90810000D01*
X53238687Y-90976823D01*
X53190024Y-91137242D01*
X53119114Y-91269906D01*
X53111004Y-91285078D01*
X53004659Y-91414659D01*
X52875078Y-91521004D01*
X52875076Y-91521005D01*
X52727242Y-91600024D01*
X52566823Y-91648687D01*
X52441804Y-91661000D01*
X51558196Y-91661000D01*
X51433177Y-91648687D01*
X51272758Y-91600024D01*
X51124924Y-91521005D01*
X51124922Y-91521004D01*
X50995341Y-91414659D01*
X50888996Y-91285078D01*
X50880886Y-91269906D01*
X50809976Y-91137242D01*
X50761313Y-90976823D01*
X50744883Y-90810000D01*
X50761313Y-90643177D01*
X50809976Y-90482758D01*
X50888995Y-90334924D01*
X50888996Y-90334922D01*
X50995341Y-90205341D01*
X51124922Y-90098996D01*
X51140094Y-90090886D01*
X51272758Y-90019976D01*
X51433177Y-89971313D01*
X51558196Y-89959000D01*
X52441804Y-89959000D01*
X52566823Y-89971313D01*
X52566823Y-89971313D01*
G37*
G36*
X29706823Y-89971313D02*
G01*
X29867242Y-90019976D01*
X29999906Y-90090886D01*
X30015078Y-90098996D01*
X30144659Y-90205341D01*
X30251004Y-90334922D01*
X30251005Y-90334924D01*
X30330024Y-90482758D01*
X30378687Y-90643177D01*
X30395117Y-90810000D01*
X30378687Y-90976823D01*
X30330024Y-91137242D01*
X30259114Y-91269906D01*
X30251004Y-91285078D01*
X30144659Y-91414659D01*
X30015078Y-91521004D01*
X30015076Y-91521005D01*
X29867242Y-91600024D01*
X29706823Y-91648687D01*
X29581804Y-91661000D01*
X28698196Y-91661000D01*
X28573177Y-91648687D01*
X28412758Y-91600024D01*
X28264924Y-91521005D01*
X28264922Y-91521004D01*
X28135341Y-91414659D01*
X28028996Y-91285078D01*
X28020886Y-91269906D01*
X27949976Y-91137242D01*
X27901313Y-90976823D01*
X27884883Y-90810000D01*
X27901313Y-90643177D01*
X27949976Y-90482758D01*
X28028995Y-90334924D01*
X28028996Y-90334922D01*
X28135341Y-90205341D01*
X28264922Y-90098996D01*
X28280094Y-90090886D01*
X28412758Y-90019976D01*
X28573177Y-89971313D01*
X28698196Y-89959000D01*
X29581804Y-89959000D01*
X29706823Y-89971313D01*
X29706823Y-89971313D01*
G37*
G36*
X29706823Y-87431313D02*
G01*
X29867242Y-87479976D01*
X29999906Y-87550886D01*
X30015078Y-87558996D01*
X30144659Y-87665341D01*
X30251004Y-87794922D01*
X30251005Y-87794924D01*
X30330024Y-87942758D01*
X30378687Y-88103177D01*
X30395117Y-88270000D01*
X30378687Y-88436823D01*
X30330024Y-88597242D01*
X30259114Y-88729906D01*
X30251004Y-88745078D01*
X30144659Y-88874659D01*
X30015078Y-88981004D01*
X30015076Y-88981005D01*
X29867242Y-89060024D01*
X29706823Y-89108687D01*
X29581804Y-89121000D01*
X28698196Y-89121000D01*
X28573177Y-89108687D01*
X28412758Y-89060024D01*
X28264924Y-88981005D01*
X28264922Y-88981004D01*
X28135341Y-88874659D01*
X28028996Y-88745078D01*
X28020886Y-88729906D01*
X27949976Y-88597242D01*
X27901313Y-88436823D01*
X27884883Y-88270000D01*
X27901313Y-88103177D01*
X27949976Y-87942758D01*
X28028995Y-87794924D01*
X28028996Y-87794922D01*
X28135341Y-87665341D01*
X28264922Y-87558996D01*
X28280094Y-87550886D01*
X28412758Y-87479976D01*
X28573177Y-87431313D01*
X28698196Y-87419000D01*
X29581804Y-87419000D01*
X29706823Y-87431313D01*
X29706823Y-87431313D01*
G37*
G36*
X52566823Y-87431313D02*
G01*
X52727242Y-87479976D01*
X52859906Y-87550886D01*
X52875078Y-87558996D01*
X53004659Y-87665341D01*
X53111004Y-87794922D01*
X53111005Y-87794924D01*
X53190024Y-87942758D01*
X53238687Y-88103177D01*
X53255117Y-88270000D01*
X53238687Y-88436823D01*
X53190024Y-88597242D01*
X53119114Y-88729906D01*
X53111004Y-88745078D01*
X53004659Y-88874659D01*
X52875078Y-88981004D01*
X52875076Y-88981005D01*
X52727242Y-89060024D01*
X52566823Y-89108687D01*
X52441804Y-89121000D01*
X51558196Y-89121000D01*
X51433177Y-89108687D01*
X51272758Y-89060024D01*
X51124924Y-88981005D01*
X51124922Y-88981004D01*
X50995341Y-88874659D01*
X50888996Y-88745078D01*
X50880886Y-88729906D01*
X50809976Y-88597242D01*
X50761313Y-88436823D01*
X50744883Y-88270000D01*
X50761313Y-88103177D01*
X50809976Y-87942758D01*
X50888995Y-87794924D01*
X50888996Y-87794922D01*
X50995341Y-87665341D01*
X51124922Y-87558996D01*
X51140094Y-87550886D01*
X51272758Y-87479976D01*
X51433177Y-87431313D01*
X51558196Y-87419000D01*
X52441804Y-87419000D01*
X52566823Y-87431313D01*
X52566823Y-87431313D01*
G37*
G36*
X95720551Y-87081165D02*
G01*
X95754529Y-87091473D01*
X95785850Y-87108214D01*
X95813299Y-87130741D01*
X95835826Y-87158190D01*
X95852567Y-87189511D01*
X95862875Y-87223489D01*
X95866960Y-87264970D01*
X95866960Y-87866190D01*
X95862875Y-87907671D01*
X95852567Y-87941649D01*
X95835826Y-87972970D01*
X95813299Y-88000419D01*
X95785850Y-88022946D01*
X95754529Y-88039687D01*
X95720551Y-88049995D01*
X95679070Y-88054080D01*
X95002850Y-88054080D01*
X94961369Y-88049995D01*
X94927391Y-88039687D01*
X94896070Y-88022946D01*
X94868621Y-88000419D01*
X94846094Y-87972970D01*
X94829353Y-87941649D01*
X94819045Y-87907671D01*
X94814960Y-87866190D01*
X94814960Y-87264970D01*
X94819045Y-87223489D01*
X94829353Y-87189511D01*
X94846094Y-87158190D01*
X94868621Y-87130741D01*
X94896070Y-87108214D01*
X94927391Y-87091473D01*
X94961369Y-87081165D01*
X95002850Y-87077080D01*
X95679070Y-87077080D01*
X95720551Y-87081165D01*
X95720551Y-87081165D01*
G37*
G36*
X94191951Y-87079645D02*
G01*
X94225929Y-87089953D01*
X94257250Y-87106694D01*
X94284699Y-87129221D01*
X94307226Y-87156670D01*
X94323967Y-87187991D01*
X94334275Y-87221969D01*
X94338360Y-87263450D01*
X94338360Y-87864670D01*
X94334275Y-87906151D01*
X94323967Y-87940129D01*
X94307226Y-87971450D01*
X94284699Y-87998899D01*
X94257250Y-88021426D01*
X94225929Y-88038167D01*
X94191951Y-88048475D01*
X94150470Y-88052560D01*
X93474250Y-88052560D01*
X93432769Y-88048475D01*
X93398791Y-88038167D01*
X93367470Y-88021426D01*
X93340021Y-87998899D01*
X93317494Y-87971450D01*
X93300753Y-87940129D01*
X93290445Y-87906151D01*
X93286360Y-87864670D01*
X93286360Y-87263450D01*
X93290445Y-87221969D01*
X93300753Y-87187991D01*
X93317494Y-87156670D01*
X93340021Y-87129221D01*
X93367470Y-87106694D01*
X93398791Y-87089953D01*
X93432769Y-87079645D01*
X93474250Y-87075560D01*
X94150470Y-87075560D01*
X94191951Y-87079645D01*
X94191951Y-87079645D01*
G37*
G36*
X92673031Y-86414165D02*
G01*
X92707009Y-86424473D01*
X92738330Y-86441214D01*
X92765779Y-86463741D01*
X92788306Y-86491190D01*
X92805047Y-86522511D01*
X92815355Y-86556489D01*
X92819440Y-86597970D01*
X92819440Y-87199190D01*
X92815355Y-87240671D01*
X92805047Y-87274649D01*
X92788306Y-87305970D01*
X92765779Y-87333419D01*
X92738330Y-87355946D01*
X92707009Y-87372687D01*
X92673031Y-87382995D01*
X92631550Y-87387080D01*
X91955330Y-87387080D01*
X91913849Y-87382995D01*
X91879871Y-87372687D01*
X91848550Y-87355946D01*
X91821101Y-87333419D01*
X91798574Y-87305970D01*
X91781833Y-87274649D01*
X91771525Y-87240671D01*
X91767440Y-87199190D01*
X91767440Y-86597970D01*
X91771525Y-86556489D01*
X91781833Y-86522511D01*
X91798574Y-86491190D01*
X91821101Y-86463741D01*
X91848550Y-86441214D01*
X91879871Y-86424473D01*
X91913849Y-86414165D01*
X91955330Y-86410080D01*
X92631550Y-86410080D01*
X92673031Y-86414165D01*
X92673031Y-86414165D01*
G37*
G36*
X117480815Y-86157213D02*
G01*
X117584679Y-86188719D01*
X117611855Y-86203245D01*
X117680400Y-86239883D01*
X117764301Y-86308739D01*
X117833157Y-86392640D01*
X117852416Y-86428672D01*
X117884321Y-86488361D01*
X117915827Y-86592225D01*
X117926466Y-86700240D01*
X117915827Y-86808255D01*
X117884321Y-86912119D01*
X117884319Y-86912122D01*
X117833157Y-87007840D01*
X117764301Y-87091741D01*
X117680400Y-87160597D01*
X117611855Y-87197235D01*
X117584679Y-87211761D01*
X117480815Y-87243267D01*
X117399867Y-87251240D01*
X116795733Y-87251240D01*
X116714785Y-87243267D01*
X116610921Y-87211761D01*
X116583745Y-87197235D01*
X116515200Y-87160597D01*
X116431299Y-87091741D01*
X116362443Y-87007840D01*
X116311281Y-86912122D01*
X116311279Y-86912119D01*
X116279773Y-86808255D01*
X116269134Y-86700240D01*
X116279773Y-86592225D01*
X116311279Y-86488361D01*
X116343184Y-86428672D01*
X116362443Y-86392640D01*
X116431299Y-86308739D01*
X116515200Y-86239883D01*
X116583745Y-86203245D01*
X116610921Y-86188719D01*
X116714785Y-86157213D01*
X116795733Y-86149240D01*
X117399867Y-86149240D01*
X117480815Y-86157213D01*
X117480815Y-86157213D01*
G37*
G36*
X52566823Y-84891313D02*
G01*
X52727242Y-84939976D01*
X52859906Y-85010886D01*
X52875078Y-85018996D01*
X53004659Y-85125341D01*
X53111004Y-85254922D01*
X53111005Y-85254924D01*
X53190024Y-85402758D01*
X53238687Y-85563177D01*
X53255117Y-85730000D01*
X53238687Y-85896823D01*
X53190024Y-86057242D01*
X53143713Y-86143883D01*
X53111004Y-86205078D01*
X53004659Y-86334659D01*
X52875078Y-86441004D01*
X52875076Y-86441005D01*
X52727242Y-86520024D01*
X52566823Y-86568687D01*
X52441804Y-86581000D01*
X51558196Y-86581000D01*
X51433177Y-86568687D01*
X51272758Y-86520024D01*
X51124924Y-86441005D01*
X51124922Y-86441004D01*
X50995341Y-86334659D01*
X50888996Y-86205078D01*
X50856287Y-86143883D01*
X50809976Y-86057242D01*
X50761313Y-85896823D01*
X50744883Y-85730000D01*
X50761313Y-85563177D01*
X50809976Y-85402758D01*
X50888995Y-85254924D01*
X50888996Y-85254922D01*
X50995341Y-85125341D01*
X51124922Y-85018996D01*
X51140094Y-85010886D01*
X51272758Y-84939976D01*
X51433177Y-84891313D01*
X51558196Y-84879000D01*
X52441804Y-84879000D01*
X52566823Y-84891313D01*
X52566823Y-84891313D01*
G37*
G36*
X29706823Y-84891313D02*
G01*
X29867242Y-84939976D01*
X29999906Y-85010886D01*
X30015078Y-85018996D01*
X30144659Y-85125341D01*
X30251004Y-85254922D01*
X30251005Y-85254924D01*
X30330024Y-85402758D01*
X30378687Y-85563177D01*
X30395117Y-85730000D01*
X30378687Y-85896823D01*
X30330024Y-86057242D01*
X30283713Y-86143883D01*
X30251004Y-86205078D01*
X30144659Y-86334659D01*
X30015078Y-86441004D01*
X30015076Y-86441005D01*
X29867242Y-86520024D01*
X29706823Y-86568687D01*
X29581804Y-86581000D01*
X28698196Y-86581000D01*
X28573177Y-86568687D01*
X28412758Y-86520024D01*
X28264924Y-86441005D01*
X28264922Y-86441004D01*
X28135341Y-86334659D01*
X28028996Y-86205078D01*
X27996287Y-86143883D01*
X27949976Y-86057242D01*
X27901313Y-85896823D01*
X27884883Y-85730000D01*
X27901313Y-85563177D01*
X27949976Y-85402758D01*
X28028995Y-85254924D01*
X28028996Y-85254922D01*
X28135341Y-85125341D01*
X28264922Y-85018996D01*
X28280094Y-85010886D01*
X28412758Y-84939976D01*
X28573177Y-84891313D01*
X28698196Y-84879000D01*
X29581804Y-84879000D01*
X29706823Y-84891313D01*
X29706823Y-84891313D01*
G37*
G36*
X95720551Y-85506165D02*
G01*
X95754529Y-85516473D01*
X95785850Y-85533214D01*
X95813299Y-85555741D01*
X95835826Y-85583190D01*
X95852567Y-85614511D01*
X95862875Y-85648489D01*
X95866960Y-85689970D01*
X95866960Y-86291190D01*
X95862875Y-86332671D01*
X95852567Y-86366649D01*
X95835826Y-86397970D01*
X95813299Y-86425419D01*
X95785850Y-86447946D01*
X95754529Y-86464687D01*
X95720551Y-86474995D01*
X95679070Y-86479080D01*
X95002850Y-86479080D01*
X94961369Y-86474995D01*
X94927391Y-86464687D01*
X94896070Y-86447946D01*
X94868621Y-86425419D01*
X94846094Y-86397970D01*
X94829353Y-86366649D01*
X94819045Y-86332671D01*
X94814960Y-86291190D01*
X94814960Y-85689970D01*
X94819045Y-85648489D01*
X94829353Y-85614511D01*
X94846094Y-85583190D01*
X94868621Y-85555741D01*
X94896070Y-85533214D01*
X94927391Y-85516473D01*
X94961369Y-85506165D01*
X95002850Y-85502080D01*
X95679070Y-85502080D01*
X95720551Y-85506165D01*
X95720551Y-85506165D01*
G37*
G36*
X94191951Y-85504645D02*
G01*
X94225929Y-85514953D01*
X94257250Y-85531694D01*
X94284699Y-85554221D01*
X94307226Y-85581670D01*
X94323967Y-85612991D01*
X94334275Y-85646969D01*
X94338360Y-85688450D01*
X94338360Y-86289670D01*
X94334275Y-86331151D01*
X94323967Y-86365129D01*
X94307226Y-86396450D01*
X94284699Y-86423899D01*
X94257250Y-86446426D01*
X94225929Y-86463167D01*
X94191951Y-86473475D01*
X94150470Y-86477560D01*
X93474250Y-86477560D01*
X93432769Y-86473475D01*
X93398791Y-86463167D01*
X93367470Y-86446426D01*
X93340021Y-86423899D01*
X93317494Y-86396450D01*
X93300753Y-86365129D01*
X93290445Y-86331151D01*
X93286360Y-86289670D01*
X93286360Y-85688450D01*
X93290445Y-85646969D01*
X93300753Y-85612991D01*
X93317494Y-85581670D01*
X93340021Y-85554221D01*
X93367470Y-85531694D01*
X93398791Y-85514953D01*
X93432769Y-85504645D01*
X93474250Y-85500560D01*
X94150470Y-85500560D01*
X94191951Y-85504645D01*
X94191951Y-85504645D01*
G37*
G36*
X114500914Y-85031851D02*
G01*
X114600065Y-85061928D01*
X114691444Y-85110771D01*
X114771538Y-85176502D01*
X114837269Y-85256596D01*
X114886112Y-85347976D01*
X114916189Y-85447127D01*
X114923800Y-85524402D01*
X114923800Y-85876079D01*
X114916189Y-85953354D01*
X114886112Y-86052505D01*
X114837269Y-86143884D01*
X114771538Y-86223978D01*
X114691444Y-86289709D01*
X114600064Y-86338552D01*
X114500913Y-86368629D01*
X114397800Y-86378785D01*
X114294686Y-86368629D01*
X114195535Y-86338552D01*
X114104156Y-86289709D01*
X114024062Y-86223978D01*
X113958331Y-86143884D01*
X113909488Y-86052504D01*
X113879411Y-85953353D01*
X113871800Y-85876078D01*
X113871800Y-85524401D01*
X113879411Y-85447126D01*
X113899463Y-85381025D01*
X113909489Y-85347974D01*
X113958332Y-85256596D01*
X113959706Y-85254922D01*
X114024063Y-85176502D01*
X114104157Y-85110771D01*
X114195536Y-85061928D01*
X114294687Y-85031851D01*
X114397800Y-85021695D01*
X114500914Y-85031851D01*
X114500914Y-85031851D01*
G37*
G36*
X92673031Y-84839165D02*
G01*
X92707009Y-84849473D01*
X92738330Y-84866214D01*
X92765779Y-84888741D01*
X92788306Y-84916190D01*
X92805047Y-84947511D01*
X92815355Y-84981489D01*
X92819440Y-85022970D01*
X92819440Y-85624190D01*
X92815355Y-85665671D01*
X92805047Y-85699649D01*
X92788306Y-85730970D01*
X92765779Y-85758419D01*
X92738330Y-85780946D01*
X92707009Y-85797687D01*
X92673031Y-85807995D01*
X92631550Y-85812080D01*
X91955330Y-85812080D01*
X91913849Y-85807995D01*
X91879871Y-85797687D01*
X91848550Y-85780946D01*
X91821101Y-85758419D01*
X91798574Y-85730970D01*
X91781833Y-85699649D01*
X91771525Y-85665671D01*
X91767440Y-85624190D01*
X91767440Y-85022970D01*
X91771525Y-84981489D01*
X91781833Y-84947511D01*
X91798574Y-84916190D01*
X91821101Y-84888741D01*
X91848550Y-84866214D01*
X91879871Y-84849473D01*
X91913849Y-84839165D01*
X91955330Y-84835080D01*
X92631550Y-84835080D01*
X92673031Y-84839165D01*
X92673031Y-84839165D01*
G37*
G36*
X29706823Y-82351313D02*
G01*
X29867242Y-82399976D01*
X29999906Y-82470886D01*
X30015078Y-82478996D01*
X30144659Y-82585341D01*
X30251004Y-82714922D01*
X30251005Y-82714924D01*
X30330024Y-82862758D01*
X30378687Y-83023177D01*
X30395117Y-83190000D01*
X30378687Y-83356823D01*
X30330024Y-83517242D01*
X30259114Y-83649906D01*
X30251004Y-83665078D01*
X30144659Y-83794659D01*
X30015078Y-83901004D01*
X30015076Y-83901005D01*
X29867242Y-83980024D01*
X29706823Y-84028687D01*
X29581804Y-84041000D01*
X28698196Y-84041000D01*
X28573177Y-84028687D01*
X28412758Y-83980024D01*
X28264924Y-83901005D01*
X28264922Y-83901004D01*
X28135341Y-83794659D01*
X28028996Y-83665078D01*
X28020886Y-83649906D01*
X27949976Y-83517242D01*
X27901313Y-83356823D01*
X27884883Y-83190000D01*
X27901313Y-83023177D01*
X27949976Y-82862758D01*
X28028995Y-82714924D01*
X28028996Y-82714922D01*
X28135341Y-82585341D01*
X28264922Y-82478996D01*
X28280094Y-82470886D01*
X28412758Y-82399976D01*
X28573177Y-82351313D01*
X28698196Y-82339000D01*
X29581804Y-82339000D01*
X29706823Y-82351313D01*
X29706823Y-82351313D01*
G37*
G36*
X52566823Y-82351313D02*
G01*
X52727242Y-82399976D01*
X52859906Y-82470886D01*
X52875078Y-82478996D01*
X53004659Y-82585341D01*
X53111004Y-82714922D01*
X53111005Y-82714924D01*
X53190024Y-82862758D01*
X53238687Y-83023177D01*
X53255117Y-83190000D01*
X53238687Y-83356823D01*
X53190024Y-83517242D01*
X53119114Y-83649906D01*
X53111004Y-83665078D01*
X53004659Y-83794659D01*
X52875078Y-83901004D01*
X52875076Y-83901005D01*
X52727242Y-83980024D01*
X52566823Y-84028687D01*
X52441804Y-84041000D01*
X51558196Y-84041000D01*
X51433177Y-84028687D01*
X51272758Y-83980024D01*
X51124924Y-83901005D01*
X51124922Y-83901004D01*
X50995341Y-83794659D01*
X50888996Y-83665078D01*
X50880886Y-83649906D01*
X50809976Y-83517242D01*
X50761313Y-83356823D01*
X50744883Y-83190000D01*
X50761313Y-83023177D01*
X50809976Y-82862758D01*
X50888995Y-82714924D01*
X50888996Y-82714922D01*
X50995341Y-82585341D01*
X51124922Y-82478996D01*
X51140094Y-82470886D01*
X51272758Y-82399976D01*
X51433177Y-82351313D01*
X51558196Y-82339000D01*
X52441804Y-82339000D01*
X52566823Y-82351313D01*
X52566823Y-82351313D01*
G37*
G36*
X29706823Y-79811313D02*
G01*
X29867242Y-79859976D01*
X29964800Y-79912122D01*
X30015078Y-79938996D01*
X30144659Y-80045341D01*
X30251004Y-80174922D01*
X30251849Y-80176503D01*
X30330024Y-80322758D01*
X30378687Y-80483177D01*
X30395117Y-80650000D01*
X30378687Y-80816823D01*
X30330024Y-80977242D01*
X30259114Y-81109906D01*
X30251004Y-81125078D01*
X30144659Y-81254659D01*
X30015078Y-81361004D01*
X30015076Y-81361005D01*
X29867242Y-81440024D01*
X29706823Y-81488687D01*
X29581804Y-81501000D01*
X28698196Y-81501000D01*
X28573177Y-81488687D01*
X28412758Y-81440024D01*
X28264924Y-81361005D01*
X28264922Y-81361004D01*
X28135341Y-81254659D01*
X28028996Y-81125078D01*
X28020886Y-81109906D01*
X27949976Y-80977242D01*
X27901313Y-80816823D01*
X27884883Y-80650000D01*
X27901313Y-80483177D01*
X27949976Y-80322758D01*
X28028151Y-80176503D01*
X28028996Y-80174922D01*
X28135341Y-80045341D01*
X28264922Y-79938996D01*
X28315200Y-79912122D01*
X28412758Y-79859976D01*
X28573177Y-79811313D01*
X28698196Y-79799000D01*
X29581804Y-79799000D01*
X29706823Y-79811313D01*
X29706823Y-79811313D01*
G37*
G36*
X52566823Y-79811313D02*
G01*
X52727242Y-79859976D01*
X52824800Y-79912122D01*
X52875078Y-79938996D01*
X53004659Y-80045341D01*
X53111004Y-80174922D01*
X53111849Y-80176503D01*
X53190024Y-80322758D01*
X53238687Y-80483177D01*
X53255117Y-80650000D01*
X53238687Y-80816823D01*
X53190024Y-80977242D01*
X53119114Y-81109906D01*
X53111004Y-81125078D01*
X53004659Y-81254659D01*
X52875078Y-81361004D01*
X52875076Y-81361005D01*
X52727242Y-81440024D01*
X52566823Y-81488687D01*
X52441804Y-81501000D01*
X51558196Y-81501000D01*
X51433177Y-81488687D01*
X51272758Y-81440024D01*
X51124924Y-81361005D01*
X51124922Y-81361004D01*
X50995341Y-81254659D01*
X50888996Y-81125078D01*
X50880886Y-81109906D01*
X50809976Y-80977242D01*
X50761313Y-80816823D01*
X50744883Y-80650000D01*
X50761313Y-80483177D01*
X50809976Y-80322758D01*
X50888151Y-80176503D01*
X50888996Y-80174922D01*
X50995341Y-80045341D01*
X51124922Y-79938996D01*
X51175200Y-79912122D01*
X51272758Y-79859976D01*
X51433177Y-79811313D01*
X51558196Y-79799000D01*
X52441804Y-79799000D01*
X52566823Y-79811313D01*
X52566823Y-79811313D01*
G37*
G36*
X114500914Y-80031851D02*
G01*
X114600065Y-80061928D01*
X114691444Y-80110771D01*
X114771538Y-80176502D01*
X114837269Y-80256596D01*
X114886112Y-80347976D01*
X114916189Y-80447127D01*
X114923800Y-80524402D01*
X114923800Y-80876079D01*
X114916189Y-80953354D01*
X114886112Y-81052505D01*
X114837269Y-81143884D01*
X114771538Y-81223978D01*
X114691444Y-81289709D01*
X114600064Y-81338552D01*
X114500913Y-81368629D01*
X114397800Y-81378785D01*
X114294686Y-81368629D01*
X114195535Y-81338552D01*
X114104156Y-81289709D01*
X114024062Y-81223978D01*
X113958331Y-81143884D01*
X113909488Y-81052504D01*
X113879411Y-80953353D01*
X113871800Y-80876078D01*
X113871800Y-80524401D01*
X113879411Y-80447126D01*
X113899463Y-80381025D01*
X113909489Y-80347974D01*
X113958332Y-80256596D01*
X113969271Y-80243267D01*
X114024063Y-80176502D01*
X114104157Y-80110771D01*
X114195536Y-80061928D01*
X114294687Y-80031851D01*
X114397800Y-80021695D01*
X114500914Y-80031851D01*
X114500914Y-80031851D01*
G37*
G36*
X117480815Y-79157213D02*
G01*
X117584679Y-79188719D01*
X117611855Y-79203245D01*
X117680400Y-79239883D01*
X117764301Y-79308739D01*
X117833157Y-79392640D01*
X117869795Y-79461185D01*
X117884321Y-79488361D01*
X117915827Y-79592225D01*
X117926466Y-79700240D01*
X117915827Y-79808255D01*
X117884321Y-79912119D01*
X117884319Y-79912122D01*
X117833157Y-80007840D01*
X117764301Y-80091741D01*
X117680400Y-80160597D01*
X117611855Y-80197235D01*
X117584679Y-80211761D01*
X117480815Y-80243267D01*
X117399867Y-80251240D01*
X116795733Y-80251240D01*
X116714785Y-80243267D01*
X116610921Y-80211761D01*
X116583745Y-80197235D01*
X116515200Y-80160597D01*
X116431299Y-80091741D01*
X116362443Y-80007840D01*
X116311281Y-79912122D01*
X116311279Y-79912119D01*
X116279773Y-79808255D01*
X116269134Y-79700240D01*
X116279773Y-79592225D01*
X116311279Y-79488361D01*
X116325805Y-79461185D01*
X116362443Y-79392640D01*
X116431299Y-79308739D01*
X116515200Y-79239883D01*
X116583745Y-79203245D01*
X116610921Y-79188719D01*
X116714785Y-79157213D01*
X116795733Y-79149240D01*
X117399867Y-79149240D01*
X117480815Y-79157213D01*
X117480815Y-79157213D01*
G37*
G36*
X29706823Y-77271313D02*
G01*
X29867242Y-77319976D01*
X29999906Y-77390886D01*
X30015078Y-77398996D01*
X30144659Y-77505341D01*
X30251004Y-77634922D01*
X30251005Y-77634924D01*
X30330024Y-77782758D01*
X30378687Y-77943177D01*
X30395117Y-78110000D01*
X30378687Y-78276823D01*
X30330024Y-78437242D01*
X30259114Y-78569906D01*
X30251004Y-78585078D01*
X30144659Y-78714659D01*
X30015078Y-78821004D01*
X30015076Y-78821005D01*
X29867242Y-78900024D01*
X29706823Y-78948687D01*
X29581804Y-78961000D01*
X28698196Y-78961000D01*
X28573177Y-78948687D01*
X28412758Y-78900024D01*
X28264924Y-78821005D01*
X28264922Y-78821004D01*
X28135341Y-78714659D01*
X28028996Y-78585078D01*
X28020886Y-78569906D01*
X27949976Y-78437242D01*
X27901313Y-78276823D01*
X27884883Y-78110000D01*
X27901313Y-77943177D01*
X27949976Y-77782758D01*
X28028995Y-77634924D01*
X28028996Y-77634922D01*
X28135341Y-77505341D01*
X28264922Y-77398996D01*
X28280094Y-77390886D01*
X28412758Y-77319976D01*
X28573177Y-77271313D01*
X28698196Y-77259000D01*
X29581804Y-77259000D01*
X29706823Y-77271313D01*
X29706823Y-77271313D01*
G37*
G36*
X52566823Y-77271313D02*
G01*
X52727242Y-77319976D01*
X52859906Y-77390886D01*
X52875078Y-77398996D01*
X53004659Y-77505341D01*
X53111004Y-77634922D01*
X53111005Y-77634924D01*
X53190024Y-77782758D01*
X53238687Y-77943177D01*
X53255117Y-78110000D01*
X53238687Y-78276823D01*
X53190024Y-78437242D01*
X53119114Y-78569906D01*
X53111004Y-78585078D01*
X53004659Y-78714659D01*
X52875078Y-78821004D01*
X52875076Y-78821005D01*
X52727242Y-78900024D01*
X52566823Y-78948687D01*
X52441804Y-78961000D01*
X51558196Y-78961000D01*
X51433177Y-78948687D01*
X51272758Y-78900024D01*
X51124924Y-78821005D01*
X51124922Y-78821004D01*
X50995341Y-78714659D01*
X50888996Y-78585078D01*
X50880886Y-78569906D01*
X50809976Y-78437242D01*
X50761313Y-78276823D01*
X50744883Y-78110000D01*
X50761313Y-77943177D01*
X50809976Y-77782758D01*
X50888995Y-77634924D01*
X50888996Y-77634922D01*
X50995341Y-77505341D01*
X51124922Y-77398996D01*
X51140094Y-77390886D01*
X51272758Y-77319976D01*
X51433177Y-77271313D01*
X51558196Y-77259000D01*
X52441804Y-77259000D01*
X52566823Y-77271313D01*
X52566823Y-77271313D01*
G37*
G36*
X52566823Y-74731313D02*
G01*
X52727242Y-74779976D01*
X52859906Y-74850886D01*
X52875078Y-74858996D01*
X53004659Y-74965341D01*
X53111004Y-75094922D01*
X53111005Y-75094924D01*
X53190024Y-75242758D01*
X53238687Y-75403177D01*
X53255117Y-75570000D01*
X53238687Y-75736823D01*
X53190024Y-75897242D01*
X53119114Y-76029906D01*
X53111004Y-76045078D01*
X53004659Y-76174659D01*
X52875078Y-76281004D01*
X52875076Y-76281005D01*
X52727242Y-76360024D01*
X52566823Y-76408687D01*
X52441804Y-76421000D01*
X51558196Y-76421000D01*
X51433177Y-76408687D01*
X51272758Y-76360024D01*
X51124924Y-76281005D01*
X51124922Y-76281004D01*
X50995341Y-76174659D01*
X50888996Y-76045078D01*
X50880886Y-76029906D01*
X50809976Y-75897242D01*
X50761313Y-75736823D01*
X50744883Y-75570000D01*
X50761313Y-75403177D01*
X50809976Y-75242758D01*
X50888995Y-75094924D01*
X50888996Y-75094922D01*
X50995341Y-74965341D01*
X51124922Y-74858996D01*
X51140094Y-74850886D01*
X51272758Y-74779976D01*
X51433177Y-74731313D01*
X51558196Y-74719000D01*
X52441804Y-74719000D01*
X52566823Y-74731313D01*
X52566823Y-74731313D01*
G37*
G36*
X29706823Y-74731313D02*
G01*
X29867242Y-74779976D01*
X29999906Y-74850886D01*
X30015078Y-74858996D01*
X30144659Y-74965341D01*
X30251004Y-75094922D01*
X30251005Y-75094924D01*
X30330024Y-75242758D01*
X30378687Y-75403177D01*
X30395117Y-75570000D01*
X30378687Y-75736823D01*
X30330024Y-75897242D01*
X30259114Y-76029906D01*
X30251004Y-76045078D01*
X30144659Y-76174659D01*
X30015078Y-76281004D01*
X30015076Y-76281005D01*
X29867242Y-76360024D01*
X29706823Y-76408687D01*
X29581804Y-76421000D01*
X28698196Y-76421000D01*
X28573177Y-76408687D01*
X28412758Y-76360024D01*
X28264924Y-76281005D01*
X28264922Y-76281004D01*
X28135341Y-76174659D01*
X28028996Y-76045078D01*
X28020886Y-76029906D01*
X27949976Y-75897242D01*
X27901313Y-75736823D01*
X27884883Y-75570000D01*
X27901313Y-75403177D01*
X27949976Y-75242758D01*
X28028995Y-75094924D01*
X28028996Y-75094922D01*
X28135341Y-74965341D01*
X28264922Y-74858996D01*
X28280094Y-74850886D01*
X28412758Y-74779976D01*
X28573177Y-74731313D01*
X28698196Y-74719000D01*
X29581804Y-74719000D01*
X29706823Y-74731313D01*
X29706823Y-74731313D01*
G37*
G36*
X52566823Y-72191313D02*
G01*
X52727242Y-72239976D01*
X52859906Y-72310886D01*
X52875078Y-72318996D01*
X53004659Y-72425341D01*
X53111004Y-72554922D01*
X53111005Y-72554924D01*
X53190024Y-72702758D01*
X53238687Y-72863177D01*
X53255117Y-73030000D01*
X53238687Y-73196823D01*
X53190024Y-73357242D01*
X53119114Y-73489906D01*
X53111004Y-73505078D01*
X53004659Y-73634659D01*
X52875078Y-73741004D01*
X52875076Y-73741005D01*
X52727242Y-73820024D01*
X52566823Y-73868687D01*
X52441804Y-73881000D01*
X51558196Y-73881000D01*
X51433177Y-73868687D01*
X51272758Y-73820024D01*
X51124924Y-73741005D01*
X51124922Y-73741004D01*
X50995341Y-73634659D01*
X50888996Y-73505078D01*
X50880886Y-73489906D01*
X50809976Y-73357242D01*
X50761313Y-73196823D01*
X50744883Y-73030000D01*
X50761313Y-72863177D01*
X50809976Y-72702758D01*
X50888995Y-72554924D01*
X50888996Y-72554922D01*
X50995341Y-72425341D01*
X51124922Y-72318996D01*
X51140094Y-72310886D01*
X51272758Y-72239976D01*
X51433177Y-72191313D01*
X51558196Y-72179000D01*
X52441804Y-72179000D01*
X52566823Y-72191313D01*
X52566823Y-72191313D01*
G37*
G36*
X29706823Y-72191313D02*
G01*
X29867242Y-72239976D01*
X29999906Y-72310886D01*
X30015078Y-72318996D01*
X30144659Y-72425341D01*
X30251004Y-72554922D01*
X30251005Y-72554924D01*
X30330024Y-72702758D01*
X30378687Y-72863177D01*
X30395117Y-73030000D01*
X30378687Y-73196823D01*
X30330024Y-73357242D01*
X30259114Y-73489906D01*
X30251004Y-73505078D01*
X30144659Y-73634659D01*
X30015078Y-73741004D01*
X30015076Y-73741005D01*
X29867242Y-73820024D01*
X29706823Y-73868687D01*
X29581804Y-73881000D01*
X28698196Y-73881000D01*
X28573177Y-73868687D01*
X28412758Y-73820024D01*
X28264924Y-73741005D01*
X28264922Y-73741004D01*
X28135341Y-73634659D01*
X28028996Y-73505078D01*
X28020886Y-73489906D01*
X27949976Y-73357242D01*
X27901313Y-73196823D01*
X27884883Y-73030000D01*
X27901313Y-72863177D01*
X27949976Y-72702758D01*
X28028995Y-72554924D01*
X28028996Y-72554922D01*
X28135341Y-72425341D01*
X28264922Y-72318996D01*
X28280094Y-72310886D01*
X28412758Y-72239976D01*
X28573177Y-72191313D01*
X28698196Y-72179000D01*
X29581804Y-72179000D01*
X29706823Y-72191313D01*
X29706823Y-72191313D01*
G37*
G36*
X29706823Y-69651313D02*
G01*
X29867242Y-69699976D01*
X29999906Y-69770886D01*
X30015078Y-69778996D01*
X30144659Y-69885341D01*
X30251004Y-70014922D01*
X30251005Y-70014924D01*
X30330024Y-70162758D01*
X30378687Y-70323177D01*
X30395117Y-70490000D01*
X30378687Y-70656823D01*
X30330024Y-70817242D01*
X30259114Y-70949906D01*
X30251004Y-70965078D01*
X30144659Y-71094659D01*
X30015078Y-71201004D01*
X30015076Y-71201005D01*
X29867242Y-71280024D01*
X29706823Y-71328687D01*
X29581804Y-71341000D01*
X28698196Y-71341000D01*
X28573177Y-71328687D01*
X28412758Y-71280024D01*
X28264924Y-71201005D01*
X28264922Y-71201004D01*
X28135341Y-71094659D01*
X28028996Y-70965078D01*
X28020886Y-70949906D01*
X27949976Y-70817242D01*
X27901313Y-70656823D01*
X27884883Y-70490000D01*
X27901313Y-70323177D01*
X27949976Y-70162758D01*
X28028995Y-70014924D01*
X28028996Y-70014922D01*
X28135341Y-69885341D01*
X28264922Y-69778996D01*
X28280094Y-69770886D01*
X28412758Y-69699976D01*
X28573177Y-69651313D01*
X28698196Y-69639000D01*
X29581804Y-69639000D01*
X29706823Y-69651313D01*
X29706823Y-69651313D01*
G37*
G36*
X52566823Y-69651313D02*
G01*
X52727242Y-69699976D01*
X52859906Y-69770886D01*
X52875078Y-69778996D01*
X53004659Y-69885341D01*
X53111004Y-70014922D01*
X53111005Y-70014924D01*
X53190024Y-70162758D01*
X53238687Y-70323177D01*
X53255117Y-70490000D01*
X53238687Y-70656823D01*
X53190024Y-70817242D01*
X53119114Y-70949906D01*
X53111004Y-70965078D01*
X53004659Y-71094659D01*
X52875078Y-71201004D01*
X52875076Y-71201005D01*
X52727242Y-71280024D01*
X52566823Y-71328687D01*
X52441804Y-71341000D01*
X51558196Y-71341000D01*
X51433177Y-71328687D01*
X51272758Y-71280024D01*
X51124924Y-71201005D01*
X51124922Y-71201004D01*
X50995341Y-71094659D01*
X50888996Y-70965078D01*
X50880886Y-70949906D01*
X50809976Y-70817242D01*
X50761313Y-70656823D01*
X50744883Y-70490000D01*
X50761313Y-70323177D01*
X50809976Y-70162758D01*
X50888995Y-70014924D01*
X50888996Y-70014922D01*
X50995341Y-69885341D01*
X51124922Y-69778996D01*
X51140094Y-69770886D01*
X51272758Y-69699976D01*
X51433177Y-69651313D01*
X51558196Y-69639000D01*
X52441804Y-69639000D01*
X52566823Y-69651313D01*
X52566823Y-69651313D01*
G37*
G36*
X52566823Y-67111313D02*
G01*
X52727242Y-67159976D01*
X52859906Y-67230886D01*
X52875078Y-67238996D01*
X53004659Y-67345341D01*
X53111004Y-67474922D01*
X53111005Y-67474924D01*
X53190024Y-67622758D01*
X53238687Y-67783177D01*
X53255117Y-67950000D01*
X53238687Y-68116823D01*
X53190024Y-68277242D01*
X53119114Y-68409906D01*
X53111004Y-68425078D01*
X53004659Y-68554659D01*
X52875078Y-68661004D01*
X52875076Y-68661005D01*
X52727242Y-68740024D01*
X52566823Y-68788687D01*
X52441804Y-68801000D01*
X51558196Y-68801000D01*
X51433177Y-68788687D01*
X51272758Y-68740024D01*
X51124924Y-68661005D01*
X51124922Y-68661004D01*
X50995341Y-68554659D01*
X50888996Y-68425078D01*
X50880886Y-68409906D01*
X50809976Y-68277242D01*
X50761313Y-68116823D01*
X50744883Y-67950000D01*
X50761313Y-67783177D01*
X50809976Y-67622758D01*
X50888995Y-67474924D01*
X50888996Y-67474922D01*
X50995341Y-67345341D01*
X51124922Y-67238996D01*
X51140094Y-67230886D01*
X51272758Y-67159976D01*
X51433177Y-67111313D01*
X51558196Y-67099000D01*
X52441804Y-67099000D01*
X52566823Y-67111313D01*
X52566823Y-67111313D01*
G37*
G36*
X29706823Y-67111313D02*
G01*
X29867242Y-67159976D01*
X29999906Y-67230886D01*
X30015078Y-67238996D01*
X30144659Y-67345341D01*
X30251004Y-67474922D01*
X30251005Y-67474924D01*
X30330024Y-67622758D01*
X30378687Y-67783177D01*
X30395117Y-67950000D01*
X30378687Y-68116823D01*
X30330024Y-68277242D01*
X30259114Y-68409906D01*
X30251004Y-68425078D01*
X30144659Y-68554659D01*
X30015078Y-68661004D01*
X30015076Y-68661005D01*
X29867242Y-68740024D01*
X29706823Y-68788687D01*
X29581804Y-68801000D01*
X28698196Y-68801000D01*
X28573177Y-68788687D01*
X28412758Y-68740024D01*
X28264924Y-68661005D01*
X28264922Y-68661004D01*
X28135341Y-68554659D01*
X28028996Y-68425078D01*
X28020886Y-68409906D01*
X27949976Y-68277242D01*
X27901313Y-68116823D01*
X27884883Y-67950000D01*
X27901313Y-67783177D01*
X27949976Y-67622758D01*
X28028995Y-67474924D01*
X28028996Y-67474922D01*
X28135341Y-67345341D01*
X28264922Y-67238996D01*
X28280094Y-67230886D01*
X28412758Y-67159976D01*
X28573177Y-67111313D01*
X28698196Y-67099000D01*
X29581804Y-67099000D01*
X29706823Y-67111313D01*
X29706823Y-67111313D01*
G37*
G36*
X52566823Y-64571313D02*
G01*
X52727242Y-64619976D01*
X52859906Y-64690886D01*
X52875078Y-64698996D01*
X53004659Y-64805341D01*
X53111004Y-64934922D01*
X53111005Y-64934924D01*
X53190024Y-65082758D01*
X53238687Y-65243177D01*
X53255117Y-65410000D01*
X53238687Y-65576823D01*
X53190024Y-65737242D01*
X53119114Y-65869906D01*
X53111004Y-65885078D01*
X53004659Y-66014659D01*
X52875078Y-66121004D01*
X52875076Y-66121005D01*
X52727242Y-66200024D01*
X52566823Y-66248687D01*
X52441804Y-66261000D01*
X51558196Y-66261000D01*
X51433177Y-66248687D01*
X51272758Y-66200024D01*
X51124924Y-66121005D01*
X51124922Y-66121004D01*
X50995341Y-66014659D01*
X50888996Y-65885078D01*
X50880886Y-65869906D01*
X50809976Y-65737242D01*
X50761313Y-65576823D01*
X50744883Y-65410000D01*
X50761313Y-65243177D01*
X50809976Y-65082758D01*
X50888995Y-64934924D01*
X50888996Y-64934922D01*
X50995341Y-64805341D01*
X51124922Y-64698996D01*
X51140094Y-64690886D01*
X51272758Y-64619976D01*
X51433177Y-64571313D01*
X51558196Y-64559000D01*
X52441804Y-64559000D01*
X52566823Y-64571313D01*
X52566823Y-64571313D01*
G37*
G36*
X29706823Y-64571313D02*
G01*
X29867242Y-64619976D01*
X29999906Y-64690886D01*
X30015078Y-64698996D01*
X30144659Y-64805341D01*
X30251004Y-64934922D01*
X30251005Y-64934924D01*
X30330024Y-65082758D01*
X30378687Y-65243177D01*
X30395117Y-65410000D01*
X30378687Y-65576823D01*
X30330024Y-65737242D01*
X30259114Y-65869906D01*
X30251004Y-65885078D01*
X30144659Y-66014659D01*
X30015078Y-66121004D01*
X30015076Y-66121005D01*
X29867242Y-66200024D01*
X29706823Y-66248687D01*
X29581804Y-66261000D01*
X28698196Y-66261000D01*
X28573177Y-66248687D01*
X28412758Y-66200024D01*
X28264924Y-66121005D01*
X28264922Y-66121004D01*
X28135341Y-66014659D01*
X28028996Y-65885078D01*
X28020886Y-65869906D01*
X27949976Y-65737242D01*
X27901313Y-65576823D01*
X27884883Y-65410000D01*
X27901313Y-65243177D01*
X27949976Y-65082758D01*
X28028995Y-64934924D01*
X28028996Y-64934922D01*
X28135341Y-64805341D01*
X28264922Y-64698996D01*
X28280094Y-64690886D01*
X28412758Y-64619976D01*
X28573177Y-64571313D01*
X28698196Y-64559000D01*
X29581804Y-64559000D01*
X29706823Y-64571313D01*
X29706823Y-64571313D01*
G37*
G36*
X52566823Y-62031313D02*
G01*
X52727242Y-62079976D01*
X52859906Y-62150886D01*
X52875078Y-62158996D01*
X53004659Y-62265341D01*
X53111004Y-62394922D01*
X53111005Y-62394924D01*
X53190024Y-62542758D01*
X53238687Y-62703177D01*
X53255117Y-62870000D01*
X53238687Y-63036823D01*
X53190024Y-63197242D01*
X53119114Y-63329906D01*
X53111004Y-63345078D01*
X53004659Y-63474659D01*
X52875078Y-63581004D01*
X52875076Y-63581005D01*
X52727242Y-63660024D01*
X52566823Y-63708687D01*
X52441804Y-63721000D01*
X51558196Y-63721000D01*
X51433177Y-63708687D01*
X51272758Y-63660024D01*
X51124924Y-63581005D01*
X51124922Y-63581004D01*
X50995341Y-63474659D01*
X50888996Y-63345078D01*
X50880886Y-63329906D01*
X50809976Y-63197242D01*
X50761313Y-63036823D01*
X50744883Y-62870000D01*
X50761313Y-62703177D01*
X50809976Y-62542758D01*
X50888995Y-62394924D01*
X50888996Y-62394922D01*
X50995341Y-62265341D01*
X51124922Y-62158996D01*
X51140094Y-62150886D01*
X51272758Y-62079976D01*
X51433177Y-62031313D01*
X51558196Y-62019000D01*
X52441804Y-62019000D01*
X52566823Y-62031313D01*
X52566823Y-62031313D01*
G37*
G36*
X29706823Y-62031313D02*
G01*
X29867242Y-62079976D01*
X29999906Y-62150886D01*
X30015078Y-62158996D01*
X30144659Y-62265341D01*
X30251004Y-62394922D01*
X30251005Y-62394924D01*
X30330024Y-62542758D01*
X30378687Y-62703177D01*
X30395117Y-62870000D01*
X30378687Y-63036823D01*
X30330024Y-63197242D01*
X30259114Y-63329906D01*
X30251004Y-63345078D01*
X30144659Y-63474659D01*
X30015078Y-63581004D01*
X30015076Y-63581005D01*
X29867242Y-63660024D01*
X29706823Y-63708687D01*
X29581804Y-63721000D01*
X28698196Y-63721000D01*
X28573177Y-63708687D01*
X28412758Y-63660024D01*
X28264924Y-63581005D01*
X28264922Y-63581004D01*
X28135341Y-63474659D01*
X28028996Y-63345078D01*
X28020886Y-63329906D01*
X27949976Y-63197242D01*
X27901313Y-63036823D01*
X27884883Y-62870000D01*
X27901313Y-62703177D01*
X27949976Y-62542758D01*
X28028995Y-62394924D01*
X28028996Y-62394922D01*
X28135341Y-62265341D01*
X28264922Y-62158996D01*
X28280094Y-62150886D01*
X28412758Y-62079976D01*
X28573177Y-62031313D01*
X28698196Y-62019000D01*
X29581804Y-62019000D01*
X29706823Y-62031313D01*
X29706823Y-62031313D01*
G37*
G36*
X29706823Y-59491313D02*
G01*
X29867242Y-59539976D01*
X29999906Y-59610886D01*
X30015078Y-59618996D01*
X30144659Y-59725341D01*
X30251004Y-59854922D01*
X30251005Y-59854924D01*
X30330024Y-60002758D01*
X30378687Y-60163177D01*
X30395117Y-60330000D01*
X30378687Y-60496823D01*
X30330024Y-60657242D01*
X30259114Y-60789906D01*
X30251004Y-60805078D01*
X30144659Y-60934659D01*
X30015078Y-61041004D01*
X30015076Y-61041005D01*
X29867242Y-61120024D01*
X29706823Y-61168687D01*
X29581804Y-61181000D01*
X28698196Y-61181000D01*
X28573177Y-61168687D01*
X28412758Y-61120024D01*
X28264924Y-61041005D01*
X28264922Y-61041004D01*
X28135341Y-60934659D01*
X28028996Y-60805078D01*
X28020886Y-60789906D01*
X27949976Y-60657242D01*
X27901313Y-60496823D01*
X27884883Y-60330000D01*
X27901313Y-60163177D01*
X27949976Y-60002758D01*
X28028995Y-59854924D01*
X28028996Y-59854922D01*
X28135341Y-59725341D01*
X28264922Y-59618996D01*
X28280094Y-59610886D01*
X28412758Y-59539976D01*
X28573177Y-59491313D01*
X28698196Y-59479000D01*
X29581804Y-59479000D01*
X29706823Y-59491313D01*
X29706823Y-59491313D01*
G37*
G36*
X52566823Y-59491313D02*
G01*
X52727242Y-59539976D01*
X52859906Y-59610886D01*
X52875078Y-59618996D01*
X53004659Y-59725341D01*
X53111004Y-59854922D01*
X53111005Y-59854924D01*
X53190024Y-60002758D01*
X53238687Y-60163177D01*
X53255117Y-60330000D01*
X53238687Y-60496823D01*
X53190024Y-60657242D01*
X53119114Y-60789906D01*
X53111004Y-60805078D01*
X53004659Y-60934659D01*
X52875078Y-61041004D01*
X52875076Y-61041005D01*
X52727242Y-61120024D01*
X52566823Y-61168687D01*
X52441804Y-61181000D01*
X51558196Y-61181000D01*
X51433177Y-61168687D01*
X51272758Y-61120024D01*
X51124924Y-61041005D01*
X51124922Y-61041004D01*
X50995341Y-60934659D01*
X50888996Y-60805078D01*
X50880886Y-60789906D01*
X50809976Y-60657242D01*
X50761313Y-60496823D01*
X50744883Y-60330000D01*
X50761313Y-60163177D01*
X50809976Y-60002758D01*
X50888995Y-59854924D01*
X50888996Y-59854922D01*
X50995341Y-59725341D01*
X51124922Y-59618996D01*
X51140094Y-59610886D01*
X51272758Y-59539976D01*
X51433177Y-59491313D01*
X51558196Y-59479000D01*
X52441804Y-59479000D01*
X52566823Y-59491313D01*
X52566823Y-59491313D01*
G37*
G36*
X82579591Y-59053085D02*
G01*
X82613569Y-59063393D01*
X82644890Y-59080134D01*
X82672339Y-59102661D01*
X82694866Y-59130110D01*
X82711607Y-59161431D01*
X82721915Y-59195409D01*
X82726000Y-59236890D01*
X82726000Y-59838110D01*
X82721915Y-59879591D01*
X82711607Y-59913569D01*
X82694866Y-59944890D01*
X82672339Y-59972339D01*
X82644890Y-59994866D01*
X82613569Y-60011607D01*
X82579591Y-60021915D01*
X82538110Y-60026000D01*
X81861890Y-60026000D01*
X81820409Y-60021915D01*
X81786431Y-60011607D01*
X81755110Y-59994866D01*
X81727661Y-59972339D01*
X81705134Y-59944890D01*
X81688393Y-59913569D01*
X81678085Y-59879591D01*
X81674000Y-59838110D01*
X81674000Y-59236890D01*
X81678085Y-59195409D01*
X81688393Y-59161431D01*
X81705134Y-59130110D01*
X81727661Y-59102661D01*
X81755110Y-59080134D01*
X81786431Y-59063393D01*
X81820409Y-59053085D01*
X81861890Y-59049000D01*
X82538110Y-59049000D01*
X82579591Y-59053085D01*
X82579591Y-59053085D01*
G37*
G36*
X79579591Y-59053085D02*
G01*
X79613569Y-59063393D01*
X79644890Y-59080134D01*
X79672339Y-59102661D01*
X79694866Y-59130110D01*
X79711607Y-59161431D01*
X79721915Y-59195409D01*
X79726000Y-59236890D01*
X79726000Y-59838110D01*
X79721915Y-59879591D01*
X79711607Y-59913569D01*
X79694866Y-59944890D01*
X79672339Y-59972339D01*
X79644890Y-59994866D01*
X79613569Y-60011607D01*
X79579591Y-60021915D01*
X79538110Y-60026000D01*
X78861890Y-60026000D01*
X78820409Y-60021915D01*
X78786431Y-60011607D01*
X78755110Y-59994866D01*
X78727661Y-59972339D01*
X78705134Y-59944890D01*
X78688393Y-59913569D01*
X78678085Y-59879591D01*
X78674000Y-59838110D01*
X78674000Y-59236890D01*
X78678085Y-59195409D01*
X78688393Y-59161431D01*
X78705134Y-59130110D01*
X78727661Y-59102661D01*
X78755110Y-59080134D01*
X78786431Y-59063393D01*
X78820409Y-59053085D01*
X78861890Y-59049000D01*
X79538110Y-59049000D01*
X79579591Y-59053085D01*
X79579591Y-59053085D01*
G37*
G36*
X81079591Y-59053085D02*
G01*
X81113569Y-59063393D01*
X81144890Y-59080134D01*
X81172339Y-59102661D01*
X81194866Y-59130110D01*
X81211607Y-59161431D01*
X81221915Y-59195409D01*
X81226000Y-59236890D01*
X81226000Y-59838110D01*
X81221915Y-59879591D01*
X81211607Y-59913569D01*
X81194866Y-59944890D01*
X81172339Y-59972339D01*
X81144890Y-59994866D01*
X81113569Y-60011607D01*
X81079591Y-60021915D01*
X81038110Y-60026000D01*
X80361890Y-60026000D01*
X80320409Y-60021915D01*
X80286431Y-60011607D01*
X80255110Y-59994866D01*
X80227661Y-59972339D01*
X80205134Y-59944890D01*
X80188393Y-59913569D01*
X80178085Y-59879591D01*
X80174000Y-59838110D01*
X80174000Y-59236890D01*
X80178085Y-59195409D01*
X80188393Y-59161431D01*
X80205134Y-59130110D01*
X80227661Y-59102661D01*
X80255110Y-59080134D01*
X80286431Y-59063393D01*
X80320409Y-59053085D01*
X80361890Y-59049000D01*
X81038110Y-59049000D01*
X81079591Y-59053085D01*
X81079591Y-59053085D01*
G37*
G36*
X93829591Y-58978085D02*
G01*
X93863569Y-58988393D01*
X93894890Y-59005134D01*
X93922339Y-59027661D01*
X93944866Y-59055110D01*
X93961607Y-59086431D01*
X93971915Y-59120409D01*
X93976000Y-59161890D01*
X93976000Y-59838110D01*
X93971915Y-59879591D01*
X93961607Y-59913569D01*
X93944866Y-59944890D01*
X93922339Y-59972339D01*
X93894890Y-59994866D01*
X93863569Y-60011607D01*
X93829591Y-60021915D01*
X93788110Y-60026000D01*
X93186890Y-60026000D01*
X93145409Y-60021915D01*
X93111431Y-60011607D01*
X93080110Y-59994866D01*
X93052661Y-59972339D01*
X93030134Y-59944890D01*
X93013393Y-59913569D01*
X93003085Y-59879591D01*
X92999000Y-59838110D01*
X92999000Y-59161890D01*
X93003085Y-59120409D01*
X93013393Y-59086431D01*
X93030134Y-59055110D01*
X93052661Y-59027661D01*
X93080110Y-59005134D01*
X93111431Y-58988393D01*
X93145409Y-58978085D01*
X93186890Y-58974000D01*
X93788110Y-58974000D01*
X93829591Y-58978085D01*
X93829591Y-58978085D01*
G37*
G36*
X92254591Y-58978085D02*
G01*
X92288569Y-58988393D01*
X92319890Y-59005134D01*
X92347339Y-59027661D01*
X92369866Y-59055110D01*
X92386607Y-59086431D01*
X92396915Y-59120409D01*
X92401000Y-59161890D01*
X92401000Y-59838110D01*
X92396915Y-59879591D01*
X92386607Y-59913569D01*
X92369866Y-59944890D01*
X92347339Y-59972339D01*
X92319890Y-59994866D01*
X92288569Y-60011607D01*
X92254591Y-60021915D01*
X92213110Y-60026000D01*
X91611890Y-60026000D01*
X91570409Y-60021915D01*
X91536431Y-60011607D01*
X91505110Y-59994866D01*
X91477661Y-59972339D01*
X91455134Y-59944890D01*
X91438393Y-59913569D01*
X91428085Y-59879591D01*
X91424000Y-59838110D01*
X91424000Y-59161890D01*
X91428085Y-59120409D01*
X91438393Y-59086431D01*
X91455134Y-59055110D01*
X91477661Y-59027661D01*
X91505110Y-59005134D01*
X91536431Y-58988393D01*
X91570409Y-58978085D01*
X91611890Y-58974000D01*
X92213110Y-58974000D01*
X92254591Y-58978085D01*
X92254591Y-58978085D01*
G37*
G36*
X84054591Y-58228085D02*
G01*
X84088569Y-58238393D01*
X84119890Y-58255134D01*
X84147339Y-58277661D01*
X84169866Y-58305110D01*
X84186607Y-58336431D01*
X84196915Y-58370409D01*
X84201000Y-58411890D01*
X84201000Y-59088110D01*
X84196915Y-59129591D01*
X84186607Y-59163569D01*
X84169866Y-59194890D01*
X84147339Y-59222339D01*
X84119890Y-59244866D01*
X84088569Y-59261607D01*
X84054591Y-59271915D01*
X84013110Y-59276000D01*
X83411890Y-59276000D01*
X83370409Y-59271915D01*
X83336431Y-59261607D01*
X83305110Y-59244866D01*
X83277661Y-59222339D01*
X83255134Y-59194890D01*
X83238393Y-59163569D01*
X83228085Y-59129591D01*
X83224000Y-59088110D01*
X83224000Y-58411890D01*
X83228085Y-58370409D01*
X83238393Y-58336431D01*
X83255134Y-58305110D01*
X83277661Y-58277661D01*
X83305110Y-58255134D01*
X83336431Y-58238393D01*
X83370409Y-58228085D01*
X83411890Y-58224000D01*
X84013110Y-58224000D01*
X84054591Y-58228085D01*
X84054591Y-58228085D01*
G37*
G36*
X85629591Y-58228085D02*
G01*
X85663569Y-58238393D01*
X85694890Y-58255134D01*
X85722339Y-58277661D01*
X85744866Y-58305110D01*
X85761607Y-58336431D01*
X85771915Y-58370409D01*
X85776000Y-58411890D01*
X85776000Y-59088110D01*
X85771915Y-59129591D01*
X85761607Y-59163569D01*
X85744866Y-59194890D01*
X85722339Y-59222339D01*
X85694890Y-59244866D01*
X85663569Y-59261607D01*
X85629591Y-59271915D01*
X85588110Y-59276000D01*
X84986890Y-59276000D01*
X84945409Y-59271915D01*
X84911431Y-59261607D01*
X84880110Y-59244866D01*
X84852661Y-59222339D01*
X84830134Y-59194890D01*
X84813393Y-59163569D01*
X84803085Y-59129591D01*
X84799000Y-59088110D01*
X84799000Y-58411890D01*
X84803085Y-58370409D01*
X84813393Y-58336431D01*
X84830134Y-58305110D01*
X84852661Y-58277661D01*
X84880110Y-58255134D01*
X84911431Y-58238393D01*
X84945409Y-58228085D01*
X84986890Y-58224000D01*
X85588110Y-58224000D01*
X85629591Y-58228085D01*
X85629591Y-58228085D01*
G37*
G36*
X29706823Y-56951313D02*
G01*
X29867242Y-56999976D01*
X29999906Y-57070886D01*
X30015078Y-57078996D01*
X30144659Y-57185341D01*
X30251004Y-57314922D01*
X30251005Y-57314924D01*
X30330024Y-57462758D01*
X30378687Y-57623177D01*
X30395117Y-57790000D01*
X30378687Y-57956823D01*
X30330024Y-58117242D01*
X30270777Y-58228085D01*
X30251004Y-58265078D01*
X30144659Y-58394659D01*
X30015078Y-58501004D01*
X30015076Y-58501005D01*
X29867242Y-58580024D01*
X29706823Y-58628687D01*
X29581804Y-58641000D01*
X28698196Y-58641000D01*
X28573177Y-58628687D01*
X28412758Y-58580024D01*
X28264924Y-58501005D01*
X28264922Y-58501004D01*
X28135341Y-58394659D01*
X28028996Y-58265078D01*
X28009223Y-58228085D01*
X27949976Y-58117242D01*
X27901313Y-57956823D01*
X27884883Y-57790000D01*
X27901313Y-57623177D01*
X27949976Y-57462758D01*
X28028995Y-57314924D01*
X28028996Y-57314922D01*
X28135341Y-57185341D01*
X28264922Y-57078996D01*
X28280094Y-57070886D01*
X28412758Y-56999976D01*
X28573177Y-56951313D01*
X28698196Y-56939000D01*
X29581804Y-56939000D01*
X29706823Y-56951313D01*
X29706823Y-56951313D01*
G37*
G36*
X52566823Y-56951313D02*
G01*
X52727242Y-56999976D01*
X52859906Y-57070886D01*
X52875078Y-57078996D01*
X53004659Y-57185341D01*
X53111004Y-57314922D01*
X53111005Y-57314924D01*
X53190024Y-57462758D01*
X53238687Y-57623177D01*
X53255117Y-57790000D01*
X53238687Y-57956823D01*
X53190024Y-58117242D01*
X53130777Y-58228085D01*
X53111004Y-58265078D01*
X53004659Y-58394659D01*
X52875078Y-58501004D01*
X52875076Y-58501005D01*
X52727242Y-58580024D01*
X52566823Y-58628687D01*
X52441804Y-58641000D01*
X51558196Y-58641000D01*
X51433177Y-58628687D01*
X51272758Y-58580024D01*
X51124924Y-58501005D01*
X51124922Y-58501004D01*
X50995341Y-58394659D01*
X50888996Y-58265078D01*
X50869223Y-58228085D01*
X50809976Y-58117242D01*
X50761313Y-57956823D01*
X50744883Y-57790000D01*
X50761313Y-57623177D01*
X50809976Y-57462758D01*
X50888995Y-57314924D01*
X50888996Y-57314922D01*
X50995341Y-57185341D01*
X51124922Y-57078996D01*
X51140094Y-57070886D01*
X51272758Y-56999976D01*
X51433177Y-56951313D01*
X51558196Y-56939000D01*
X52441804Y-56939000D01*
X52566823Y-56951313D01*
X52566823Y-56951313D01*
G37*
G36*
X87054591Y-57478085D02*
G01*
X87088569Y-57488393D01*
X87119890Y-57505134D01*
X87147339Y-57527661D01*
X87169866Y-57555110D01*
X87186607Y-57586431D01*
X87196915Y-57620409D01*
X87201000Y-57661890D01*
X87201000Y-58338110D01*
X87196915Y-58379591D01*
X87186607Y-58413569D01*
X87169866Y-58444890D01*
X87147339Y-58472339D01*
X87119890Y-58494866D01*
X87088569Y-58511607D01*
X87054591Y-58521915D01*
X87013110Y-58526000D01*
X86411890Y-58526000D01*
X86370409Y-58521915D01*
X86336431Y-58511607D01*
X86305110Y-58494866D01*
X86277661Y-58472339D01*
X86255134Y-58444890D01*
X86238393Y-58413569D01*
X86228085Y-58379591D01*
X86224000Y-58338110D01*
X86224000Y-57661890D01*
X86228085Y-57620409D01*
X86238393Y-57586431D01*
X86255134Y-57555110D01*
X86277661Y-57527661D01*
X86305110Y-57505134D01*
X86336431Y-57488393D01*
X86370409Y-57478085D01*
X86411890Y-57474000D01*
X87013110Y-57474000D01*
X87054591Y-57478085D01*
X87054591Y-57478085D01*
G37*
G36*
X88629591Y-57478085D02*
G01*
X88663569Y-57488393D01*
X88694890Y-57505134D01*
X88722339Y-57527661D01*
X88744866Y-57555110D01*
X88761607Y-57586431D01*
X88771915Y-57620409D01*
X88776000Y-57661890D01*
X88776000Y-58338110D01*
X88771915Y-58379591D01*
X88761607Y-58413569D01*
X88744866Y-58444890D01*
X88722339Y-58472339D01*
X88694890Y-58494866D01*
X88663569Y-58511607D01*
X88629591Y-58521915D01*
X88588110Y-58526000D01*
X87986890Y-58526000D01*
X87945409Y-58521915D01*
X87911431Y-58511607D01*
X87880110Y-58494866D01*
X87852661Y-58472339D01*
X87830134Y-58444890D01*
X87813393Y-58413569D01*
X87803085Y-58379591D01*
X87799000Y-58338110D01*
X87799000Y-57661890D01*
X87803085Y-57620409D01*
X87813393Y-57586431D01*
X87830134Y-57555110D01*
X87852661Y-57527661D01*
X87880110Y-57505134D01*
X87911431Y-57488393D01*
X87945409Y-57478085D01*
X87986890Y-57474000D01*
X88588110Y-57474000D01*
X88629591Y-57478085D01*
X88629591Y-57478085D01*
G37*
G36*
X81079591Y-57478085D02*
G01*
X81113569Y-57488393D01*
X81144890Y-57505134D01*
X81172339Y-57527661D01*
X81194866Y-57555110D01*
X81211607Y-57586431D01*
X81221915Y-57620409D01*
X81226000Y-57661890D01*
X81226000Y-58263110D01*
X81221915Y-58304591D01*
X81211607Y-58338569D01*
X81194866Y-58369890D01*
X81172339Y-58397339D01*
X81144890Y-58419866D01*
X81113569Y-58436607D01*
X81079591Y-58446915D01*
X81038110Y-58451000D01*
X80361890Y-58451000D01*
X80320409Y-58446915D01*
X80286431Y-58436607D01*
X80255110Y-58419866D01*
X80227661Y-58397339D01*
X80205134Y-58369890D01*
X80188393Y-58338569D01*
X80178085Y-58304591D01*
X80174000Y-58263110D01*
X80174000Y-57661890D01*
X80178085Y-57620409D01*
X80188393Y-57586431D01*
X80205134Y-57555110D01*
X80227661Y-57527661D01*
X80255110Y-57505134D01*
X80286431Y-57488393D01*
X80320409Y-57478085D01*
X80361890Y-57474000D01*
X81038110Y-57474000D01*
X81079591Y-57478085D01*
X81079591Y-57478085D01*
G37*
G36*
X79579591Y-57478085D02*
G01*
X79613569Y-57488393D01*
X79644890Y-57505134D01*
X79672339Y-57527661D01*
X79694866Y-57555110D01*
X79711607Y-57586431D01*
X79721915Y-57620409D01*
X79726000Y-57661890D01*
X79726000Y-58263110D01*
X79721915Y-58304591D01*
X79711607Y-58338569D01*
X79694866Y-58369890D01*
X79672339Y-58397339D01*
X79644890Y-58419866D01*
X79613569Y-58436607D01*
X79579591Y-58446915D01*
X79538110Y-58451000D01*
X78861890Y-58451000D01*
X78820409Y-58446915D01*
X78786431Y-58436607D01*
X78755110Y-58419866D01*
X78727661Y-58397339D01*
X78705134Y-58369890D01*
X78688393Y-58338569D01*
X78678085Y-58304591D01*
X78674000Y-58263110D01*
X78674000Y-57661890D01*
X78678085Y-57620409D01*
X78688393Y-57586431D01*
X78705134Y-57555110D01*
X78727661Y-57527661D01*
X78755110Y-57505134D01*
X78786431Y-57488393D01*
X78820409Y-57478085D01*
X78861890Y-57474000D01*
X79538110Y-57474000D01*
X79579591Y-57478085D01*
X79579591Y-57478085D01*
G37*
G36*
X82579591Y-57478085D02*
G01*
X82613569Y-57488393D01*
X82644890Y-57505134D01*
X82672339Y-57527661D01*
X82694866Y-57555110D01*
X82711607Y-57586431D01*
X82721915Y-57620409D01*
X82726000Y-57661890D01*
X82726000Y-58263110D01*
X82721915Y-58304591D01*
X82711607Y-58338569D01*
X82694866Y-58369890D01*
X82672339Y-58397339D01*
X82644890Y-58419866D01*
X82613569Y-58436607D01*
X82579591Y-58446915D01*
X82538110Y-58451000D01*
X81861890Y-58451000D01*
X81820409Y-58446915D01*
X81786431Y-58436607D01*
X81755110Y-58419866D01*
X81727661Y-58397339D01*
X81705134Y-58369890D01*
X81688393Y-58338569D01*
X81678085Y-58304591D01*
X81674000Y-58263110D01*
X81674000Y-57661890D01*
X81678085Y-57620409D01*
X81688393Y-57586431D01*
X81705134Y-57555110D01*
X81727661Y-57527661D01*
X81755110Y-57505134D01*
X81786431Y-57488393D01*
X81820409Y-57478085D01*
X81861890Y-57474000D01*
X82538110Y-57474000D01*
X82579591Y-57478085D01*
X82579591Y-57478085D01*
G37*
G36*
X85629591Y-56728085D02*
G01*
X85663569Y-56738393D01*
X85694890Y-56755134D01*
X85722339Y-56777661D01*
X85744866Y-56805110D01*
X85761607Y-56836431D01*
X85771915Y-56870409D01*
X85776000Y-56911890D01*
X85776000Y-57588110D01*
X85771915Y-57629591D01*
X85761607Y-57663569D01*
X85744866Y-57694890D01*
X85722339Y-57722339D01*
X85694890Y-57744866D01*
X85663569Y-57761607D01*
X85629591Y-57771915D01*
X85588110Y-57776000D01*
X84986890Y-57776000D01*
X84945409Y-57771915D01*
X84911431Y-57761607D01*
X84880110Y-57744866D01*
X84852661Y-57722339D01*
X84830134Y-57694890D01*
X84813393Y-57663569D01*
X84803085Y-57629591D01*
X84799000Y-57588110D01*
X84799000Y-56911890D01*
X84803085Y-56870409D01*
X84813393Y-56836431D01*
X84830134Y-56805110D01*
X84852661Y-56777661D01*
X84880110Y-56755134D01*
X84911431Y-56738393D01*
X84945409Y-56728085D01*
X84986890Y-56724000D01*
X85588110Y-56724000D01*
X85629591Y-56728085D01*
X85629591Y-56728085D01*
G37*
G36*
X84054591Y-56728085D02*
G01*
X84088569Y-56738393D01*
X84119890Y-56755134D01*
X84147339Y-56777661D01*
X84169866Y-56805110D01*
X84186607Y-56836431D01*
X84196915Y-56870409D01*
X84201000Y-56911890D01*
X84201000Y-57588110D01*
X84196915Y-57629591D01*
X84186607Y-57663569D01*
X84169866Y-57694890D01*
X84147339Y-57722339D01*
X84119890Y-57744866D01*
X84088569Y-57761607D01*
X84054591Y-57771915D01*
X84013110Y-57776000D01*
X83411890Y-57776000D01*
X83370409Y-57771915D01*
X83336431Y-57761607D01*
X83305110Y-57744866D01*
X83277661Y-57722339D01*
X83255134Y-57694890D01*
X83238393Y-57663569D01*
X83228085Y-57629591D01*
X83224000Y-57588110D01*
X83224000Y-56911890D01*
X83228085Y-56870409D01*
X83238393Y-56836431D01*
X83255134Y-56805110D01*
X83277661Y-56777661D01*
X83305110Y-56755134D01*
X83336431Y-56738393D01*
X83370409Y-56728085D01*
X83411890Y-56724000D01*
X84013110Y-56724000D01*
X84054591Y-56728085D01*
X84054591Y-56728085D01*
G37*
G36*
X78104591Y-55928085D02*
G01*
X78138569Y-55938393D01*
X78169890Y-55955134D01*
X78197339Y-55977661D01*
X78219866Y-56005110D01*
X78236607Y-56036431D01*
X78246915Y-56070409D01*
X78251000Y-56111890D01*
X78251000Y-56788110D01*
X78246915Y-56829591D01*
X78236607Y-56863569D01*
X78219866Y-56894890D01*
X78197339Y-56922339D01*
X78169890Y-56944866D01*
X78138569Y-56961607D01*
X78104591Y-56971915D01*
X78063110Y-56976000D01*
X77461890Y-56976000D01*
X77420409Y-56971915D01*
X77386431Y-56961607D01*
X77355110Y-56944866D01*
X77327661Y-56922339D01*
X77305134Y-56894890D01*
X77288393Y-56863569D01*
X77278085Y-56829591D01*
X77274000Y-56788110D01*
X77274000Y-56111890D01*
X77278085Y-56070409D01*
X77288393Y-56036431D01*
X77305134Y-56005110D01*
X77327661Y-55977661D01*
X77355110Y-55955134D01*
X77386431Y-55938393D01*
X77420409Y-55928085D01*
X77461890Y-55924000D01*
X78063110Y-55924000D01*
X78104591Y-55928085D01*
X78104591Y-55928085D01*
G37*
G36*
X79679591Y-55928085D02*
G01*
X79713569Y-55938393D01*
X79744890Y-55955134D01*
X79772339Y-55977661D01*
X79794866Y-56005110D01*
X79811607Y-56036431D01*
X79821915Y-56070409D01*
X79826000Y-56111890D01*
X79826000Y-56788110D01*
X79821915Y-56829591D01*
X79811607Y-56863569D01*
X79794866Y-56894890D01*
X79772339Y-56922339D01*
X79744890Y-56944866D01*
X79713569Y-56961607D01*
X79679591Y-56971915D01*
X79638110Y-56976000D01*
X79036890Y-56976000D01*
X78995409Y-56971915D01*
X78961431Y-56961607D01*
X78930110Y-56944866D01*
X78902661Y-56922339D01*
X78880134Y-56894890D01*
X78863393Y-56863569D01*
X78853085Y-56829591D01*
X78849000Y-56788110D01*
X78849000Y-56111890D01*
X78853085Y-56070409D01*
X78863393Y-56036431D01*
X78880134Y-56005110D01*
X78902661Y-55977661D01*
X78930110Y-55955134D01*
X78961431Y-55938393D01*
X78995409Y-55928085D01*
X79036890Y-55924000D01*
X79638110Y-55924000D01*
X79679591Y-55928085D01*
X79679591Y-55928085D01*
G37*
G36*
X29706823Y-54411313D02*
G01*
X29867242Y-54459976D01*
X29999906Y-54530886D01*
X30015078Y-54538996D01*
X30144659Y-54645341D01*
X30251004Y-54774922D01*
X30251005Y-54774924D01*
X30330024Y-54922758D01*
X30378687Y-55083177D01*
X30395117Y-55250000D01*
X30378687Y-55416823D01*
X30330024Y-55577242D01*
X30302706Y-55628350D01*
X30251004Y-55725078D01*
X30144659Y-55854659D01*
X30015078Y-55961004D01*
X30015076Y-55961005D01*
X29867242Y-56040024D01*
X29706823Y-56088687D01*
X29581804Y-56101000D01*
X28698196Y-56101000D01*
X28573177Y-56088687D01*
X28412758Y-56040024D01*
X28264924Y-55961005D01*
X28264922Y-55961004D01*
X28135341Y-55854659D01*
X28028996Y-55725078D01*
X27977294Y-55628350D01*
X27949976Y-55577242D01*
X27901313Y-55416823D01*
X27884883Y-55250000D01*
X27901313Y-55083177D01*
X27949976Y-54922758D01*
X28028995Y-54774924D01*
X28028996Y-54774922D01*
X28135341Y-54645341D01*
X28264922Y-54538996D01*
X28280094Y-54530886D01*
X28412758Y-54459976D01*
X28573177Y-54411313D01*
X28698196Y-54399000D01*
X29581804Y-54399000D01*
X29706823Y-54411313D01*
X29706823Y-54411313D01*
G37*
G36*
X52566823Y-54411313D02*
G01*
X52727242Y-54459976D01*
X52859906Y-54530886D01*
X52875078Y-54538996D01*
X53004659Y-54645341D01*
X53111004Y-54774922D01*
X53111005Y-54774924D01*
X53190024Y-54922758D01*
X53238687Y-55083177D01*
X53255117Y-55250000D01*
X53238687Y-55416823D01*
X53190024Y-55577242D01*
X53162706Y-55628350D01*
X53111004Y-55725078D01*
X53004659Y-55854659D01*
X52875078Y-55961004D01*
X52875076Y-55961005D01*
X52727242Y-56040024D01*
X52566823Y-56088687D01*
X52441804Y-56101000D01*
X51558196Y-56101000D01*
X51433177Y-56088687D01*
X51272758Y-56040024D01*
X51124924Y-55961005D01*
X51124922Y-55961004D01*
X50995341Y-55854659D01*
X50888996Y-55725078D01*
X50837294Y-55628350D01*
X50809976Y-55577242D01*
X50761313Y-55416823D01*
X50744883Y-55250000D01*
X50761313Y-55083177D01*
X50809976Y-54922758D01*
X50888995Y-54774924D01*
X50888996Y-54774922D01*
X50995341Y-54645341D01*
X51124922Y-54538996D01*
X51140094Y-54530886D01*
X51272758Y-54459976D01*
X51433177Y-54411313D01*
X51558196Y-54399000D01*
X52441804Y-54399000D01*
X52566823Y-54411313D01*
X52566823Y-54411313D01*
G37*
G36*
X115302591Y-54824685D02*
G01*
X115336569Y-54834993D01*
X115367890Y-54851734D01*
X115395339Y-54874261D01*
X115417866Y-54901710D01*
X115434607Y-54933031D01*
X115444915Y-54967009D01*
X115449000Y-55008490D01*
X115449000Y-55684710D01*
X115444915Y-55726191D01*
X115434607Y-55760169D01*
X115417866Y-55791490D01*
X115395339Y-55818939D01*
X115367890Y-55841466D01*
X115336569Y-55858207D01*
X115302591Y-55868515D01*
X115261110Y-55872600D01*
X114659890Y-55872600D01*
X114618409Y-55868515D01*
X114584431Y-55858207D01*
X114553110Y-55841466D01*
X114525661Y-55818939D01*
X114503134Y-55791490D01*
X114486393Y-55760169D01*
X114476085Y-55726191D01*
X114472000Y-55684710D01*
X114472000Y-55008490D01*
X114476085Y-54967009D01*
X114486393Y-54933031D01*
X114503134Y-54901710D01*
X114525661Y-54874261D01*
X114553110Y-54851734D01*
X114584431Y-54834993D01*
X114618409Y-54824685D01*
X114659890Y-54820600D01*
X115261110Y-54820600D01*
X115302591Y-54824685D01*
X115302591Y-54824685D01*
G37*
G36*
X113727591Y-54824685D02*
G01*
X113761569Y-54834993D01*
X113792890Y-54851734D01*
X113820339Y-54874261D01*
X113842866Y-54901710D01*
X113859607Y-54933031D01*
X113869915Y-54967009D01*
X113874000Y-55008490D01*
X113874000Y-55684710D01*
X113869915Y-55726191D01*
X113859607Y-55760169D01*
X113842866Y-55791490D01*
X113820339Y-55818939D01*
X113792890Y-55841466D01*
X113761569Y-55858207D01*
X113727591Y-55868515D01*
X113686110Y-55872600D01*
X113084890Y-55872600D01*
X113043409Y-55868515D01*
X113009431Y-55858207D01*
X112978110Y-55841466D01*
X112950661Y-55818939D01*
X112928134Y-55791490D01*
X112911393Y-55760169D01*
X112901085Y-55726191D01*
X112897000Y-55684710D01*
X112897000Y-55008490D01*
X112901085Y-54967009D01*
X112911393Y-54933031D01*
X112928134Y-54901710D01*
X112950661Y-54874261D01*
X112978110Y-54851734D01*
X113009431Y-54834993D01*
X113043409Y-54824685D01*
X113084890Y-54820600D01*
X113686110Y-54820600D01*
X113727591Y-54824685D01*
X113727591Y-54824685D01*
G37*
G36*
X104509431Y-54181565D02*
G01*
X104543409Y-54191873D01*
X104574730Y-54208614D01*
X104602179Y-54231141D01*
X104624706Y-54258590D01*
X104641447Y-54289911D01*
X104651755Y-54323889D01*
X104655840Y-54365370D01*
X104655840Y-54966590D01*
X104651755Y-55008071D01*
X104641447Y-55042049D01*
X104624706Y-55073370D01*
X104602179Y-55100819D01*
X104574730Y-55123346D01*
X104543409Y-55140087D01*
X104509431Y-55150395D01*
X104467950Y-55154480D01*
X103791730Y-55154480D01*
X103750249Y-55150395D01*
X103716271Y-55140087D01*
X103684950Y-55123346D01*
X103657501Y-55100819D01*
X103634974Y-55073370D01*
X103618233Y-55042049D01*
X103607925Y-55008071D01*
X103603840Y-54966590D01*
X103603840Y-54365370D01*
X103607925Y-54323889D01*
X103618233Y-54289911D01*
X103634974Y-54258590D01*
X103657501Y-54231141D01*
X103684950Y-54208614D01*
X103716271Y-54191873D01*
X103750249Y-54181565D01*
X103791730Y-54177480D01*
X104467950Y-54177480D01*
X104509431Y-54181565D01*
X104509431Y-54181565D01*
G37*
G36*
X106159391Y-54105385D02*
G01*
X106193369Y-54115693D01*
X106224690Y-54132434D01*
X106252139Y-54154961D01*
X106274666Y-54182410D01*
X106291407Y-54213731D01*
X106301715Y-54247709D01*
X106305800Y-54289190D01*
X106305800Y-54965410D01*
X106301715Y-55006891D01*
X106291407Y-55040869D01*
X106274666Y-55072190D01*
X106252139Y-55099639D01*
X106224690Y-55122166D01*
X106193369Y-55138907D01*
X106159391Y-55149215D01*
X106117910Y-55153300D01*
X105516690Y-55153300D01*
X105475209Y-55149215D01*
X105441231Y-55138907D01*
X105409910Y-55122166D01*
X105382461Y-55099639D01*
X105359934Y-55072190D01*
X105343193Y-55040869D01*
X105332885Y-55006891D01*
X105328800Y-54965410D01*
X105328800Y-54289190D01*
X105332885Y-54247709D01*
X105343193Y-54213731D01*
X105359934Y-54182410D01*
X105382461Y-54154961D01*
X105409910Y-54132434D01*
X105441231Y-54115693D01*
X105475209Y-54105385D01*
X105516690Y-54101300D01*
X106117910Y-54101300D01*
X106159391Y-54105385D01*
X106159391Y-54105385D01*
G37*
G36*
X107734391Y-54105385D02*
G01*
X107768369Y-54115693D01*
X107799690Y-54132434D01*
X107827139Y-54154961D01*
X107849666Y-54182410D01*
X107866407Y-54213731D01*
X107876715Y-54247709D01*
X107880800Y-54289190D01*
X107880800Y-54965410D01*
X107876715Y-55006891D01*
X107866407Y-55040869D01*
X107849666Y-55072190D01*
X107827139Y-55099639D01*
X107799690Y-55122166D01*
X107768369Y-55138907D01*
X107734391Y-55149215D01*
X107692910Y-55153300D01*
X107091690Y-55153300D01*
X107050209Y-55149215D01*
X107016231Y-55138907D01*
X106984910Y-55122166D01*
X106957461Y-55099639D01*
X106934934Y-55072190D01*
X106918193Y-55040869D01*
X106907885Y-55006891D01*
X106903800Y-54965410D01*
X106903800Y-54289190D01*
X106907885Y-54247709D01*
X106918193Y-54213731D01*
X106934934Y-54182410D01*
X106957461Y-54154961D01*
X106984910Y-54132434D01*
X107016231Y-54115693D01*
X107050209Y-54105385D01*
X107091690Y-54101300D01*
X107692910Y-54101300D01*
X107734391Y-54105385D01*
X107734391Y-54105385D01*
G37*
G36*
X115302591Y-53275285D02*
G01*
X115336569Y-53285593D01*
X115367890Y-53302334D01*
X115395339Y-53324861D01*
X115417866Y-53352310D01*
X115434607Y-53383631D01*
X115444915Y-53417609D01*
X115449000Y-53459090D01*
X115449000Y-54135310D01*
X115444915Y-54176791D01*
X115434607Y-54210769D01*
X115417866Y-54242090D01*
X115395339Y-54269539D01*
X115367890Y-54292066D01*
X115336569Y-54308807D01*
X115302591Y-54319115D01*
X115261110Y-54323200D01*
X114659890Y-54323200D01*
X114618409Y-54319115D01*
X114584431Y-54308807D01*
X114553110Y-54292066D01*
X114525661Y-54269539D01*
X114503134Y-54242090D01*
X114486393Y-54210769D01*
X114476085Y-54176791D01*
X114472000Y-54135310D01*
X114472000Y-53459090D01*
X114476085Y-53417609D01*
X114486393Y-53383631D01*
X114503134Y-53352310D01*
X114525661Y-53324861D01*
X114553110Y-53302334D01*
X114584431Y-53285593D01*
X114618409Y-53275285D01*
X114659890Y-53271200D01*
X115261110Y-53271200D01*
X115302591Y-53275285D01*
X115302591Y-53275285D01*
G37*
G36*
X113727591Y-53275285D02*
G01*
X113761569Y-53285593D01*
X113792890Y-53302334D01*
X113820339Y-53324861D01*
X113842866Y-53352310D01*
X113859607Y-53383631D01*
X113869915Y-53417609D01*
X113874000Y-53459090D01*
X113874000Y-54135310D01*
X113869915Y-54176791D01*
X113859607Y-54210769D01*
X113842866Y-54242090D01*
X113820339Y-54269539D01*
X113792890Y-54292066D01*
X113761569Y-54308807D01*
X113727591Y-54319115D01*
X113686110Y-54323200D01*
X113084890Y-54323200D01*
X113043409Y-54319115D01*
X113009431Y-54308807D01*
X112978110Y-54292066D01*
X112950661Y-54269539D01*
X112928134Y-54242090D01*
X112911393Y-54210769D01*
X112901085Y-54176791D01*
X112897000Y-54135310D01*
X112897000Y-53459090D01*
X112901085Y-53417609D01*
X112911393Y-53383631D01*
X112928134Y-53352310D01*
X112950661Y-53324861D01*
X112978110Y-53302334D01*
X113009431Y-53285593D01*
X113043409Y-53275285D01*
X113084890Y-53271200D01*
X113686110Y-53271200D01*
X113727591Y-53275285D01*
X113727591Y-53275285D01*
G37*
G36*
X93829591Y-52978085D02*
G01*
X93863569Y-52988393D01*
X93894890Y-53005134D01*
X93922339Y-53027661D01*
X93944866Y-53055110D01*
X93961607Y-53086431D01*
X93971915Y-53120409D01*
X93976000Y-53161890D01*
X93976000Y-53838110D01*
X93971915Y-53879591D01*
X93961607Y-53913569D01*
X93944866Y-53944890D01*
X93922339Y-53972339D01*
X93894890Y-53994866D01*
X93863569Y-54011607D01*
X93829591Y-54021915D01*
X93788110Y-54026000D01*
X93186890Y-54026000D01*
X93145409Y-54021915D01*
X93111431Y-54011607D01*
X93080110Y-53994866D01*
X93052661Y-53972339D01*
X93030134Y-53944890D01*
X93013393Y-53913569D01*
X93003085Y-53879591D01*
X92999000Y-53838110D01*
X92999000Y-53161890D01*
X93003085Y-53120409D01*
X93013393Y-53086431D01*
X93030134Y-53055110D01*
X93052661Y-53027661D01*
X93080110Y-53005134D01*
X93111431Y-52988393D01*
X93145409Y-52978085D01*
X93186890Y-52974000D01*
X93788110Y-52974000D01*
X93829591Y-52978085D01*
X93829591Y-52978085D01*
G37*
G36*
X92254591Y-52978085D02*
G01*
X92288569Y-52988393D01*
X92319890Y-53005134D01*
X92347339Y-53027661D01*
X92369866Y-53055110D01*
X92386607Y-53086431D01*
X92396915Y-53120409D01*
X92401000Y-53161890D01*
X92401000Y-53838110D01*
X92396915Y-53879591D01*
X92386607Y-53913569D01*
X92369866Y-53944890D01*
X92347339Y-53972339D01*
X92319890Y-53994866D01*
X92288569Y-54011607D01*
X92254591Y-54021915D01*
X92213110Y-54026000D01*
X91611890Y-54026000D01*
X91570409Y-54021915D01*
X91536431Y-54011607D01*
X91505110Y-53994866D01*
X91477661Y-53972339D01*
X91455134Y-53944890D01*
X91438393Y-53913569D01*
X91428085Y-53879591D01*
X91424000Y-53838110D01*
X91424000Y-53161890D01*
X91428085Y-53120409D01*
X91438393Y-53086431D01*
X91455134Y-53055110D01*
X91477661Y-53027661D01*
X91505110Y-53005134D01*
X91536431Y-52988393D01*
X91570409Y-52978085D01*
X91611890Y-52974000D01*
X92213110Y-52974000D01*
X92254591Y-52978085D01*
X92254591Y-52978085D01*
G37*
G36*
X107733391Y-52564085D02*
G01*
X107767369Y-52574393D01*
X107798690Y-52591134D01*
X107826139Y-52613661D01*
X107848666Y-52641110D01*
X107865407Y-52672431D01*
X107875715Y-52706409D01*
X107879800Y-52747890D01*
X107879800Y-53424110D01*
X107875715Y-53465591D01*
X107865407Y-53499569D01*
X107848666Y-53530890D01*
X107826139Y-53558339D01*
X107798690Y-53580866D01*
X107767369Y-53597607D01*
X107733391Y-53607915D01*
X107691910Y-53612000D01*
X107090690Y-53612000D01*
X107049209Y-53607915D01*
X107015231Y-53597607D01*
X106983910Y-53580866D01*
X106956461Y-53558339D01*
X106933934Y-53530890D01*
X106917193Y-53499569D01*
X106906885Y-53465591D01*
X106902800Y-53424110D01*
X106902800Y-52747890D01*
X106906885Y-52706409D01*
X106917193Y-52672431D01*
X106933934Y-52641110D01*
X106956461Y-52613661D01*
X106983910Y-52591134D01*
X107015231Y-52574393D01*
X107049209Y-52564085D01*
X107090690Y-52560000D01*
X107691910Y-52560000D01*
X107733391Y-52564085D01*
X107733391Y-52564085D01*
G37*
G36*
X106158391Y-52564085D02*
G01*
X106192369Y-52574393D01*
X106223690Y-52591134D01*
X106251139Y-52613661D01*
X106273666Y-52641110D01*
X106290407Y-52672431D01*
X106300715Y-52706409D01*
X106304800Y-52747890D01*
X106304800Y-53424110D01*
X106300715Y-53465591D01*
X106290407Y-53499569D01*
X106273666Y-53530890D01*
X106251139Y-53558339D01*
X106223690Y-53580866D01*
X106192369Y-53597607D01*
X106158391Y-53607915D01*
X106116910Y-53612000D01*
X105515690Y-53612000D01*
X105474209Y-53607915D01*
X105440231Y-53597607D01*
X105408910Y-53580866D01*
X105381461Y-53558339D01*
X105358934Y-53530890D01*
X105342193Y-53499569D01*
X105331885Y-53465591D01*
X105327800Y-53424110D01*
X105327800Y-52747890D01*
X105331885Y-52706409D01*
X105342193Y-52672431D01*
X105358934Y-52641110D01*
X105381461Y-52613661D01*
X105408910Y-52591134D01*
X105440231Y-52574393D01*
X105474209Y-52564085D01*
X105515690Y-52560000D01*
X106116910Y-52560000D01*
X106158391Y-52564085D01*
X106158391Y-52564085D01*
G37*
G36*
X104509431Y-52606565D02*
G01*
X104543409Y-52616873D01*
X104574730Y-52633614D01*
X104602179Y-52656141D01*
X104624706Y-52683590D01*
X104641447Y-52714911D01*
X104651755Y-52748889D01*
X104655840Y-52790370D01*
X104655840Y-53391590D01*
X104651755Y-53433071D01*
X104641447Y-53467049D01*
X104624706Y-53498370D01*
X104602179Y-53525819D01*
X104574730Y-53548346D01*
X104543409Y-53565087D01*
X104509431Y-53575395D01*
X104467950Y-53579480D01*
X103791730Y-53579480D01*
X103750249Y-53575395D01*
X103716271Y-53565087D01*
X103684950Y-53548346D01*
X103657501Y-53525819D01*
X103634974Y-53498370D01*
X103618233Y-53467049D01*
X103607925Y-53433071D01*
X103603840Y-53391590D01*
X103603840Y-52790370D01*
X103607925Y-52748889D01*
X103618233Y-52714911D01*
X103634974Y-52683590D01*
X103657501Y-52656141D01*
X103684950Y-52633614D01*
X103716271Y-52616873D01*
X103750249Y-52606565D01*
X103791730Y-52602480D01*
X104467950Y-52602480D01*
X104509431Y-52606565D01*
X104509431Y-52606565D01*
G37*
G36*
X52566823Y-51871313D02*
G01*
X52693334Y-51909690D01*
X52722044Y-51918399D01*
X52727242Y-51919976D01*
X52813440Y-51966050D01*
X52875078Y-51998996D01*
X53004659Y-52105341D01*
X53111004Y-52234922D01*
X53111005Y-52234924D01*
X53190024Y-52382758D01*
X53238687Y-52543177D01*
X53255117Y-52710000D01*
X53238687Y-52876823D01*
X53190024Y-53037242D01*
X53185589Y-53045539D01*
X53111004Y-53185078D01*
X53004659Y-53314659D01*
X52875078Y-53421004D01*
X52875076Y-53421005D01*
X52727242Y-53500024D01*
X52566823Y-53548687D01*
X52441804Y-53561000D01*
X51558196Y-53561000D01*
X51433177Y-53548687D01*
X51272758Y-53500024D01*
X51124924Y-53421005D01*
X51124922Y-53421004D01*
X50995341Y-53314659D01*
X50888996Y-53185078D01*
X50814411Y-53045539D01*
X50809976Y-53037242D01*
X50761313Y-52876823D01*
X50744883Y-52710000D01*
X50761313Y-52543177D01*
X50809976Y-52382758D01*
X50888995Y-52234924D01*
X50888996Y-52234922D01*
X50995341Y-52105341D01*
X51124922Y-51998996D01*
X51186560Y-51966050D01*
X51272758Y-51919976D01*
X51277957Y-51918399D01*
X51306666Y-51909690D01*
X51433177Y-51871313D01*
X51558196Y-51859000D01*
X52441804Y-51859000D01*
X52566823Y-51871313D01*
X52566823Y-51871313D01*
G37*
G36*
X29706823Y-51871313D02*
G01*
X29833334Y-51909690D01*
X29862044Y-51918399D01*
X29867242Y-51919976D01*
X29953440Y-51966050D01*
X30015078Y-51998996D01*
X30144659Y-52105341D01*
X30251004Y-52234922D01*
X30251005Y-52234924D01*
X30330024Y-52382758D01*
X30378687Y-52543177D01*
X30395117Y-52710000D01*
X30378687Y-52876823D01*
X30330024Y-53037242D01*
X30325589Y-53045539D01*
X30251004Y-53185078D01*
X30144659Y-53314659D01*
X30015078Y-53421004D01*
X30015076Y-53421005D01*
X29867242Y-53500024D01*
X29706823Y-53548687D01*
X29581804Y-53561000D01*
X28698196Y-53561000D01*
X28573177Y-53548687D01*
X28412758Y-53500024D01*
X28264924Y-53421005D01*
X28264922Y-53421004D01*
X28135341Y-53314659D01*
X28028996Y-53185078D01*
X27954411Y-53045539D01*
X27949976Y-53037242D01*
X27901313Y-52876823D01*
X27884883Y-52710000D01*
X27901313Y-52543177D01*
X27949976Y-52382758D01*
X28028995Y-52234924D01*
X28028996Y-52234922D01*
X28135341Y-52105341D01*
X28264922Y-51998996D01*
X28326560Y-51966050D01*
X28412758Y-51919976D01*
X28417957Y-51918399D01*
X28446666Y-51909690D01*
X28573177Y-51871313D01*
X28698196Y-51859000D01*
X29581804Y-51859000D01*
X29706823Y-51871313D01*
X29706823Y-51871313D01*
G37*
G36*
X115302591Y-51725885D02*
G01*
X115336569Y-51736193D01*
X115367890Y-51752934D01*
X115395339Y-51775461D01*
X115417866Y-51802910D01*
X115434607Y-51834231D01*
X115444915Y-51868209D01*
X115449000Y-51909690D01*
X115449000Y-52585910D01*
X115444915Y-52627391D01*
X115434607Y-52661369D01*
X115417866Y-52692690D01*
X115395339Y-52720139D01*
X115367890Y-52742666D01*
X115336569Y-52759407D01*
X115302591Y-52769715D01*
X115261110Y-52773800D01*
X114659890Y-52773800D01*
X114618409Y-52769715D01*
X114584431Y-52759407D01*
X114553110Y-52742666D01*
X114525661Y-52720139D01*
X114503134Y-52692690D01*
X114486393Y-52661369D01*
X114476085Y-52627391D01*
X114472000Y-52585910D01*
X114472000Y-51909690D01*
X114476085Y-51868209D01*
X114486393Y-51834231D01*
X114503134Y-51802910D01*
X114525661Y-51775461D01*
X114553110Y-51752934D01*
X114584431Y-51736193D01*
X114618409Y-51725885D01*
X114659890Y-51721800D01*
X115261110Y-51721800D01*
X115302591Y-51725885D01*
X115302591Y-51725885D01*
G37*
G36*
X113727591Y-51725885D02*
G01*
X113761569Y-51736193D01*
X113792890Y-51752934D01*
X113820339Y-51775461D01*
X113842866Y-51802910D01*
X113859607Y-51834231D01*
X113869915Y-51868209D01*
X113874000Y-51909690D01*
X113874000Y-52585910D01*
X113869915Y-52627391D01*
X113859607Y-52661369D01*
X113842866Y-52692690D01*
X113820339Y-52720139D01*
X113792890Y-52742666D01*
X113761569Y-52759407D01*
X113727591Y-52769715D01*
X113686110Y-52773800D01*
X113084890Y-52773800D01*
X113043409Y-52769715D01*
X113009431Y-52759407D01*
X112978110Y-52742666D01*
X112950661Y-52720139D01*
X112928134Y-52692690D01*
X112911393Y-52661369D01*
X112901085Y-52627391D01*
X112897000Y-52585910D01*
X112897000Y-51909690D01*
X112901085Y-51868209D01*
X112911393Y-51834231D01*
X112928134Y-51802910D01*
X112950661Y-51775461D01*
X112978110Y-51752934D01*
X113009431Y-51736193D01*
X113043409Y-51725885D01*
X113084890Y-51721800D01*
X113686110Y-51721800D01*
X113727591Y-51725885D01*
X113727591Y-51725885D01*
G37*
G36*
X92254591Y-51478085D02*
G01*
X92288569Y-51488393D01*
X92319890Y-51505134D01*
X92347339Y-51527661D01*
X92369866Y-51555110D01*
X92386607Y-51586431D01*
X92396915Y-51620409D01*
X92401000Y-51661890D01*
X92401000Y-52338110D01*
X92396915Y-52379591D01*
X92386607Y-52413569D01*
X92369866Y-52444890D01*
X92347339Y-52472339D01*
X92319890Y-52494866D01*
X92288569Y-52511607D01*
X92254591Y-52521915D01*
X92213110Y-52526000D01*
X91611890Y-52526000D01*
X91570409Y-52521915D01*
X91536431Y-52511607D01*
X91505110Y-52494866D01*
X91477661Y-52472339D01*
X91455134Y-52444890D01*
X91438393Y-52413569D01*
X91428085Y-52379591D01*
X91424000Y-52338110D01*
X91424000Y-51661890D01*
X91428085Y-51620409D01*
X91438393Y-51586431D01*
X91455134Y-51555110D01*
X91477661Y-51527661D01*
X91505110Y-51505134D01*
X91536431Y-51488393D01*
X91570409Y-51478085D01*
X91611890Y-51474000D01*
X92213110Y-51474000D01*
X92254591Y-51478085D01*
X92254591Y-51478085D01*
G37*
G36*
X93829591Y-51478085D02*
G01*
X93863569Y-51488393D01*
X93894890Y-51505134D01*
X93922339Y-51527661D01*
X93944866Y-51555110D01*
X93961607Y-51586431D01*
X93971915Y-51620409D01*
X93976000Y-51661890D01*
X93976000Y-52338110D01*
X93971915Y-52379591D01*
X93961607Y-52413569D01*
X93944866Y-52444890D01*
X93922339Y-52472339D01*
X93894890Y-52494866D01*
X93863569Y-52511607D01*
X93829591Y-52521915D01*
X93788110Y-52526000D01*
X93186890Y-52526000D01*
X93145409Y-52521915D01*
X93111431Y-52511607D01*
X93080110Y-52494866D01*
X93052661Y-52472339D01*
X93030134Y-52444890D01*
X93013393Y-52413569D01*
X93003085Y-52379591D01*
X92999000Y-52338110D01*
X92999000Y-51661890D01*
X93003085Y-51620409D01*
X93013393Y-51586431D01*
X93030134Y-51555110D01*
X93052661Y-51527661D01*
X93080110Y-51505134D01*
X93111431Y-51488393D01*
X93145409Y-51478085D01*
X93186890Y-51474000D01*
X93788110Y-51474000D01*
X93829591Y-51478085D01*
X93829591Y-51478085D01*
G37*
G36*
X29706823Y-49331313D02*
G01*
X29867242Y-49379976D01*
X29973720Y-49436890D01*
X30015078Y-49458996D01*
X30144659Y-49565341D01*
X30251004Y-49694922D01*
X30251005Y-49694924D01*
X30330024Y-49842758D01*
X30378687Y-50003177D01*
X30395117Y-50170000D01*
X30378687Y-50336823D01*
X30330024Y-50497242D01*
X30259114Y-50629906D01*
X30251004Y-50645078D01*
X30144659Y-50774659D01*
X30015078Y-50881004D01*
X30015076Y-50881005D01*
X29867242Y-50960024D01*
X29706823Y-51008687D01*
X29581804Y-51021000D01*
X28698196Y-51021000D01*
X28573177Y-51008687D01*
X28412758Y-50960024D01*
X28264924Y-50881005D01*
X28264922Y-50881004D01*
X28135341Y-50774659D01*
X28028996Y-50645078D01*
X28020886Y-50629906D01*
X27949976Y-50497242D01*
X27901313Y-50336823D01*
X27884883Y-50170000D01*
X27901313Y-50003177D01*
X27949976Y-49842758D01*
X28028995Y-49694924D01*
X28028996Y-49694922D01*
X28135341Y-49565341D01*
X28264922Y-49458996D01*
X28306280Y-49436890D01*
X28412758Y-49379976D01*
X28573177Y-49331313D01*
X28698196Y-49319000D01*
X29581804Y-49319000D01*
X29706823Y-49331313D01*
X29706823Y-49331313D01*
G37*
G36*
X52566823Y-49331313D02*
G01*
X52727242Y-49379976D01*
X52833720Y-49436890D01*
X52875078Y-49458996D01*
X53004659Y-49565341D01*
X53111004Y-49694922D01*
X53111005Y-49694924D01*
X53190024Y-49842758D01*
X53238687Y-50003177D01*
X53255117Y-50170000D01*
X53238687Y-50336823D01*
X53190024Y-50497242D01*
X53119114Y-50629906D01*
X53111004Y-50645078D01*
X53004659Y-50774659D01*
X52875078Y-50881004D01*
X52875076Y-50881005D01*
X52727242Y-50960024D01*
X52566823Y-51008687D01*
X52441804Y-51021000D01*
X51558196Y-51021000D01*
X51433177Y-51008687D01*
X51272758Y-50960024D01*
X51124924Y-50881005D01*
X51124922Y-50881004D01*
X50995341Y-50774659D01*
X50888996Y-50645078D01*
X50880886Y-50629906D01*
X50809976Y-50497242D01*
X50761313Y-50336823D01*
X50744883Y-50170000D01*
X50761313Y-50003177D01*
X50809976Y-49842758D01*
X50888995Y-49694924D01*
X50888996Y-49694922D01*
X50995341Y-49565341D01*
X51124922Y-49458996D01*
X51166280Y-49436890D01*
X51272758Y-49379976D01*
X51433177Y-49331313D01*
X51558196Y-49319000D01*
X52441804Y-49319000D01*
X52566823Y-49331313D01*
X52566823Y-49331313D01*
G37*
G36*
X93879591Y-49253085D02*
G01*
X93913569Y-49263393D01*
X93944890Y-49280134D01*
X93972339Y-49302661D01*
X93994866Y-49330110D01*
X94011607Y-49361431D01*
X94021915Y-49395409D01*
X94026000Y-49436890D01*
X94026000Y-50038110D01*
X94021915Y-50079591D01*
X94011607Y-50113569D01*
X93994866Y-50144890D01*
X93972339Y-50172339D01*
X93944890Y-50194866D01*
X93913569Y-50211607D01*
X93879591Y-50221915D01*
X93838110Y-50226000D01*
X93161890Y-50226000D01*
X93120409Y-50221915D01*
X93086431Y-50211607D01*
X93055110Y-50194866D01*
X93027661Y-50172339D01*
X93005134Y-50144890D01*
X92988393Y-50113569D01*
X92978085Y-50079591D01*
X92974000Y-50038110D01*
X92974000Y-49436890D01*
X92978085Y-49395409D01*
X92988393Y-49361431D01*
X93005134Y-49330110D01*
X93027661Y-49302661D01*
X93055110Y-49280134D01*
X93086431Y-49263393D01*
X93120409Y-49253085D01*
X93161890Y-49249000D01*
X93838110Y-49249000D01*
X93879591Y-49253085D01*
X93879591Y-49253085D01*
G37*
G36*
X93879591Y-47678085D02*
G01*
X93913569Y-47688393D01*
X93944890Y-47705134D01*
X93972339Y-47727661D01*
X93994866Y-47755110D01*
X94011607Y-47786431D01*
X94021915Y-47820409D01*
X94026000Y-47861890D01*
X94026000Y-48463110D01*
X94021915Y-48504591D01*
X94011607Y-48538569D01*
X93994866Y-48569890D01*
X93972339Y-48597339D01*
X93944890Y-48619866D01*
X93913569Y-48636607D01*
X93879591Y-48646915D01*
X93838110Y-48651000D01*
X93161890Y-48651000D01*
X93120409Y-48646915D01*
X93086431Y-48636607D01*
X93055110Y-48619866D01*
X93027661Y-48597339D01*
X93005134Y-48569890D01*
X92988393Y-48538569D01*
X92978085Y-48504591D01*
X92974000Y-48463110D01*
X92974000Y-47861890D01*
X92978085Y-47820409D01*
X92988393Y-47786431D01*
X93005134Y-47755110D01*
X93027661Y-47727661D01*
X93055110Y-47705134D01*
X93086431Y-47688393D01*
X93120409Y-47678085D01*
X93161890Y-47674000D01*
X93838110Y-47674000D01*
X93879591Y-47678085D01*
X93879591Y-47678085D01*
G37*
G36*
X29706823Y-46791313D02*
G01*
X29867242Y-46839976D01*
X29999906Y-46910886D01*
X30015078Y-46918996D01*
X30144659Y-47025341D01*
X30251004Y-47154922D01*
X30251005Y-47154924D01*
X30330024Y-47302758D01*
X30378687Y-47463177D01*
X30395117Y-47630000D01*
X30378687Y-47796823D01*
X30330024Y-47957242D01*
X30259114Y-48089906D01*
X30251004Y-48105078D01*
X30144659Y-48234659D01*
X30015078Y-48341004D01*
X30015076Y-48341005D01*
X29867242Y-48420024D01*
X29706823Y-48468687D01*
X29581804Y-48481000D01*
X28698196Y-48481000D01*
X28573177Y-48468687D01*
X28412758Y-48420024D01*
X28264924Y-48341005D01*
X28264922Y-48341004D01*
X28135341Y-48234659D01*
X28028996Y-48105078D01*
X28020886Y-48089906D01*
X27949976Y-47957242D01*
X27901313Y-47796823D01*
X27884883Y-47630000D01*
X27901313Y-47463177D01*
X27949976Y-47302758D01*
X28028995Y-47154924D01*
X28028996Y-47154922D01*
X28135341Y-47025341D01*
X28264922Y-46918996D01*
X28280094Y-46910886D01*
X28412758Y-46839976D01*
X28573177Y-46791313D01*
X28698196Y-46779000D01*
X29581804Y-46779000D01*
X29706823Y-46791313D01*
X29706823Y-46791313D01*
G37*
G36*
X52566823Y-46791313D02*
G01*
X52727242Y-46839976D01*
X52859906Y-46910886D01*
X52875078Y-46918996D01*
X53004659Y-47025341D01*
X53111004Y-47154922D01*
X53111005Y-47154924D01*
X53190024Y-47302758D01*
X53238687Y-47463177D01*
X53255117Y-47630000D01*
X53238687Y-47796823D01*
X53190024Y-47957242D01*
X53119114Y-48089906D01*
X53111004Y-48105078D01*
X53004659Y-48234659D01*
X52875078Y-48341004D01*
X52875076Y-48341005D01*
X52727242Y-48420024D01*
X52566823Y-48468687D01*
X52441804Y-48481000D01*
X51558196Y-48481000D01*
X51433177Y-48468687D01*
X51272758Y-48420024D01*
X51124924Y-48341005D01*
X51124922Y-48341004D01*
X50995341Y-48234659D01*
X50888996Y-48105078D01*
X50880886Y-48089906D01*
X50809976Y-47957242D01*
X50761313Y-47796823D01*
X50744883Y-47630000D01*
X50761313Y-47463177D01*
X50809976Y-47302758D01*
X50888995Y-47154924D01*
X50888996Y-47154922D01*
X50995341Y-47025341D01*
X51124922Y-46918996D01*
X51140094Y-46910886D01*
X51272758Y-46839976D01*
X51433177Y-46791313D01*
X51558196Y-46779000D01*
X52441804Y-46779000D01*
X52566823Y-46791313D01*
X52566823Y-46791313D01*
G37*
G36*
X52566823Y-44251313D02*
G01*
X52727242Y-44299976D01*
X52859906Y-44370886D01*
X52875078Y-44378996D01*
X53004659Y-44485341D01*
X53111004Y-44614922D01*
X53111005Y-44614924D01*
X53190024Y-44762758D01*
X53238687Y-44923177D01*
X53255117Y-45090000D01*
X53238687Y-45256823D01*
X53190024Y-45417242D01*
X53119114Y-45549906D01*
X53111004Y-45565078D01*
X53004659Y-45694659D01*
X52875078Y-45801004D01*
X52875076Y-45801005D01*
X52727242Y-45880024D01*
X52566823Y-45928687D01*
X52441804Y-45941000D01*
X51558196Y-45941000D01*
X51433177Y-45928687D01*
X51272758Y-45880024D01*
X51124924Y-45801005D01*
X51124922Y-45801004D01*
X50995341Y-45694659D01*
X50888996Y-45565078D01*
X50880886Y-45549906D01*
X50809976Y-45417242D01*
X50761313Y-45256823D01*
X50744883Y-45090000D01*
X50761313Y-44923177D01*
X50809976Y-44762758D01*
X50888995Y-44614924D01*
X50888996Y-44614922D01*
X50995341Y-44485341D01*
X51124922Y-44378996D01*
X51140094Y-44370886D01*
X51272758Y-44299976D01*
X51433177Y-44251313D01*
X51558196Y-44239000D01*
X52441804Y-44239000D01*
X52566823Y-44251313D01*
X52566823Y-44251313D01*
G37*
G36*
X29706823Y-44251313D02*
G01*
X29867242Y-44299976D01*
X29999906Y-44370886D01*
X30015078Y-44378996D01*
X30144659Y-44485341D01*
X30251004Y-44614922D01*
X30251005Y-44614924D01*
X30330024Y-44762758D01*
X30378687Y-44923177D01*
X30395117Y-45090000D01*
X30378687Y-45256823D01*
X30330024Y-45417242D01*
X30259114Y-45549906D01*
X30251004Y-45565078D01*
X30144659Y-45694659D01*
X30015078Y-45801004D01*
X30015076Y-45801005D01*
X29867242Y-45880024D01*
X29706823Y-45928687D01*
X29581804Y-45941000D01*
X28698196Y-45941000D01*
X28573177Y-45928687D01*
X28412758Y-45880024D01*
X28264924Y-45801005D01*
X28264922Y-45801004D01*
X28135341Y-45694659D01*
X28028996Y-45565078D01*
X28020886Y-45549906D01*
X27949976Y-45417242D01*
X27901313Y-45256823D01*
X27884883Y-45090000D01*
X27901313Y-44923177D01*
X27949976Y-44762758D01*
X28028995Y-44614924D01*
X28028996Y-44614922D01*
X28135341Y-44485341D01*
X28264922Y-44378996D01*
X28280094Y-44370886D01*
X28412758Y-44299976D01*
X28573177Y-44251313D01*
X28698196Y-44239000D01*
X29581804Y-44239000D01*
X29706823Y-44251313D01*
X29706823Y-44251313D01*
G37*
G36*
X92501000Y-45151000D02*
G01*
X91499000Y-45151000D01*
X91499000Y-44249000D01*
X92501000Y-44249000D01*
X92501000Y-45151000D01*
X92501000Y-45151000D01*
G37*
G36*
X88129591Y-43978085D02*
G01*
X88163569Y-43988393D01*
X88194890Y-44005134D01*
X88222339Y-44027661D01*
X88244866Y-44055110D01*
X88261607Y-44086431D01*
X88271915Y-44120409D01*
X88276000Y-44161890D01*
X88276000Y-44838110D01*
X88271915Y-44879591D01*
X88261607Y-44913569D01*
X88244866Y-44944890D01*
X88222339Y-44972339D01*
X88194890Y-44994866D01*
X88163569Y-45011607D01*
X88129591Y-45021915D01*
X88088110Y-45026000D01*
X87486890Y-45026000D01*
X87445409Y-45021915D01*
X87411431Y-45011607D01*
X87380110Y-44994866D01*
X87352661Y-44972339D01*
X87330134Y-44944890D01*
X87313393Y-44913569D01*
X87303085Y-44879591D01*
X87299000Y-44838110D01*
X87299000Y-44161890D01*
X87303085Y-44120409D01*
X87313393Y-44086431D01*
X87330134Y-44055110D01*
X87352661Y-44027661D01*
X87380110Y-44005134D01*
X87411431Y-43988393D01*
X87445409Y-43978085D01*
X87486890Y-43974000D01*
X88088110Y-43974000D01*
X88129591Y-43978085D01*
X88129591Y-43978085D01*
G37*
G36*
X83629591Y-43978085D02*
G01*
X83663569Y-43988393D01*
X83694890Y-44005134D01*
X83722339Y-44027661D01*
X83744866Y-44055110D01*
X83761607Y-44086431D01*
X83771915Y-44120409D01*
X83776000Y-44161890D01*
X83776000Y-44838110D01*
X83771915Y-44879591D01*
X83761607Y-44913569D01*
X83744866Y-44944890D01*
X83722339Y-44972339D01*
X83694890Y-44994866D01*
X83663569Y-45011607D01*
X83629591Y-45021915D01*
X83588110Y-45026000D01*
X82986890Y-45026000D01*
X82945409Y-45021915D01*
X82911431Y-45011607D01*
X82880110Y-44994866D01*
X82852661Y-44972339D01*
X82830134Y-44944890D01*
X82813393Y-44913569D01*
X82803085Y-44879591D01*
X82799000Y-44838110D01*
X82799000Y-44161890D01*
X82803085Y-44120409D01*
X82813393Y-44086431D01*
X82830134Y-44055110D01*
X82852661Y-44027661D01*
X82880110Y-44005134D01*
X82911431Y-43988393D01*
X82945409Y-43978085D01*
X82986890Y-43974000D01*
X83588110Y-43974000D01*
X83629591Y-43978085D01*
X83629591Y-43978085D01*
G37*
G36*
X86554591Y-43978085D02*
G01*
X86588569Y-43988393D01*
X86619890Y-44005134D01*
X86647339Y-44027661D01*
X86669866Y-44055110D01*
X86686607Y-44086431D01*
X86696915Y-44120409D01*
X86701000Y-44161890D01*
X86701000Y-44838110D01*
X86696915Y-44879591D01*
X86686607Y-44913569D01*
X86669866Y-44944890D01*
X86647339Y-44972339D01*
X86619890Y-44994866D01*
X86588569Y-45011607D01*
X86554591Y-45021915D01*
X86513110Y-45026000D01*
X85911890Y-45026000D01*
X85870409Y-45021915D01*
X85836431Y-45011607D01*
X85805110Y-44994866D01*
X85777661Y-44972339D01*
X85755134Y-44944890D01*
X85738393Y-44913569D01*
X85728085Y-44879591D01*
X85724000Y-44838110D01*
X85724000Y-44161890D01*
X85728085Y-44120409D01*
X85738393Y-44086431D01*
X85755134Y-44055110D01*
X85777661Y-44027661D01*
X85805110Y-44005134D01*
X85836431Y-43988393D01*
X85870409Y-43978085D01*
X85911890Y-43974000D01*
X86513110Y-43974000D01*
X86554591Y-43978085D01*
X86554591Y-43978085D01*
G37*
G36*
X93879591Y-44053085D02*
G01*
X93913569Y-44063393D01*
X93944890Y-44080134D01*
X93972339Y-44102661D01*
X93994866Y-44130110D01*
X94011607Y-44161431D01*
X94021915Y-44195409D01*
X94026000Y-44236890D01*
X94026000Y-44838110D01*
X94021915Y-44879591D01*
X94011607Y-44913569D01*
X93994866Y-44944890D01*
X93972339Y-44972339D01*
X93944890Y-44994866D01*
X93913569Y-45011607D01*
X93879591Y-45021915D01*
X93838110Y-45026000D01*
X93161890Y-45026000D01*
X93120409Y-45021915D01*
X93086431Y-45011607D01*
X93055110Y-44994866D01*
X93027661Y-44972339D01*
X93005134Y-44944890D01*
X92988393Y-44913569D01*
X92978085Y-44879591D01*
X92974000Y-44838110D01*
X92974000Y-44236890D01*
X92978085Y-44195409D01*
X92988393Y-44161431D01*
X93005134Y-44130110D01*
X93027661Y-44102661D01*
X93055110Y-44080134D01*
X93086431Y-44063393D01*
X93120409Y-44053085D01*
X93161890Y-44049000D01*
X93838110Y-44049000D01*
X93879591Y-44053085D01*
X93879591Y-44053085D01*
G37*
G36*
X82054591Y-43978085D02*
G01*
X82088569Y-43988393D01*
X82119890Y-44005134D01*
X82147339Y-44027661D01*
X82169866Y-44055110D01*
X82186607Y-44086431D01*
X82196915Y-44120409D01*
X82201000Y-44161890D01*
X82201000Y-44838110D01*
X82196915Y-44879591D01*
X82186607Y-44913569D01*
X82169866Y-44944890D01*
X82147339Y-44972339D01*
X82119890Y-44994866D01*
X82088569Y-45011607D01*
X82054591Y-45021915D01*
X82013110Y-45026000D01*
X81411890Y-45026000D01*
X81370409Y-45021915D01*
X81336431Y-45011607D01*
X81305110Y-44994866D01*
X81277661Y-44972339D01*
X81255134Y-44944890D01*
X81238393Y-44913569D01*
X81228085Y-44879591D01*
X81224000Y-44838110D01*
X81224000Y-44161890D01*
X81228085Y-44120409D01*
X81238393Y-44086431D01*
X81255134Y-44055110D01*
X81277661Y-44027661D01*
X81305110Y-44005134D01*
X81336431Y-43988393D01*
X81370409Y-43978085D01*
X81411890Y-43974000D01*
X82013110Y-43974000D01*
X82054591Y-43978085D01*
X82054591Y-43978085D01*
G37*
G36*
X90501000Y-44201000D02*
G01*
X89499000Y-44201000D01*
X89499000Y-43299000D01*
X90501000Y-43299000D01*
X90501000Y-44201000D01*
X90501000Y-44201000D01*
G37*
G36*
X86554591Y-42478085D02*
G01*
X86588569Y-42488393D01*
X86619890Y-42505134D01*
X86647339Y-42527661D01*
X86669866Y-42555110D01*
X86686607Y-42586431D01*
X86696915Y-42620409D01*
X86701000Y-42661890D01*
X86701000Y-43338110D01*
X86696915Y-43379591D01*
X86686607Y-43413569D01*
X86669866Y-43444890D01*
X86647339Y-43472339D01*
X86619890Y-43494866D01*
X86588569Y-43511607D01*
X86554591Y-43521915D01*
X86513110Y-43526000D01*
X85911890Y-43526000D01*
X85870409Y-43521915D01*
X85836431Y-43511607D01*
X85805110Y-43494866D01*
X85777661Y-43472339D01*
X85755134Y-43444890D01*
X85738393Y-43413569D01*
X85728085Y-43379591D01*
X85724000Y-43338110D01*
X85724000Y-42661890D01*
X85728085Y-42620409D01*
X85738393Y-42586431D01*
X85755134Y-42555110D01*
X85777661Y-42527661D01*
X85805110Y-42505134D01*
X85836431Y-42488393D01*
X85870409Y-42478085D01*
X85911890Y-42474000D01*
X86513110Y-42474000D01*
X86554591Y-42478085D01*
X86554591Y-42478085D01*
G37*
G36*
X83629591Y-42478085D02*
G01*
X83663569Y-42488393D01*
X83694890Y-42505134D01*
X83722339Y-42527661D01*
X83744866Y-42555110D01*
X83761607Y-42586431D01*
X83771915Y-42620409D01*
X83776000Y-42661890D01*
X83776000Y-43338110D01*
X83771915Y-43379591D01*
X83761607Y-43413569D01*
X83744866Y-43444890D01*
X83722339Y-43472339D01*
X83694890Y-43494866D01*
X83663569Y-43511607D01*
X83629591Y-43521915D01*
X83588110Y-43526000D01*
X82986890Y-43526000D01*
X82945409Y-43521915D01*
X82911431Y-43511607D01*
X82880110Y-43494866D01*
X82852661Y-43472339D01*
X82830134Y-43444890D01*
X82813393Y-43413569D01*
X82803085Y-43379591D01*
X82799000Y-43338110D01*
X82799000Y-42661890D01*
X82803085Y-42620409D01*
X82813393Y-42586431D01*
X82830134Y-42555110D01*
X82852661Y-42527661D01*
X82880110Y-42505134D01*
X82911431Y-42488393D01*
X82945409Y-42478085D01*
X82986890Y-42474000D01*
X83588110Y-42474000D01*
X83629591Y-42478085D01*
X83629591Y-42478085D01*
G37*
G36*
X82054591Y-42478085D02*
G01*
X82088569Y-42488393D01*
X82119890Y-42505134D01*
X82147339Y-42527661D01*
X82169866Y-42555110D01*
X82186607Y-42586431D01*
X82196915Y-42620409D01*
X82201000Y-42661890D01*
X82201000Y-43338110D01*
X82196915Y-43379591D01*
X82186607Y-43413569D01*
X82169866Y-43444890D01*
X82147339Y-43472339D01*
X82119890Y-43494866D01*
X82088569Y-43511607D01*
X82054591Y-43521915D01*
X82013110Y-43526000D01*
X81411890Y-43526000D01*
X81370409Y-43521915D01*
X81336431Y-43511607D01*
X81305110Y-43494866D01*
X81277661Y-43472339D01*
X81255134Y-43444890D01*
X81238393Y-43413569D01*
X81228085Y-43379591D01*
X81224000Y-43338110D01*
X81224000Y-42661890D01*
X81228085Y-42620409D01*
X81238393Y-42586431D01*
X81255134Y-42555110D01*
X81277661Y-42527661D01*
X81305110Y-42505134D01*
X81336431Y-42488393D01*
X81370409Y-42478085D01*
X81411890Y-42474000D01*
X82013110Y-42474000D01*
X82054591Y-42478085D01*
X82054591Y-42478085D01*
G37*
G36*
X88129591Y-42478085D02*
G01*
X88163569Y-42488393D01*
X88194890Y-42505134D01*
X88222339Y-42527661D01*
X88244866Y-42555110D01*
X88261607Y-42586431D01*
X88271915Y-42620409D01*
X88276000Y-42661890D01*
X88276000Y-43338110D01*
X88271915Y-43379591D01*
X88261607Y-43413569D01*
X88244866Y-43444890D01*
X88222339Y-43472339D01*
X88194890Y-43494866D01*
X88163569Y-43511607D01*
X88129591Y-43521915D01*
X88088110Y-43526000D01*
X87486890Y-43526000D01*
X87445409Y-43521915D01*
X87411431Y-43511607D01*
X87380110Y-43494866D01*
X87352661Y-43472339D01*
X87330134Y-43444890D01*
X87313393Y-43413569D01*
X87303085Y-43379591D01*
X87299000Y-43338110D01*
X87299000Y-42661890D01*
X87303085Y-42620409D01*
X87313393Y-42586431D01*
X87330134Y-42555110D01*
X87352661Y-42527661D01*
X87380110Y-42505134D01*
X87411431Y-42488393D01*
X87445409Y-42478085D01*
X87486890Y-42474000D01*
X88088110Y-42474000D01*
X88129591Y-42478085D01*
X88129591Y-42478085D01*
G37*
G36*
X93879591Y-42478085D02*
G01*
X93913569Y-42488393D01*
X93944890Y-42505134D01*
X93972339Y-42527661D01*
X93994866Y-42555110D01*
X94011607Y-42586431D01*
X94021915Y-42620409D01*
X94026000Y-42661890D01*
X94026000Y-43263110D01*
X94021915Y-43304591D01*
X94011607Y-43338569D01*
X93994866Y-43369890D01*
X93972339Y-43397339D01*
X93944890Y-43419866D01*
X93913569Y-43436607D01*
X93879591Y-43446915D01*
X93838110Y-43451000D01*
X93161890Y-43451000D01*
X93120409Y-43446915D01*
X93086431Y-43436607D01*
X93055110Y-43419866D01*
X93027661Y-43397339D01*
X93005134Y-43369890D01*
X92988393Y-43338569D01*
X92978085Y-43304591D01*
X92974000Y-43263110D01*
X92974000Y-42661890D01*
X92978085Y-42620409D01*
X92988393Y-42586431D01*
X93005134Y-42555110D01*
X93027661Y-42527661D01*
X93055110Y-42505134D01*
X93086431Y-42488393D01*
X93120409Y-42478085D01*
X93161890Y-42474000D01*
X93838110Y-42474000D01*
X93879591Y-42478085D01*
X93879591Y-42478085D01*
G37*
G36*
X29706823Y-41711313D02*
G01*
X29867242Y-41759976D01*
X29999906Y-41830886D01*
X30015078Y-41838996D01*
X30144659Y-41945341D01*
X30251004Y-42074922D01*
X30251005Y-42074924D01*
X30330024Y-42222758D01*
X30378687Y-42383177D01*
X30395117Y-42550000D01*
X30378687Y-42716823D01*
X30330024Y-42877242D01*
X30259114Y-43009906D01*
X30251004Y-43025078D01*
X30144659Y-43154659D01*
X30015078Y-43261004D01*
X30015076Y-43261005D01*
X29867242Y-43340024D01*
X29706823Y-43388687D01*
X29581804Y-43401000D01*
X28698196Y-43401000D01*
X28573177Y-43388687D01*
X28412758Y-43340024D01*
X28264924Y-43261005D01*
X28264922Y-43261004D01*
X28135341Y-43154659D01*
X28028996Y-43025078D01*
X28020886Y-43009906D01*
X27949976Y-42877242D01*
X27901313Y-42716823D01*
X27884883Y-42550000D01*
X27901313Y-42383177D01*
X27949976Y-42222758D01*
X28028995Y-42074924D01*
X28028996Y-42074922D01*
X28135341Y-41945341D01*
X28264922Y-41838996D01*
X28280094Y-41830886D01*
X28412758Y-41759976D01*
X28573177Y-41711313D01*
X28698196Y-41699000D01*
X29581804Y-41699000D01*
X29706823Y-41711313D01*
X29706823Y-41711313D01*
G37*
G36*
X52566823Y-41711313D02*
G01*
X52727242Y-41759976D01*
X52859906Y-41830886D01*
X52875078Y-41838996D01*
X53004659Y-41945341D01*
X53111004Y-42074922D01*
X53111005Y-42074924D01*
X53190024Y-42222758D01*
X53238687Y-42383177D01*
X53255117Y-42550000D01*
X53238687Y-42716823D01*
X53190024Y-42877242D01*
X53119114Y-43009906D01*
X53111004Y-43025078D01*
X53004659Y-43154659D01*
X52875078Y-43261004D01*
X52875076Y-43261005D01*
X52727242Y-43340024D01*
X52566823Y-43388687D01*
X52441804Y-43401000D01*
X51558196Y-43401000D01*
X51433177Y-43388687D01*
X51272758Y-43340024D01*
X51124924Y-43261005D01*
X51124922Y-43261004D01*
X50995341Y-43154659D01*
X50888996Y-43025078D01*
X50880886Y-43009906D01*
X50809976Y-42877242D01*
X50761313Y-42716823D01*
X50744883Y-42550000D01*
X50761313Y-42383177D01*
X50809976Y-42222758D01*
X50888995Y-42074924D01*
X50888996Y-42074922D01*
X50995341Y-41945341D01*
X51124922Y-41838996D01*
X51140094Y-41830886D01*
X51272758Y-41759976D01*
X51433177Y-41711313D01*
X51558196Y-41699000D01*
X52441804Y-41699000D01*
X52566823Y-41711313D01*
X52566823Y-41711313D01*
G37*
G36*
X92501000Y-43251000D02*
G01*
X91499000Y-43251000D01*
X91499000Y-42349000D01*
X92501000Y-42349000D01*
X92501000Y-43251000D01*
X92501000Y-43251000D01*
G37*
G36*
X52566823Y-39171313D02*
G01*
X52727242Y-39219976D01*
X52859906Y-39290886D01*
X52875078Y-39298996D01*
X53004659Y-39405341D01*
X53111004Y-39534922D01*
X53111005Y-39534924D01*
X53190024Y-39682758D01*
X53238687Y-39843177D01*
X53255117Y-40010000D01*
X53238687Y-40176823D01*
X53190024Y-40337242D01*
X53119114Y-40469906D01*
X53111004Y-40485078D01*
X53004659Y-40614659D01*
X52875078Y-40721004D01*
X52875076Y-40721005D01*
X52727242Y-40800024D01*
X52566823Y-40848687D01*
X52441804Y-40861000D01*
X51558196Y-40861000D01*
X51433177Y-40848687D01*
X51272758Y-40800024D01*
X51124924Y-40721005D01*
X51124922Y-40721004D01*
X50995341Y-40614659D01*
X50888996Y-40485078D01*
X50880886Y-40469906D01*
X50809976Y-40337242D01*
X50761313Y-40176823D01*
X50744883Y-40010000D01*
X50761313Y-39843177D01*
X50809976Y-39682758D01*
X50888995Y-39534924D01*
X50888996Y-39534922D01*
X50995341Y-39405341D01*
X51124922Y-39298996D01*
X51140094Y-39290886D01*
X51272758Y-39219976D01*
X51433177Y-39171313D01*
X51558196Y-39159000D01*
X52441804Y-39159000D01*
X52566823Y-39171313D01*
X52566823Y-39171313D01*
G37*
G36*
X29706823Y-39171313D02*
G01*
X29867242Y-39219976D01*
X29999906Y-39290886D01*
X30015078Y-39298996D01*
X30144659Y-39405341D01*
X30251004Y-39534922D01*
X30251005Y-39534924D01*
X30330024Y-39682758D01*
X30378687Y-39843177D01*
X30395117Y-40010000D01*
X30378687Y-40176823D01*
X30330024Y-40337242D01*
X30259114Y-40469906D01*
X30251004Y-40485078D01*
X30144659Y-40614659D01*
X30015078Y-40721004D01*
X30015076Y-40721005D01*
X29867242Y-40800024D01*
X29706823Y-40848687D01*
X29581804Y-40861000D01*
X28698196Y-40861000D01*
X28573177Y-40848687D01*
X28412758Y-40800024D01*
X28264924Y-40721005D01*
X28264922Y-40721004D01*
X28135341Y-40614659D01*
X28028996Y-40485078D01*
X28020886Y-40469906D01*
X27949976Y-40337242D01*
X27901313Y-40176823D01*
X27884883Y-40010000D01*
X27901313Y-39843177D01*
X27949976Y-39682758D01*
X28028995Y-39534924D01*
X28028996Y-39534922D01*
X28135341Y-39405341D01*
X28264922Y-39298996D01*
X28280094Y-39290886D01*
X28412758Y-39219976D01*
X28573177Y-39171313D01*
X28698196Y-39159000D01*
X29581804Y-39159000D01*
X29706823Y-39171313D01*
X29706823Y-39171313D01*
G37*
G36*
X77251000Y-38326000D02*
G01*
X76049000Y-38326000D01*
X76049000Y-30674000D01*
X77251000Y-30674000D01*
X77251000Y-38326000D01*
X77251000Y-38326000D01*
G37*
G36*
X82951000Y-38326000D02*
G01*
X81749000Y-38326000D01*
X81749000Y-30674000D01*
X82951000Y-30674000D01*
X82951000Y-38326000D01*
X82951000Y-38326000D01*
G37*
G36*
X117394098Y-31047033D02*
G01*
X117858350Y-31239332D01*
X117858352Y-31239333D01*
X118276168Y-31518509D01*
X118631491Y-31873832D01*
X118698421Y-31974000D01*
X118910668Y-32291650D01*
X119102967Y-32755902D01*
X119201000Y-33248747D01*
X119201000Y-33751253D01*
X119102967Y-34244098D01*
X118998792Y-34495599D01*
X118910667Y-34708352D01*
X118631491Y-35126168D01*
X118276168Y-35481491D01*
X117858352Y-35760667D01*
X117858351Y-35760668D01*
X117858350Y-35760668D01*
X117394098Y-35952967D01*
X116901253Y-36051000D01*
X116398747Y-36051000D01*
X115905902Y-35952967D01*
X115441650Y-35760668D01*
X115441649Y-35760668D01*
X115441648Y-35760667D01*
X115023832Y-35481491D01*
X114668509Y-35126168D01*
X114389333Y-34708352D01*
X114301208Y-34495599D01*
X114197033Y-34244098D01*
X114099000Y-33751253D01*
X114099000Y-33248747D01*
X114197033Y-32755902D01*
X114389332Y-32291650D01*
X114601579Y-31974000D01*
X114668509Y-31873832D01*
X115023832Y-31518509D01*
X115441648Y-31239333D01*
X115441650Y-31239332D01*
X115905902Y-31047033D01*
X116398747Y-30949000D01*
X116901253Y-30949000D01*
X117394098Y-31047033D01*
X117394098Y-31047033D01*
G37*
G36*
X36879591Y-34303085D02*
G01*
X36913569Y-34313393D01*
X36944890Y-34330134D01*
X36972339Y-34352661D01*
X36994866Y-34380110D01*
X37011607Y-34411431D01*
X37021915Y-34445409D01*
X37026000Y-34486890D01*
X37026000Y-35088110D01*
X37021915Y-35129591D01*
X37011607Y-35163569D01*
X36994866Y-35194890D01*
X36972339Y-35222339D01*
X36944890Y-35244866D01*
X36913569Y-35261607D01*
X36879591Y-35271915D01*
X36838110Y-35276000D01*
X36161890Y-35276000D01*
X36120409Y-35271915D01*
X36086431Y-35261607D01*
X36055110Y-35244866D01*
X36027661Y-35222339D01*
X36005134Y-35194890D01*
X35988393Y-35163569D01*
X35978085Y-35129591D01*
X35974000Y-35088110D01*
X35974000Y-34486890D01*
X35978085Y-34445409D01*
X35988393Y-34411431D01*
X36005134Y-34380110D01*
X36027661Y-34352661D01*
X36055110Y-34330134D01*
X36086431Y-34313393D01*
X36120409Y-34303085D01*
X36161890Y-34299000D01*
X36838110Y-34299000D01*
X36879591Y-34303085D01*
X36879591Y-34303085D01*
G37*
G36*
X36879591Y-32728085D02*
G01*
X36913569Y-32738393D01*
X36944890Y-32755134D01*
X36972339Y-32777661D01*
X36994866Y-32805110D01*
X37011607Y-32836431D01*
X37021915Y-32870409D01*
X37026000Y-32911890D01*
X37026000Y-33513110D01*
X37021915Y-33554591D01*
X37011607Y-33588569D01*
X36994866Y-33619890D01*
X36972339Y-33647339D01*
X36944890Y-33669866D01*
X36913569Y-33686607D01*
X36879591Y-33696915D01*
X36838110Y-33701000D01*
X36161890Y-33701000D01*
X36120409Y-33696915D01*
X36086431Y-33686607D01*
X36055110Y-33669866D01*
X36027661Y-33647339D01*
X36005134Y-33619890D01*
X35988393Y-33588569D01*
X35978085Y-33554591D01*
X35974000Y-33513110D01*
X35974000Y-32911890D01*
X35978085Y-32870409D01*
X35988393Y-32836431D01*
X36005134Y-32805110D01*
X36027661Y-32777661D01*
X36055110Y-32755134D01*
X36086431Y-32738393D01*
X36120409Y-32728085D01*
X36161890Y-32724000D01*
X36838110Y-32724000D01*
X36879591Y-32728085D01*
X36879591Y-32728085D01*
G37*
G36*
X31554591Y-31478085D02*
G01*
X31588569Y-31488393D01*
X31619890Y-31505134D01*
X31647339Y-31527661D01*
X31669866Y-31555110D01*
X31686607Y-31586431D01*
X31696915Y-31620409D01*
X31701000Y-31661890D01*
X31701000Y-32338110D01*
X31696915Y-32379591D01*
X31686607Y-32413569D01*
X31669866Y-32444890D01*
X31647339Y-32472339D01*
X31619890Y-32494866D01*
X31588569Y-32511607D01*
X31554591Y-32521915D01*
X31513110Y-32526000D01*
X30911890Y-32526000D01*
X30870409Y-32521915D01*
X30836431Y-32511607D01*
X30805110Y-32494866D01*
X30777661Y-32472339D01*
X30755134Y-32444890D01*
X30738393Y-32413569D01*
X30728085Y-32379591D01*
X30724000Y-32338110D01*
X30724000Y-31661890D01*
X30728085Y-31620409D01*
X30738393Y-31586431D01*
X30755134Y-31555110D01*
X30777661Y-31527661D01*
X30805110Y-31505134D01*
X30836431Y-31488393D01*
X30870409Y-31478085D01*
X30911890Y-31474000D01*
X31513110Y-31474000D01*
X31554591Y-31478085D01*
X31554591Y-31478085D01*
G37*
G36*
X33129591Y-31478085D02*
G01*
X33163569Y-31488393D01*
X33194890Y-31505134D01*
X33222339Y-31527661D01*
X33244866Y-31555110D01*
X33261607Y-31586431D01*
X33271915Y-31620409D01*
X33276000Y-31661890D01*
X33276000Y-32338110D01*
X33271915Y-32379591D01*
X33261607Y-32413569D01*
X33244866Y-32444890D01*
X33222339Y-32472339D01*
X33194890Y-32494866D01*
X33163569Y-32511607D01*
X33129591Y-32521915D01*
X33088110Y-32526000D01*
X32486890Y-32526000D01*
X32445409Y-32521915D01*
X32411431Y-32511607D01*
X32380110Y-32494866D01*
X32352661Y-32472339D01*
X32330134Y-32444890D01*
X32313393Y-32413569D01*
X32303085Y-32379591D01*
X32299000Y-32338110D01*
X32299000Y-31661890D01*
X32303085Y-31620409D01*
X32313393Y-31586431D01*
X32330134Y-31555110D01*
X32352661Y-31527661D01*
X32380110Y-31505134D01*
X32411431Y-31488393D01*
X32445409Y-31478085D01*
X32486890Y-31474000D01*
X33088110Y-31474000D01*
X33129591Y-31478085D01*
X33129591Y-31478085D01*
G37*
G36*
X73629591Y-30803085D02*
G01*
X73663569Y-30813393D01*
X73694890Y-30830134D01*
X73722339Y-30852661D01*
X73744866Y-30880110D01*
X73761607Y-30911431D01*
X73771915Y-30945409D01*
X73776000Y-30986890D01*
X73776000Y-31588110D01*
X73771915Y-31629591D01*
X73761607Y-31663569D01*
X73744866Y-31694890D01*
X73722339Y-31722339D01*
X73694890Y-31744866D01*
X73663569Y-31761607D01*
X73629591Y-31771915D01*
X73588110Y-31776000D01*
X72911890Y-31776000D01*
X72870409Y-31771915D01*
X72836431Y-31761607D01*
X72805110Y-31744866D01*
X72777661Y-31722339D01*
X72755134Y-31694890D01*
X72738393Y-31663569D01*
X72728085Y-31629591D01*
X72724000Y-31588110D01*
X72724000Y-30986890D01*
X72728085Y-30945409D01*
X72738393Y-30911431D01*
X72755134Y-30880110D01*
X72777661Y-30852661D01*
X72805110Y-30830134D01*
X72836431Y-30813393D01*
X72870409Y-30803085D01*
X72911890Y-30799000D01*
X73588110Y-30799000D01*
X73629591Y-30803085D01*
X73629591Y-30803085D01*
G37*
G36*
X75379591Y-30803085D02*
G01*
X75413569Y-30813393D01*
X75444890Y-30830134D01*
X75472339Y-30852661D01*
X75494866Y-30880110D01*
X75511607Y-30911431D01*
X75521915Y-30945409D01*
X75526000Y-30986890D01*
X75526000Y-31588110D01*
X75521915Y-31629591D01*
X75511607Y-31663569D01*
X75494866Y-31694890D01*
X75472339Y-31722339D01*
X75444890Y-31744866D01*
X75413569Y-31761607D01*
X75379591Y-31771915D01*
X75338110Y-31776000D01*
X74661890Y-31776000D01*
X74620409Y-31771915D01*
X74586431Y-31761607D01*
X74555110Y-31744866D01*
X74527661Y-31722339D01*
X74505134Y-31694890D01*
X74488393Y-31663569D01*
X74478085Y-31629591D01*
X74474000Y-31588110D01*
X74474000Y-30986890D01*
X74478085Y-30945409D01*
X74488393Y-30911431D01*
X74505134Y-30880110D01*
X74527661Y-30852661D01*
X74555110Y-30830134D01*
X74586431Y-30813393D01*
X74620409Y-30803085D01*
X74661890Y-30799000D01*
X75338110Y-30799000D01*
X75379591Y-30803085D01*
X75379591Y-30803085D01*
G37*
G36*
X86554591Y-30228085D02*
G01*
X86588569Y-30238393D01*
X86619890Y-30255134D01*
X86647339Y-30277661D01*
X86669866Y-30305110D01*
X86686607Y-30336431D01*
X86696915Y-30370409D01*
X86701000Y-30411890D01*
X86701000Y-31088110D01*
X86696915Y-31129591D01*
X86686607Y-31163569D01*
X86669866Y-31194890D01*
X86647339Y-31222339D01*
X86619890Y-31244866D01*
X86588569Y-31261607D01*
X86554591Y-31271915D01*
X86513110Y-31276000D01*
X85911890Y-31276000D01*
X85870409Y-31271915D01*
X85836431Y-31261607D01*
X85805110Y-31244866D01*
X85777661Y-31222339D01*
X85755134Y-31194890D01*
X85738393Y-31163569D01*
X85728085Y-31129591D01*
X85724000Y-31088110D01*
X85724000Y-30411890D01*
X85728085Y-30370409D01*
X85738393Y-30336431D01*
X85755134Y-30305110D01*
X85777661Y-30277661D01*
X85805110Y-30255134D01*
X85836431Y-30238393D01*
X85870409Y-30228085D01*
X85911890Y-30224000D01*
X86513110Y-30224000D01*
X86554591Y-30228085D01*
X86554591Y-30228085D01*
G37*
G36*
X88129591Y-30228085D02*
G01*
X88163569Y-30238393D01*
X88194890Y-30255134D01*
X88222339Y-30277661D01*
X88244866Y-30305110D01*
X88261607Y-30336431D01*
X88271915Y-30370409D01*
X88276000Y-30411890D01*
X88276000Y-31088110D01*
X88271915Y-31129591D01*
X88261607Y-31163569D01*
X88244866Y-31194890D01*
X88222339Y-31222339D01*
X88194890Y-31244866D01*
X88163569Y-31261607D01*
X88129591Y-31271915D01*
X88088110Y-31276000D01*
X87486890Y-31276000D01*
X87445409Y-31271915D01*
X87411431Y-31261607D01*
X87380110Y-31244866D01*
X87352661Y-31222339D01*
X87330134Y-31194890D01*
X87313393Y-31163569D01*
X87303085Y-31129591D01*
X87299000Y-31088110D01*
X87299000Y-30411890D01*
X87303085Y-30370409D01*
X87313393Y-30336431D01*
X87330134Y-30305110D01*
X87352661Y-30277661D01*
X87380110Y-30255134D01*
X87411431Y-30238393D01*
X87445409Y-30228085D01*
X87486890Y-30224000D01*
X88088110Y-30224000D01*
X88129591Y-30228085D01*
X88129591Y-30228085D01*
G37*
G36*
X36879591Y-29303085D02*
G01*
X36913569Y-29313393D01*
X36944890Y-29330134D01*
X36972339Y-29352661D01*
X36994866Y-29380110D01*
X37011607Y-29411431D01*
X37021915Y-29445409D01*
X37026000Y-29486890D01*
X37026000Y-30088110D01*
X37021915Y-30129591D01*
X37011607Y-30163569D01*
X36994866Y-30194890D01*
X36972339Y-30222339D01*
X36944890Y-30244866D01*
X36913569Y-30261607D01*
X36879591Y-30271915D01*
X36838110Y-30276000D01*
X36161890Y-30276000D01*
X36120409Y-30271915D01*
X36086431Y-30261607D01*
X36055110Y-30244866D01*
X36027661Y-30222339D01*
X36005134Y-30194890D01*
X35988393Y-30163569D01*
X35978085Y-30129591D01*
X35974000Y-30088110D01*
X35974000Y-29486890D01*
X35978085Y-29445409D01*
X35988393Y-29411431D01*
X36005134Y-29380110D01*
X36027661Y-29352661D01*
X36055110Y-29330134D01*
X36086431Y-29313393D01*
X36120409Y-29303085D01*
X36161890Y-29299000D01*
X36838110Y-29299000D01*
X36879591Y-29303085D01*
X36879591Y-29303085D01*
G37*
G36*
X75379591Y-29228085D02*
G01*
X75413569Y-29238393D01*
X75444890Y-29255134D01*
X75472339Y-29277661D01*
X75494866Y-29305110D01*
X75511607Y-29336431D01*
X75521915Y-29370409D01*
X75526000Y-29411890D01*
X75526000Y-30013110D01*
X75521915Y-30054591D01*
X75511607Y-30088569D01*
X75494866Y-30119890D01*
X75472339Y-30147339D01*
X75444890Y-30169866D01*
X75413569Y-30186607D01*
X75379591Y-30196915D01*
X75338110Y-30201000D01*
X74661890Y-30201000D01*
X74620409Y-30196915D01*
X74586431Y-30186607D01*
X74555110Y-30169866D01*
X74527661Y-30147339D01*
X74505134Y-30119890D01*
X74488393Y-30088569D01*
X74478085Y-30054591D01*
X74474000Y-30013110D01*
X74474000Y-29411890D01*
X74478085Y-29370409D01*
X74488393Y-29336431D01*
X74505134Y-29305110D01*
X74527661Y-29277661D01*
X74555110Y-29255134D01*
X74586431Y-29238393D01*
X74620409Y-29228085D01*
X74661890Y-29224000D01*
X75338110Y-29224000D01*
X75379591Y-29228085D01*
X75379591Y-29228085D01*
G37*
G36*
X73629591Y-29228085D02*
G01*
X73663569Y-29238393D01*
X73694890Y-29255134D01*
X73722339Y-29277661D01*
X73744866Y-29305110D01*
X73761607Y-29336431D01*
X73771915Y-29370409D01*
X73776000Y-29411890D01*
X73776000Y-30013110D01*
X73771915Y-30054591D01*
X73761607Y-30088569D01*
X73744866Y-30119890D01*
X73722339Y-30147339D01*
X73694890Y-30169866D01*
X73663569Y-30186607D01*
X73629591Y-30196915D01*
X73588110Y-30201000D01*
X72911890Y-30201000D01*
X72870409Y-30196915D01*
X72836431Y-30186607D01*
X72805110Y-30169866D01*
X72777661Y-30147339D01*
X72755134Y-30119890D01*
X72738393Y-30088569D01*
X72728085Y-30054591D01*
X72724000Y-30013110D01*
X72724000Y-29411890D01*
X72728085Y-29370409D01*
X72738393Y-29336431D01*
X72755134Y-29305110D01*
X72777661Y-29277661D01*
X72805110Y-29255134D01*
X72836431Y-29238393D01*
X72870409Y-29228085D01*
X72911890Y-29224000D01*
X73588110Y-29224000D01*
X73629591Y-29228085D01*
X73629591Y-29228085D01*
G37*
G36*
X82951000Y-29576000D02*
G01*
X81749000Y-29576000D01*
X81749000Y-21924000D01*
X82951000Y-21924000D01*
X82951000Y-29576000D01*
X82951000Y-29576000D01*
G37*
G36*
X77251000Y-29576000D02*
G01*
X76049000Y-29576000D01*
X76049000Y-21924000D01*
X77251000Y-21924000D01*
X77251000Y-29576000D01*
X77251000Y-29576000D01*
G37*
G36*
X36879591Y-27728085D02*
G01*
X36913569Y-27738393D01*
X36944890Y-27755134D01*
X36972339Y-27777661D01*
X36994866Y-27805110D01*
X37011607Y-27836431D01*
X37021915Y-27870409D01*
X37026000Y-27911890D01*
X37026000Y-28513110D01*
X37021915Y-28554591D01*
X37011607Y-28588569D01*
X36994866Y-28619890D01*
X36972339Y-28647339D01*
X36944890Y-28669866D01*
X36913569Y-28686607D01*
X36879591Y-28696915D01*
X36838110Y-28701000D01*
X36161890Y-28701000D01*
X36120409Y-28696915D01*
X36086431Y-28686607D01*
X36055110Y-28669866D01*
X36027661Y-28647339D01*
X36005134Y-28619890D01*
X35988393Y-28588569D01*
X35978085Y-28554591D01*
X35974000Y-28513110D01*
X35974000Y-27911890D01*
X35978085Y-27870409D01*
X35988393Y-27836431D01*
X36005134Y-27805110D01*
X36027661Y-27777661D01*
X36055110Y-27755134D01*
X36086431Y-27738393D01*
X36120409Y-27728085D01*
X36161890Y-27724000D01*
X36838110Y-27724000D01*
X36879591Y-27728085D01*
X36879591Y-27728085D01*
G37*
G36*
X109908228Y-26681703D02*
G01*
X110063100Y-26745853D01*
X110202481Y-26838985D01*
X110321015Y-26957519D01*
X110414147Y-27096900D01*
X110478297Y-27251772D01*
X110511000Y-27416184D01*
X110511000Y-27583816D01*
X110478297Y-27748228D01*
X110414147Y-27903100D01*
X110321015Y-28042481D01*
X110202481Y-28161015D01*
X110063100Y-28254147D01*
X109908228Y-28318297D01*
X109743816Y-28351000D01*
X109576184Y-28351000D01*
X109411772Y-28318297D01*
X109256900Y-28254147D01*
X109117519Y-28161015D01*
X108998985Y-28042481D01*
X108905853Y-27903100D01*
X108841703Y-27748228D01*
X108809000Y-27583816D01*
X108809000Y-27416184D01*
X108841703Y-27251772D01*
X108905853Y-27096900D01*
X108998985Y-26957519D01*
X109117519Y-26838985D01*
X109256900Y-26745853D01*
X109411772Y-26681703D01*
X109576184Y-26649000D01*
X109743816Y-26649000D01*
X109908228Y-26681703D01*
X109908228Y-26681703D01*
G37*
G36*
X101351000Y-28351000D02*
G01*
X99649000Y-28351000D01*
X99649000Y-26649000D01*
X101351000Y-26649000D01*
X101351000Y-28351000D01*
X101351000Y-28351000D01*
G37*
G36*
X103038228Y-26681703D02*
G01*
X103193100Y-26745853D01*
X103332481Y-26838985D01*
X103451015Y-26957519D01*
X103544147Y-27096900D01*
X103608297Y-27251772D01*
X103641000Y-27416184D01*
X103641000Y-27583816D01*
X103608297Y-27748228D01*
X103544147Y-27903100D01*
X103451015Y-28042481D01*
X103332481Y-28161015D01*
X103193100Y-28254147D01*
X103038228Y-28318297D01*
X102873816Y-28351000D01*
X102706184Y-28351000D01*
X102541772Y-28318297D01*
X102386900Y-28254147D01*
X102247519Y-28161015D01*
X102128985Y-28042481D01*
X102035853Y-27903100D01*
X101971703Y-27748228D01*
X101939000Y-27583816D01*
X101939000Y-27416184D01*
X101971703Y-27251772D01*
X102035853Y-27096900D01*
X102128985Y-26957519D01*
X102247519Y-26838985D01*
X102386900Y-26745853D01*
X102541772Y-26681703D01*
X102706184Y-26649000D01*
X102873816Y-26649000D01*
X103038228Y-26681703D01*
X103038228Y-26681703D01*
G37*
G36*
X105328228Y-26681703D02*
G01*
X105483100Y-26745853D01*
X105622481Y-26838985D01*
X105741015Y-26957519D01*
X105834147Y-27096900D01*
X105898297Y-27251772D01*
X105931000Y-27416184D01*
X105931000Y-27583816D01*
X105898297Y-27748228D01*
X105834147Y-27903100D01*
X105741015Y-28042481D01*
X105622481Y-28161015D01*
X105483100Y-28254147D01*
X105328228Y-28318297D01*
X105163816Y-28351000D01*
X104996184Y-28351000D01*
X104831772Y-28318297D01*
X104676900Y-28254147D01*
X104537519Y-28161015D01*
X104418985Y-28042481D01*
X104325853Y-27903100D01*
X104261703Y-27748228D01*
X104229000Y-27583816D01*
X104229000Y-27416184D01*
X104261703Y-27251772D01*
X104325853Y-27096900D01*
X104418985Y-26957519D01*
X104537519Y-26838985D01*
X104676900Y-26745853D01*
X104831772Y-26681703D01*
X104996184Y-26649000D01*
X105163816Y-26649000D01*
X105328228Y-26681703D01*
X105328228Y-26681703D01*
G37*
G36*
X107618228Y-26681703D02*
G01*
X107773100Y-26745853D01*
X107912481Y-26838985D01*
X108031015Y-26957519D01*
X108124147Y-27096900D01*
X108188297Y-27251772D01*
X108221000Y-27416184D01*
X108221000Y-27583816D01*
X108188297Y-27748228D01*
X108124147Y-27903100D01*
X108031015Y-28042481D01*
X107912481Y-28161015D01*
X107773100Y-28254147D01*
X107618228Y-28318297D01*
X107453816Y-28351000D01*
X107286184Y-28351000D01*
X107121772Y-28318297D01*
X106966900Y-28254147D01*
X106827519Y-28161015D01*
X106708985Y-28042481D01*
X106615853Y-27903100D01*
X106551703Y-27748228D01*
X106519000Y-27583816D01*
X106519000Y-27416184D01*
X106551703Y-27251772D01*
X106615853Y-27096900D01*
X106708985Y-26957519D01*
X106827519Y-26838985D01*
X106966900Y-26745853D01*
X107121772Y-26681703D01*
X107286184Y-26649000D01*
X107453816Y-26649000D01*
X107618228Y-26681703D01*
X107618228Y-26681703D01*
G37*
G36*
X31554591Y-26728085D02*
G01*
X31588569Y-26738393D01*
X31619890Y-26755134D01*
X31647339Y-26777661D01*
X31669866Y-26805110D01*
X31686607Y-26836431D01*
X31696915Y-26870409D01*
X31701000Y-26911890D01*
X31701000Y-27588110D01*
X31696915Y-27629591D01*
X31686607Y-27663569D01*
X31669866Y-27694890D01*
X31647339Y-27722339D01*
X31619890Y-27744866D01*
X31588569Y-27761607D01*
X31554591Y-27771915D01*
X31513110Y-27776000D01*
X30911890Y-27776000D01*
X30870409Y-27771915D01*
X30836431Y-27761607D01*
X30805110Y-27744866D01*
X30777661Y-27722339D01*
X30755134Y-27694890D01*
X30738393Y-27663569D01*
X30728085Y-27629591D01*
X30724000Y-27588110D01*
X30724000Y-26911890D01*
X30728085Y-26870409D01*
X30738393Y-26836431D01*
X30755134Y-26805110D01*
X30777661Y-26777661D01*
X30805110Y-26755134D01*
X30836431Y-26738393D01*
X30870409Y-26728085D01*
X30911890Y-26724000D01*
X31513110Y-26724000D01*
X31554591Y-26728085D01*
X31554591Y-26728085D01*
G37*
G36*
X33129591Y-26728085D02*
G01*
X33163569Y-26738393D01*
X33194890Y-26755134D01*
X33222339Y-26777661D01*
X33244866Y-26805110D01*
X33261607Y-26836431D01*
X33271915Y-26870409D01*
X33276000Y-26911890D01*
X33276000Y-27588110D01*
X33271915Y-27629591D01*
X33261607Y-27663569D01*
X33244866Y-27694890D01*
X33222339Y-27722339D01*
X33194890Y-27744866D01*
X33163569Y-27761607D01*
X33129591Y-27771915D01*
X33088110Y-27776000D01*
X32486890Y-27776000D01*
X32445409Y-27771915D01*
X32411431Y-27761607D01*
X32380110Y-27744866D01*
X32352661Y-27722339D01*
X32330134Y-27694890D01*
X32313393Y-27663569D01*
X32303085Y-27629591D01*
X32299000Y-27588110D01*
X32299000Y-26911890D01*
X32303085Y-26870409D01*
X32313393Y-26836431D01*
X32330134Y-26805110D01*
X32352661Y-26777661D01*
X32380110Y-26755134D01*
X32411431Y-26738393D01*
X32445409Y-26728085D01*
X32486890Y-26724000D01*
X33088110Y-26724000D01*
X33129591Y-26728085D01*
X33129591Y-26728085D01*
G37*
G36*
X92913254Y-23477818D02*
G01*
X93286511Y-23632426D01*
X93286513Y-23632427D01*
X93519685Y-23788228D01*
X93622436Y-23856884D01*
X93908116Y-24142564D01*
X94132574Y-24478489D01*
X94287182Y-24851746D01*
X94366000Y-25247993D01*
X94366000Y-25652007D01*
X94287182Y-26048254D01*
X94172136Y-26326000D01*
X94132573Y-26421513D01*
X93908116Y-26757436D01*
X93622436Y-27043116D01*
X93286513Y-27267573D01*
X93286512Y-27267574D01*
X93286511Y-27267574D01*
X92913254Y-27422182D01*
X92517007Y-27501000D01*
X92112993Y-27501000D01*
X91716746Y-27422182D01*
X91343489Y-27267574D01*
X91343488Y-27267574D01*
X91343487Y-27267573D01*
X91007564Y-27043116D01*
X90721884Y-26757436D01*
X90497427Y-26421513D01*
X90457864Y-26326000D01*
X90342818Y-26048254D01*
X90264000Y-25652007D01*
X90264000Y-25247993D01*
X90342818Y-24851746D01*
X90497426Y-24478489D01*
X90721884Y-24142564D01*
X91007564Y-23856884D01*
X91110315Y-23788228D01*
X91343487Y-23632427D01*
X91343489Y-23632426D01*
X91716746Y-23477818D01*
X92112993Y-23399000D01*
X92517007Y-23399000D01*
X92913254Y-23477818D01*
X92913254Y-23477818D01*
G37*
G36*
X117913254Y-23477818D02*
G01*
X118286511Y-23632426D01*
X118286513Y-23632427D01*
X118519685Y-23788228D01*
X118622436Y-23856884D01*
X118908116Y-24142564D01*
X119132574Y-24478489D01*
X119287182Y-24851746D01*
X119366000Y-25247993D01*
X119366000Y-25652007D01*
X119287182Y-26048254D01*
X119172136Y-26326000D01*
X119132573Y-26421513D01*
X118908116Y-26757436D01*
X118622436Y-27043116D01*
X118286513Y-27267573D01*
X118286512Y-27267574D01*
X118286511Y-27267574D01*
X117913254Y-27422182D01*
X117517007Y-27501000D01*
X117112993Y-27501000D01*
X116716746Y-27422182D01*
X116343489Y-27267574D01*
X116343488Y-27267574D01*
X116343487Y-27267573D01*
X116007564Y-27043116D01*
X115721884Y-26757436D01*
X115497427Y-26421513D01*
X115457864Y-26326000D01*
X115342818Y-26048254D01*
X115264000Y-25652007D01*
X115264000Y-25247993D01*
X115342818Y-24851746D01*
X115497426Y-24478489D01*
X115721884Y-24142564D01*
X116007564Y-23856884D01*
X116110315Y-23788228D01*
X116343487Y-23632427D01*
X116343489Y-23632426D01*
X116716746Y-23477818D01*
X117112993Y-23399000D01*
X117517007Y-23399000D01*
X117913254Y-23477818D01*
X117913254Y-23477818D01*
G37*
G36*
X104183228Y-24701703D02*
G01*
X104338100Y-24765853D01*
X104477481Y-24858985D01*
X104596015Y-24977519D01*
X104689147Y-25116900D01*
X104753297Y-25271772D01*
X104786000Y-25436184D01*
X104786000Y-25603816D01*
X104753297Y-25768228D01*
X104689147Y-25923100D01*
X104596015Y-26062481D01*
X104477481Y-26181015D01*
X104338100Y-26274147D01*
X104183228Y-26338297D01*
X104018816Y-26371000D01*
X103851184Y-26371000D01*
X103686772Y-26338297D01*
X103531900Y-26274147D01*
X103392519Y-26181015D01*
X103273985Y-26062481D01*
X103180853Y-25923100D01*
X103116703Y-25768228D01*
X103084000Y-25603816D01*
X103084000Y-25436184D01*
X103116703Y-25271772D01*
X103180853Y-25116900D01*
X103273985Y-24977519D01*
X103392519Y-24858985D01*
X103531900Y-24765853D01*
X103686772Y-24701703D01*
X103851184Y-24669000D01*
X104018816Y-24669000D01*
X104183228Y-24701703D01*
X104183228Y-24701703D01*
G37*
G36*
X101893228Y-24701703D02*
G01*
X102048100Y-24765853D01*
X102187481Y-24858985D01*
X102306015Y-24977519D01*
X102399147Y-25116900D01*
X102463297Y-25271772D01*
X102496000Y-25436184D01*
X102496000Y-25603816D01*
X102463297Y-25768228D01*
X102399147Y-25923100D01*
X102306015Y-26062481D01*
X102187481Y-26181015D01*
X102048100Y-26274147D01*
X101893228Y-26338297D01*
X101728816Y-26371000D01*
X101561184Y-26371000D01*
X101396772Y-26338297D01*
X101241900Y-26274147D01*
X101102519Y-26181015D01*
X100983985Y-26062481D01*
X100890853Y-25923100D01*
X100826703Y-25768228D01*
X100794000Y-25603816D01*
X100794000Y-25436184D01*
X100826703Y-25271772D01*
X100890853Y-25116900D01*
X100983985Y-24977519D01*
X101102519Y-24858985D01*
X101241900Y-24765853D01*
X101396772Y-24701703D01*
X101561184Y-24669000D01*
X101728816Y-24669000D01*
X101893228Y-24701703D01*
X101893228Y-24701703D01*
G37*
G36*
X106473228Y-24701703D02*
G01*
X106628100Y-24765853D01*
X106767481Y-24858985D01*
X106886015Y-24977519D01*
X106979147Y-25116900D01*
X107043297Y-25271772D01*
X107076000Y-25436184D01*
X107076000Y-25603816D01*
X107043297Y-25768228D01*
X106979147Y-25923100D01*
X106886015Y-26062481D01*
X106767481Y-26181015D01*
X106628100Y-26274147D01*
X106473228Y-26338297D01*
X106308816Y-26371000D01*
X106141184Y-26371000D01*
X105976772Y-26338297D01*
X105821900Y-26274147D01*
X105682519Y-26181015D01*
X105563985Y-26062481D01*
X105470853Y-25923100D01*
X105406703Y-25768228D01*
X105374000Y-25603816D01*
X105374000Y-25436184D01*
X105406703Y-25271772D01*
X105470853Y-25116900D01*
X105563985Y-24977519D01*
X105682519Y-24858985D01*
X105821900Y-24765853D01*
X105976772Y-24701703D01*
X106141184Y-24669000D01*
X106308816Y-24669000D01*
X106473228Y-24701703D01*
X106473228Y-24701703D01*
G37*
G36*
X99603228Y-24701703D02*
G01*
X99758100Y-24765853D01*
X99897481Y-24858985D01*
X100016015Y-24977519D01*
X100109147Y-25116900D01*
X100173297Y-25271772D01*
X100206000Y-25436184D01*
X100206000Y-25603816D01*
X100173297Y-25768228D01*
X100109147Y-25923100D01*
X100016015Y-26062481D01*
X99897481Y-26181015D01*
X99758100Y-26274147D01*
X99603228Y-26338297D01*
X99438816Y-26371000D01*
X99271184Y-26371000D01*
X99106772Y-26338297D01*
X98951900Y-26274147D01*
X98812519Y-26181015D01*
X98693985Y-26062481D01*
X98600853Y-25923100D01*
X98536703Y-25768228D01*
X98504000Y-25603816D01*
X98504000Y-25436184D01*
X98536703Y-25271772D01*
X98600853Y-25116900D01*
X98693985Y-24977519D01*
X98812519Y-24858985D01*
X98951900Y-24765853D01*
X99106772Y-24701703D01*
X99271184Y-24669000D01*
X99438816Y-24669000D01*
X99603228Y-24701703D01*
X99603228Y-24701703D01*
G37*
G36*
X108763228Y-24701703D02*
G01*
X108918100Y-24765853D01*
X109057481Y-24858985D01*
X109176015Y-24977519D01*
X109269147Y-25116900D01*
X109333297Y-25271772D01*
X109366000Y-25436184D01*
X109366000Y-25603816D01*
X109333297Y-25768228D01*
X109269147Y-25923100D01*
X109176015Y-26062481D01*
X109057481Y-26181015D01*
X108918100Y-26274147D01*
X108763228Y-26338297D01*
X108598816Y-26371000D01*
X108431184Y-26371000D01*
X108266772Y-26338297D01*
X108111900Y-26274147D01*
X107972519Y-26181015D01*
X107853985Y-26062481D01*
X107760853Y-25923100D01*
X107696703Y-25768228D01*
X107664000Y-25603816D01*
X107664000Y-25436184D01*
X107696703Y-25271772D01*
X107760853Y-25116900D01*
X107853985Y-24977519D01*
X107972519Y-24858985D01*
X108111900Y-24765853D01*
X108266772Y-24701703D01*
X108431184Y-24669000D01*
X108598816Y-24669000D01*
X108763228Y-24701703D01*
X108763228Y-24701703D01*
G37*
G36*
X36818431Y-24859805D02*
G01*
X36852409Y-24870113D01*
X36883730Y-24886854D01*
X36911179Y-24909381D01*
X36933706Y-24936830D01*
X36950447Y-24968151D01*
X36960755Y-25002129D01*
X36964840Y-25043610D01*
X36964840Y-25644830D01*
X36960755Y-25686311D01*
X36950447Y-25720289D01*
X36933706Y-25751610D01*
X36911179Y-25779059D01*
X36883730Y-25801586D01*
X36852409Y-25818327D01*
X36818431Y-25828635D01*
X36776950Y-25832720D01*
X36100730Y-25832720D01*
X36059249Y-25828635D01*
X36025271Y-25818327D01*
X35993950Y-25801586D01*
X35966501Y-25779059D01*
X35943974Y-25751610D01*
X35927233Y-25720289D01*
X35916925Y-25686311D01*
X35912840Y-25644830D01*
X35912840Y-25043610D01*
X35916925Y-25002129D01*
X35927233Y-24968151D01*
X35943974Y-24936830D01*
X35966501Y-24909381D01*
X35993950Y-24886854D01*
X36025271Y-24870113D01*
X36059249Y-24859805D01*
X36100730Y-24855720D01*
X36776950Y-24855720D01*
X36818431Y-24859805D01*
X36818431Y-24859805D01*
G37*
G36*
X23894098Y-20797033D02*
G01*
X24192413Y-20920599D01*
X24358352Y-20989333D01*
X24776168Y-21268509D01*
X25131491Y-21623832D01*
X25386269Y-22005134D01*
X25410668Y-22041650D01*
X25602967Y-22505902D01*
X25701000Y-22998747D01*
X25701000Y-23501253D01*
X25602967Y-23994098D01*
X25452112Y-24358295D01*
X25410667Y-24458352D01*
X25131491Y-24876168D01*
X24776168Y-25231491D01*
X24358352Y-25510667D01*
X24358351Y-25510668D01*
X24358350Y-25510668D01*
X23894098Y-25702967D01*
X23401253Y-25801000D01*
X22898747Y-25801000D01*
X22405902Y-25702967D01*
X21941650Y-25510668D01*
X21941649Y-25510668D01*
X21941648Y-25510667D01*
X21523832Y-25231491D01*
X21168509Y-24876168D01*
X20889333Y-24458352D01*
X20847888Y-24358295D01*
X20697033Y-23994098D01*
X20599000Y-23501253D01*
X20599000Y-22998747D01*
X20697033Y-22505902D01*
X20889332Y-22041650D01*
X20913731Y-22005134D01*
X21168509Y-21623832D01*
X21523832Y-21268509D01*
X21941648Y-20989333D01*
X22107587Y-20920599D01*
X22405902Y-20797033D01*
X22898747Y-20699000D01*
X23401253Y-20699000D01*
X23894098Y-20797033D01*
X23894098Y-20797033D01*
G37*
G36*
X109908228Y-22721703D02*
G01*
X110063100Y-22785853D01*
X110202481Y-22878985D01*
X110321015Y-22997519D01*
X110414147Y-23136900D01*
X110478297Y-23291772D01*
X110511000Y-23456184D01*
X110511000Y-23623816D01*
X110478297Y-23788228D01*
X110414147Y-23943100D01*
X110321015Y-24082481D01*
X110202481Y-24201015D01*
X110063100Y-24294147D01*
X109908228Y-24358297D01*
X109743816Y-24391000D01*
X109576184Y-24391000D01*
X109411772Y-24358297D01*
X109256900Y-24294147D01*
X109117519Y-24201015D01*
X108998985Y-24082481D01*
X108905853Y-23943100D01*
X108841703Y-23788228D01*
X108809000Y-23623816D01*
X108809000Y-23456184D01*
X108841703Y-23291772D01*
X108905853Y-23136900D01*
X108998985Y-22997519D01*
X109117519Y-22878985D01*
X109256900Y-22785853D01*
X109411772Y-22721703D01*
X109576184Y-22689000D01*
X109743816Y-22689000D01*
X109908228Y-22721703D01*
X109908228Y-22721703D01*
G37*
G36*
X100748228Y-22721703D02*
G01*
X100903100Y-22785853D01*
X101042481Y-22878985D01*
X101161015Y-22997519D01*
X101254147Y-23136900D01*
X101318297Y-23291772D01*
X101351000Y-23456184D01*
X101351000Y-23623816D01*
X101318297Y-23788228D01*
X101254147Y-23943100D01*
X101161015Y-24082481D01*
X101042481Y-24201015D01*
X100903100Y-24294147D01*
X100748228Y-24358297D01*
X100583816Y-24391000D01*
X100416184Y-24391000D01*
X100251772Y-24358297D01*
X100096900Y-24294147D01*
X99957519Y-24201015D01*
X99838985Y-24082481D01*
X99745853Y-23943100D01*
X99681703Y-23788228D01*
X99649000Y-23623816D01*
X99649000Y-23456184D01*
X99681703Y-23291772D01*
X99745853Y-23136900D01*
X99838985Y-22997519D01*
X99957519Y-22878985D01*
X100096900Y-22785853D01*
X100251772Y-22721703D01*
X100416184Y-22689000D01*
X100583816Y-22689000D01*
X100748228Y-22721703D01*
X100748228Y-22721703D01*
G37*
G36*
X103038228Y-22721703D02*
G01*
X103193100Y-22785853D01*
X103332481Y-22878985D01*
X103451015Y-22997519D01*
X103544147Y-23136900D01*
X103608297Y-23291772D01*
X103641000Y-23456184D01*
X103641000Y-23623816D01*
X103608297Y-23788228D01*
X103544147Y-23943100D01*
X103451015Y-24082481D01*
X103332481Y-24201015D01*
X103193100Y-24294147D01*
X103038228Y-24358297D01*
X102873816Y-24391000D01*
X102706184Y-24391000D01*
X102541772Y-24358297D01*
X102386900Y-24294147D01*
X102247519Y-24201015D01*
X102128985Y-24082481D01*
X102035853Y-23943100D01*
X101971703Y-23788228D01*
X101939000Y-23623816D01*
X101939000Y-23456184D01*
X101971703Y-23291772D01*
X102035853Y-23136900D01*
X102128985Y-22997519D01*
X102247519Y-22878985D01*
X102386900Y-22785853D01*
X102541772Y-22721703D01*
X102706184Y-22689000D01*
X102873816Y-22689000D01*
X103038228Y-22721703D01*
X103038228Y-22721703D01*
G37*
G36*
X105328228Y-22721703D02*
G01*
X105483100Y-22785853D01*
X105622481Y-22878985D01*
X105741015Y-22997519D01*
X105834147Y-23136900D01*
X105898297Y-23291772D01*
X105931000Y-23456184D01*
X105931000Y-23623816D01*
X105898297Y-23788228D01*
X105834147Y-23943100D01*
X105741015Y-24082481D01*
X105622481Y-24201015D01*
X105483100Y-24294147D01*
X105328228Y-24358297D01*
X105163816Y-24391000D01*
X104996184Y-24391000D01*
X104831772Y-24358297D01*
X104676900Y-24294147D01*
X104537519Y-24201015D01*
X104418985Y-24082481D01*
X104325853Y-23943100D01*
X104261703Y-23788228D01*
X104229000Y-23623816D01*
X104229000Y-23456184D01*
X104261703Y-23291772D01*
X104325853Y-23136900D01*
X104418985Y-22997519D01*
X104537519Y-22878985D01*
X104676900Y-22785853D01*
X104831772Y-22721703D01*
X104996184Y-22689000D01*
X105163816Y-22689000D01*
X105328228Y-22721703D01*
X105328228Y-22721703D01*
G37*
G36*
X107618228Y-22721703D02*
G01*
X107773100Y-22785853D01*
X107912481Y-22878985D01*
X108031015Y-22997519D01*
X108124147Y-23136900D01*
X108188297Y-23291772D01*
X108221000Y-23456184D01*
X108221000Y-23623816D01*
X108188297Y-23788228D01*
X108124147Y-23943100D01*
X108031015Y-24082481D01*
X107912481Y-24201015D01*
X107773100Y-24294147D01*
X107618228Y-24358297D01*
X107453816Y-24391000D01*
X107286184Y-24391000D01*
X107121772Y-24358297D01*
X106966900Y-24294147D01*
X106827519Y-24201015D01*
X106708985Y-24082481D01*
X106615853Y-23943100D01*
X106551703Y-23788228D01*
X106519000Y-23623816D01*
X106519000Y-23456184D01*
X106551703Y-23291772D01*
X106615853Y-23136900D01*
X106708985Y-22997519D01*
X106827519Y-22878985D01*
X106966900Y-22785853D01*
X107121772Y-22721703D01*
X107286184Y-22689000D01*
X107453816Y-22689000D01*
X107618228Y-22721703D01*
X107618228Y-22721703D01*
G37*
G36*
X36818431Y-23284805D02*
G01*
X36852409Y-23295113D01*
X36883730Y-23311854D01*
X36911179Y-23334381D01*
X36933706Y-23361830D01*
X36950447Y-23393151D01*
X36960755Y-23427129D01*
X36964840Y-23468610D01*
X36964840Y-24069830D01*
X36960755Y-24111311D01*
X36950447Y-24145289D01*
X36933706Y-24176610D01*
X36911179Y-24204059D01*
X36883730Y-24226586D01*
X36852409Y-24243327D01*
X36818431Y-24253635D01*
X36776950Y-24257720D01*
X36100730Y-24257720D01*
X36059249Y-24253635D01*
X36025271Y-24243327D01*
X35993950Y-24226586D01*
X35966501Y-24204059D01*
X35943974Y-24176610D01*
X35927233Y-24145289D01*
X35916925Y-24111311D01*
X35912840Y-24069830D01*
X35912840Y-23468610D01*
X35916925Y-23427129D01*
X35927233Y-23393151D01*
X35943974Y-23361830D01*
X35966501Y-23334381D01*
X35993950Y-23311854D01*
X36025271Y-23295113D01*
X36059249Y-23284805D01*
X36100730Y-23280720D01*
X36776950Y-23280720D01*
X36818431Y-23284805D01*
X36818431Y-23284805D01*
G37*
G36*
X75129591Y-22303085D02*
G01*
X75163569Y-22313393D01*
X75194890Y-22330134D01*
X75222339Y-22352661D01*
X75244866Y-22380110D01*
X75261607Y-22411431D01*
X75271915Y-22445409D01*
X75276000Y-22486890D01*
X75276000Y-23088110D01*
X75271915Y-23129591D01*
X75261607Y-23163569D01*
X75244866Y-23194890D01*
X75222339Y-23222339D01*
X75194890Y-23244866D01*
X75163569Y-23261607D01*
X75129591Y-23271915D01*
X75088110Y-23276000D01*
X74411890Y-23276000D01*
X74370409Y-23271915D01*
X74336431Y-23261607D01*
X74305110Y-23244866D01*
X74277661Y-23222339D01*
X74255134Y-23194890D01*
X74238393Y-23163569D01*
X74228085Y-23129591D01*
X74224000Y-23088110D01*
X74224000Y-22486890D01*
X74228085Y-22445409D01*
X74238393Y-22411431D01*
X74255134Y-22380110D01*
X74277661Y-22352661D01*
X74305110Y-22330134D01*
X74336431Y-22313393D01*
X74370409Y-22303085D01*
X74411890Y-22299000D01*
X75088110Y-22299000D01*
X75129591Y-22303085D01*
X75129591Y-22303085D01*
G37*
G36*
X73379591Y-22303085D02*
G01*
X73413569Y-22313393D01*
X73444890Y-22330134D01*
X73472339Y-22352661D01*
X73494866Y-22380110D01*
X73511607Y-22411431D01*
X73521915Y-22445409D01*
X73526000Y-22486890D01*
X73526000Y-23088110D01*
X73521915Y-23129591D01*
X73511607Y-23163569D01*
X73494866Y-23194890D01*
X73472339Y-23222339D01*
X73444890Y-23244866D01*
X73413569Y-23261607D01*
X73379591Y-23271915D01*
X73338110Y-23276000D01*
X72661890Y-23276000D01*
X72620409Y-23271915D01*
X72586431Y-23261607D01*
X72555110Y-23244866D01*
X72527661Y-23222339D01*
X72505134Y-23194890D01*
X72488393Y-23163569D01*
X72478085Y-23129591D01*
X72474000Y-23088110D01*
X72474000Y-22486890D01*
X72478085Y-22445409D01*
X72488393Y-22411431D01*
X72505134Y-22380110D01*
X72527661Y-22352661D01*
X72555110Y-22330134D01*
X72586431Y-22313393D01*
X72620409Y-22303085D01*
X72661890Y-22299000D01*
X73338110Y-22299000D01*
X73379591Y-22303085D01*
X73379591Y-22303085D01*
G37*
G36*
X60879591Y-22303085D02*
G01*
X60913569Y-22313393D01*
X60944890Y-22330134D01*
X60972339Y-22352661D01*
X60994866Y-22380110D01*
X61011607Y-22411431D01*
X61021915Y-22445409D01*
X61026000Y-22486890D01*
X61026000Y-23088110D01*
X61021915Y-23129591D01*
X61011607Y-23163569D01*
X60994866Y-23194890D01*
X60972339Y-23222339D01*
X60944890Y-23244866D01*
X60913569Y-23261607D01*
X60879591Y-23271915D01*
X60838110Y-23276000D01*
X60161890Y-23276000D01*
X60120409Y-23271915D01*
X60086431Y-23261607D01*
X60055110Y-23244866D01*
X60027661Y-23222339D01*
X60005134Y-23194890D01*
X59988393Y-23163569D01*
X59978085Y-23129591D01*
X59974000Y-23088110D01*
X59974000Y-22486890D01*
X59978085Y-22445409D01*
X59988393Y-22411431D01*
X60005134Y-22380110D01*
X60027661Y-22352661D01*
X60055110Y-22330134D01*
X60086431Y-22313393D01*
X60120409Y-22303085D01*
X60161890Y-22299000D01*
X60838110Y-22299000D01*
X60879591Y-22303085D01*
X60879591Y-22303085D01*
G37*
G36*
X31554591Y-21978085D02*
G01*
X31588569Y-21988393D01*
X31619890Y-22005134D01*
X31647339Y-22027661D01*
X31669866Y-22055110D01*
X31686607Y-22086431D01*
X31696915Y-22120409D01*
X31701000Y-22161890D01*
X31701000Y-22838110D01*
X31696915Y-22879591D01*
X31686607Y-22913569D01*
X31669866Y-22944890D01*
X31647339Y-22972339D01*
X31619890Y-22994866D01*
X31588569Y-23011607D01*
X31554591Y-23021915D01*
X31513110Y-23026000D01*
X30911890Y-23026000D01*
X30870409Y-23021915D01*
X30836431Y-23011607D01*
X30805110Y-22994866D01*
X30777661Y-22972339D01*
X30755134Y-22944890D01*
X30738393Y-22913569D01*
X30728085Y-22879591D01*
X30724000Y-22838110D01*
X30724000Y-22161890D01*
X30728085Y-22120409D01*
X30738393Y-22086431D01*
X30755134Y-22055110D01*
X30777661Y-22027661D01*
X30805110Y-22005134D01*
X30836431Y-21988393D01*
X30870409Y-21978085D01*
X30911890Y-21974000D01*
X31513110Y-21974000D01*
X31554591Y-21978085D01*
X31554591Y-21978085D01*
G37*
G36*
X33129591Y-21978085D02*
G01*
X33163569Y-21988393D01*
X33194890Y-22005134D01*
X33222339Y-22027661D01*
X33244866Y-22055110D01*
X33261607Y-22086431D01*
X33271915Y-22120409D01*
X33276000Y-22161890D01*
X33276000Y-22838110D01*
X33271915Y-22879591D01*
X33261607Y-22913569D01*
X33244866Y-22944890D01*
X33222339Y-22972339D01*
X33194890Y-22994866D01*
X33163569Y-23011607D01*
X33129591Y-23021915D01*
X33088110Y-23026000D01*
X32486890Y-23026000D01*
X32445409Y-23021915D01*
X32411431Y-23011607D01*
X32380110Y-22994866D01*
X32352661Y-22972339D01*
X32330134Y-22944890D01*
X32313393Y-22913569D01*
X32303085Y-22879591D01*
X32299000Y-22838110D01*
X32299000Y-22161890D01*
X32303085Y-22120409D01*
X32313393Y-22086431D01*
X32330134Y-22055110D01*
X32352661Y-22027661D01*
X32380110Y-22005134D01*
X32411431Y-21988393D01*
X32445409Y-21978085D01*
X32486890Y-21974000D01*
X33088110Y-21974000D01*
X33129591Y-21978085D01*
X33129591Y-21978085D01*
G37*
G36*
X86554591Y-21478085D02*
G01*
X86588569Y-21488393D01*
X86619890Y-21505134D01*
X86647339Y-21527661D01*
X86669866Y-21555110D01*
X86686607Y-21586431D01*
X86696915Y-21620409D01*
X86701000Y-21661890D01*
X86701000Y-22338110D01*
X86696915Y-22379591D01*
X86686607Y-22413569D01*
X86669866Y-22444890D01*
X86647339Y-22472339D01*
X86619890Y-22494866D01*
X86588569Y-22511607D01*
X86554591Y-22521915D01*
X86513110Y-22526000D01*
X85911890Y-22526000D01*
X85870409Y-22521915D01*
X85836431Y-22511607D01*
X85805110Y-22494866D01*
X85777661Y-22472339D01*
X85755134Y-22444890D01*
X85738393Y-22413569D01*
X85728085Y-22379591D01*
X85724000Y-22338110D01*
X85724000Y-21661890D01*
X85728085Y-21620409D01*
X85738393Y-21586431D01*
X85755134Y-21555110D01*
X85777661Y-21527661D01*
X85805110Y-21505134D01*
X85836431Y-21488393D01*
X85870409Y-21478085D01*
X85911890Y-21474000D01*
X86513110Y-21474000D01*
X86554591Y-21478085D01*
X86554591Y-21478085D01*
G37*
G36*
X88129591Y-21478085D02*
G01*
X88163569Y-21488393D01*
X88194890Y-21505134D01*
X88222339Y-21527661D01*
X88244866Y-21555110D01*
X88261607Y-21586431D01*
X88271915Y-21620409D01*
X88276000Y-21661890D01*
X88276000Y-22338110D01*
X88271915Y-22379591D01*
X88261607Y-22413569D01*
X88244866Y-22444890D01*
X88222339Y-22472339D01*
X88194890Y-22494866D01*
X88163569Y-22511607D01*
X88129591Y-22521915D01*
X88088110Y-22526000D01*
X87486890Y-22526000D01*
X87445409Y-22521915D01*
X87411431Y-22511607D01*
X87380110Y-22494866D01*
X87352661Y-22472339D01*
X87330134Y-22444890D01*
X87313393Y-22413569D01*
X87303085Y-22379591D01*
X87299000Y-22338110D01*
X87299000Y-21661890D01*
X87303085Y-21620409D01*
X87313393Y-21586431D01*
X87330134Y-21555110D01*
X87352661Y-21527661D01*
X87380110Y-21505134D01*
X87411431Y-21488393D01*
X87445409Y-21478085D01*
X87486890Y-21474000D01*
X88088110Y-21474000D01*
X88129591Y-21478085D01*
X88129591Y-21478085D01*
G37*
G36*
X75129591Y-20728085D02*
G01*
X75163569Y-20738393D01*
X75194890Y-20755134D01*
X75222339Y-20777661D01*
X75244866Y-20805110D01*
X75261607Y-20836431D01*
X75271915Y-20870409D01*
X75276000Y-20911890D01*
X75276000Y-21513110D01*
X75271915Y-21554591D01*
X75261607Y-21588569D01*
X75244866Y-21619890D01*
X75222339Y-21647339D01*
X75194890Y-21669866D01*
X75163569Y-21686607D01*
X75129591Y-21696915D01*
X75088110Y-21701000D01*
X74411890Y-21701000D01*
X74370409Y-21696915D01*
X74336431Y-21686607D01*
X74305110Y-21669866D01*
X74277661Y-21647339D01*
X74255134Y-21619890D01*
X74238393Y-21588569D01*
X74228085Y-21554591D01*
X74224000Y-21513110D01*
X74224000Y-20911890D01*
X74228085Y-20870409D01*
X74238393Y-20836431D01*
X74255134Y-20805110D01*
X74277661Y-20777661D01*
X74305110Y-20755134D01*
X74336431Y-20738393D01*
X74370409Y-20728085D01*
X74411890Y-20724000D01*
X75088110Y-20724000D01*
X75129591Y-20728085D01*
X75129591Y-20728085D01*
G37*
G36*
X73379591Y-20728085D02*
G01*
X73413569Y-20738393D01*
X73444890Y-20755134D01*
X73472339Y-20777661D01*
X73494866Y-20805110D01*
X73511607Y-20836431D01*
X73521915Y-20870409D01*
X73526000Y-20911890D01*
X73526000Y-21513110D01*
X73521915Y-21554591D01*
X73511607Y-21588569D01*
X73494866Y-21619890D01*
X73472339Y-21647339D01*
X73444890Y-21669866D01*
X73413569Y-21686607D01*
X73379591Y-21696915D01*
X73338110Y-21701000D01*
X72661890Y-21701000D01*
X72620409Y-21696915D01*
X72586431Y-21686607D01*
X72555110Y-21669866D01*
X72527661Y-21647339D01*
X72505134Y-21619890D01*
X72488393Y-21588569D01*
X72478085Y-21554591D01*
X72474000Y-21513110D01*
X72474000Y-20911890D01*
X72478085Y-20870409D01*
X72488393Y-20836431D01*
X72505134Y-20805110D01*
X72527661Y-20777661D01*
X72555110Y-20755134D01*
X72586431Y-20738393D01*
X72620409Y-20728085D01*
X72661890Y-20724000D01*
X73338110Y-20724000D01*
X73379591Y-20728085D01*
X73379591Y-20728085D01*
G37*
G36*
X60879591Y-20728085D02*
G01*
X60913569Y-20738393D01*
X60944890Y-20755134D01*
X60972339Y-20777661D01*
X60994866Y-20805110D01*
X61011607Y-20836431D01*
X61021915Y-20870409D01*
X61026000Y-20911890D01*
X61026000Y-21513110D01*
X61021915Y-21554591D01*
X61011607Y-21588569D01*
X60994866Y-21619890D01*
X60972339Y-21647339D01*
X60944890Y-21669866D01*
X60913569Y-21686607D01*
X60879591Y-21696915D01*
X60838110Y-21701000D01*
X60161890Y-21701000D01*
X60120409Y-21696915D01*
X60086431Y-21686607D01*
X60055110Y-21669866D01*
X60027661Y-21647339D01*
X60005134Y-21619890D01*
X59988393Y-21588569D01*
X59978085Y-21554591D01*
X59974000Y-21513110D01*
X59974000Y-20911890D01*
X59978085Y-20870409D01*
X59988393Y-20836431D01*
X60005134Y-20805110D01*
X60027661Y-20777661D01*
X60055110Y-20755134D01*
X60086431Y-20738393D01*
X60120409Y-20728085D01*
X60161890Y-20724000D01*
X60838110Y-20724000D01*
X60879591Y-20728085D01*
X60879591Y-20728085D01*
G37*
M02*
