G04 #@! TF.GenerationSoftware,KiCad,Pcbnew,(5.1.2)-1*
G04 #@! TF.CreationDate,2019-05-19T18:00:29-05:00*
G04 #@! TF.ProjectId,m68k,6d36386b-2e6b-4696-9361-645f70636258,rev?*
G04 #@! TF.SameCoordinates,Original*
G04 #@! TF.FileFunction,Legend,Top*
G04 #@! TF.FilePolarity,Positive*
%FSLAX46Y46*%
G04 Gerber Fmt 4.6, Leading zero omitted, Abs format (unit mm)*
G04 Created by KiCad (PCBNEW (5.1.2)-1) date 2019-05-19 18:00:29*
%MOMM*%
%LPD*%
G04 APERTURE LIST*
%ADD10C,0.120000*%
%ADD11C,0.150000*%
%ADD12C,0.100000*%
G04 APERTURE END LIST*
D10*
X135075001Y-156315001D02*
X134375001Y-156315001D01*
X134375001Y-155115001D02*
X135075001Y-155115001D01*
X105600001Y-72015001D02*
X106300001Y-72015001D01*
X106300001Y-73215001D02*
X105600001Y-73215001D01*
X109450001Y-72015001D02*
X110150001Y-72015001D01*
X110150001Y-73215001D02*
X109450001Y-73215001D01*
X102450001Y-75565001D02*
X101750001Y-75565001D01*
X101750001Y-74365001D02*
X102450001Y-74365001D01*
X106300001Y-75565001D02*
X105600001Y-75565001D01*
X105600001Y-74365001D02*
X106300001Y-74365001D01*
X109450001Y-74365001D02*
X110150001Y-74365001D01*
X110150001Y-75565001D02*
X109450001Y-75565001D01*
X150750001Y-99000001D02*
X151450001Y-99000001D01*
X151450001Y-100200001D02*
X150750001Y-100200001D01*
X118225001Y-152940001D02*
X117525001Y-152940001D01*
X117525001Y-151740001D02*
X118225001Y-151740001D01*
X134375001Y-150415001D02*
X135075001Y-150415001D01*
X135075001Y-151615001D02*
X134375001Y-151615001D01*
X118225001Y-150590001D02*
X117525001Y-150590001D01*
X117525001Y-149390001D02*
X118225001Y-149390001D01*
X156710001Y-144815001D02*
X157410001Y-144815001D01*
X157410001Y-146015001D02*
X156710001Y-146015001D01*
X110600001Y-150740001D02*
X111300001Y-150740001D01*
X111300001Y-151940001D02*
X110600001Y-151940001D01*
X157410001Y-148365001D02*
X156710001Y-148365001D01*
X156710001Y-147165001D02*
X157410001Y-147165001D01*
X161260001Y-143665001D02*
X160560001Y-143665001D01*
X160560001Y-142465001D02*
X161260001Y-142465001D01*
X135075001Y-153965001D02*
X134375001Y-153965001D01*
X134375001Y-152765001D02*
X135075001Y-152765001D01*
X121375001Y-149940001D02*
X122075001Y-149940001D01*
X122075001Y-151140001D02*
X121375001Y-151140001D01*
X157450001Y-121865001D02*
X158150001Y-121865001D01*
X158150001Y-123065001D02*
X157450001Y-123065001D01*
X168900001Y-97050001D02*
X169600001Y-97050001D01*
X169600001Y-98250001D02*
X168900001Y-98250001D01*
X102025001Y-170550001D02*
X101325001Y-170550001D01*
X101325001Y-169350001D02*
X102025001Y-169350001D01*
X97175001Y-170650001D02*
X96475001Y-170650001D01*
X96475001Y-169450001D02*
X97175001Y-169450001D01*
X92825001Y-171550001D02*
X92125001Y-171550001D01*
X92125001Y-170350001D02*
X92825001Y-170350001D01*
X110600001Y-148390001D02*
X111300001Y-148390001D01*
X111300001Y-149590001D02*
X110600001Y-149590001D01*
X138925001Y-151615001D02*
X138225001Y-151615001D01*
X138225001Y-150415001D02*
X138925001Y-150415001D01*
X138800001Y-126650001D02*
X139500001Y-126650001D01*
X139500001Y-127850001D02*
X138800001Y-127850001D01*
X181000001Y-54475001D02*
X181700001Y-54475001D01*
X181700001Y-55675001D02*
X181000001Y-55675001D01*
X143350001Y-125500001D02*
X142650001Y-125500001D01*
X142650001Y-124300001D02*
X143350001Y-124300001D01*
X173450001Y-98250001D02*
X172750001Y-98250001D01*
X172750001Y-97050001D02*
X173450001Y-97050001D01*
X169600001Y-100600001D02*
X168900001Y-100600001D01*
X168900001Y-99400001D02*
X169600001Y-99400001D01*
X161300001Y-121625001D02*
X162000001Y-121625001D01*
X162000001Y-122825001D02*
X161300001Y-122825001D01*
X157450001Y-124215001D02*
X158150001Y-124215001D01*
X158150001Y-125415001D02*
X157450001Y-125415001D01*
X125225001Y-149940001D02*
X125925001Y-149940001D01*
X125925001Y-151140001D02*
X125225001Y-151140001D01*
X121375001Y-152290001D02*
X122075001Y-152290001D01*
X122075001Y-153490001D02*
X121375001Y-153490001D01*
X138225001Y-152765001D02*
X138925001Y-152765001D01*
X138925001Y-153965001D02*
X138225001Y-153965001D01*
X102450001Y-73215001D02*
X101750001Y-73215001D01*
X101750001Y-72015001D02*
X102450001Y-72015001D01*
X139500001Y-125500001D02*
X138800001Y-125500001D01*
X138800001Y-124300001D02*
X139500001Y-124300001D01*
X161260001Y-146015001D02*
X160560001Y-146015001D01*
X160560001Y-144815001D02*
X161260001Y-144815001D01*
X161260001Y-148365001D02*
X160560001Y-148365001D01*
X160560001Y-147165001D02*
X161260001Y-147165001D01*
X156710001Y-149515001D02*
X157410001Y-149515001D01*
X157410001Y-150715001D02*
X156710001Y-150715001D01*
X142075001Y-149265001D02*
X142775001Y-149265001D01*
X142775001Y-150465001D02*
X142075001Y-150465001D01*
X135075001Y-158665001D02*
X134375001Y-158665001D01*
X134375001Y-157465001D02*
X135075001Y-157465001D01*
X158150001Y-127765001D02*
X157450001Y-127765001D01*
X157450001Y-126565001D02*
X158150001Y-126565001D01*
X142650001Y-126650001D02*
X143350001Y-126650001D01*
X143350001Y-127850001D02*
X142650001Y-127850001D01*
X155300001Y-100200001D02*
X154600001Y-100200001D01*
X154600001Y-99000001D02*
X155300001Y-99000001D01*
X164410001Y-142465001D02*
X165110001Y-142465001D01*
X165110001Y-143665001D02*
X164410001Y-143665001D01*
X156710001Y-142465001D02*
X157410001Y-142465001D01*
X157410001Y-143665001D02*
X156710001Y-143665001D01*
X167950001Y-101800001D02*
X170050001Y-101800001D01*
X167950001Y-102940001D02*
X170050001Y-102940001D01*
X167950001Y-101800001D02*
X167950001Y-102940001D01*
X102735001Y-168080001D02*
X101275001Y-168080001D01*
X102735001Y-164920001D02*
X100575001Y-164920001D01*
X102735001Y-164920001D02*
X102735001Y-165850001D01*
X102735001Y-168080001D02*
X102735001Y-167150001D01*
X114900001Y-90135001D02*
X114900001Y-83725001D01*
X123600001Y-88905001D02*
X114900001Y-88905001D01*
X123600001Y-83725001D02*
X123600001Y-90135001D01*
X114900001Y-83725001D02*
X123600001Y-83725001D01*
X114900001Y-90135001D02*
X123600001Y-90135001D01*
X224795000Y-64513675D02*
X224545000Y-64080662D01*
X225045000Y-64080662D02*
X224795000Y-64513675D01*
X224545000Y-64080662D02*
X225045000Y-64080662D01*
X235965000Y-64975000D02*
X235965000Y-73575000D01*
X204995000Y-64975000D02*
X235965000Y-64975000D01*
X204995000Y-73575000D02*
X204995000Y-64975000D01*
X141475001Y-155100001D02*
X142475001Y-155100001D01*
X142475001Y-156460001D02*
X141475001Y-156460001D01*
X145625001Y-149380001D02*
X146625001Y-149380001D01*
X146625001Y-150740001D02*
X145625001Y-150740001D01*
X128475001Y-152275001D02*
X129475001Y-152275001D01*
X129475001Y-153635001D02*
X128475001Y-153635001D01*
X162000001Y-127800001D02*
X161000001Y-127800001D01*
X161000001Y-126440001D02*
X162000001Y-126440001D01*
X165550001Y-125320001D02*
X164550001Y-125320001D01*
X164550001Y-123960001D02*
X165550001Y-123960001D01*
X177000001Y-100745001D02*
X176000001Y-100745001D01*
X176000001Y-99385001D02*
X177000001Y-99385001D01*
X150750001Y-124485001D02*
X149750001Y-124485001D01*
X149750001Y-123125001D02*
X150750001Y-123125001D01*
X157410001Y-153210001D02*
X156410001Y-153210001D01*
X156410001Y-151850001D02*
X157410001Y-151850001D01*
X150450001Y-103815001D02*
X151450001Y-103815001D01*
X151450001Y-105175001D02*
X150450001Y-105175001D01*
X155000001Y-102695001D02*
X154000001Y-102695001D01*
X154000001Y-101335001D02*
X155000001Y-101335001D01*
X180700001Y-56810001D02*
X181700001Y-56810001D01*
X181700001Y-58170001D02*
X180700001Y-58170001D01*
X150450001Y-101335001D02*
X151450001Y-101335001D01*
X151450001Y-102695001D02*
X150450001Y-102695001D01*
X147200001Y-125645001D02*
X146200001Y-125645001D01*
X146200001Y-124285001D02*
X147200001Y-124285001D01*
X172450001Y-99385001D02*
X173450001Y-99385001D01*
X173450001Y-100745001D02*
X172450001Y-100745001D01*
X162000001Y-125320001D02*
X161000001Y-125320001D01*
X161000001Y-123960001D02*
X162000001Y-123960001D01*
X124925001Y-152275001D02*
X125925001Y-152275001D01*
X125925001Y-153635001D02*
X124925001Y-153635001D01*
X138925001Y-156460001D02*
X137925001Y-156460001D01*
X137925001Y-155100001D02*
X138925001Y-155100001D01*
X165110001Y-146160001D02*
X164110001Y-146160001D01*
X164110001Y-144800001D02*
X165110001Y-144800001D01*
X146200001Y-126765001D02*
X147200001Y-126765001D01*
X147200001Y-128125001D02*
X146200001Y-128125001D01*
X141775001Y-151600001D02*
X142775001Y-151600001D01*
X142775001Y-152960001D02*
X141775001Y-152960001D01*
X168660001Y-146160001D02*
X167660001Y-146160001D01*
X167660001Y-144800001D02*
X168660001Y-144800001D01*
X137925001Y-157580001D02*
X138925001Y-157580001D01*
X138925001Y-158940001D02*
X137925001Y-158940001D01*
D11*
X101380001Y-180065001D02*
X99980001Y-180065001D01*
X101380001Y-185165001D02*
X105530001Y-185165001D01*
X101380001Y-180015001D02*
X105530001Y-180015001D01*
X101380001Y-185165001D02*
X101380001Y-185020001D01*
X105530001Y-185165001D02*
X105530001Y-185020001D01*
X105530001Y-180015001D02*
X105530001Y-180160001D01*
X101380001Y-180015001D02*
X101380001Y-180065001D01*
D10*
X45555000Y-77585000D02*
X27435000Y-77585000D01*
X45555000Y-159105000D02*
X45555000Y-77585000D01*
X27435000Y-159105000D02*
X45555000Y-159105000D01*
X27435000Y-77585000D02*
X27435000Y-159105000D01*
X42555000Y-77645000D02*
X37495000Y-77645000D01*
X42555000Y-159045000D02*
X42555000Y-77645000D01*
X30435000Y-159045000D02*
X42555000Y-159045000D01*
X30435000Y-77645000D02*
X30435000Y-159045000D01*
X35495000Y-77645000D02*
X30435000Y-77645000D01*
X37495000Y-77645000D02*
G75*
G02X35495000Y-77645000I-1000000J0D01*
G01*
D11*
X191925000Y-85750000D02*
X190900000Y-85750000D01*
X202275000Y-84750000D02*
X201200000Y-84750000D01*
X202275000Y-95100000D02*
X201200000Y-95100000D01*
X191925000Y-95100000D02*
X193000000Y-95100000D01*
X191925000Y-84750000D02*
X193000000Y-84750000D01*
X191925000Y-95100000D02*
X191925000Y-94025000D01*
X202275000Y-95100000D02*
X202275000Y-94025000D01*
X202275000Y-84750000D02*
X202275000Y-85825000D01*
X191925000Y-84750000D02*
X191925000Y-85750000D01*
D10*
X93725001Y-169100001D02*
X91725001Y-169100001D01*
X93725001Y-164900001D02*
X91225001Y-164900001D01*
X158150001Y-74665001D02*
X155650001Y-74665001D01*
X158150001Y-78865001D02*
X156150001Y-78865001D01*
X132250000Y-78025000D02*
X129750000Y-78025000D01*
X132250000Y-82225000D02*
X130250000Y-82225000D01*
D11*
X138025000Y-175250000D02*
X138025000Y-175275000D01*
X138025000Y-183300000D02*
X138025000Y-183275000D01*
X133375000Y-183300000D02*
X133375000Y-183275000D01*
X132300000Y-175200000D02*
X138025000Y-175200000D01*
X133375000Y-183300000D02*
X138025000Y-183300000D01*
X106350001Y-172215001D02*
X111000001Y-172215001D01*
X105275001Y-164115001D02*
X111000001Y-164115001D01*
X106350001Y-172215001D02*
X106350001Y-172190001D01*
X111000001Y-172215001D02*
X111000001Y-172190001D01*
X111000001Y-164165001D02*
X111000001Y-164190001D01*
D12*
X133025000Y-50105000D02*
X113625000Y-50105000D01*
D10*
X114625000Y-62345000D02*
X133025000Y-62345000D01*
D11*
X101380001Y-173565001D02*
X101380001Y-173615001D01*
X105530001Y-173565001D02*
X105530001Y-173710001D01*
X105530001Y-178715001D02*
X105530001Y-178570001D01*
X101380001Y-178715001D02*
X101380001Y-178570001D01*
X101380001Y-173565001D02*
X105530001Y-173565001D01*
X101380001Y-178715001D02*
X105530001Y-178715001D01*
X101380001Y-173615001D02*
X99980001Y-173615001D01*
D10*
X93725001Y-181240001D02*
X91225001Y-181240001D01*
X93725001Y-185440001D02*
X91725001Y-185440001D01*
X153200000Y-119575000D02*
X151200000Y-119575000D01*
X153200000Y-115375000D02*
X150700000Y-115375000D01*
D11*
X173000000Y-118000000D02*
X171900000Y-118000000D01*
X193350000Y-117000000D02*
X192275000Y-117000000D01*
X193350000Y-137350000D02*
X192275000Y-137350000D01*
X173000000Y-137350000D02*
X174075000Y-137350000D01*
X173000000Y-117000000D02*
X174075000Y-117000000D01*
X173000000Y-137350000D02*
X173000000Y-136275000D01*
X193350000Y-137350000D02*
X193350000Y-136275000D01*
X193350000Y-117000000D02*
X193350000Y-118075000D01*
X173000000Y-117000000D02*
X173000000Y-118000000D01*
X177375000Y-64200000D02*
X176000000Y-64200000D01*
X184625000Y-63750000D02*
X184100000Y-63750000D01*
X184625000Y-71000000D02*
X184100000Y-71000000D01*
X177375000Y-71000000D02*
X177900000Y-71000000D01*
X177375000Y-63750000D02*
X177900000Y-63750000D01*
X177375000Y-71000000D02*
X177375000Y-70475000D01*
X184625000Y-71000000D02*
X184625000Y-70475000D01*
X184625000Y-63750000D02*
X184625000Y-64275000D01*
X177375000Y-63750000D02*
X177375000Y-64200000D01*
D10*
X98225001Y-164940001D02*
X95775001Y-164940001D01*
X96425001Y-168160001D02*
X98225001Y-168160001D01*
X170360001Y-82585001D02*
X170360001Y-81325001D01*
X170360001Y-75765001D02*
X170360001Y-77025001D01*
X166600001Y-82585001D02*
X170360001Y-82585001D01*
X164350001Y-75765001D02*
X170360001Y-75765001D01*
X154500001Y-80705001D02*
X160510001Y-80705001D01*
X156750001Y-87525001D02*
X160510001Y-87525001D01*
X160510001Y-80705001D02*
X160510001Y-81965001D01*
X160510001Y-87525001D02*
X160510001Y-86265001D01*
X93435001Y-179480001D02*
X93435001Y-179940001D01*
X96315001Y-179480001D02*
X93435001Y-179480001D01*
X91175001Y-174000001D02*
X91235001Y-174000001D01*
X91175001Y-179480001D02*
X91175001Y-174000001D01*
X91235001Y-179480001D02*
X91175001Y-179480001D01*
X91235001Y-179940001D02*
X91235001Y-179480001D01*
X93435001Y-174000001D02*
X96315001Y-174000001D01*
X98575001Y-179480001D02*
X98515001Y-179480001D01*
X98575001Y-174000001D02*
X98575001Y-179480001D01*
X98515001Y-174000001D02*
X98575001Y-174000001D01*
D11*
X134558334Y-154572143D02*
X134510715Y-154619762D01*
X134367858Y-154667381D01*
X134272620Y-154667381D01*
X134129762Y-154619762D01*
X134034524Y-154524524D01*
X133986905Y-154429286D01*
X133939286Y-154238810D01*
X133939286Y-154095953D01*
X133986905Y-153905477D01*
X134034524Y-153810239D01*
X134129762Y-153715001D01*
X134272620Y-153667381D01*
X134367858Y-153667381D01*
X134510715Y-153715001D01*
X134558334Y-153762620D01*
X135510715Y-154667381D02*
X134939286Y-154667381D01*
X135225001Y-154667381D02*
X135225001Y-153667381D01*
X135129762Y-153810239D01*
X135034524Y-153905477D01*
X134939286Y-153953096D01*
X105783334Y-71472143D02*
X105735715Y-71519762D01*
X105592858Y-71567381D01*
X105497620Y-71567381D01*
X105354762Y-71519762D01*
X105259524Y-71424524D01*
X105211905Y-71329286D01*
X105164286Y-71138810D01*
X105164286Y-70995953D01*
X105211905Y-70805477D01*
X105259524Y-70710239D01*
X105354762Y-70615001D01*
X105497620Y-70567381D01*
X105592858Y-70567381D01*
X105735715Y-70615001D01*
X105783334Y-70662620D01*
X106164286Y-70662620D02*
X106211905Y-70615001D01*
X106307143Y-70567381D01*
X106545239Y-70567381D01*
X106640477Y-70615001D01*
X106688096Y-70662620D01*
X106735715Y-70757858D01*
X106735715Y-70853096D01*
X106688096Y-70995953D01*
X106116667Y-71567381D01*
X106735715Y-71567381D01*
X109633334Y-71472143D02*
X109585715Y-71519762D01*
X109442858Y-71567381D01*
X109347620Y-71567381D01*
X109204762Y-71519762D01*
X109109524Y-71424524D01*
X109061905Y-71329286D01*
X109014286Y-71138810D01*
X109014286Y-70995953D01*
X109061905Y-70805477D01*
X109109524Y-70710239D01*
X109204762Y-70615001D01*
X109347620Y-70567381D01*
X109442858Y-70567381D01*
X109585715Y-70615001D01*
X109633334Y-70662620D01*
X109966667Y-70567381D02*
X110585715Y-70567381D01*
X110252381Y-70948334D01*
X110395239Y-70948334D01*
X110490477Y-70995953D01*
X110538096Y-71043572D01*
X110585715Y-71138810D01*
X110585715Y-71376905D01*
X110538096Y-71472143D01*
X110490477Y-71519762D01*
X110395239Y-71567381D01*
X110109524Y-71567381D01*
X110014286Y-71519762D01*
X109966667Y-71472143D01*
X101933334Y-73822143D02*
X101885715Y-73869762D01*
X101742858Y-73917381D01*
X101647620Y-73917381D01*
X101504762Y-73869762D01*
X101409524Y-73774524D01*
X101361905Y-73679286D01*
X101314286Y-73488810D01*
X101314286Y-73345953D01*
X101361905Y-73155477D01*
X101409524Y-73060239D01*
X101504762Y-72965001D01*
X101647620Y-72917381D01*
X101742858Y-72917381D01*
X101885715Y-72965001D01*
X101933334Y-73012620D01*
X102790477Y-73250715D02*
X102790477Y-73917381D01*
X102552381Y-72869762D02*
X102314286Y-73584048D01*
X102933334Y-73584048D01*
X105783334Y-73822143D02*
X105735715Y-73869762D01*
X105592858Y-73917381D01*
X105497620Y-73917381D01*
X105354762Y-73869762D01*
X105259524Y-73774524D01*
X105211905Y-73679286D01*
X105164286Y-73488810D01*
X105164286Y-73345953D01*
X105211905Y-73155477D01*
X105259524Y-73060239D01*
X105354762Y-72965001D01*
X105497620Y-72917381D01*
X105592858Y-72917381D01*
X105735715Y-72965001D01*
X105783334Y-73012620D01*
X106688096Y-72917381D02*
X106211905Y-72917381D01*
X106164286Y-73393572D01*
X106211905Y-73345953D01*
X106307143Y-73298334D01*
X106545239Y-73298334D01*
X106640477Y-73345953D01*
X106688096Y-73393572D01*
X106735715Y-73488810D01*
X106735715Y-73726905D01*
X106688096Y-73822143D01*
X106640477Y-73869762D01*
X106545239Y-73917381D01*
X106307143Y-73917381D01*
X106211905Y-73869762D01*
X106164286Y-73822143D01*
X109633334Y-73822143D02*
X109585715Y-73869762D01*
X109442858Y-73917381D01*
X109347620Y-73917381D01*
X109204762Y-73869762D01*
X109109524Y-73774524D01*
X109061905Y-73679286D01*
X109014286Y-73488810D01*
X109014286Y-73345953D01*
X109061905Y-73155477D01*
X109109524Y-73060239D01*
X109204762Y-72965001D01*
X109347620Y-72917381D01*
X109442858Y-72917381D01*
X109585715Y-72965001D01*
X109633334Y-73012620D01*
X110490477Y-72917381D02*
X110300001Y-72917381D01*
X110204762Y-72965001D01*
X110157143Y-73012620D01*
X110061905Y-73155477D01*
X110014286Y-73345953D01*
X110014286Y-73726905D01*
X110061905Y-73822143D01*
X110109524Y-73869762D01*
X110204762Y-73917381D01*
X110395239Y-73917381D01*
X110490477Y-73869762D01*
X110538096Y-73822143D01*
X110585715Y-73726905D01*
X110585715Y-73488810D01*
X110538096Y-73393572D01*
X110490477Y-73345953D01*
X110395239Y-73298334D01*
X110204762Y-73298334D01*
X110109524Y-73345953D01*
X110061905Y-73393572D01*
X110014286Y-73488810D01*
X150933334Y-98457143D02*
X150885715Y-98504762D01*
X150742858Y-98552381D01*
X150647620Y-98552381D01*
X150504762Y-98504762D01*
X150409524Y-98409524D01*
X150361905Y-98314286D01*
X150314286Y-98123810D01*
X150314286Y-97980953D01*
X150361905Y-97790477D01*
X150409524Y-97695239D01*
X150504762Y-97600001D01*
X150647620Y-97552381D01*
X150742858Y-97552381D01*
X150885715Y-97600001D01*
X150933334Y-97647620D01*
X151266667Y-97552381D02*
X151933334Y-97552381D01*
X151504762Y-98552381D01*
X117708334Y-151197143D02*
X117660715Y-151244762D01*
X117517858Y-151292381D01*
X117422620Y-151292381D01*
X117279762Y-151244762D01*
X117184524Y-151149524D01*
X117136905Y-151054286D01*
X117089286Y-150863810D01*
X117089286Y-150720953D01*
X117136905Y-150530477D01*
X117184524Y-150435239D01*
X117279762Y-150340001D01*
X117422620Y-150292381D01*
X117517858Y-150292381D01*
X117660715Y-150340001D01*
X117708334Y-150387620D01*
X118279762Y-150720953D02*
X118184524Y-150673334D01*
X118136905Y-150625715D01*
X118089286Y-150530477D01*
X118089286Y-150482858D01*
X118136905Y-150387620D01*
X118184524Y-150340001D01*
X118279762Y-150292381D01*
X118470239Y-150292381D01*
X118565477Y-150340001D01*
X118613096Y-150387620D01*
X118660715Y-150482858D01*
X118660715Y-150530477D01*
X118613096Y-150625715D01*
X118565477Y-150673334D01*
X118470239Y-150720953D01*
X118279762Y-150720953D01*
X118184524Y-150768572D01*
X118136905Y-150816191D01*
X118089286Y-150911429D01*
X118089286Y-151101905D01*
X118136905Y-151197143D01*
X118184524Y-151244762D01*
X118279762Y-151292381D01*
X118470239Y-151292381D01*
X118565477Y-151244762D01*
X118613096Y-151197143D01*
X118660715Y-151101905D01*
X118660715Y-150911429D01*
X118613096Y-150816191D01*
X118565477Y-150768572D01*
X118470239Y-150720953D01*
X134558334Y-149872143D02*
X134510715Y-149919762D01*
X134367858Y-149967381D01*
X134272620Y-149967381D01*
X134129762Y-149919762D01*
X134034524Y-149824524D01*
X133986905Y-149729286D01*
X133939286Y-149538810D01*
X133939286Y-149395953D01*
X133986905Y-149205477D01*
X134034524Y-149110239D01*
X134129762Y-149015001D01*
X134272620Y-148967381D01*
X134367858Y-148967381D01*
X134510715Y-149015001D01*
X134558334Y-149062620D01*
X135034524Y-149967381D02*
X135225001Y-149967381D01*
X135320239Y-149919762D01*
X135367858Y-149872143D01*
X135463096Y-149729286D01*
X135510715Y-149538810D01*
X135510715Y-149157858D01*
X135463096Y-149062620D01*
X135415477Y-149015001D01*
X135320239Y-148967381D01*
X135129762Y-148967381D01*
X135034524Y-149015001D01*
X134986905Y-149062620D01*
X134939286Y-149157858D01*
X134939286Y-149395953D01*
X134986905Y-149491191D01*
X135034524Y-149538810D01*
X135129762Y-149586429D01*
X135320239Y-149586429D01*
X135415477Y-149538810D01*
X135463096Y-149491191D01*
X135510715Y-149395953D01*
X117232143Y-148847143D02*
X117184524Y-148894762D01*
X117041667Y-148942381D01*
X116946429Y-148942381D01*
X116803572Y-148894762D01*
X116708334Y-148799524D01*
X116660715Y-148704286D01*
X116613096Y-148513810D01*
X116613096Y-148370953D01*
X116660715Y-148180477D01*
X116708334Y-148085239D01*
X116803572Y-147990001D01*
X116946429Y-147942381D01*
X117041667Y-147942381D01*
X117184524Y-147990001D01*
X117232143Y-148037620D01*
X118184524Y-148942381D02*
X117613096Y-148942381D01*
X117898810Y-148942381D02*
X117898810Y-147942381D01*
X117803572Y-148085239D01*
X117708334Y-148180477D01*
X117613096Y-148228096D01*
X118803572Y-147942381D02*
X118898810Y-147942381D01*
X118994048Y-147990001D01*
X119041667Y-148037620D01*
X119089286Y-148132858D01*
X119136905Y-148323334D01*
X119136905Y-148561429D01*
X119089286Y-148751905D01*
X119041667Y-148847143D01*
X118994048Y-148894762D01*
X118898810Y-148942381D01*
X118803572Y-148942381D01*
X118708334Y-148894762D01*
X118660715Y-148847143D01*
X118613096Y-148751905D01*
X118565477Y-148561429D01*
X118565477Y-148323334D01*
X118613096Y-148132858D01*
X118660715Y-148037620D01*
X118708334Y-147990001D01*
X118803572Y-147942381D01*
X156417143Y-144272143D02*
X156369524Y-144319762D01*
X156226667Y-144367381D01*
X156131429Y-144367381D01*
X155988572Y-144319762D01*
X155893334Y-144224524D01*
X155845715Y-144129286D01*
X155798096Y-143938810D01*
X155798096Y-143795953D01*
X155845715Y-143605477D01*
X155893334Y-143510239D01*
X155988572Y-143415001D01*
X156131429Y-143367381D01*
X156226667Y-143367381D01*
X156369524Y-143415001D01*
X156417143Y-143462620D01*
X157369524Y-144367381D02*
X156798096Y-144367381D01*
X157083810Y-144367381D02*
X157083810Y-143367381D01*
X156988572Y-143510239D01*
X156893334Y-143605477D01*
X156798096Y-143653096D01*
X158321905Y-144367381D02*
X157750477Y-144367381D01*
X158036191Y-144367381D02*
X158036191Y-143367381D01*
X157940953Y-143510239D01*
X157845715Y-143605477D01*
X157750477Y-143653096D01*
X110307143Y-150197143D02*
X110259524Y-150244762D01*
X110116667Y-150292381D01*
X110021429Y-150292381D01*
X109878572Y-150244762D01*
X109783334Y-150149524D01*
X109735715Y-150054286D01*
X109688096Y-149863810D01*
X109688096Y-149720953D01*
X109735715Y-149530477D01*
X109783334Y-149435239D01*
X109878572Y-149340001D01*
X110021429Y-149292381D01*
X110116667Y-149292381D01*
X110259524Y-149340001D01*
X110307143Y-149387620D01*
X111259524Y-150292381D02*
X110688096Y-150292381D01*
X110973810Y-150292381D02*
X110973810Y-149292381D01*
X110878572Y-149435239D01*
X110783334Y-149530477D01*
X110688096Y-149578096D01*
X111640477Y-149387620D02*
X111688096Y-149340001D01*
X111783334Y-149292381D01*
X112021429Y-149292381D01*
X112116667Y-149340001D01*
X112164286Y-149387620D01*
X112211905Y-149482858D01*
X112211905Y-149578096D01*
X112164286Y-149720953D01*
X111592858Y-150292381D01*
X112211905Y-150292381D01*
X156417143Y-146622143D02*
X156369524Y-146669762D01*
X156226667Y-146717381D01*
X156131429Y-146717381D01*
X155988572Y-146669762D01*
X155893334Y-146574524D01*
X155845715Y-146479286D01*
X155798096Y-146288810D01*
X155798096Y-146145953D01*
X155845715Y-145955477D01*
X155893334Y-145860239D01*
X155988572Y-145765001D01*
X156131429Y-145717381D01*
X156226667Y-145717381D01*
X156369524Y-145765001D01*
X156417143Y-145812620D01*
X157369524Y-146717381D02*
X156798096Y-146717381D01*
X157083810Y-146717381D02*
X157083810Y-145717381D01*
X156988572Y-145860239D01*
X156893334Y-145955477D01*
X156798096Y-146003096D01*
X157702858Y-145717381D02*
X158321905Y-145717381D01*
X157988572Y-146098334D01*
X158131429Y-146098334D01*
X158226667Y-146145953D01*
X158274286Y-146193572D01*
X158321905Y-146288810D01*
X158321905Y-146526905D01*
X158274286Y-146622143D01*
X158226667Y-146669762D01*
X158131429Y-146717381D01*
X157845715Y-146717381D01*
X157750477Y-146669762D01*
X157702858Y-146622143D01*
X160267143Y-141922143D02*
X160219524Y-141969762D01*
X160076667Y-142017381D01*
X159981429Y-142017381D01*
X159838572Y-141969762D01*
X159743334Y-141874524D01*
X159695715Y-141779286D01*
X159648096Y-141588810D01*
X159648096Y-141445953D01*
X159695715Y-141255477D01*
X159743334Y-141160239D01*
X159838572Y-141065001D01*
X159981429Y-141017381D01*
X160076667Y-141017381D01*
X160219524Y-141065001D01*
X160267143Y-141112620D01*
X161219524Y-142017381D02*
X160648096Y-142017381D01*
X160933810Y-142017381D02*
X160933810Y-141017381D01*
X160838572Y-141160239D01*
X160743334Y-141255477D01*
X160648096Y-141303096D01*
X162076667Y-141350715D02*
X162076667Y-142017381D01*
X161838572Y-140969762D02*
X161600477Y-141684048D01*
X162219524Y-141684048D01*
X134082143Y-152222143D02*
X134034524Y-152269762D01*
X133891667Y-152317381D01*
X133796429Y-152317381D01*
X133653572Y-152269762D01*
X133558334Y-152174524D01*
X133510715Y-152079286D01*
X133463096Y-151888810D01*
X133463096Y-151745953D01*
X133510715Y-151555477D01*
X133558334Y-151460239D01*
X133653572Y-151365001D01*
X133796429Y-151317381D01*
X133891667Y-151317381D01*
X134034524Y-151365001D01*
X134082143Y-151412620D01*
X135034524Y-152317381D02*
X134463096Y-152317381D01*
X134748810Y-152317381D02*
X134748810Y-151317381D01*
X134653572Y-151460239D01*
X134558334Y-151555477D01*
X134463096Y-151603096D01*
X135939286Y-151317381D02*
X135463096Y-151317381D01*
X135415477Y-151793572D01*
X135463096Y-151745953D01*
X135558334Y-151698334D01*
X135796429Y-151698334D01*
X135891667Y-151745953D01*
X135939286Y-151793572D01*
X135986905Y-151888810D01*
X135986905Y-152126905D01*
X135939286Y-152222143D01*
X135891667Y-152269762D01*
X135796429Y-152317381D01*
X135558334Y-152317381D01*
X135463096Y-152269762D01*
X135415477Y-152222143D01*
X121082143Y-149397143D02*
X121034524Y-149444762D01*
X120891667Y-149492381D01*
X120796429Y-149492381D01*
X120653572Y-149444762D01*
X120558334Y-149349524D01*
X120510715Y-149254286D01*
X120463096Y-149063810D01*
X120463096Y-148920953D01*
X120510715Y-148730477D01*
X120558334Y-148635239D01*
X120653572Y-148540001D01*
X120796429Y-148492381D01*
X120891667Y-148492381D01*
X121034524Y-148540001D01*
X121082143Y-148587620D01*
X122034524Y-149492381D02*
X121463096Y-149492381D01*
X121748810Y-149492381D02*
X121748810Y-148492381D01*
X121653572Y-148635239D01*
X121558334Y-148730477D01*
X121463096Y-148778096D01*
X122891667Y-148492381D02*
X122701191Y-148492381D01*
X122605953Y-148540001D01*
X122558334Y-148587620D01*
X122463096Y-148730477D01*
X122415477Y-148920953D01*
X122415477Y-149301905D01*
X122463096Y-149397143D01*
X122510715Y-149444762D01*
X122605953Y-149492381D01*
X122796429Y-149492381D01*
X122891667Y-149444762D01*
X122939286Y-149397143D01*
X122986905Y-149301905D01*
X122986905Y-149063810D01*
X122939286Y-148968572D01*
X122891667Y-148920953D01*
X122796429Y-148873334D01*
X122605953Y-148873334D01*
X122510715Y-148920953D01*
X122463096Y-148968572D01*
X122415477Y-149063810D01*
X157157143Y-121322143D02*
X157109524Y-121369762D01*
X156966667Y-121417381D01*
X156871429Y-121417381D01*
X156728572Y-121369762D01*
X156633334Y-121274524D01*
X156585715Y-121179286D01*
X156538096Y-120988810D01*
X156538096Y-120845953D01*
X156585715Y-120655477D01*
X156633334Y-120560239D01*
X156728572Y-120465001D01*
X156871429Y-120417381D01*
X156966667Y-120417381D01*
X157109524Y-120465001D01*
X157157143Y-120512620D01*
X158109524Y-121417381D02*
X157538096Y-121417381D01*
X157823810Y-121417381D02*
X157823810Y-120417381D01*
X157728572Y-120560239D01*
X157633334Y-120655477D01*
X157538096Y-120703096D01*
X158442858Y-120417381D02*
X159109524Y-120417381D01*
X158680953Y-121417381D01*
X168607143Y-96507143D02*
X168559524Y-96554762D01*
X168416667Y-96602381D01*
X168321429Y-96602381D01*
X168178572Y-96554762D01*
X168083334Y-96459524D01*
X168035715Y-96364286D01*
X167988096Y-96173810D01*
X167988096Y-96030953D01*
X168035715Y-95840477D01*
X168083334Y-95745239D01*
X168178572Y-95650001D01*
X168321429Y-95602381D01*
X168416667Y-95602381D01*
X168559524Y-95650001D01*
X168607143Y-95697620D01*
X169559524Y-96602381D02*
X168988096Y-96602381D01*
X169273810Y-96602381D02*
X169273810Y-95602381D01*
X169178572Y-95745239D01*
X169083334Y-95840477D01*
X168988096Y-95888096D01*
X170130953Y-96030953D02*
X170035715Y-95983334D01*
X169988096Y-95935715D01*
X169940477Y-95840477D01*
X169940477Y-95792858D01*
X169988096Y-95697620D01*
X170035715Y-95650001D01*
X170130953Y-95602381D01*
X170321429Y-95602381D01*
X170416667Y-95650001D01*
X170464286Y-95697620D01*
X170511905Y-95792858D01*
X170511905Y-95840477D01*
X170464286Y-95935715D01*
X170416667Y-95983334D01*
X170321429Y-96030953D01*
X170130953Y-96030953D01*
X170035715Y-96078572D01*
X169988096Y-96126191D01*
X169940477Y-96221429D01*
X169940477Y-96411905D01*
X169988096Y-96507143D01*
X170035715Y-96554762D01*
X170130953Y-96602381D01*
X170321429Y-96602381D01*
X170416667Y-96554762D01*
X170464286Y-96507143D01*
X170511905Y-96411905D01*
X170511905Y-96221429D01*
X170464286Y-96126191D01*
X170416667Y-96078572D01*
X170321429Y-96030953D01*
X101032143Y-168807143D02*
X100984524Y-168854762D01*
X100841667Y-168902381D01*
X100746429Y-168902381D01*
X100603572Y-168854762D01*
X100508334Y-168759524D01*
X100460715Y-168664286D01*
X100413096Y-168473810D01*
X100413096Y-168330953D01*
X100460715Y-168140477D01*
X100508334Y-168045239D01*
X100603572Y-167950001D01*
X100746429Y-167902381D01*
X100841667Y-167902381D01*
X100984524Y-167950001D01*
X101032143Y-167997620D01*
X101984524Y-168902381D02*
X101413096Y-168902381D01*
X101698810Y-168902381D02*
X101698810Y-167902381D01*
X101603572Y-168045239D01*
X101508334Y-168140477D01*
X101413096Y-168188096D01*
X102460715Y-168902381D02*
X102651191Y-168902381D01*
X102746429Y-168854762D01*
X102794048Y-168807143D01*
X102889286Y-168664286D01*
X102936905Y-168473810D01*
X102936905Y-168092858D01*
X102889286Y-167997620D01*
X102841667Y-167950001D01*
X102746429Y-167902381D01*
X102555953Y-167902381D01*
X102460715Y-167950001D01*
X102413096Y-167997620D01*
X102365477Y-168092858D01*
X102365477Y-168330953D01*
X102413096Y-168426191D01*
X102460715Y-168473810D01*
X102555953Y-168521429D01*
X102746429Y-168521429D01*
X102841667Y-168473810D01*
X102889286Y-168426191D01*
X102936905Y-168330953D01*
X96182143Y-168907143D02*
X96134524Y-168954762D01*
X95991667Y-169002381D01*
X95896429Y-169002381D01*
X95753572Y-168954762D01*
X95658334Y-168859524D01*
X95610715Y-168764286D01*
X95563096Y-168573810D01*
X95563096Y-168430953D01*
X95610715Y-168240477D01*
X95658334Y-168145239D01*
X95753572Y-168050001D01*
X95896429Y-168002381D01*
X95991667Y-168002381D01*
X96134524Y-168050001D01*
X96182143Y-168097620D01*
X96563096Y-168097620D02*
X96610715Y-168050001D01*
X96705953Y-168002381D01*
X96944048Y-168002381D01*
X97039286Y-168050001D01*
X97086905Y-168097620D01*
X97134524Y-168192858D01*
X97134524Y-168288096D01*
X97086905Y-168430953D01*
X96515477Y-169002381D01*
X97134524Y-169002381D01*
X97753572Y-168002381D02*
X97848810Y-168002381D01*
X97944048Y-168050001D01*
X97991667Y-168097620D01*
X98039286Y-168192858D01*
X98086905Y-168383334D01*
X98086905Y-168621429D01*
X98039286Y-168811905D01*
X97991667Y-168907143D01*
X97944048Y-168954762D01*
X97848810Y-169002381D01*
X97753572Y-169002381D01*
X97658334Y-168954762D01*
X97610715Y-168907143D01*
X97563096Y-168811905D01*
X97515477Y-168621429D01*
X97515477Y-168383334D01*
X97563096Y-168192858D01*
X97610715Y-168097620D01*
X97658334Y-168050001D01*
X97753572Y-168002381D01*
X91832143Y-169807143D02*
X91784524Y-169854762D01*
X91641667Y-169902381D01*
X91546429Y-169902381D01*
X91403572Y-169854762D01*
X91308334Y-169759524D01*
X91260715Y-169664286D01*
X91213096Y-169473810D01*
X91213096Y-169330953D01*
X91260715Y-169140477D01*
X91308334Y-169045239D01*
X91403572Y-168950001D01*
X91546429Y-168902381D01*
X91641667Y-168902381D01*
X91784524Y-168950001D01*
X91832143Y-168997620D01*
X92213096Y-168997620D02*
X92260715Y-168950001D01*
X92355953Y-168902381D01*
X92594048Y-168902381D01*
X92689286Y-168950001D01*
X92736905Y-168997620D01*
X92784524Y-169092858D01*
X92784524Y-169188096D01*
X92736905Y-169330953D01*
X92165477Y-169902381D01*
X92784524Y-169902381D01*
X93736905Y-169902381D02*
X93165477Y-169902381D01*
X93451191Y-169902381D02*
X93451191Y-168902381D01*
X93355953Y-169045239D01*
X93260715Y-169140477D01*
X93165477Y-169188096D01*
X110307143Y-147847143D02*
X110259524Y-147894762D01*
X110116667Y-147942381D01*
X110021429Y-147942381D01*
X109878572Y-147894762D01*
X109783334Y-147799524D01*
X109735715Y-147704286D01*
X109688096Y-147513810D01*
X109688096Y-147370953D01*
X109735715Y-147180477D01*
X109783334Y-147085239D01*
X109878572Y-146990001D01*
X110021429Y-146942381D01*
X110116667Y-146942381D01*
X110259524Y-146990001D01*
X110307143Y-147037620D01*
X110688096Y-147037620D02*
X110735715Y-146990001D01*
X110830953Y-146942381D01*
X111069048Y-146942381D01*
X111164286Y-146990001D01*
X111211905Y-147037620D01*
X111259524Y-147132858D01*
X111259524Y-147228096D01*
X111211905Y-147370953D01*
X110640477Y-147942381D01*
X111259524Y-147942381D01*
X111640477Y-147037620D02*
X111688096Y-146990001D01*
X111783334Y-146942381D01*
X112021429Y-146942381D01*
X112116667Y-146990001D01*
X112164286Y-147037620D01*
X112211905Y-147132858D01*
X112211905Y-147228096D01*
X112164286Y-147370953D01*
X111592858Y-147942381D01*
X112211905Y-147942381D01*
X137932143Y-149872143D02*
X137884524Y-149919762D01*
X137741667Y-149967381D01*
X137646429Y-149967381D01*
X137503572Y-149919762D01*
X137408334Y-149824524D01*
X137360715Y-149729286D01*
X137313096Y-149538810D01*
X137313096Y-149395953D01*
X137360715Y-149205477D01*
X137408334Y-149110239D01*
X137503572Y-149015001D01*
X137646429Y-148967381D01*
X137741667Y-148967381D01*
X137884524Y-149015001D01*
X137932143Y-149062620D01*
X138313096Y-149062620D02*
X138360715Y-149015001D01*
X138455953Y-148967381D01*
X138694048Y-148967381D01*
X138789286Y-149015001D01*
X138836905Y-149062620D01*
X138884524Y-149157858D01*
X138884524Y-149253096D01*
X138836905Y-149395953D01*
X138265477Y-149967381D01*
X138884524Y-149967381D01*
X139217858Y-148967381D02*
X139836905Y-148967381D01*
X139503572Y-149348334D01*
X139646429Y-149348334D01*
X139741667Y-149395953D01*
X139789286Y-149443572D01*
X139836905Y-149538810D01*
X139836905Y-149776905D01*
X139789286Y-149872143D01*
X139741667Y-149919762D01*
X139646429Y-149967381D01*
X139360715Y-149967381D01*
X139265477Y-149919762D01*
X139217858Y-149872143D01*
X138507143Y-126107143D02*
X138459524Y-126154762D01*
X138316667Y-126202381D01*
X138221429Y-126202381D01*
X138078572Y-126154762D01*
X137983334Y-126059524D01*
X137935715Y-125964286D01*
X137888096Y-125773810D01*
X137888096Y-125630953D01*
X137935715Y-125440477D01*
X137983334Y-125345239D01*
X138078572Y-125250001D01*
X138221429Y-125202381D01*
X138316667Y-125202381D01*
X138459524Y-125250001D01*
X138507143Y-125297620D01*
X138888096Y-125297620D02*
X138935715Y-125250001D01*
X139030953Y-125202381D01*
X139269048Y-125202381D01*
X139364286Y-125250001D01*
X139411905Y-125297620D01*
X139459524Y-125392858D01*
X139459524Y-125488096D01*
X139411905Y-125630953D01*
X138840477Y-126202381D01*
X139459524Y-126202381D01*
X140316667Y-125535715D02*
X140316667Y-126202381D01*
X140078572Y-125154762D02*
X139840477Y-125869048D01*
X140459524Y-125869048D01*
X180707143Y-53932143D02*
X180659524Y-53979762D01*
X180516667Y-54027381D01*
X180421429Y-54027381D01*
X180278572Y-53979762D01*
X180183334Y-53884524D01*
X180135715Y-53789286D01*
X180088096Y-53598810D01*
X180088096Y-53455953D01*
X180135715Y-53265477D01*
X180183334Y-53170239D01*
X180278572Y-53075001D01*
X180421429Y-53027381D01*
X180516667Y-53027381D01*
X180659524Y-53075001D01*
X180707143Y-53122620D01*
X181088096Y-53122620D02*
X181135715Y-53075001D01*
X181230953Y-53027381D01*
X181469048Y-53027381D01*
X181564286Y-53075001D01*
X181611905Y-53122620D01*
X181659524Y-53217858D01*
X181659524Y-53313096D01*
X181611905Y-53455953D01*
X181040477Y-54027381D01*
X181659524Y-54027381D01*
X182564286Y-53027381D02*
X182088096Y-53027381D01*
X182040477Y-53503572D01*
X182088096Y-53455953D01*
X182183334Y-53408334D01*
X182421429Y-53408334D01*
X182516667Y-53455953D01*
X182564286Y-53503572D01*
X182611905Y-53598810D01*
X182611905Y-53836905D01*
X182564286Y-53932143D01*
X182516667Y-53979762D01*
X182421429Y-54027381D01*
X182183334Y-54027381D01*
X182088096Y-53979762D01*
X182040477Y-53932143D01*
X142357143Y-123757143D02*
X142309524Y-123804762D01*
X142166667Y-123852381D01*
X142071429Y-123852381D01*
X141928572Y-123804762D01*
X141833334Y-123709524D01*
X141785715Y-123614286D01*
X141738096Y-123423810D01*
X141738096Y-123280953D01*
X141785715Y-123090477D01*
X141833334Y-122995239D01*
X141928572Y-122900001D01*
X142071429Y-122852381D01*
X142166667Y-122852381D01*
X142309524Y-122900001D01*
X142357143Y-122947620D01*
X142738096Y-122947620D02*
X142785715Y-122900001D01*
X142880953Y-122852381D01*
X143119048Y-122852381D01*
X143214286Y-122900001D01*
X143261905Y-122947620D01*
X143309524Y-123042858D01*
X143309524Y-123138096D01*
X143261905Y-123280953D01*
X142690477Y-123852381D01*
X143309524Y-123852381D01*
X144166667Y-122852381D02*
X143976191Y-122852381D01*
X143880953Y-122900001D01*
X143833334Y-122947620D01*
X143738096Y-123090477D01*
X143690477Y-123280953D01*
X143690477Y-123661905D01*
X143738096Y-123757143D01*
X143785715Y-123804762D01*
X143880953Y-123852381D01*
X144071429Y-123852381D01*
X144166667Y-123804762D01*
X144214286Y-123757143D01*
X144261905Y-123661905D01*
X144261905Y-123423810D01*
X144214286Y-123328572D01*
X144166667Y-123280953D01*
X144071429Y-123233334D01*
X143880953Y-123233334D01*
X143785715Y-123280953D01*
X143738096Y-123328572D01*
X143690477Y-123423810D01*
X172457143Y-96507143D02*
X172409524Y-96554762D01*
X172266667Y-96602381D01*
X172171429Y-96602381D01*
X172028572Y-96554762D01*
X171933334Y-96459524D01*
X171885715Y-96364286D01*
X171838096Y-96173810D01*
X171838096Y-96030953D01*
X171885715Y-95840477D01*
X171933334Y-95745239D01*
X172028572Y-95650001D01*
X172171429Y-95602381D01*
X172266667Y-95602381D01*
X172409524Y-95650001D01*
X172457143Y-95697620D01*
X172838096Y-95697620D02*
X172885715Y-95650001D01*
X172980953Y-95602381D01*
X173219048Y-95602381D01*
X173314286Y-95650001D01*
X173361905Y-95697620D01*
X173409524Y-95792858D01*
X173409524Y-95888096D01*
X173361905Y-96030953D01*
X172790477Y-96602381D01*
X173409524Y-96602381D01*
X173742858Y-95602381D02*
X174409524Y-95602381D01*
X173980953Y-96602381D01*
X168607143Y-98857143D02*
X168559524Y-98904762D01*
X168416667Y-98952381D01*
X168321429Y-98952381D01*
X168178572Y-98904762D01*
X168083334Y-98809524D01*
X168035715Y-98714286D01*
X167988096Y-98523810D01*
X167988096Y-98380953D01*
X168035715Y-98190477D01*
X168083334Y-98095239D01*
X168178572Y-98000001D01*
X168321429Y-97952381D01*
X168416667Y-97952381D01*
X168559524Y-98000001D01*
X168607143Y-98047620D01*
X168988096Y-98047620D02*
X169035715Y-98000001D01*
X169130953Y-97952381D01*
X169369048Y-97952381D01*
X169464286Y-98000001D01*
X169511905Y-98047620D01*
X169559524Y-98142858D01*
X169559524Y-98238096D01*
X169511905Y-98380953D01*
X168940477Y-98952381D01*
X169559524Y-98952381D01*
X170130953Y-98380953D02*
X170035715Y-98333334D01*
X169988096Y-98285715D01*
X169940477Y-98190477D01*
X169940477Y-98142858D01*
X169988096Y-98047620D01*
X170035715Y-98000001D01*
X170130953Y-97952381D01*
X170321429Y-97952381D01*
X170416667Y-98000001D01*
X170464286Y-98047620D01*
X170511905Y-98142858D01*
X170511905Y-98190477D01*
X170464286Y-98285715D01*
X170416667Y-98333334D01*
X170321429Y-98380953D01*
X170130953Y-98380953D01*
X170035715Y-98428572D01*
X169988096Y-98476191D01*
X169940477Y-98571429D01*
X169940477Y-98761905D01*
X169988096Y-98857143D01*
X170035715Y-98904762D01*
X170130953Y-98952381D01*
X170321429Y-98952381D01*
X170416667Y-98904762D01*
X170464286Y-98857143D01*
X170511905Y-98761905D01*
X170511905Y-98571429D01*
X170464286Y-98476191D01*
X170416667Y-98428572D01*
X170321429Y-98380953D01*
X161007143Y-121082143D02*
X160959524Y-121129762D01*
X160816667Y-121177381D01*
X160721429Y-121177381D01*
X160578572Y-121129762D01*
X160483334Y-121034524D01*
X160435715Y-120939286D01*
X160388096Y-120748810D01*
X160388096Y-120605953D01*
X160435715Y-120415477D01*
X160483334Y-120320239D01*
X160578572Y-120225001D01*
X160721429Y-120177381D01*
X160816667Y-120177381D01*
X160959524Y-120225001D01*
X161007143Y-120272620D01*
X161388096Y-120272620D02*
X161435715Y-120225001D01*
X161530953Y-120177381D01*
X161769048Y-120177381D01*
X161864286Y-120225001D01*
X161911905Y-120272620D01*
X161959524Y-120367858D01*
X161959524Y-120463096D01*
X161911905Y-120605953D01*
X161340477Y-121177381D01*
X161959524Y-121177381D01*
X162435715Y-121177381D02*
X162626191Y-121177381D01*
X162721429Y-121129762D01*
X162769048Y-121082143D01*
X162864286Y-120939286D01*
X162911905Y-120748810D01*
X162911905Y-120367858D01*
X162864286Y-120272620D01*
X162816667Y-120225001D01*
X162721429Y-120177381D01*
X162530953Y-120177381D01*
X162435715Y-120225001D01*
X162388096Y-120272620D01*
X162340477Y-120367858D01*
X162340477Y-120605953D01*
X162388096Y-120701191D01*
X162435715Y-120748810D01*
X162530953Y-120796429D01*
X162721429Y-120796429D01*
X162816667Y-120748810D01*
X162864286Y-120701191D01*
X162911905Y-120605953D01*
X157157143Y-123672143D02*
X157109524Y-123719762D01*
X156966667Y-123767381D01*
X156871429Y-123767381D01*
X156728572Y-123719762D01*
X156633334Y-123624524D01*
X156585715Y-123529286D01*
X156538096Y-123338810D01*
X156538096Y-123195953D01*
X156585715Y-123005477D01*
X156633334Y-122910239D01*
X156728572Y-122815001D01*
X156871429Y-122767381D01*
X156966667Y-122767381D01*
X157109524Y-122815001D01*
X157157143Y-122862620D01*
X157490477Y-122767381D02*
X158109524Y-122767381D01*
X157776191Y-123148334D01*
X157919048Y-123148334D01*
X158014286Y-123195953D01*
X158061905Y-123243572D01*
X158109524Y-123338810D01*
X158109524Y-123576905D01*
X158061905Y-123672143D01*
X158014286Y-123719762D01*
X157919048Y-123767381D01*
X157633334Y-123767381D01*
X157538096Y-123719762D01*
X157490477Y-123672143D01*
X158728572Y-122767381D02*
X158823810Y-122767381D01*
X158919048Y-122815001D01*
X158966667Y-122862620D01*
X159014286Y-122957858D01*
X159061905Y-123148334D01*
X159061905Y-123386429D01*
X159014286Y-123576905D01*
X158966667Y-123672143D01*
X158919048Y-123719762D01*
X158823810Y-123767381D01*
X158728572Y-123767381D01*
X158633334Y-123719762D01*
X158585715Y-123672143D01*
X158538096Y-123576905D01*
X158490477Y-123386429D01*
X158490477Y-123148334D01*
X158538096Y-122957858D01*
X158585715Y-122862620D01*
X158633334Y-122815001D01*
X158728572Y-122767381D01*
X124932143Y-149397143D02*
X124884524Y-149444762D01*
X124741667Y-149492381D01*
X124646429Y-149492381D01*
X124503572Y-149444762D01*
X124408334Y-149349524D01*
X124360715Y-149254286D01*
X124313096Y-149063810D01*
X124313096Y-148920953D01*
X124360715Y-148730477D01*
X124408334Y-148635239D01*
X124503572Y-148540001D01*
X124646429Y-148492381D01*
X124741667Y-148492381D01*
X124884524Y-148540001D01*
X124932143Y-148587620D01*
X125265477Y-148492381D02*
X125884524Y-148492381D01*
X125551191Y-148873334D01*
X125694048Y-148873334D01*
X125789286Y-148920953D01*
X125836905Y-148968572D01*
X125884524Y-149063810D01*
X125884524Y-149301905D01*
X125836905Y-149397143D01*
X125789286Y-149444762D01*
X125694048Y-149492381D01*
X125408334Y-149492381D01*
X125313096Y-149444762D01*
X125265477Y-149397143D01*
X126836905Y-149492381D02*
X126265477Y-149492381D01*
X126551191Y-149492381D02*
X126551191Y-148492381D01*
X126455953Y-148635239D01*
X126360715Y-148730477D01*
X126265477Y-148778096D01*
X121082143Y-151747143D02*
X121034524Y-151794762D01*
X120891667Y-151842381D01*
X120796429Y-151842381D01*
X120653572Y-151794762D01*
X120558334Y-151699524D01*
X120510715Y-151604286D01*
X120463096Y-151413810D01*
X120463096Y-151270953D01*
X120510715Y-151080477D01*
X120558334Y-150985239D01*
X120653572Y-150890001D01*
X120796429Y-150842381D01*
X120891667Y-150842381D01*
X121034524Y-150890001D01*
X121082143Y-150937620D01*
X121415477Y-150842381D02*
X122034524Y-150842381D01*
X121701191Y-151223334D01*
X121844048Y-151223334D01*
X121939286Y-151270953D01*
X121986905Y-151318572D01*
X122034524Y-151413810D01*
X122034524Y-151651905D01*
X121986905Y-151747143D01*
X121939286Y-151794762D01*
X121844048Y-151842381D01*
X121558334Y-151842381D01*
X121463096Y-151794762D01*
X121415477Y-151747143D01*
X122415477Y-150937620D02*
X122463096Y-150890001D01*
X122558334Y-150842381D01*
X122796429Y-150842381D01*
X122891667Y-150890001D01*
X122939286Y-150937620D01*
X122986905Y-151032858D01*
X122986905Y-151128096D01*
X122939286Y-151270953D01*
X122367858Y-151842381D01*
X122986905Y-151842381D01*
X137932143Y-152222143D02*
X137884524Y-152269762D01*
X137741667Y-152317381D01*
X137646429Y-152317381D01*
X137503572Y-152269762D01*
X137408334Y-152174524D01*
X137360715Y-152079286D01*
X137313096Y-151888810D01*
X137313096Y-151745953D01*
X137360715Y-151555477D01*
X137408334Y-151460239D01*
X137503572Y-151365001D01*
X137646429Y-151317381D01*
X137741667Y-151317381D01*
X137884524Y-151365001D01*
X137932143Y-151412620D01*
X138265477Y-151317381D02*
X138884524Y-151317381D01*
X138551191Y-151698334D01*
X138694048Y-151698334D01*
X138789286Y-151745953D01*
X138836905Y-151793572D01*
X138884524Y-151888810D01*
X138884524Y-152126905D01*
X138836905Y-152222143D01*
X138789286Y-152269762D01*
X138694048Y-152317381D01*
X138408334Y-152317381D01*
X138313096Y-152269762D01*
X138265477Y-152222143D01*
X139217858Y-151317381D02*
X139836905Y-151317381D01*
X139503572Y-151698334D01*
X139646429Y-151698334D01*
X139741667Y-151745953D01*
X139789286Y-151793572D01*
X139836905Y-151888810D01*
X139836905Y-152126905D01*
X139789286Y-152222143D01*
X139741667Y-152269762D01*
X139646429Y-152317381D01*
X139360715Y-152317381D01*
X139265477Y-152269762D01*
X139217858Y-152222143D01*
X101457143Y-71472143D02*
X101409524Y-71519762D01*
X101266667Y-71567381D01*
X101171429Y-71567381D01*
X101028572Y-71519762D01*
X100933334Y-71424524D01*
X100885715Y-71329286D01*
X100838096Y-71138810D01*
X100838096Y-70995953D01*
X100885715Y-70805477D01*
X100933334Y-70710239D01*
X101028572Y-70615001D01*
X101171429Y-70567381D01*
X101266667Y-70567381D01*
X101409524Y-70615001D01*
X101457143Y-70662620D01*
X101790477Y-70567381D02*
X102409524Y-70567381D01*
X102076191Y-70948334D01*
X102219048Y-70948334D01*
X102314286Y-70995953D01*
X102361905Y-71043572D01*
X102409524Y-71138810D01*
X102409524Y-71376905D01*
X102361905Y-71472143D01*
X102314286Y-71519762D01*
X102219048Y-71567381D01*
X101933334Y-71567381D01*
X101838096Y-71519762D01*
X101790477Y-71472143D01*
X103266667Y-70900715D02*
X103266667Y-71567381D01*
X103028572Y-70519762D02*
X102790477Y-71234048D01*
X103409524Y-71234048D01*
X138507143Y-123757143D02*
X138459524Y-123804762D01*
X138316667Y-123852381D01*
X138221429Y-123852381D01*
X138078572Y-123804762D01*
X137983334Y-123709524D01*
X137935715Y-123614286D01*
X137888096Y-123423810D01*
X137888096Y-123280953D01*
X137935715Y-123090477D01*
X137983334Y-122995239D01*
X138078572Y-122900001D01*
X138221429Y-122852381D01*
X138316667Y-122852381D01*
X138459524Y-122900001D01*
X138507143Y-122947620D01*
X138840477Y-122852381D02*
X139459524Y-122852381D01*
X139126191Y-123233334D01*
X139269048Y-123233334D01*
X139364286Y-123280953D01*
X139411905Y-123328572D01*
X139459524Y-123423810D01*
X139459524Y-123661905D01*
X139411905Y-123757143D01*
X139364286Y-123804762D01*
X139269048Y-123852381D01*
X138983334Y-123852381D01*
X138888096Y-123804762D01*
X138840477Y-123757143D01*
X140364286Y-122852381D02*
X139888096Y-122852381D01*
X139840477Y-123328572D01*
X139888096Y-123280953D01*
X139983334Y-123233334D01*
X140221429Y-123233334D01*
X140316667Y-123280953D01*
X140364286Y-123328572D01*
X140411905Y-123423810D01*
X140411905Y-123661905D01*
X140364286Y-123757143D01*
X140316667Y-123804762D01*
X140221429Y-123852381D01*
X139983334Y-123852381D01*
X139888096Y-123804762D01*
X139840477Y-123757143D01*
X160267143Y-144272143D02*
X160219524Y-144319762D01*
X160076667Y-144367381D01*
X159981429Y-144367381D01*
X159838572Y-144319762D01*
X159743334Y-144224524D01*
X159695715Y-144129286D01*
X159648096Y-143938810D01*
X159648096Y-143795953D01*
X159695715Y-143605477D01*
X159743334Y-143510239D01*
X159838572Y-143415001D01*
X159981429Y-143367381D01*
X160076667Y-143367381D01*
X160219524Y-143415001D01*
X160267143Y-143462620D01*
X160600477Y-143367381D02*
X161219524Y-143367381D01*
X160886191Y-143748334D01*
X161029048Y-143748334D01*
X161124286Y-143795953D01*
X161171905Y-143843572D01*
X161219524Y-143938810D01*
X161219524Y-144176905D01*
X161171905Y-144272143D01*
X161124286Y-144319762D01*
X161029048Y-144367381D01*
X160743334Y-144367381D01*
X160648096Y-144319762D01*
X160600477Y-144272143D01*
X162076667Y-143367381D02*
X161886191Y-143367381D01*
X161790953Y-143415001D01*
X161743334Y-143462620D01*
X161648096Y-143605477D01*
X161600477Y-143795953D01*
X161600477Y-144176905D01*
X161648096Y-144272143D01*
X161695715Y-144319762D01*
X161790953Y-144367381D01*
X161981429Y-144367381D01*
X162076667Y-144319762D01*
X162124286Y-144272143D01*
X162171905Y-144176905D01*
X162171905Y-143938810D01*
X162124286Y-143843572D01*
X162076667Y-143795953D01*
X161981429Y-143748334D01*
X161790953Y-143748334D01*
X161695715Y-143795953D01*
X161648096Y-143843572D01*
X161600477Y-143938810D01*
X160267143Y-146622143D02*
X160219524Y-146669762D01*
X160076667Y-146717381D01*
X159981429Y-146717381D01*
X159838572Y-146669762D01*
X159743334Y-146574524D01*
X159695715Y-146479286D01*
X159648096Y-146288810D01*
X159648096Y-146145953D01*
X159695715Y-145955477D01*
X159743334Y-145860239D01*
X159838572Y-145765001D01*
X159981429Y-145717381D01*
X160076667Y-145717381D01*
X160219524Y-145765001D01*
X160267143Y-145812620D01*
X160600477Y-145717381D02*
X161219524Y-145717381D01*
X160886191Y-146098334D01*
X161029048Y-146098334D01*
X161124286Y-146145953D01*
X161171905Y-146193572D01*
X161219524Y-146288810D01*
X161219524Y-146526905D01*
X161171905Y-146622143D01*
X161124286Y-146669762D01*
X161029048Y-146717381D01*
X160743334Y-146717381D01*
X160648096Y-146669762D01*
X160600477Y-146622143D01*
X161552858Y-145717381D02*
X162219524Y-145717381D01*
X161790953Y-146717381D01*
X156417143Y-148972143D02*
X156369524Y-149019762D01*
X156226667Y-149067381D01*
X156131429Y-149067381D01*
X155988572Y-149019762D01*
X155893334Y-148924524D01*
X155845715Y-148829286D01*
X155798096Y-148638810D01*
X155798096Y-148495953D01*
X155845715Y-148305477D01*
X155893334Y-148210239D01*
X155988572Y-148115001D01*
X156131429Y-148067381D01*
X156226667Y-148067381D01*
X156369524Y-148115001D01*
X156417143Y-148162620D01*
X156750477Y-148067381D02*
X157369524Y-148067381D01*
X157036191Y-148448334D01*
X157179048Y-148448334D01*
X157274286Y-148495953D01*
X157321905Y-148543572D01*
X157369524Y-148638810D01*
X157369524Y-148876905D01*
X157321905Y-148972143D01*
X157274286Y-149019762D01*
X157179048Y-149067381D01*
X156893334Y-149067381D01*
X156798096Y-149019762D01*
X156750477Y-148972143D01*
X157940953Y-148495953D02*
X157845715Y-148448334D01*
X157798096Y-148400715D01*
X157750477Y-148305477D01*
X157750477Y-148257858D01*
X157798096Y-148162620D01*
X157845715Y-148115001D01*
X157940953Y-148067381D01*
X158131429Y-148067381D01*
X158226667Y-148115001D01*
X158274286Y-148162620D01*
X158321905Y-148257858D01*
X158321905Y-148305477D01*
X158274286Y-148400715D01*
X158226667Y-148448334D01*
X158131429Y-148495953D01*
X157940953Y-148495953D01*
X157845715Y-148543572D01*
X157798096Y-148591191D01*
X157750477Y-148686429D01*
X157750477Y-148876905D01*
X157798096Y-148972143D01*
X157845715Y-149019762D01*
X157940953Y-149067381D01*
X158131429Y-149067381D01*
X158226667Y-149019762D01*
X158274286Y-148972143D01*
X158321905Y-148876905D01*
X158321905Y-148686429D01*
X158274286Y-148591191D01*
X158226667Y-148543572D01*
X158131429Y-148495953D01*
X141782143Y-148722143D02*
X141734524Y-148769762D01*
X141591667Y-148817381D01*
X141496429Y-148817381D01*
X141353572Y-148769762D01*
X141258334Y-148674524D01*
X141210715Y-148579286D01*
X141163096Y-148388810D01*
X141163096Y-148245953D01*
X141210715Y-148055477D01*
X141258334Y-147960239D01*
X141353572Y-147865001D01*
X141496429Y-147817381D01*
X141591667Y-147817381D01*
X141734524Y-147865001D01*
X141782143Y-147912620D01*
X142115477Y-147817381D02*
X142734524Y-147817381D01*
X142401191Y-148198334D01*
X142544048Y-148198334D01*
X142639286Y-148245953D01*
X142686905Y-148293572D01*
X142734524Y-148388810D01*
X142734524Y-148626905D01*
X142686905Y-148722143D01*
X142639286Y-148769762D01*
X142544048Y-148817381D01*
X142258334Y-148817381D01*
X142163096Y-148769762D01*
X142115477Y-148722143D01*
X143210715Y-148817381D02*
X143401191Y-148817381D01*
X143496429Y-148769762D01*
X143544048Y-148722143D01*
X143639286Y-148579286D01*
X143686905Y-148388810D01*
X143686905Y-148007858D01*
X143639286Y-147912620D01*
X143591667Y-147865001D01*
X143496429Y-147817381D01*
X143305953Y-147817381D01*
X143210715Y-147865001D01*
X143163096Y-147912620D01*
X143115477Y-148007858D01*
X143115477Y-148245953D01*
X143163096Y-148341191D01*
X143210715Y-148388810D01*
X143305953Y-148436429D01*
X143496429Y-148436429D01*
X143591667Y-148388810D01*
X143639286Y-148341191D01*
X143686905Y-148245953D01*
X134082143Y-156922143D02*
X134034524Y-156969762D01*
X133891667Y-157017381D01*
X133796429Y-157017381D01*
X133653572Y-156969762D01*
X133558334Y-156874524D01*
X133510715Y-156779286D01*
X133463096Y-156588810D01*
X133463096Y-156445953D01*
X133510715Y-156255477D01*
X133558334Y-156160239D01*
X133653572Y-156065001D01*
X133796429Y-156017381D01*
X133891667Y-156017381D01*
X134034524Y-156065001D01*
X134082143Y-156112620D01*
X134939286Y-156350715D02*
X134939286Y-157017381D01*
X134701191Y-155969762D02*
X134463096Y-156684048D01*
X135082143Y-156684048D01*
X135653572Y-156017381D02*
X135748810Y-156017381D01*
X135844048Y-156065001D01*
X135891667Y-156112620D01*
X135939286Y-156207858D01*
X135986905Y-156398334D01*
X135986905Y-156636429D01*
X135939286Y-156826905D01*
X135891667Y-156922143D01*
X135844048Y-156969762D01*
X135748810Y-157017381D01*
X135653572Y-157017381D01*
X135558334Y-156969762D01*
X135510715Y-156922143D01*
X135463096Y-156826905D01*
X135415477Y-156636429D01*
X135415477Y-156398334D01*
X135463096Y-156207858D01*
X135510715Y-156112620D01*
X135558334Y-156065001D01*
X135653572Y-156017381D01*
X157157143Y-126022143D02*
X157109524Y-126069762D01*
X156966667Y-126117381D01*
X156871429Y-126117381D01*
X156728572Y-126069762D01*
X156633334Y-125974524D01*
X156585715Y-125879286D01*
X156538096Y-125688810D01*
X156538096Y-125545953D01*
X156585715Y-125355477D01*
X156633334Y-125260239D01*
X156728572Y-125165001D01*
X156871429Y-125117381D01*
X156966667Y-125117381D01*
X157109524Y-125165001D01*
X157157143Y-125212620D01*
X158014286Y-125450715D02*
X158014286Y-126117381D01*
X157776191Y-125069762D02*
X157538096Y-125784048D01*
X158157143Y-125784048D01*
X159061905Y-126117381D02*
X158490477Y-126117381D01*
X158776191Y-126117381D02*
X158776191Y-125117381D01*
X158680953Y-125260239D01*
X158585715Y-125355477D01*
X158490477Y-125403096D01*
X142357143Y-126107143D02*
X142309524Y-126154762D01*
X142166667Y-126202381D01*
X142071429Y-126202381D01*
X141928572Y-126154762D01*
X141833334Y-126059524D01*
X141785715Y-125964286D01*
X141738096Y-125773810D01*
X141738096Y-125630953D01*
X141785715Y-125440477D01*
X141833334Y-125345239D01*
X141928572Y-125250001D01*
X142071429Y-125202381D01*
X142166667Y-125202381D01*
X142309524Y-125250001D01*
X142357143Y-125297620D01*
X143214286Y-125535715D02*
X143214286Y-126202381D01*
X142976191Y-125154762D02*
X142738096Y-125869048D01*
X143357143Y-125869048D01*
X143690477Y-125297620D02*
X143738096Y-125250001D01*
X143833334Y-125202381D01*
X144071429Y-125202381D01*
X144166667Y-125250001D01*
X144214286Y-125297620D01*
X144261905Y-125392858D01*
X144261905Y-125488096D01*
X144214286Y-125630953D01*
X143642858Y-126202381D01*
X144261905Y-126202381D01*
X154307143Y-98457143D02*
X154259524Y-98504762D01*
X154116667Y-98552381D01*
X154021429Y-98552381D01*
X153878572Y-98504762D01*
X153783334Y-98409524D01*
X153735715Y-98314286D01*
X153688096Y-98123810D01*
X153688096Y-97980953D01*
X153735715Y-97790477D01*
X153783334Y-97695239D01*
X153878572Y-97600001D01*
X154021429Y-97552381D01*
X154116667Y-97552381D01*
X154259524Y-97600001D01*
X154307143Y-97647620D01*
X155164286Y-97885715D02*
X155164286Y-98552381D01*
X154926191Y-97504762D02*
X154688096Y-98219048D01*
X155307143Y-98219048D01*
X155592858Y-97552381D02*
X156211905Y-97552381D01*
X155878572Y-97933334D01*
X156021429Y-97933334D01*
X156116667Y-97980953D01*
X156164286Y-98028572D01*
X156211905Y-98123810D01*
X156211905Y-98361905D01*
X156164286Y-98457143D01*
X156116667Y-98504762D01*
X156021429Y-98552381D01*
X155735715Y-98552381D01*
X155640477Y-98504762D01*
X155592858Y-98457143D01*
X164117143Y-141922143D02*
X164069524Y-141969762D01*
X163926667Y-142017381D01*
X163831429Y-142017381D01*
X163688572Y-141969762D01*
X163593334Y-141874524D01*
X163545715Y-141779286D01*
X163498096Y-141588810D01*
X163498096Y-141445953D01*
X163545715Y-141255477D01*
X163593334Y-141160239D01*
X163688572Y-141065001D01*
X163831429Y-141017381D01*
X163926667Y-141017381D01*
X164069524Y-141065001D01*
X164117143Y-141112620D01*
X164974286Y-141350715D02*
X164974286Y-142017381D01*
X164736191Y-140969762D02*
X164498096Y-141684048D01*
X165117143Y-141684048D01*
X165926667Y-141350715D02*
X165926667Y-142017381D01*
X165688572Y-140969762D02*
X165450477Y-141684048D01*
X166069524Y-141684048D01*
X156417143Y-141922143D02*
X156369524Y-141969762D01*
X156226667Y-142017381D01*
X156131429Y-142017381D01*
X155988572Y-141969762D01*
X155893334Y-141874524D01*
X155845715Y-141779286D01*
X155798096Y-141588810D01*
X155798096Y-141445953D01*
X155845715Y-141255477D01*
X155893334Y-141160239D01*
X155988572Y-141065001D01*
X156131429Y-141017381D01*
X156226667Y-141017381D01*
X156369524Y-141065001D01*
X156417143Y-141112620D01*
X157274286Y-141350715D02*
X157274286Y-142017381D01*
X157036191Y-140969762D02*
X156798096Y-141684048D01*
X157417143Y-141684048D01*
X158274286Y-141017381D02*
X157798096Y-141017381D01*
X157750477Y-141493572D01*
X157798096Y-141445953D01*
X157893334Y-141398334D01*
X158131429Y-141398334D01*
X158226667Y-141445953D01*
X158274286Y-141493572D01*
X158321905Y-141588810D01*
X158321905Y-141826905D01*
X158274286Y-141922143D01*
X158226667Y-141969762D01*
X158131429Y-142017381D01*
X157893334Y-142017381D01*
X157798096Y-141969762D01*
X157750477Y-141922143D01*
X168511905Y-101422381D02*
X168511905Y-100422381D01*
X168750001Y-100422381D01*
X168892858Y-100470001D01*
X168988096Y-100565239D01*
X169035715Y-100660477D01*
X169083334Y-100850953D01*
X169083334Y-100993810D01*
X169035715Y-101184286D01*
X168988096Y-101279524D01*
X168892858Y-101374762D01*
X168750001Y-101422381D01*
X168511905Y-101422381D01*
X170035715Y-101422381D02*
X169464286Y-101422381D01*
X169750001Y-101422381D02*
X169750001Y-100422381D01*
X169654762Y-100565239D01*
X169559524Y-100660477D01*
X169464286Y-100708096D01*
X101236905Y-164452381D02*
X101236905Y-163452381D01*
X101475001Y-163452381D01*
X101617858Y-163500001D01*
X101713096Y-163595239D01*
X101760715Y-163690477D01*
X101808334Y-163880953D01*
X101808334Y-164023810D01*
X101760715Y-164214286D01*
X101713096Y-164309524D01*
X101617858Y-164404762D01*
X101475001Y-164452381D01*
X101236905Y-164452381D01*
X102189286Y-163547620D02*
X102236905Y-163500001D01*
X102332143Y-163452381D01*
X102570239Y-163452381D01*
X102665477Y-163500001D01*
X102713096Y-163547620D01*
X102760715Y-163642858D01*
X102760715Y-163738096D01*
X102713096Y-163880953D01*
X102141667Y-164452381D01*
X102760715Y-164452381D01*
X118916667Y-82317381D02*
X118916667Y-83031667D01*
X118869048Y-83174524D01*
X118773810Y-83269762D01*
X118630953Y-83317381D01*
X118535715Y-83317381D01*
X119916667Y-83317381D02*
X119345239Y-83317381D01*
X119630953Y-83317381D02*
X119630953Y-82317381D01*
X119535715Y-82460239D01*
X119440477Y-82555477D01*
X119345239Y-82603096D01*
X220146666Y-63487380D02*
X220146666Y-64201666D01*
X220099047Y-64344523D01*
X220003809Y-64439761D01*
X219860952Y-64487380D01*
X219765714Y-64487380D01*
X221051428Y-63820714D02*
X221051428Y-64487380D01*
X220813333Y-63439761D02*
X220575238Y-64154047D01*
X221194285Y-64154047D01*
X141808334Y-154782381D02*
X141475001Y-154306191D01*
X141236905Y-154782381D02*
X141236905Y-153782381D01*
X141617858Y-153782381D01*
X141713096Y-153830001D01*
X141760715Y-153877620D01*
X141808334Y-153972858D01*
X141808334Y-154115715D01*
X141760715Y-154210953D01*
X141713096Y-154258572D01*
X141617858Y-154306191D01*
X141236905Y-154306191D01*
X142189286Y-153877620D02*
X142236905Y-153830001D01*
X142332143Y-153782381D01*
X142570239Y-153782381D01*
X142665477Y-153830001D01*
X142713096Y-153877620D01*
X142760715Y-153972858D01*
X142760715Y-154068096D01*
X142713096Y-154210953D01*
X142141667Y-154782381D01*
X142760715Y-154782381D01*
X145958334Y-149062381D02*
X145625001Y-148586191D01*
X145386905Y-149062381D02*
X145386905Y-148062381D01*
X145767858Y-148062381D01*
X145863096Y-148110001D01*
X145910715Y-148157620D01*
X145958334Y-148252858D01*
X145958334Y-148395715D01*
X145910715Y-148490953D01*
X145863096Y-148538572D01*
X145767858Y-148586191D01*
X145386905Y-148586191D01*
X146291667Y-148062381D02*
X146910715Y-148062381D01*
X146577381Y-148443334D01*
X146720239Y-148443334D01*
X146815477Y-148490953D01*
X146863096Y-148538572D01*
X146910715Y-148633810D01*
X146910715Y-148871905D01*
X146863096Y-148967143D01*
X146815477Y-149014762D01*
X146720239Y-149062381D01*
X146434524Y-149062381D01*
X146339286Y-149014762D01*
X146291667Y-148967143D01*
X128808334Y-151957381D02*
X128475001Y-151481191D01*
X128236905Y-151957381D02*
X128236905Y-150957381D01*
X128617858Y-150957381D01*
X128713096Y-151005001D01*
X128760715Y-151052620D01*
X128808334Y-151147858D01*
X128808334Y-151290715D01*
X128760715Y-151385953D01*
X128713096Y-151433572D01*
X128617858Y-151481191D01*
X128236905Y-151481191D01*
X129665477Y-151290715D02*
X129665477Y-151957381D01*
X129427381Y-150909762D02*
X129189286Y-151624048D01*
X129808334Y-151624048D01*
X161333334Y-126122381D02*
X161000001Y-125646191D01*
X160761905Y-126122381D02*
X160761905Y-125122381D01*
X161142858Y-125122381D01*
X161238096Y-125170001D01*
X161285715Y-125217620D01*
X161333334Y-125312858D01*
X161333334Y-125455715D01*
X161285715Y-125550953D01*
X161238096Y-125598572D01*
X161142858Y-125646191D01*
X160761905Y-125646191D01*
X162238096Y-125122381D02*
X161761905Y-125122381D01*
X161714286Y-125598572D01*
X161761905Y-125550953D01*
X161857143Y-125503334D01*
X162095239Y-125503334D01*
X162190477Y-125550953D01*
X162238096Y-125598572D01*
X162285715Y-125693810D01*
X162285715Y-125931905D01*
X162238096Y-126027143D01*
X162190477Y-126074762D01*
X162095239Y-126122381D01*
X161857143Y-126122381D01*
X161761905Y-126074762D01*
X161714286Y-126027143D01*
X164883334Y-123642381D02*
X164550001Y-123166191D01*
X164311905Y-123642381D02*
X164311905Y-122642381D01*
X164692858Y-122642381D01*
X164788096Y-122690001D01*
X164835715Y-122737620D01*
X164883334Y-122832858D01*
X164883334Y-122975715D01*
X164835715Y-123070953D01*
X164788096Y-123118572D01*
X164692858Y-123166191D01*
X164311905Y-123166191D01*
X165740477Y-122642381D02*
X165550001Y-122642381D01*
X165454762Y-122690001D01*
X165407143Y-122737620D01*
X165311905Y-122880477D01*
X165264286Y-123070953D01*
X165264286Y-123451905D01*
X165311905Y-123547143D01*
X165359524Y-123594762D01*
X165454762Y-123642381D01*
X165645239Y-123642381D01*
X165740477Y-123594762D01*
X165788096Y-123547143D01*
X165835715Y-123451905D01*
X165835715Y-123213810D01*
X165788096Y-123118572D01*
X165740477Y-123070953D01*
X165645239Y-123023334D01*
X165454762Y-123023334D01*
X165359524Y-123070953D01*
X165311905Y-123118572D01*
X165264286Y-123213810D01*
X176333334Y-99067381D02*
X176000001Y-98591191D01*
X175761905Y-99067381D02*
X175761905Y-98067381D01*
X176142858Y-98067381D01*
X176238096Y-98115001D01*
X176285715Y-98162620D01*
X176333334Y-98257858D01*
X176333334Y-98400715D01*
X176285715Y-98495953D01*
X176238096Y-98543572D01*
X176142858Y-98591191D01*
X175761905Y-98591191D01*
X176666667Y-98067381D02*
X177333334Y-98067381D01*
X176904762Y-99067381D01*
X150083334Y-122807381D02*
X149750001Y-122331191D01*
X149511905Y-122807381D02*
X149511905Y-121807381D01*
X149892858Y-121807381D01*
X149988096Y-121855001D01*
X150035715Y-121902620D01*
X150083334Y-121997858D01*
X150083334Y-122140715D01*
X150035715Y-122235953D01*
X149988096Y-122283572D01*
X149892858Y-122331191D01*
X149511905Y-122331191D01*
X150654762Y-122235953D02*
X150559524Y-122188334D01*
X150511905Y-122140715D01*
X150464286Y-122045477D01*
X150464286Y-121997858D01*
X150511905Y-121902620D01*
X150559524Y-121855001D01*
X150654762Y-121807381D01*
X150845239Y-121807381D01*
X150940477Y-121855001D01*
X150988096Y-121902620D01*
X151035715Y-121997858D01*
X151035715Y-122045477D01*
X150988096Y-122140715D01*
X150940477Y-122188334D01*
X150845239Y-122235953D01*
X150654762Y-122235953D01*
X150559524Y-122283572D01*
X150511905Y-122331191D01*
X150464286Y-122426429D01*
X150464286Y-122616905D01*
X150511905Y-122712143D01*
X150559524Y-122759762D01*
X150654762Y-122807381D01*
X150845239Y-122807381D01*
X150940477Y-122759762D01*
X150988096Y-122712143D01*
X151035715Y-122616905D01*
X151035715Y-122426429D01*
X150988096Y-122331191D01*
X150940477Y-122283572D01*
X150845239Y-122235953D01*
X156743334Y-151532381D02*
X156410001Y-151056191D01*
X156171905Y-151532381D02*
X156171905Y-150532381D01*
X156552858Y-150532381D01*
X156648096Y-150580001D01*
X156695715Y-150627620D01*
X156743334Y-150722858D01*
X156743334Y-150865715D01*
X156695715Y-150960953D01*
X156648096Y-151008572D01*
X156552858Y-151056191D01*
X156171905Y-151056191D01*
X157219524Y-151532381D02*
X157410001Y-151532381D01*
X157505239Y-151484762D01*
X157552858Y-151437143D01*
X157648096Y-151294286D01*
X157695715Y-151103810D01*
X157695715Y-150722858D01*
X157648096Y-150627620D01*
X157600477Y-150580001D01*
X157505239Y-150532381D01*
X157314762Y-150532381D01*
X157219524Y-150580001D01*
X157171905Y-150627620D01*
X157124286Y-150722858D01*
X157124286Y-150960953D01*
X157171905Y-151056191D01*
X157219524Y-151103810D01*
X157314762Y-151151429D01*
X157505239Y-151151429D01*
X157600477Y-151103810D01*
X157648096Y-151056191D01*
X157695715Y-150960953D01*
X150307143Y-103497381D02*
X149973810Y-103021191D01*
X149735715Y-103497381D02*
X149735715Y-102497381D01*
X150116667Y-102497381D01*
X150211905Y-102545001D01*
X150259524Y-102592620D01*
X150307143Y-102687858D01*
X150307143Y-102830715D01*
X150259524Y-102925953D01*
X150211905Y-102973572D01*
X150116667Y-103021191D01*
X149735715Y-103021191D01*
X151259524Y-103497381D02*
X150688096Y-103497381D01*
X150973810Y-103497381D02*
X150973810Y-102497381D01*
X150878572Y-102640239D01*
X150783334Y-102735477D01*
X150688096Y-102783096D01*
X151878572Y-102497381D02*
X151973810Y-102497381D01*
X152069048Y-102545001D01*
X152116667Y-102592620D01*
X152164286Y-102687858D01*
X152211905Y-102878334D01*
X152211905Y-103116429D01*
X152164286Y-103306905D01*
X152116667Y-103402143D01*
X152069048Y-103449762D01*
X151973810Y-103497381D01*
X151878572Y-103497381D01*
X151783334Y-103449762D01*
X151735715Y-103402143D01*
X151688096Y-103306905D01*
X151640477Y-103116429D01*
X151640477Y-102878334D01*
X151688096Y-102687858D01*
X151735715Y-102592620D01*
X151783334Y-102545001D01*
X151878572Y-102497381D01*
X153857143Y-101017381D02*
X153523810Y-100541191D01*
X153285715Y-101017381D02*
X153285715Y-100017381D01*
X153666667Y-100017381D01*
X153761905Y-100065001D01*
X153809524Y-100112620D01*
X153857143Y-100207858D01*
X153857143Y-100350715D01*
X153809524Y-100445953D01*
X153761905Y-100493572D01*
X153666667Y-100541191D01*
X153285715Y-100541191D01*
X154809524Y-101017381D02*
X154238096Y-101017381D01*
X154523810Y-101017381D02*
X154523810Y-100017381D01*
X154428572Y-100160239D01*
X154333334Y-100255477D01*
X154238096Y-100303096D01*
X155761905Y-101017381D02*
X155190477Y-101017381D01*
X155476191Y-101017381D02*
X155476191Y-100017381D01*
X155380953Y-100160239D01*
X155285715Y-100255477D01*
X155190477Y-100303096D01*
X180557143Y-56492381D02*
X180223810Y-56016191D01*
X179985715Y-56492381D02*
X179985715Y-55492381D01*
X180366667Y-55492381D01*
X180461905Y-55540001D01*
X180509524Y-55587620D01*
X180557143Y-55682858D01*
X180557143Y-55825715D01*
X180509524Y-55920953D01*
X180461905Y-55968572D01*
X180366667Y-56016191D01*
X179985715Y-56016191D01*
X181509524Y-56492381D02*
X180938096Y-56492381D01*
X181223810Y-56492381D02*
X181223810Y-55492381D01*
X181128572Y-55635239D01*
X181033334Y-55730477D01*
X180938096Y-55778096D01*
X181890477Y-55587620D02*
X181938096Y-55540001D01*
X182033334Y-55492381D01*
X182271429Y-55492381D01*
X182366667Y-55540001D01*
X182414286Y-55587620D01*
X182461905Y-55682858D01*
X182461905Y-55778096D01*
X182414286Y-55920953D01*
X181842858Y-56492381D01*
X182461905Y-56492381D01*
X150307143Y-101017381D02*
X149973810Y-100541191D01*
X149735715Y-101017381D02*
X149735715Y-100017381D01*
X150116667Y-100017381D01*
X150211905Y-100065001D01*
X150259524Y-100112620D01*
X150307143Y-100207858D01*
X150307143Y-100350715D01*
X150259524Y-100445953D01*
X150211905Y-100493572D01*
X150116667Y-100541191D01*
X149735715Y-100541191D01*
X151259524Y-101017381D02*
X150688096Y-101017381D01*
X150973810Y-101017381D02*
X150973810Y-100017381D01*
X150878572Y-100160239D01*
X150783334Y-100255477D01*
X150688096Y-100303096D01*
X151592858Y-100017381D02*
X152211905Y-100017381D01*
X151878572Y-100398334D01*
X152021429Y-100398334D01*
X152116667Y-100445953D01*
X152164286Y-100493572D01*
X152211905Y-100588810D01*
X152211905Y-100826905D01*
X152164286Y-100922143D01*
X152116667Y-100969762D01*
X152021429Y-101017381D01*
X151735715Y-101017381D01*
X151640477Y-100969762D01*
X151592858Y-100922143D01*
X146057143Y-123967381D02*
X145723810Y-123491191D01*
X145485715Y-123967381D02*
X145485715Y-122967381D01*
X145866667Y-122967381D01*
X145961905Y-123015001D01*
X146009524Y-123062620D01*
X146057143Y-123157858D01*
X146057143Y-123300715D01*
X146009524Y-123395953D01*
X145961905Y-123443572D01*
X145866667Y-123491191D01*
X145485715Y-123491191D01*
X147009524Y-123967381D02*
X146438096Y-123967381D01*
X146723810Y-123967381D02*
X146723810Y-122967381D01*
X146628572Y-123110239D01*
X146533334Y-123205477D01*
X146438096Y-123253096D01*
X147866667Y-123300715D02*
X147866667Y-123967381D01*
X147628572Y-122919762D02*
X147390477Y-123634048D01*
X148009524Y-123634048D01*
X172307143Y-99067381D02*
X171973810Y-98591191D01*
X171735715Y-99067381D02*
X171735715Y-98067381D01*
X172116667Y-98067381D01*
X172211905Y-98115001D01*
X172259524Y-98162620D01*
X172307143Y-98257858D01*
X172307143Y-98400715D01*
X172259524Y-98495953D01*
X172211905Y-98543572D01*
X172116667Y-98591191D01*
X171735715Y-98591191D01*
X173259524Y-99067381D02*
X172688096Y-99067381D01*
X172973810Y-99067381D02*
X172973810Y-98067381D01*
X172878572Y-98210239D01*
X172783334Y-98305477D01*
X172688096Y-98353096D01*
X174164286Y-98067381D02*
X173688096Y-98067381D01*
X173640477Y-98543572D01*
X173688096Y-98495953D01*
X173783334Y-98448334D01*
X174021429Y-98448334D01*
X174116667Y-98495953D01*
X174164286Y-98543572D01*
X174211905Y-98638810D01*
X174211905Y-98876905D01*
X174164286Y-98972143D01*
X174116667Y-99019762D01*
X174021429Y-99067381D01*
X173783334Y-99067381D01*
X173688096Y-99019762D01*
X173640477Y-98972143D01*
X160857143Y-123642381D02*
X160523810Y-123166191D01*
X160285715Y-123642381D02*
X160285715Y-122642381D01*
X160666667Y-122642381D01*
X160761905Y-122690001D01*
X160809524Y-122737620D01*
X160857143Y-122832858D01*
X160857143Y-122975715D01*
X160809524Y-123070953D01*
X160761905Y-123118572D01*
X160666667Y-123166191D01*
X160285715Y-123166191D01*
X161809524Y-123642381D02*
X161238096Y-123642381D01*
X161523810Y-123642381D02*
X161523810Y-122642381D01*
X161428572Y-122785239D01*
X161333334Y-122880477D01*
X161238096Y-122928096D01*
X162666667Y-122642381D02*
X162476191Y-122642381D01*
X162380953Y-122690001D01*
X162333334Y-122737620D01*
X162238096Y-122880477D01*
X162190477Y-123070953D01*
X162190477Y-123451905D01*
X162238096Y-123547143D01*
X162285715Y-123594762D01*
X162380953Y-123642381D01*
X162571429Y-123642381D01*
X162666667Y-123594762D01*
X162714286Y-123547143D01*
X162761905Y-123451905D01*
X162761905Y-123213810D01*
X162714286Y-123118572D01*
X162666667Y-123070953D01*
X162571429Y-123023334D01*
X162380953Y-123023334D01*
X162285715Y-123070953D01*
X162238096Y-123118572D01*
X162190477Y-123213810D01*
X124782143Y-151957381D02*
X124448810Y-151481191D01*
X124210715Y-151957381D02*
X124210715Y-150957381D01*
X124591667Y-150957381D01*
X124686905Y-151005001D01*
X124734524Y-151052620D01*
X124782143Y-151147858D01*
X124782143Y-151290715D01*
X124734524Y-151385953D01*
X124686905Y-151433572D01*
X124591667Y-151481191D01*
X124210715Y-151481191D01*
X125734524Y-151957381D02*
X125163096Y-151957381D01*
X125448810Y-151957381D02*
X125448810Y-150957381D01*
X125353572Y-151100239D01*
X125258334Y-151195477D01*
X125163096Y-151243096D01*
X126067858Y-150957381D02*
X126734524Y-150957381D01*
X126305953Y-151957381D01*
X137782143Y-154782381D02*
X137448810Y-154306191D01*
X137210715Y-154782381D02*
X137210715Y-153782381D01*
X137591667Y-153782381D01*
X137686905Y-153830001D01*
X137734524Y-153877620D01*
X137782143Y-153972858D01*
X137782143Y-154115715D01*
X137734524Y-154210953D01*
X137686905Y-154258572D01*
X137591667Y-154306191D01*
X137210715Y-154306191D01*
X138734524Y-154782381D02*
X138163096Y-154782381D01*
X138448810Y-154782381D02*
X138448810Y-153782381D01*
X138353572Y-153925239D01*
X138258334Y-154020477D01*
X138163096Y-154068096D01*
X139305953Y-154210953D02*
X139210715Y-154163334D01*
X139163096Y-154115715D01*
X139115477Y-154020477D01*
X139115477Y-153972858D01*
X139163096Y-153877620D01*
X139210715Y-153830001D01*
X139305953Y-153782381D01*
X139496429Y-153782381D01*
X139591667Y-153830001D01*
X139639286Y-153877620D01*
X139686905Y-153972858D01*
X139686905Y-154020477D01*
X139639286Y-154115715D01*
X139591667Y-154163334D01*
X139496429Y-154210953D01*
X139305953Y-154210953D01*
X139210715Y-154258572D01*
X139163096Y-154306191D01*
X139115477Y-154401429D01*
X139115477Y-154591905D01*
X139163096Y-154687143D01*
X139210715Y-154734762D01*
X139305953Y-154782381D01*
X139496429Y-154782381D01*
X139591667Y-154734762D01*
X139639286Y-154687143D01*
X139686905Y-154591905D01*
X139686905Y-154401429D01*
X139639286Y-154306191D01*
X139591667Y-154258572D01*
X139496429Y-154210953D01*
X163967143Y-144482381D02*
X163633810Y-144006191D01*
X163395715Y-144482381D02*
X163395715Y-143482381D01*
X163776667Y-143482381D01*
X163871905Y-143530001D01*
X163919524Y-143577620D01*
X163967143Y-143672858D01*
X163967143Y-143815715D01*
X163919524Y-143910953D01*
X163871905Y-143958572D01*
X163776667Y-144006191D01*
X163395715Y-144006191D01*
X164919524Y-144482381D02*
X164348096Y-144482381D01*
X164633810Y-144482381D02*
X164633810Y-143482381D01*
X164538572Y-143625239D01*
X164443334Y-143720477D01*
X164348096Y-143768096D01*
X165395715Y-144482381D02*
X165586191Y-144482381D01*
X165681429Y-144434762D01*
X165729048Y-144387143D01*
X165824286Y-144244286D01*
X165871905Y-144053810D01*
X165871905Y-143672858D01*
X165824286Y-143577620D01*
X165776667Y-143530001D01*
X165681429Y-143482381D01*
X165490953Y-143482381D01*
X165395715Y-143530001D01*
X165348096Y-143577620D01*
X165300477Y-143672858D01*
X165300477Y-143910953D01*
X165348096Y-144006191D01*
X165395715Y-144053810D01*
X165490953Y-144101429D01*
X165681429Y-144101429D01*
X165776667Y-144053810D01*
X165824286Y-144006191D01*
X165871905Y-143910953D01*
X146057143Y-126447381D02*
X145723810Y-125971191D01*
X145485715Y-126447381D02*
X145485715Y-125447381D01*
X145866667Y-125447381D01*
X145961905Y-125495001D01*
X146009524Y-125542620D01*
X146057143Y-125637858D01*
X146057143Y-125780715D01*
X146009524Y-125875953D01*
X145961905Y-125923572D01*
X145866667Y-125971191D01*
X145485715Y-125971191D01*
X146438096Y-125542620D02*
X146485715Y-125495001D01*
X146580953Y-125447381D01*
X146819048Y-125447381D01*
X146914286Y-125495001D01*
X146961905Y-125542620D01*
X147009524Y-125637858D01*
X147009524Y-125733096D01*
X146961905Y-125875953D01*
X146390477Y-126447381D01*
X147009524Y-126447381D01*
X147628572Y-125447381D02*
X147723810Y-125447381D01*
X147819048Y-125495001D01*
X147866667Y-125542620D01*
X147914286Y-125637858D01*
X147961905Y-125828334D01*
X147961905Y-126066429D01*
X147914286Y-126256905D01*
X147866667Y-126352143D01*
X147819048Y-126399762D01*
X147723810Y-126447381D01*
X147628572Y-126447381D01*
X147533334Y-126399762D01*
X147485715Y-126352143D01*
X147438096Y-126256905D01*
X147390477Y-126066429D01*
X147390477Y-125828334D01*
X147438096Y-125637858D01*
X147485715Y-125542620D01*
X147533334Y-125495001D01*
X147628572Y-125447381D01*
X141632143Y-151282381D02*
X141298810Y-150806191D01*
X141060715Y-151282381D02*
X141060715Y-150282381D01*
X141441667Y-150282381D01*
X141536905Y-150330001D01*
X141584524Y-150377620D01*
X141632143Y-150472858D01*
X141632143Y-150615715D01*
X141584524Y-150710953D01*
X141536905Y-150758572D01*
X141441667Y-150806191D01*
X141060715Y-150806191D01*
X142013096Y-150377620D02*
X142060715Y-150330001D01*
X142155953Y-150282381D01*
X142394048Y-150282381D01*
X142489286Y-150330001D01*
X142536905Y-150377620D01*
X142584524Y-150472858D01*
X142584524Y-150568096D01*
X142536905Y-150710953D01*
X141965477Y-151282381D01*
X142584524Y-151282381D01*
X143536905Y-151282381D02*
X142965477Y-151282381D01*
X143251191Y-151282381D02*
X143251191Y-150282381D01*
X143155953Y-150425239D01*
X143060715Y-150520477D01*
X142965477Y-150568096D01*
X167517143Y-144482381D02*
X167183810Y-144006191D01*
X166945715Y-144482381D02*
X166945715Y-143482381D01*
X167326667Y-143482381D01*
X167421905Y-143530001D01*
X167469524Y-143577620D01*
X167517143Y-143672858D01*
X167517143Y-143815715D01*
X167469524Y-143910953D01*
X167421905Y-143958572D01*
X167326667Y-144006191D01*
X166945715Y-144006191D01*
X167898096Y-143577620D02*
X167945715Y-143530001D01*
X168040953Y-143482381D01*
X168279048Y-143482381D01*
X168374286Y-143530001D01*
X168421905Y-143577620D01*
X168469524Y-143672858D01*
X168469524Y-143768096D01*
X168421905Y-143910953D01*
X167850477Y-144482381D01*
X168469524Y-144482381D01*
X168850477Y-143577620D02*
X168898096Y-143530001D01*
X168993334Y-143482381D01*
X169231429Y-143482381D01*
X169326667Y-143530001D01*
X169374286Y-143577620D01*
X169421905Y-143672858D01*
X169421905Y-143768096D01*
X169374286Y-143910953D01*
X168802858Y-144482381D01*
X169421905Y-144482381D01*
X137782143Y-157262381D02*
X137448810Y-156786191D01*
X137210715Y-157262381D02*
X137210715Y-156262381D01*
X137591667Y-156262381D01*
X137686905Y-156310001D01*
X137734524Y-156357620D01*
X137782143Y-156452858D01*
X137782143Y-156595715D01*
X137734524Y-156690953D01*
X137686905Y-156738572D01*
X137591667Y-156786191D01*
X137210715Y-156786191D01*
X138163096Y-156357620D02*
X138210715Y-156310001D01*
X138305953Y-156262381D01*
X138544048Y-156262381D01*
X138639286Y-156310001D01*
X138686905Y-156357620D01*
X138734524Y-156452858D01*
X138734524Y-156548096D01*
X138686905Y-156690953D01*
X138115477Y-157262381D01*
X138734524Y-157262381D01*
X139067858Y-156262381D02*
X139686905Y-156262381D01*
X139353572Y-156643334D01*
X139496429Y-156643334D01*
X139591667Y-156690953D01*
X139639286Y-156738572D01*
X139686905Y-156833810D01*
X139686905Y-157071905D01*
X139639286Y-157167143D01*
X139591667Y-157214762D01*
X139496429Y-157262381D01*
X139210715Y-157262381D01*
X139115477Y-157214762D01*
X139067858Y-157167143D01*
X102693096Y-178542381D02*
X102693096Y-179351905D01*
X102740715Y-179447143D01*
X102788334Y-179494762D01*
X102883572Y-179542381D01*
X103074048Y-179542381D01*
X103169286Y-179494762D01*
X103216905Y-179447143D01*
X103264524Y-179351905D01*
X103264524Y-178542381D01*
X104264524Y-179542381D02*
X103693096Y-179542381D01*
X103978810Y-179542381D02*
X103978810Y-178542381D01*
X103883572Y-178685239D01*
X103788334Y-178780477D01*
X103693096Y-178828096D01*
X35733095Y-76097380D02*
X35733095Y-76906904D01*
X35780714Y-77002142D01*
X35828333Y-77049761D01*
X35923571Y-77097380D01*
X36114047Y-77097380D01*
X36209285Y-77049761D01*
X36256904Y-77002142D01*
X36304523Y-76906904D01*
X36304523Y-76097380D01*
X36733095Y-76192619D02*
X36780714Y-76145000D01*
X36875952Y-76097380D01*
X37114047Y-76097380D01*
X37209285Y-76145000D01*
X37256904Y-76192619D01*
X37304523Y-76287857D01*
X37304523Y-76383095D01*
X37256904Y-76525952D01*
X36685476Y-77097380D01*
X37304523Y-77097380D01*
X196338095Y-82177380D02*
X196338095Y-82986904D01*
X196385714Y-83082142D01*
X196433333Y-83129761D01*
X196528571Y-83177380D01*
X196719047Y-83177380D01*
X196814285Y-83129761D01*
X196861904Y-83082142D01*
X196909523Y-82986904D01*
X196909523Y-82177380D01*
X197290476Y-82177380D02*
X197909523Y-82177380D01*
X197576190Y-82558333D01*
X197719047Y-82558333D01*
X197814285Y-82605952D01*
X197861904Y-82653571D01*
X197909523Y-82748809D01*
X197909523Y-82986904D01*
X197861904Y-83082142D01*
X197814285Y-83129761D01*
X197719047Y-83177380D01*
X197433333Y-83177380D01*
X197338095Y-83129761D01*
X197290476Y-83082142D01*
X91963096Y-162952381D02*
X91963096Y-163761905D01*
X92010715Y-163857143D01*
X92058334Y-163904762D01*
X92153572Y-163952381D01*
X92344048Y-163952381D01*
X92439286Y-163904762D01*
X92486905Y-163857143D01*
X92534524Y-163761905D01*
X92534524Y-162952381D01*
X93439286Y-163285715D02*
X93439286Y-163952381D01*
X93201191Y-162904762D02*
X92963096Y-163619048D01*
X93582143Y-163619048D01*
X156388096Y-72717381D02*
X156388096Y-73526905D01*
X156435715Y-73622143D01*
X156483334Y-73669762D01*
X156578572Y-73717381D01*
X156769048Y-73717381D01*
X156864286Y-73669762D01*
X156911905Y-73622143D01*
X156959524Y-73526905D01*
X156959524Y-72717381D01*
X157911905Y-72717381D02*
X157435715Y-72717381D01*
X157388096Y-73193572D01*
X157435715Y-73145953D01*
X157530953Y-73098334D01*
X157769048Y-73098334D01*
X157864286Y-73145953D01*
X157911905Y-73193572D01*
X157959524Y-73288810D01*
X157959524Y-73526905D01*
X157911905Y-73622143D01*
X157864286Y-73669762D01*
X157769048Y-73717381D01*
X157530953Y-73717381D01*
X157435715Y-73669762D01*
X157388096Y-73622143D01*
X130488095Y-76077380D02*
X130488095Y-76886904D01*
X130535714Y-76982142D01*
X130583333Y-77029761D01*
X130678571Y-77077380D01*
X130869047Y-77077380D01*
X130964285Y-77029761D01*
X131011904Y-76982142D01*
X131059523Y-76886904D01*
X131059523Y-76077380D01*
X131964285Y-76077380D02*
X131773809Y-76077380D01*
X131678571Y-76125000D01*
X131630952Y-76172619D01*
X131535714Y-76315476D01*
X131488095Y-76505952D01*
X131488095Y-76886904D01*
X131535714Y-76982142D01*
X131583333Y-77029761D01*
X131678571Y-77077380D01*
X131869047Y-77077380D01*
X131964285Y-77029761D01*
X132011904Y-76982142D01*
X132059523Y-76886904D01*
X132059523Y-76648809D01*
X132011904Y-76553571D01*
X131964285Y-76505952D01*
X131869047Y-76458333D01*
X131678571Y-76458333D01*
X131583333Y-76505952D01*
X131535714Y-76553571D01*
X131488095Y-76648809D01*
X134938095Y-173777380D02*
X134938095Y-174586904D01*
X134985714Y-174682142D01*
X135033333Y-174729761D01*
X135128571Y-174777380D01*
X135319047Y-174777380D01*
X135414285Y-174729761D01*
X135461904Y-174682142D01*
X135509523Y-174586904D01*
X135509523Y-173777380D01*
X135890476Y-173777380D02*
X136557142Y-173777380D01*
X136128571Y-174777380D01*
X107913096Y-162692381D02*
X107913096Y-163501905D01*
X107960715Y-163597143D01*
X108008334Y-163644762D01*
X108103572Y-163692381D01*
X108294048Y-163692381D01*
X108389286Y-163644762D01*
X108436905Y-163597143D01*
X108484524Y-163501905D01*
X108484524Y-162692381D01*
X109103572Y-163120953D02*
X109008334Y-163073334D01*
X108960715Y-163025715D01*
X108913096Y-162930477D01*
X108913096Y-162882858D01*
X108960715Y-162787620D01*
X109008334Y-162740001D01*
X109103572Y-162692381D01*
X109294048Y-162692381D01*
X109389286Y-162740001D01*
X109436905Y-162787620D01*
X109484524Y-162882858D01*
X109484524Y-162930477D01*
X109436905Y-163025715D01*
X109389286Y-163073334D01*
X109294048Y-163120953D01*
X109103572Y-163120953D01*
X109008334Y-163168572D01*
X108960715Y-163216191D01*
X108913096Y-163311429D01*
X108913096Y-163501905D01*
X108960715Y-163597143D01*
X109008334Y-163644762D01*
X109103572Y-163692381D01*
X109294048Y-163692381D01*
X109389286Y-163644762D01*
X109436905Y-163597143D01*
X109484524Y-163501905D01*
X109484524Y-163311429D01*
X109436905Y-163216191D01*
X109389286Y-163168572D01*
X109294048Y-163120953D01*
X123063095Y-48677380D02*
X123063095Y-49486904D01*
X123110714Y-49582142D01*
X123158333Y-49629761D01*
X123253571Y-49677380D01*
X123444047Y-49677380D01*
X123539285Y-49629761D01*
X123586904Y-49582142D01*
X123634523Y-49486904D01*
X123634523Y-48677380D01*
X124158333Y-49677380D02*
X124348809Y-49677380D01*
X124444047Y-49629761D01*
X124491666Y-49582142D01*
X124586904Y-49439285D01*
X124634523Y-49248809D01*
X124634523Y-48867857D01*
X124586904Y-48772619D01*
X124539285Y-48725000D01*
X124444047Y-48677380D01*
X124253571Y-48677380D01*
X124158333Y-48725000D01*
X124110714Y-48772619D01*
X124063095Y-48867857D01*
X124063095Y-49105952D01*
X124110714Y-49201190D01*
X124158333Y-49248809D01*
X124253571Y-49296428D01*
X124444047Y-49296428D01*
X124539285Y-49248809D01*
X124586904Y-49201190D01*
X124634523Y-49105952D01*
X102216905Y-172092381D02*
X102216905Y-172901905D01*
X102264524Y-172997143D01*
X102312143Y-173044762D01*
X102407381Y-173092381D01*
X102597858Y-173092381D01*
X102693096Y-173044762D01*
X102740715Y-172997143D01*
X102788334Y-172901905D01*
X102788334Y-172092381D01*
X103788334Y-173092381D02*
X103216905Y-173092381D01*
X103502620Y-173092381D02*
X103502620Y-172092381D01*
X103407381Y-172235239D01*
X103312143Y-172330477D01*
X103216905Y-172378096D01*
X104407381Y-172092381D02*
X104502620Y-172092381D01*
X104597858Y-172140001D01*
X104645477Y-172187620D01*
X104693096Y-172282858D01*
X104740715Y-172473334D01*
X104740715Y-172711429D01*
X104693096Y-172901905D01*
X104645477Y-172997143D01*
X104597858Y-173044762D01*
X104502620Y-173092381D01*
X104407381Y-173092381D01*
X104312143Y-173044762D01*
X104264524Y-172997143D01*
X104216905Y-172901905D01*
X104169286Y-172711429D01*
X104169286Y-172473334D01*
X104216905Y-172282858D01*
X104264524Y-172187620D01*
X104312143Y-172140001D01*
X104407381Y-172092381D01*
X91486905Y-179292381D02*
X91486905Y-180101905D01*
X91534524Y-180197143D01*
X91582143Y-180244762D01*
X91677381Y-180292381D01*
X91867858Y-180292381D01*
X91963096Y-180244762D01*
X92010715Y-180197143D01*
X92058334Y-180101905D01*
X92058334Y-179292381D01*
X93058334Y-180292381D02*
X92486905Y-180292381D01*
X92772620Y-180292381D02*
X92772620Y-179292381D01*
X92677381Y-179435239D01*
X92582143Y-179530477D01*
X92486905Y-179578096D01*
X94010715Y-180292381D02*
X93439286Y-180292381D01*
X93725001Y-180292381D02*
X93725001Y-179292381D01*
X93629762Y-179435239D01*
X93534524Y-179530477D01*
X93439286Y-179578096D01*
X150961904Y-113427380D02*
X150961904Y-114236904D01*
X151009523Y-114332142D01*
X151057142Y-114379761D01*
X151152380Y-114427380D01*
X151342857Y-114427380D01*
X151438095Y-114379761D01*
X151485714Y-114332142D01*
X151533333Y-114236904D01*
X151533333Y-113427380D01*
X152533333Y-114427380D02*
X151961904Y-114427380D01*
X152247619Y-114427380D02*
X152247619Y-113427380D01*
X152152380Y-113570238D01*
X152057142Y-113665476D01*
X151961904Y-113713095D01*
X152914285Y-113522619D02*
X152961904Y-113475000D01*
X153057142Y-113427380D01*
X153295238Y-113427380D01*
X153390476Y-113475000D01*
X153438095Y-113522619D01*
X153485714Y-113617857D01*
X153485714Y-113713095D01*
X153438095Y-113855952D01*
X152866666Y-114427380D01*
X153485714Y-114427380D01*
X181936904Y-114352380D02*
X181936904Y-115161904D01*
X181984523Y-115257142D01*
X182032142Y-115304761D01*
X182127380Y-115352380D01*
X182317857Y-115352380D01*
X182413095Y-115304761D01*
X182460714Y-115257142D01*
X182508333Y-115161904D01*
X182508333Y-114352380D01*
X183508333Y-115352380D02*
X182936904Y-115352380D01*
X183222619Y-115352380D02*
X183222619Y-114352380D01*
X183127380Y-114495238D01*
X183032142Y-114590476D01*
X182936904Y-114638095D01*
X183841666Y-114352380D02*
X184460714Y-114352380D01*
X184127380Y-114733333D01*
X184270238Y-114733333D01*
X184365476Y-114780952D01*
X184413095Y-114828571D01*
X184460714Y-114923809D01*
X184460714Y-115161904D01*
X184413095Y-115257142D01*
X184365476Y-115304761D01*
X184270238Y-115352380D01*
X183984523Y-115352380D01*
X183889285Y-115304761D01*
X183841666Y-115257142D01*
X179761904Y-60827380D02*
X179761904Y-61636904D01*
X179809523Y-61732142D01*
X179857142Y-61779761D01*
X179952380Y-61827380D01*
X180142857Y-61827380D01*
X180238095Y-61779761D01*
X180285714Y-61732142D01*
X180333333Y-61636904D01*
X180333333Y-60827380D01*
X181333333Y-61827380D02*
X180761904Y-61827380D01*
X181047619Y-61827380D02*
X181047619Y-60827380D01*
X180952380Y-60970238D01*
X180857142Y-61065476D01*
X180761904Y-61113095D01*
X182190476Y-61160714D02*
X182190476Y-61827380D01*
X181952380Y-60779761D02*
X181714285Y-61494047D01*
X182333333Y-61494047D01*
X96086905Y-163102381D02*
X96086905Y-163911905D01*
X96134524Y-164007143D01*
X96182143Y-164054762D01*
X96277381Y-164102381D01*
X96467858Y-164102381D01*
X96563096Y-164054762D01*
X96610715Y-164007143D01*
X96658334Y-163911905D01*
X96658334Y-163102381D01*
X97658334Y-164102381D02*
X97086905Y-164102381D01*
X97372620Y-164102381D02*
X97372620Y-163102381D01*
X97277381Y-163245239D01*
X97182143Y-163340477D01*
X97086905Y-163388096D01*
X98563096Y-163102381D02*
X98086905Y-163102381D01*
X98039286Y-163578572D01*
X98086905Y-163530953D01*
X98182143Y-163483334D01*
X98420239Y-163483334D01*
X98515477Y-163530953D01*
X98563096Y-163578572D01*
X98610715Y-163673810D01*
X98610715Y-163911905D01*
X98563096Y-164007143D01*
X98515477Y-164054762D01*
X98420239Y-164102381D01*
X98182143Y-164102381D01*
X98086905Y-164054762D01*
X98039286Y-164007143D01*
X167211905Y-74127381D02*
X167211905Y-74936905D01*
X167259524Y-75032143D01*
X167307143Y-75079762D01*
X167402381Y-75127381D01*
X167592858Y-75127381D01*
X167688096Y-75079762D01*
X167735715Y-75032143D01*
X167783334Y-74936905D01*
X167783334Y-74127381D01*
X168783334Y-75127381D02*
X168211905Y-75127381D01*
X168497620Y-75127381D02*
X168497620Y-74127381D01*
X168402381Y-74270239D01*
X168307143Y-74365477D01*
X168211905Y-74413096D01*
X169640477Y-74127381D02*
X169450001Y-74127381D01*
X169354762Y-74175001D01*
X169307143Y-74222620D01*
X169211905Y-74365477D01*
X169164286Y-74555953D01*
X169164286Y-74936905D01*
X169211905Y-75032143D01*
X169259524Y-75079762D01*
X169354762Y-75127381D01*
X169545239Y-75127381D01*
X169640477Y-75079762D01*
X169688096Y-75032143D01*
X169735715Y-74936905D01*
X169735715Y-74698810D01*
X169688096Y-74603572D01*
X169640477Y-74555953D01*
X169545239Y-74508334D01*
X169354762Y-74508334D01*
X169259524Y-74555953D01*
X169211905Y-74603572D01*
X169164286Y-74698810D01*
X157361905Y-79067381D02*
X157361905Y-79876905D01*
X157409524Y-79972143D01*
X157457143Y-80019762D01*
X157552381Y-80067381D01*
X157742858Y-80067381D01*
X157838096Y-80019762D01*
X157885715Y-79972143D01*
X157933334Y-79876905D01*
X157933334Y-79067381D01*
X158933334Y-80067381D02*
X158361905Y-80067381D01*
X158647620Y-80067381D02*
X158647620Y-79067381D01*
X158552381Y-79210239D01*
X158457143Y-79305477D01*
X158361905Y-79353096D01*
X159266667Y-79067381D02*
X159933334Y-79067381D01*
X159504762Y-80067381D01*
X94065477Y-172192381D02*
X94732143Y-173192381D01*
X94732143Y-172192381D02*
X94065477Y-173192381D01*
X95636905Y-173192381D02*
X95065477Y-173192381D01*
X95351191Y-173192381D02*
X95351191Y-172192381D01*
X95255953Y-172335239D01*
X95160715Y-172430477D01*
X95065477Y-172478096D01*
M02*
