G04 #@! TF.GenerationSoftware,KiCad,Pcbnew,(5.1.2)-1*
G04 #@! TF.CreationDate,2019-05-23T20:14:09-05:00*
G04 #@! TF.ProjectId,m68k,6d36386b-2e6b-4696-9361-645f70636258,rev?*
G04 #@! TF.SameCoordinates,Original*
G04 #@! TF.FileFunction,Profile,NP*
%FSLAX46Y46*%
G04 Gerber Fmt 4.6, Leading zero omitted, Abs format (unit mm)*
G04 Created by KiCad (PCBNEW (5.1.2)-1) date 2019-05-23 20:14:09*
%MOMM*%
%LPD*%
G04 APERTURE LIST*
%ADD10C,0.050000*%
%ADD11C,0.100000*%
G04 APERTURE END LIST*
D10*
X120000000Y-117500000D02*
G75*
G02X117500000Y-120000000I-2500000J0D01*
G01*
X117500000Y-20000000D02*
G75*
G02X120000000Y-22500000I0J-2500000D01*
G01*
X20000000Y-22500000D02*
G75*
G02X22500000Y-20000000I2500000J0D01*
G01*
X22500000Y-120000000D02*
G75*
G02X20000000Y-117500000I0J2500000D01*
G01*
X117500000Y-20000000D02*
X22500000Y-20000000D01*
X120000000Y-117500000D02*
X120000000Y-22500000D01*
X20000000Y-117500000D02*
X20000000Y-22500000D01*
X117500000Y-120000000D02*
X22500000Y-120000000D01*
D11*
X99275000Y-109503000D02*
X101475000Y-109503000D01*
X99275000Y-110203000D02*
X99275000Y-109503000D01*
X101475000Y-110203000D02*
X99275000Y-110203000D01*
X101475000Y-109503000D02*
X101475000Y-110203000D01*
D10*
X95185511Y-106986011D02*
X94852178Y-106986011D01*
X94852178Y-107509820D02*
X94852178Y-106509820D01*
X95328369Y-106509820D01*
X96280750Y-107509820D02*
X95947416Y-107033630D01*
X95709321Y-107509820D02*
X95709321Y-106509820D01*
X96090273Y-106509820D01*
X96185511Y-106557440D01*
X96233130Y-106605059D01*
X96280750Y-106700297D01*
X96280750Y-106843154D01*
X96233130Y-106938392D01*
X96185511Y-106986011D01*
X96090273Y-107033630D01*
X95709321Y-107033630D01*
X96899797Y-106509820D02*
X97090273Y-106509820D01*
X97185511Y-106557440D01*
X97280750Y-106652678D01*
X97328369Y-106843154D01*
X97328369Y-107176487D01*
X97280750Y-107366963D01*
X97185511Y-107462201D01*
X97090273Y-107509820D01*
X96899797Y-107509820D01*
X96804559Y-107462201D01*
X96709321Y-107366963D01*
X96661702Y-107176487D01*
X96661702Y-106843154D01*
X96709321Y-106652678D01*
X96804559Y-106557440D01*
X96899797Y-106509820D01*
X97756940Y-107509820D02*
X97756940Y-106509820D01*
X98328369Y-107509820D01*
X98328369Y-106509820D01*
X98661702Y-106509820D02*
X99233130Y-106509820D01*
X98947416Y-107509820D02*
X98947416Y-106509820D01*
X99328369Y-106272440D02*
X100328369Y-106272440D01*
X99566464Y-107509820D02*
X99566464Y-106509820D01*
X99947416Y-106509820D01*
X100042654Y-106557440D01*
X100090273Y-106605059D01*
X100137892Y-106700297D01*
X100137892Y-106843154D01*
X100090273Y-106938392D01*
X100042654Y-106986011D01*
X99947416Y-107033630D01*
X99566464Y-107033630D01*
X100328369Y-106272440D02*
X101185511Y-106272440D01*
X100518845Y-107224106D02*
X100995035Y-107224106D01*
X100423607Y-107509820D02*
X100756940Y-106509820D01*
X101090273Y-107509820D01*
X101185511Y-106272440D02*
X102233130Y-106272440D01*
X101423607Y-107509820D02*
X101423607Y-106509820D01*
X101995035Y-107509820D01*
X101995035Y-106509820D01*
X102233130Y-106272440D02*
X103137892Y-106272440D01*
X102471226Y-106986011D02*
X102804559Y-106986011D01*
X102947416Y-107509820D02*
X102471226Y-107509820D01*
X102471226Y-106509820D01*
X102947416Y-106509820D01*
X103137892Y-106272440D02*
X103947416Y-106272440D01*
X103852178Y-107509820D02*
X103375988Y-107509820D01*
X103375988Y-106509820D01*
M02*
