M48
; DRILL file {KiCad (5.1.2)-1} date 5/23/2019 20:14:25
; FORMAT={-:-/ absolute / inch / decimal}
; #@! TF.CreationDate,2019-05-23T20:14:25-05:00
; #@! TF.GenerationSoftware,Kicad,Pcbnew,(5.1.2)-1
; #@! TF.FileFunction,Plated,1,2,PTH
FMAT,2
INCH
T1C0.0118
T2C0.0197
T3C0.0217
T4C0.0276
T5C0.0315
T6C0.0354
T7C0.0394
T8C0.0866
T9C0.0984
T10C0.1260
%
G90
G05
T1
X0.9823Y-1.3878
X1.002Y-1.3583
X1.0217Y-1.3316
X1.1299Y-1.437
X1.1496Y-1.4665
X1.1693Y-1.4961
X1.189Y-1.5256
X1.2303Y-3.376
X1.25Y-3.2776
X1.2579Y-0.8169
X1.2588Y-1.0267
X1.2588Y-1.2137
X1.2707Y-1.4075
X1.2707Y-3.1693
X1.288Y-1.2158
X1.2884Y-1.0284
X1.311Y-1.4291
X1.3268Y-1.5748
X1.3268Y-1.6732
X1.3268Y-1.7717
X1.3268Y-1.8701
X1.3366Y-0.8366
X1.3386Y-1.0267
X1.3386Y-1.2137
X1.3386Y-1.4075
X1.3878Y-0.935
X1.3878Y-1.122
X1.3878Y-1.3091
X1.4291Y-3.1752
X1.4646Y-1.1024
X1.4862Y-0.8434
X1.5453Y-1.378
X1.624Y-3.7697
X1.6535Y-0.9252
X1.6634Y-3.8681
X1.7028Y-3.9665
X1.7421Y-4.0748
X1.7815Y-4.1732
X1.8209Y-4.2717
X1.8602Y-4.3559
X2.2638Y-0.8878
X2.2812Y-2.3843
X2.2835Y-2.4409
X2.3819Y-0.9252
X2.3819Y-2.2244
X2.4114Y-3.5728
X2.4213Y-0.8366
X2.5Y-2.5787
X2.5098Y-2.3622
X2.5098Y-3.4744
X2.5394Y-2.3622
X2.5689Y-2.3622
X2.5866Y-3.1654
X2.5886Y-2.4016
X2.5984Y-2.3622
X2.628Y-2.3622
X2.6401Y-3.0615
X2.6673Y-2.3228
X2.6673Y-3.2677
X2.6969Y-2.3622
X2.6969Y-2.4409
X2.7264Y-2.4705
X2.7264Y-2.687
X2.7552Y-2.4688
X2.7756Y-2.3425
X2.7756Y-2.4213
X2.7756Y-2.7756
X2.7953Y-2.874
X2.8051Y-2.3622
X2.8231Y-2.4294
X2.8433Y-2.4496
X2.8445Y-2.8051
X2.8637Y-2.4697
X2.874Y-2.8051
X2.8819Y-2.0669
X2.8839Y-2.185
X2.8839Y-2.2441
X2.8839Y-2.7756
X2.8937Y-2.5
X2.9035Y-2.9035
X2.9035Y-3.1102
X2.9193Y-2.7756
X2.9429Y-1.6142
X2.9429Y-2.687
X2.9724Y-1.4961
X2.9724Y-1.9193
X2.9823Y-0.9252
X2.9831Y-2.7568
X2.9921Y-2.4803
X3.0118Y-1.6437
X3.0118Y-2.5394
X3.0215Y-2.7446
X3.0217Y-1.1811
X3.0217Y-2.3425
X3.032Y-1.6639
X3.0512Y-2.3622
X3.0523Y-1.6842
X3.0591Y-2.185
X3.0719Y-0.9252
X3.0787Y-2.5768
X3.0807Y-1.5059
X3.0906Y-1.6437
X3.0906Y-2.3917
X3.1004Y-0.9055
X3.1004Y-1.1811
X3.1108Y-1.6639
X3.1195Y-2.7663
X3.124Y-3.0787
X3.131Y-1.6842
X3.1339Y-4.0965
X3.1339Y-4.0965
X3.1398Y-2.7461
X3.1513Y-1.7044
X3.1614Y-2.813
X3.1772Y-2.2343
X3.1772Y-2.3917
X3.1791Y-1.752
X3.1791Y-2.4803
X3.1791Y-2.6496
X3.1795Y-1.3976
X3.2283Y-1.6437
X3.2382Y-1.5256
X3.2677Y-1.6437
X3.2724Y-1.1033
X3.2724Y-1.4478
X3.2776Y-1.0039
X3.2776Y-1.0531
X3.2776Y-1.3976
X3.2776Y-1.7717
X3.2782Y-0.9532
X3.2795Y-1.3489
X3.2795Y-1.2977
X3.2937Y-1.4247
X3.2972Y-2.2146
X3.2972Y-2.3622
X3.2979Y-1.0849
X3.2998Y-0.9817
X3.2998Y-1.0309
X3.2998Y-1.3754
X3.3003Y-3.0846
X3.3003Y-1.3253
X3.301Y-0.931
X3.301Y-1.2106
X3.3012Y-3.2736
X3.3015Y-1.2751
X3.3031Y-2.5768
X3.3071Y-1.7224
X3.313Y-2.6496
X3.315Y-3.1142
X3.3366Y-3.3051
X3.3386Y-3.4606
X3.3396Y-1.2106
X3.3465Y-2.3622
X3.3465Y-2.3917
X3.3563Y-2.8642
X3.3563Y-0.8563
X3.3563Y-2.2146
X3.3661Y-1.7224
X3.376Y-2.3917
X3.3937Y-2.4803
X3.3937Y-2.9665
X3.3957Y-1.3189
X3.3957Y-1.7717
X3.4055Y-1.6437
X3.415Y-1.4668
X3.4547Y-2.3917
X3.4724Y-2.185
X3.4724Y-3.4272
X3.4724Y-3.4665
X3.4744Y-1.3976
X3.4764Y-3.3307
X3.4941Y-1.7717
X3.5236Y-2.8012
X3.5295Y-3.4547
X3.5315Y-2.6988
X3.5324Y-2.5669
X3.5374Y-3.7244
X3.5531Y-2.3917
X3.5571Y-3.622
X3.565Y-2.9469
X3.5728Y-3.6929
X3.5886Y-2.9075
X3.5984Y-3.9547
X3.6004Y-2.5689
X3.6122Y-3.5925
X3.6201Y-2.0768
X3.6201Y-2.3819
X3.6269Y-2.8012
X3.628Y-2.6988
X3.63Y-3.4618
X3.6516Y-3.1555
X3.6573Y-2.5041
X3.6575Y-2.9862
X3.6713Y-1.2106
X3.6713Y-2.7461
X3.6723Y-1.5453
X3.6791Y-2.3819
X3.6806Y-2.0782
X3.6811Y-1.8307
X3.6811Y-1.9882
X3.7047Y-3.1378
X3.7072Y-2.7326
X3.7087Y-2.6063
X3.7106Y-1.7992
X3.7205Y-1.6732
X3.7402Y-2.8839
X3.748Y-3.2046
X3.7618Y-2.689
X3.7638Y-4.4232
X3.7736Y-2.4705
X3.7756Y-3.3327
X3.7795Y-2.9744
X3.8051Y-3.315
X3.806Y-3.3862
X3.8071Y-3.0197
X3.8169Y-1.6437
X3.8169Y-1.9882
X3.8169Y-3.5866
X3.8445Y-2.7815
X3.878Y-2.7362
X3.8839Y-2.1052
X3.9067Y-3.49
X3.9213Y-2.5984
X3.9213Y-3.2559
X3.9232Y-2.0472
X3.9724Y-3.0059
X3.9744Y-2.9429
X4.0086Y-2.613
X4.0098Y-3.0866
X4.0138Y-3.4232
X4.0177Y-1.9567
X4.0276Y-2.25
X4.0433Y-3.0315
X4.0551Y-2.7815
X4.0723Y-1.7821
X4.0847Y-1.9958
X4.0994Y-2.2004
X4.1161Y-3.3465
X4.1299Y-3.2421
X4.1378Y-2.2008
X4.187Y-3.3602
X4.189Y-3.0728
X4.2047Y-1.9941
X4.2224Y-2.2008
X4.2323Y-4.3996
X4.2395Y-1.9934
X4.2397Y-1.8651
X4.2756Y-4.311
X4.277Y-2.127
X4.284Y-2.092
X4.2854Y-2.0413
X4.3209Y-3.4055
X4.3327Y-1.6831
X4.3366Y-3.7382
X4.3622Y-2.2421
X4.378Y-3.6909
X4.3917Y-1.1004
X4.3917Y-1.8228
X4.3956Y-1.9761
X4.4134Y-2.1024
X4.4173Y-2.0472
X4.4173Y-2.1752
X4.4567Y-4.002
X4.5098Y-4.0709
X4.5394Y-1.8189
X4.5433Y-1.9744
X4.5991Y-3.5426
X4.628Y-4.0217
T4
X3.9518Y-4.3249
T5
X1.1472Y-1.5752
X1.1472Y-1.6752
X1.1472Y-1.7752
X1.1472Y-1.8752
X1.1472Y-1.9752
X1.1472Y-2.0752
X1.1472Y-2.1752
X1.1472Y-2.2752
X1.1472Y-2.3752
X1.1472Y-2.4752
X1.1472Y-2.5752
X1.1472Y-2.6752
X1.1472Y-2.7752
X1.1472Y-2.8752
X1.1472Y-2.9752
X1.1472Y-3.0752
X1.1472Y-3.1752
X1.1472Y-3.2752
X1.1472Y-3.3752
X1.1472Y-3.4752
X1.1472Y-3.5752
X1.1472Y-3.6752
X1.1472Y-3.7752
X1.1472Y-3.8752
X1.1472Y-3.9752
X1.1472Y-4.0752
X1.1472Y-4.1752
X1.1472Y-4.2752
X1.1472Y-4.3752
X1.1472Y-4.4752
X1.1472Y-4.5752
X1.1472Y-4.6752
X2.0472Y-1.5752
X2.0472Y-1.6752
X2.0472Y-1.7752
X2.0472Y-1.8752
X2.0472Y-1.9752
X2.0472Y-2.0752
X2.0472Y-2.1752
X2.0472Y-2.2752
X2.0472Y-2.3752
X2.0472Y-2.4752
X2.0472Y-2.5752
X2.0472Y-2.6752
X2.0472Y-2.7752
X2.0472Y-2.8752
X2.0472Y-2.9752
X2.0472Y-3.0752
X2.0472Y-3.1752
X2.0472Y-3.2752
X2.0472Y-3.3752
X2.0472Y-3.4752
X2.0472Y-3.5752
X2.0472Y-3.6752
X2.0472Y-3.7752
X2.0472Y-3.8752
X2.0472Y-3.9752
X2.0472Y-4.0752
X2.0472Y-4.1752
X2.0472Y-4.2752
X2.0472Y-4.3752
X2.0472Y-4.4752
X2.0472Y-4.5752
X2.0472Y-4.6752
T6
X3.8179Y-4.4745
X3.8179Y-4.573
X3.9006Y-4.4745
X4.003Y-4.4745
X4.0856Y-4.4745
X4.0856Y-4.573
T7
X3.9116Y-1.0047
X3.9567Y-0.9268
X3.9567Y-1.0827
X4.0018Y-1.0047
X4.0469Y-0.9268
X4.0469Y-1.0827
X4.0919Y-1.0047
X4.137Y-0.9268
X4.137Y-1.0827
X4.1821Y-1.0047
X4.2272Y-0.9268
X4.2272Y-1.0827
X4.2722Y-1.0047
X4.3173Y-0.9268
X4.3173Y-1.0827
T8
X4.3484Y-4.622
T9
X0.9173Y-4.5886
X0.9114Y-0.9154
X4.5925Y-1.3189
T10
X3.6344Y-1.002
X4.6187Y-1.002
T2
G00X4.6229Y-3.1378
M15
G01X4.5974Y-3.1378
M16
G05
G00X4.6229Y-3.4134
M15
G01X4.5974Y-3.4134
M16
G05
T3
G00X4.5039Y-3.1831
M15
G01X4.5039Y-3.1713
M16
G05
G00X4.5039Y-3.3799
M15
G01X4.5039Y-3.3681
M16
G05
T0
M30
