G04 #@! TF.GenerationSoftware,KiCad,Pcbnew,(5.1.2)-1*
G04 #@! TF.CreationDate,2019-05-19T18:00:29-05:00*
G04 #@! TF.ProjectId,m68k,6d36386b-2e6b-4696-9361-645f70636258,rev?*
G04 #@! TF.SameCoordinates,Original*
G04 #@! TF.FileFunction,Copper,L2,Bot*
G04 #@! TF.FilePolarity,Positive*
%FSLAX46Y46*%
G04 Gerber Fmt 4.6, Leading zero omitted, Abs format (unit mm)*
G04 Created by KiCad (PCBNEW (5.1.2)-1) date 2019-05-19 18:00:29*
%MOMM*%
%LPD*%
G04 APERTURE LIST*
%ADD10O,1.000000X1.550000*%
%ADD11O,1.250000X0.950000*%
%ADD12C,4.000000*%
%ADD13C,1.600000*%
%ADD14R,1.600000X1.600000*%
%ADD15O,2.400000X1.600000*%
%ADD16R,2.400000X1.600000*%
G04 APERTURE END LIST*
D10*
X122750001Y-87455001D03*
X115750001Y-87455001D03*
D11*
X121750001Y-84755001D03*
X116750001Y-84755001D03*
D12*
X232980000Y-68695000D03*
X207980000Y-68695000D03*
D13*
X215635000Y-70605000D03*
X217925000Y-70605000D03*
X220215000Y-70605000D03*
X222505000Y-70605000D03*
X224795000Y-70605000D03*
X216780000Y-68625000D03*
X219070000Y-68625000D03*
X221360000Y-68625000D03*
X223650000Y-68625000D03*
X225940000Y-68625000D03*
X215635000Y-66645000D03*
X217925000Y-66645000D03*
X220215000Y-66645000D03*
X222505000Y-66645000D03*
D14*
X224795000Y-66645000D03*
D15*
X44115000Y-78975000D03*
X28875000Y-157715000D03*
X44115000Y-81515000D03*
X28875000Y-155175000D03*
X44115000Y-84055000D03*
X28875000Y-152635000D03*
X44115000Y-86595000D03*
X28875000Y-150095000D03*
X44115000Y-89135000D03*
X28875000Y-147555000D03*
X44115000Y-91675000D03*
X28875000Y-145015000D03*
X44115000Y-94215000D03*
X28875000Y-142475000D03*
X44115000Y-96755000D03*
X28875000Y-139935000D03*
X44115000Y-99295000D03*
X28875000Y-137395000D03*
X44115000Y-101835000D03*
X28875000Y-134855000D03*
X44115000Y-104375000D03*
X28875000Y-132315000D03*
X44115000Y-106915000D03*
X28875000Y-129775000D03*
X44115000Y-109455000D03*
X28875000Y-127235000D03*
X44115000Y-111995000D03*
X28875000Y-124695000D03*
X44115000Y-114535000D03*
X28875000Y-122155000D03*
X44115000Y-117075000D03*
X28875000Y-119615000D03*
X44115000Y-119615000D03*
X28875000Y-117075000D03*
X44115000Y-122155000D03*
X28875000Y-114535000D03*
X44115000Y-124695000D03*
X28875000Y-111995000D03*
X44115000Y-127235000D03*
X28875000Y-109455000D03*
X44115000Y-129775000D03*
X28875000Y-106915000D03*
X44115000Y-132315000D03*
X28875000Y-104375000D03*
X44115000Y-134855000D03*
X28875000Y-101835000D03*
X44115000Y-137395000D03*
X28875000Y-99295000D03*
X44115000Y-139935000D03*
X28875000Y-96755000D03*
X44115000Y-142475000D03*
X28875000Y-94215000D03*
X44115000Y-145015000D03*
X28875000Y-91675000D03*
X44115000Y-147555000D03*
X28875000Y-89135000D03*
X44115000Y-150095000D03*
X28875000Y-86595000D03*
X44115000Y-152635000D03*
X28875000Y-84055000D03*
X44115000Y-155175000D03*
X28875000Y-81515000D03*
X44115000Y-157715000D03*
D16*
X28875000Y-78975000D03*
M02*
